<?xml version="1.0" encoding="UTF-8"?>
<svg id="Layer_1" data-name="Layer 1" xmlns="http://www.w3.org/2000/svg" viewBox="0 0 700 395">
  <defs>
    <style>
      .cls-1 {
        fill: #de5b48;
      }

      .cls-2 {
        fill: #16a992;
      }

      .cls-3 {
        fill: #efedea;
      }
    </style>
  </defs>
  <g>
    <circle class="cls-2" cx="234.18" cy="197.5" r="100"/>
    <g>
      <path class="cls-3" d="M278.52,197.99c4.6-1.08,8.04-5.2,8.04-10.13,0-5.62-4.46-10.19-10.04-10.39v-.04h-28.16s5.51-38.78-11.81-38.78c-11.22,2.56-4.99,17.85-9.06,26.91-5.69,11.54-11.38,15.18-13.6,16.22-.59.28-.97.86-.97,1.5v52.03c0,1.53,1.27,3.06,2.86,4.38,3.12,2.58,7.09,3.89,11.13,3.89h37.39c3.84-.09,6.93-3.23,6.93-7.09,0-2-.84-3.81-2.17-5.1,4.86-.24,8.74-4.24,8.74-9.16,0-2.62-1.1-4.98-2.86-6.65.13,0,.26.02.39.02,4.82,0,8.73-4.08,8.73-9.12,0-3.86-2.3-7.16-5.54-8.49Z"/>
      <rect class="cls-3" x="181.81" y="177.58" width="25.44" height="66" rx="3.31" ry="3.31"/>
    </g>
    <circle class="cls-1" cx="465.82" cy="197.5" r="100"/>
    <g>
      <path class="cls-3" d="M421.48,200.49c-4.6,1.08-8.04,5.2-8.04,10.13,0,5.62,4.46,10.19,10.04,10.39v.04h28.16s-5.51,38.78,11.81,38.78c11.22-2.56,4.99-17.85,9.06-26.91,5.69-11.54,11.38-15.18,13.6-16.22.59-.28.97-.86.97-1.5v-52.03c0-1.53-1.27-3.06-2.86-4.38-3.12-2.58-7.09-3.89-11.13-3.89h-37.39c-3.84.09-6.93,3.23-6.93,7.09,0,2,.84,3.81,2.17,5.1-4.86.24-8.74,4.24-8.74,9.16,0,2.62,1.1,4.98,2.86,6.65-.13,0-.26-.02-.39-.02-4.82,0-8.73,4.08-8.73,9.12,0,3.86,2.3,7.16,5.54,8.49Z"/>
      <rect class="cls-3" x="492.75" y="154.9" width="25.44" height="66" rx="3.31" ry="3.31"/>
    </g>
  </g>
</svg>