<?xml version="1.0" encoding="UTF-8"?>
<svg id="Layer_1" data-name="Layer 1" xmlns="http://www.w3.org/2000/svg" viewBox="0 0 700 395">
  <defs>
    <style>
      .cls-1 {
        fill: #e05b49;
      }

      .cls-2 {
        fill: #efedea;
      }

      .cls-3 {
        fill: #fff;
      }
    </style>
  </defs>
  <g>
    <path class="cls-3" d="M300.78,321.41c1.5-1.89,2.97-3.8,4.44-5.71,3.95-5.12,7.85-10.27,11.71-15.44,5.6-7.49,11.13-15.03,16.57-22.62,6.47-9.01,12.82-18.1,19.02-27.26,6.55-9.68,12.94-19.45,19.07-29.36,5.87-9.49,11.52-19.11,16.7-28.92,4.46-8.45,8.64-17.05,11.92-25.93,3.04-8.23,5.51-16.17,4-24.87-.63-3.65-1.33-7.25-2.34-10.84-4.04-14.35-10.84-28.06-19.18-40.78-.11-.17-.22-.34-.33-.5,22.05,46.12-107.62,191.73-107.62,191.73"/>
    <g>
      <path class="cls-1" d="M321.59,111.5c6.31-5.29,18.52-9.48,30.63-9.48,10.93,0,22.22,3.57,28.86,8.33,1.99-8.49,2.35-16.04.59-22.23-5.29-7.06-14.71-15.62-29.45-15.62s-23.75,8.03-29.19,14.95c-1.65,4.42-2.21,9.59-2.41,15.35-.09,2.52.26,5.45.98,8.7Z"/>
      <path class="cls-1" d="M317.06,192.9c3.96,7.33,5.37,10.22,9.72,17.36,7.53-10.3,14.77-20.53,21.79-31.43-19.14-29.18-31.51-53.66-31.51-68.59,0-7.79.7-14.54,3.91-19.88-8.71,13.24-14.68,27.08-19.54,41.75-3.87,11.7-1.06,23.53,3.27,34.73,3.45,8.92,7.78,17.57,12.36,26.06Z"/>
      <path class="cls-1" d="M378.25,221.97l-21.89,33.66c6.33,9.32,10.33,15.16,16.9,24.34,5.47,7.64,11.02,15.23,16.64,22.78,3.75,5.04,7.53,10.07,11.35,15.07,1.2,1.56,2.39,3.13,3.61,4.68l18.63-42.61s-20.47-23.56-45.24-57.93Z"/>
      <path class="cls-1" d="M375.47,217.02c4.75-7.84,9.33-15.76,13.58-23.83,4.46-8.45,8.64-17.05,11.92-25.93,3.04-8.23,5.51-16.17,4-24.87-.63-3.65-1.33-7.25-2.34-10.84-4.04-14.35-10.84-28.06-19.18-40.78-.11-.17-.22-.34-.33-.5,9.24,19.32-8.14,56.08-31.46,92.29-7.02,10.9-14.57,21.74-22.1,32.04-27.2,37.22-54.06,67.39-54.06,67.39l26.03,40.51c1.5-1.89,2.97-3.8,4.44-5.71,3.95-5.12,7.85-10.27,11.71-15.44,5.6-7.49,11.13-15.03,16.57-22.62,6.47-9.01,12.82-18.1,19.02-27.26.01-.02.03-.04.04-.07,6.54-9.66,12.91-19.41,19.02-29.3,1.05-1.69,2.08-3.39,3.11-5.09Z"/>
    </g>
  </g>
</svg>