<?xml version="1.0" encoding="UTF-8"?>
<svg id="Layer_1" data-name="Layer 1" xmlns="http://www.w3.org/2000/svg" viewBox="0 0 700 395">
  <defs>
    <style>
      .cls-1 {
        fill-rule: evenodd;
      }

      .cls-1, .cls-2 {
        fill: #262626;
      }

      .cls-3 {
        fill: #efedea;
      }
    </style>
  </defs>
  <g>
    <g>
      <circle class="cls-2" cx="300.26" cy="93.2" r="21.56"/>
      <path class="cls-2" d="M292.68,118.37h14.19c9.37,0,16.97,7.6,16.97,16.97v84.56c0,4.3-3.49,7.79-7.79,7.79h-32.34c-4.3,0-7.79-3.49-7.79-7.79v-84.76c0-9.25,7.51-16.76,16.76-16.76Z"/>
      <rect class="cls-2" x="275.31" y="201.34" width="24.57" height="59.49" rx="10.81" ry="10.81" transform="translate(10 -11.93) rotate(2.42)"/>
      <rect class="cls-2" x="300.15" y="201.36" width="24.57" height="59.49" rx="10.81" ry="10.81" transform="translate(-12.99 18.69) rotate(-3.36)"/>
      <path class="cls-2" d="M311.94,238.05h6.72c4.93,0,8.92,4,8.92,8.92v62.39c0,6.78-5.5,12.28-12.28,12.28h0c-6.78,0-12.29-5.51-12.29-12.29v-62.39c0-4.93,4-8.92,8.92-8.92Z" transform="translate(-15.84 18.94) rotate(-3.36)"/>
      <path class="cls-2" d="M282.17,238.07h6.72c4.93,0,8.92,4,8.92,8.92v62.39c0,6.78-5.5,12.28-12.28,12.28h0c-6.78,0-12.29-5.51-12.29-12.29v-62.39c0-4.93,4-8.92,8.92-8.92Z" transform="translate(12.06 -11.8) rotate(2.42)"/>
      <path class="cls-1" d="M360.88,208.91h0c-4.43,2.56-10.16,1.03-12.72-3.41l-40.64-70.39c-2.56-4.43-1.03-10.16,3.41-12.72l-7.23-3.29c4.43-2.56,17.39,2.26,19.95,6.69l40.64,70.39c2.56,4.43,1.03,10.16-3.41,12.72Z"/>
      <path class="cls-1" d="M254.71,223.37h0c-4.88-1.56-7.59-6.83-6.02-11.71l26.91-83.93c1.77-5.8,12.67-10.59,17.55-9.03l-4.71.71c4.88,1.56,6.46,9.12,4.9,14l-26.91,83.93c-1.56,4.88-6.83,7.59-11.71,6.02Z"/>
    </g>
    <g>
      <circle class="cls-2" cx="407.86" cy="198.8" r="17.25"/>
      <path class="cls-2" d="M395.17,218.94h19.65c5.53,0,10.03,4.49,10.03,10.03v39.23c0,2.54-2.06,4.6-4.6,4.6h-24.74c-2.54,0-4.6-2.06-4.6-4.6v-44.97c0-2.36,1.92-4.28,4.28-4.28Z"/>
      <rect class="cls-2" x="390.88" y="259.8" width="15.91" height="29.31" rx="6.1" ry="6.1"/>
      <rect class="cls-2" x="408.95" y="259.8" width="15.91" height="29.31" rx="6.1" ry="6.1"/>
      <path class="cls-2" d="M413.99,277.92h5.83c2.78,0,5.04,2.26,5.04,5.04v29.21c0,3.83-3.11,6.94-6.94,6.94h-2.03c-3.83,0-6.94-3.11-6.94-6.94v-29.2c0-2.78,2.26-5.04,5.04-5.04Z"/>
      <path class="cls-2" d="M395.92,277.92h5.83c2.78,0,5.04,2.26,5.04,5.04v29.21c0,3.83-3.11,6.94-6.94,6.94h-2.03c-3.83,0-6.94-3.11-6.94-6.94v-29.2c0-2.78,2.26-5.04,5.04-5.04Z"/>
      <path class="cls-1" d="M447.33,263.59h0c-4.49,2.04-6.8.46-8.46-1.72l-26.31-34.68c-1.66-2.18-.66-5,2.21-6.27h0c-.49-4.15,6.57-.51,8.23,1.68l26.31,34.68c.8,1.15.67,4.62-1.98,6.31Z"/>
      <path class="cls-1" d="M355.23,196.26h0c1.49-2.89,4.42-3.99,6.52-2.45l35.12,25.83c2.1,1.54,2.6,5.17,1.12,8.06h0c-1.49,2.89-4.42,3.99-6.52,2.45l-35.12-25.83c-2.1-1.54-2.6-5.17-1.12-8.06Z"/>
    </g>
  </g>
</svg>