<?xml version="1.0" encoding="UTF-8"?>
<svg id="Layer_1" data-name="Layer 1" xmlns="http://www.w3.org/2000/svg" viewBox="0 0 700 395">
  <defs>
    <style>
      .cls-1 {
        fill: #009bd3;
      }

      .cls-2 {
        fill: #001a4d;
      }

      .cls-3 {
        stroke: #99d9ea;
      }

      .cls-3, .cls-4, .cls-5, .cls-6, .cls-7, .cls-8, .cls-9, .cls-10, .cls-11, .cls-12 {
        fill: none;
        stroke-linecap: round;
      }

      .cls-3, .cls-4, .cls-5, .cls-6, .cls-7, .cls-8, .cls-10, .cls-11, .cls-12 {
        stroke-width: .94px;
      }

      .cls-3, .cls-4, .cls-5, .cls-6, .cls-7, .cls-10, .cls-11, .cls-12 {
        stroke-linejoin: round;
      }

      .cls-13 {
        fill: #552c7f;
      }

      .cls-14 {
        fill: #99d9ea;
      }

      .cls-4 {
        stroke: #d9cbe4;
      }

      .cls-5 {
        stroke: #8e479a;
      }

      .cls-15 {
        fill: #d9cbe4;
      }

      .cls-16 {
        fill: #005a98;
      }

      .cls-6 {
        stroke: #a3194d;
      }

      .cls-17 {
        fill: #efedea;
      }

      .cls-7 {
        stroke: #fdba12;
      }

      .cls-18 {
        fill: #23becc;
      }

      .cls-19 {
        fill: #fff;
      }

      .cls-8 {
        stroke: #009bd3;
      }

      .cls-8, .cls-9 {
        stroke-miterlimit: 10;
      }

      .cls-20 {
        fill: #fdba12;
      }

      .cls-21 {
        fill: #3474b9;
      }

      .cls-9 {
        stroke: #ee4e82;
        stroke-width: .91px;
      }

      .cls-22 {
        fill: #8e479a;
      }

      .cls-23 {
        fill: #a3194d;
      }

      .cls-10 {
        stroke: #001a4d;
      }

      .cls-11 {
        stroke: #f89f1b;
      }

      .cls-24 {
        fill: #ffe18c;
      }

      .cls-25 {
        fill: #ee4e82;
      }

      .cls-12 {
        stroke: #23becc;
      }

      .cls-26 {
        fill: #f89f1b;
      }
    </style>
  </defs>
  <g>
    <g>
      <polygon class="cls-25" points="382.28 192.67 379.36 195.08 382.28 197.5 382.28 192.67"/>
      <polygon class="cls-25" points="358.91 192.67 361.83 195.08 358.91 197.5 358.91 192.67"/>
      <polygon class="cls-25" points="382.28 144.33 379.36 146.75 382.28 149.17 382.28 144.33"/>
      <polygon class="cls-25" points="358.91 144.33 361.83 146.75 358.91 149.17 358.91 144.33"/>
      <polygon class="cls-25" points="382.28 241 379.36 243.42 382.28 245.83 382.28 241"/>
      <polygon class="cls-25" points="358.91 241 361.83 243.42 358.91 245.83 358.91 241"/>
      <g>
        <polygon class="cls-25" points="370.6 183 358.91 173.33 358.91 168.5 370.6 178.17 382.28 168.5 382.28 173.33 370.6 183"/>
        <polygon class="cls-25" points="370.6 158.83 358.91 168.5 358.91 173.33 370.6 163.67 382.28 173.33 382.28 168.5 370.6 158.83"/>
        <polygon class="cls-25" points="370.6 149.17 358.91 158.83 358.91 163.67 370.6 154 382.28 163.67 382.28 158.83 370.6 149.17"/>
        <polygon class="cls-23" points="370.6 144.33 358.91 154 358.91 158.83 370.6 149.17 382.28 158.83 382.28 154 370.6 144.33"/>
        <polygon class="cls-23" points="370.6 96 358.91 105.67 358.91 110.5 370.6 100.83 382.28 110.5 382.28 105.67 370.6 96"/>
        <polygon class="cls-23" points="370.6 192.67 358.91 202.33 358.91 207.17 370.6 197.5 382.28 207.17 382.28 202.33 370.6 192.67"/>
        <polygon class="cls-21" points="370.6 187.83 358.91 178.17 358.91 173.33 370.6 183 382.28 173.33 382.28 178.17 370.6 187.83"/>
        <polygon class="cls-21" points="370.6 154 358.91 163.67 358.91 168.5 370.6 158.83 382.28 168.5 382.28 163.67 370.6 154"/>
        <polygon class="cls-19" points="370.6 163.67 361.83 170.92 370.6 178.17 379.36 170.92 370.6 163.67"/>
        <polygon class="cls-23" points="370.6 168.5 367.67 170.92 370.6 173.33 373.52 170.92 370.6 168.5"/>
        <polygon class="cls-25" points="370.6 192.67 358.91 183 358.91 178.17 370.6 187.83 382.28 178.17 382.28 183 370.6 192.67"/>
        <polygon class="cls-25" points="370.6 134.67 358.91 125 358.91 120.17 370.6 129.83 382.28 120.17 382.28 125 370.6 134.67"/>
        <polygon class="cls-25" points="370.6 110.5 358.91 120.17 358.91 125 370.6 115.33 382.28 125 382.28 120.17 370.6 110.5"/>
        <polygon class="cls-25" points="370.6 100.83 358.91 110.5 358.91 115.33 370.6 105.67 382.28 115.33 382.28 110.5 370.6 100.83"/>
        <polygon class="cls-21" points="370.6 139.5 358.91 129.83 358.91 125 370.6 134.67 382.28 125 382.28 129.83 370.6 139.5"/>
        <polygon class="cls-21" points="370.6 105.67 358.91 115.33 358.91 120.17 370.6 110.5 382.28 120.17 382.28 115.33 370.6 105.67"/>
        <polygon class="cls-19" points="370.6 115.33 361.83 122.58 370.6 129.83 379.36 122.58 370.6 115.33"/>
        <polygon class="cls-23" points="370.6 120.17 367.67 122.58 370.6 125 373.52 122.58 370.6 120.17"/>
        <polygon class="cls-25" points="370.6 144.33 358.91 134.67 358.91 129.83 370.6 139.5 382.28 129.83 382.28 134.67 370.6 144.33"/>
        <polygon class="cls-25" points="370.6 231.33 358.91 221.67 358.91 216.83 370.6 226.5 382.28 216.83 382.28 221.67 370.6 231.33"/>
        <polygon class="cls-25" points="370.6 207.17 358.91 216.83 358.91 221.67 370.6 212 382.28 221.67 382.28 216.83 370.6 207.17"/>
        <polygon class="cls-25" points="370.6 197.5 358.91 207.17 358.91 212 370.6 202.33 382.28 212 382.28 207.17 370.6 197.5"/>
        <polygon class="cls-21" points="370.6 236.17 358.91 226.5 358.91 221.67 370.6 231.33 382.28 221.67 382.28 226.5 370.6 236.17"/>
        <polygon class="cls-21" points="370.6 202.33 358.91 212 358.91 216.83 370.6 207.17 382.28 216.83 382.28 212 370.6 202.33"/>
        <polygon class="cls-19" points="370.6 212 361.83 219.25 370.6 226.5 379.36 219.25 370.6 212"/>
        <polygon class="cls-23" points="370.6 216.83 367.67 219.25 370.6 221.67 373.52 219.25 370.6 216.83"/>
        <polygon class="cls-25" points="370.6 241 358.91 231.33 358.91 226.5 370.6 236.17 382.28 226.5 382.28 231.33 370.6 241"/>
        <polygon class="cls-25" points="370.6 279.67 358.91 270 358.91 265.17 370.6 274.83 382.28 265.17 382.28 270 370.6 279.67"/>
        <polygon class="cls-25" points="370.6 255.5 358.91 265.17 358.91 270 370.6 260.33 382.28 270 382.28 265.17 370.6 255.5"/>
        <polygon class="cls-25" points="370.6 245.83 358.91 255.5 358.91 260.33 370.6 250.67 382.28 260.33 382.28 255.5 370.6 245.83"/>
        <polygon class="cls-21" points="370.6 284.5 358.91 274.83 358.91 270 370.6 279.67 382.28 270 382.28 274.83 370.6 284.5"/>
        <polygon class="cls-21" points="370.6 250.67 358.91 260.33 358.91 265.17 370.6 255.5 382.28 265.17 382.28 260.33 370.6 250.67"/>
        <polygon class="cls-19" points="370.6 260.33 361.83 267.58 370.6 274.83 379.36 267.58 370.6 260.33"/>
        <polygon class="cls-23" points="370.6 265.17 367.67 267.58 370.6 270 373.52 267.58 370.6 265.17"/>
        <polygon class="cls-25" points="370.6 289.33 358.91 279.67 358.91 274.83 370.6 284.5 382.28 274.83 382.28 279.67 370.6 289.33"/>
        <polygon class="cls-19" points="373.52 195.08 382.28 187.83 382.28 192.67 379.36 195.08 382.28 197.5 382.28 202.33 373.52 195.08"/>
        <polygon class="cls-19" points="367.67 195.08 358.91 187.83 358.91 192.67 361.83 195.08 358.91 197.5 358.91 202.33 367.67 195.08"/>
        <polygon class="cls-19" points="373.52 146.75 382.28 139.5 382.28 144.33 379.36 146.75 382.28 149.17 382.28 154 373.52 146.75"/>
        <polygon class="cls-19" points="367.67 146.75 358.91 139.5 358.91 144.33 361.83 146.75 358.91 149.17 358.91 154 367.67 146.75"/>
        <polygon class="cls-23" points="370.6 197.5 358.91 187.83 358.91 183 370.6 192.67 382.28 183 382.28 187.83 370.6 197.5"/>
        <polygon class="cls-23" points="370.6 241 358.91 250.67 358.91 255.5 370.6 245.83 382.28 255.5 382.28 250.67 370.6 241"/>
        <polygon class="cls-19" points="373.52 243.42 382.28 236.17 382.28 241 379.36 243.42 382.28 245.83 382.28 250.67 373.52 243.42"/>
        <polygon class="cls-19" points="367.67 243.42 358.91 236.17 358.91 241 361.83 243.42 358.91 245.83 358.91 250.67 367.67 243.42"/>
        <polygon class="cls-23" points="370.6 245.83 358.91 236.17 358.91 231.33 370.6 241 382.28 231.33 382.28 236.17 370.6 245.83"/>
        <polygon class="cls-23" points="370.6 294.17 358.91 284.5 358.91 279.67 370.6 289.33 382.28 279.67 382.28 284.5 370.6 294.17"/>
        <polygon class="cls-23" points="370.6 149.17 358.91 139.5 358.91 134.67 370.6 144.33 382.28 134.67 382.28 139.5 370.6 149.17"/>
        <path class="cls-23" d="M373.52,296.58c0,1.34-1.31,2.42-2.92,2.42s-2.92-1.08-2.92-2.42,1.31-2.42,2.92-2.42,2.92,1.08,2.92,2.42Z"/>
        <line class="cls-6" x1="370.6" y1="299" x2="370.6" y2="344.11"/>
        <path class="cls-23" d="M373.52,93.58c0-1.33-1.31-2.42-2.92-2.42s-2.92,1.08-2.92,2.42,1.31,2.42,2.92,2.42,2.92-1.08,2.92-2.42Z"/>
        <line class="cls-6" x1="370.6" y1="91.17" x2="370.6" y2="46.06"/>
      </g>
    </g>
    <g>
      <polygon class="cls-2" points="324.43 117.75 315.67 125 315.67 129.83 324.43 122.58 333.19 129.83 333.19 125 324.43 117.75"/>
      <polygon class="cls-19" points="324.43 112.92 315.67 120.17 315.67 125 324.43 117.75 333.19 125 333.19 120.17 324.43 112.92"/>
      <polygon class="cls-19" points="324.43 141.92 315.67 134.67 315.67 129.83 324.43 137.08 333.19 129.83 333.19 134.67 324.43 141.92"/>
      <polygon class="cls-14" points="324.43 108.08 315.67 115.33 315.67 120.17 324.43 112.92 333.19 120.17 333.19 115.33 324.43 108.08"/>
      <polygon class="cls-14" points="324.43 146.75 315.67 139.5 315.67 134.67 324.43 141.92 333.19 134.67 333.19 139.5 324.43 146.75"/>
      <polygon class="cls-2" points="324.43 137.08 315.67 129.83 315.67 125 324.43 132.25 333.19 125 333.19 129.83 324.43 137.08"/>
      <polygon class="cls-1" points="324.43 122.58 318.59 127.42 324.43 132.25 330.27 127.42 324.43 122.58"/>
      <polygon class="cls-14" points="324.43 141.92 315.67 149.17 315.67 154 324.43 146.75 333.19 154 333.19 149.17 324.43 141.92"/>
      <polygon class="cls-1" points="333.19 139.5 327.35 144.33 333.19 149.17 333.19 139.5"/>
      <polygon class="cls-1" points="315.67 139.5 321.51 144.33 315.67 149.17 315.67 139.5"/>
      <polygon class="cls-2" points="324.43 151.58 315.67 158.83 315.67 163.67 324.43 156.42 333.19 163.67 333.19 158.83 324.43 151.58"/>
      <polygon class="cls-19" points="324.43 146.75 315.67 154 315.67 158.83 324.43 151.58 333.19 158.83 333.19 154 324.43 146.75"/>
      <polygon class="cls-19" points="324.43 175.75 315.67 168.5 315.67 163.67 324.43 170.92 333.19 163.67 333.19 168.5 324.43 175.75"/>
      <polygon class="cls-14" points="324.43 180.58 315.67 173.33 315.67 168.5 324.43 175.75 333.19 168.5 333.19 173.33 324.43 180.58"/>
      <polygon class="cls-2" points="324.43 170.92 315.67 163.67 315.67 158.83 324.43 166.08 333.19 158.83 333.19 163.67 324.43 170.92"/>
      <polygon class="cls-1" points="324.43 156.42 318.59 161.25 324.43 166.08 330.27 161.25 324.43 156.42"/>
      <polygon class="cls-14" points="324.43 175.75 315.67 183 315.67 187.83 324.43 180.58 333.19 187.83 333.19 183 324.43 175.75"/>
      <polygon class="cls-1" points="333.19 173.33 327.35 178.17 333.19 183 333.19 173.33"/>
      <polygon class="cls-1" points="315.67 173.33 321.51 178.17 315.67 183 315.67 173.33"/>
      <polygon class="cls-2" points="324.43 185.42 315.67 192.67 315.67 197.5 324.43 190.25 333.19 197.5 333.19 192.67 324.43 185.42"/>
      <polygon class="cls-19" points="324.43 180.58 315.67 187.83 315.67 192.67 324.43 185.42 333.19 192.67 333.19 187.83 324.43 180.58"/>
      <polygon class="cls-19" points="324.43 209.58 315.67 202.33 315.67 197.5 324.43 204.75 333.19 197.5 333.19 202.33 324.43 209.58"/>
      <polygon class="cls-14" points="324.43 214.42 315.67 207.17 315.67 202.33 324.43 209.58 333.19 202.33 333.19 207.17 324.43 214.42"/>
      <polygon class="cls-2" points="324.43 204.75 315.67 197.5 315.67 192.67 324.43 199.92 333.19 192.67 333.19 197.5 324.43 204.75"/>
      <polygon class="cls-1" points="324.43 190.25 318.59 195.08 324.43 199.92 330.27 195.08 324.43 190.25"/>
      <polygon class="cls-14" points="324.43 209.58 315.67 216.83 315.67 221.67 324.43 214.42 333.19 221.67 333.19 216.83 324.43 209.58"/>
      <polygon class="cls-1" points="333.19 207.17 327.35 212 333.19 216.83 333.19 207.17"/>
      <polygon class="cls-1" points="315.67 207.17 321.51 212 315.67 216.83 315.67 207.17"/>
      <polygon class="cls-2" points="324.43 219.25 315.67 226.5 315.67 231.33 324.43 224.08 333.19 231.33 333.19 226.5 324.43 219.25"/>
      <polygon class="cls-19" points="324.43 214.42 315.67 221.67 315.67 226.5 324.43 219.25 333.19 226.5 333.19 221.67 324.43 214.42"/>
      <polygon class="cls-19" points="324.43 243.42 315.67 236.17 315.67 231.33 324.43 238.58 333.19 231.33 333.19 236.17 324.43 243.42"/>
      <polygon class="cls-14" points="324.43 248.25 315.67 241 315.67 236.17 324.43 243.42 333.19 236.17 333.19 241 324.43 248.25"/>
      <polygon class="cls-2" points="324.43 238.58 315.67 231.33 315.67 226.5 324.43 233.75 333.19 226.5 333.19 231.33 324.43 238.58"/>
      <polygon class="cls-1" points="324.43 224.08 318.59 228.92 324.43 233.75 330.27 228.92 324.43 224.08"/>
      <polygon class="cls-14" points="324.43 243.42 315.67 250.67 315.67 255.5 324.43 248.25 333.19 255.5 333.19 250.67 324.43 243.42"/>
      <polygon class="cls-1" points="333.19 241 327.35 245.83 333.19 250.67 333.19 241"/>
      <polygon class="cls-1" points="315.67 241 321.51 245.83 315.67 250.67 315.67 241"/>
      <polygon class="cls-2" points="324.43 253.08 315.67 260.33 315.67 265.17 324.43 257.92 333.19 265.17 333.19 260.33 324.43 253.08"/>
      <polygon class="cls-19" points="324.43 248.25 315.67 255.5 315.67 260.33 324.43 253.08 333.19 260.33 333.19 255.5 324.43 248.25"/>
      <polygon class="cls-19" points="324.43 277.25 315.67 270 315.67 265.17 324.43 272.42 333.19 265.17 333.19 270 324.43 277.25"/>
      <polygon class="cls-14" points="324.43 282.08 315.67 274.83 315.67 270 324.43 277.25 333.19 270 333.19 274.83 324.43 282.08"/>
      <polygon class="cls-1" points="324.43 286.92 315.67 279.67 315.67 274.83 324.43 282.08 333.19 274.83 333.19 279.67 324.43 286.92"/>
      <polygon class="cls-2" points="324.43 291.75 315.67 284.5 315.67 279.67 324.43 286.92 333.19 279.67 333.19 284.5 324.43 291.75"/>
      <polygon class="cls-1" points="324.43 103.25 315.67 110.5 315.67 115.33 324.43 108.08 333.19 115.33 333.19 110.5 324.43 103.25"/>
      <polygon class="cls-2" points="324.43 98.42 315.67 105.67 315.67 110.5 324.43 103.25 333.19 110.5 333.19 105.67 324.43 98.42"/>
      <polygon class="cls-2" points="324.43 272.42 315.67 265.17 315.67 260.33 324.43 267.58 333.19 260.33 333.19 265.17 324.43 272.42"/>
      <polygon class="cls-1" points="324.43 257.92 318.59 262.75 324.43 267.58 330.27 262.75 324.43 257.92"/>
      <ellipse class="cls-1" cx="324.43" cy="294.17" rx="2.92" ry="2.42"/>
      <line class="cls-8" x1="324.43" y1="296.58" x2="324.43" y2="341.69"/>
      <path class="cls-1" d="M327.35,96c0-1.33-1.31-2.42-2.92-2.42s-2.92,1.08-2.92,2.42,1.31,2.42,2.92,2.42,2.92-1.08,2.92-2.42Z"/>
      <line class="cls-8" x1="324.43" y1="93.58" x2="324.43" y2="48.47"/>
    </g>
    <g>
      <polygon class="cls-25" points="278.26 209.58 266.58 199.92 266.58 195.08 278.26 204.75 289.94 195.08 289.94 199.92 278.26 209.58"/>
      <polygon class="cls-18" points="278.26 214.42 266.58 204.75 266.58 199.92 278.26 209.58 289.94 199.92 289.94 204.75 278.26 214.42"/>
      <polygon class="cls-14" points="278.26 219.25 266.58 209.58 266.58 204.75 278.26 214.42 289.94 204.75 289.94 209.58 278.26 219.25"/>
      <polygon class="cls-19" points="278.26 224.08 266.58 214.42 266.58 209.58 278.26 219.25 289.94 209.58 289.94 214.42 278.26 224.08"/>
      <polygon class="cls-20" points="278.26 228.92 266.58 219.25 266.58 214.42 278.26 224.08 289.94 214.42 289.94 219.25 278.26 228.92"/>
      <polygon class="cls-25" points="278.26 185.42 266.58 175.75 266.58 170.92 278.26 180.58 289.94 170.92 289.94 175.75 278.26 185.42"/>
      <polygon class="cls-18" points="278.26 190.25 266.58 180.58 266.58 175.75 278.26 185.42 289.94 175.75 289.94 180.58 278.26 190.25"/>
      <polygon class="cls-14" points="278.26 195.08 266.58 185.42 266.58 180.58 278.26 190.25 289.94 180.58 289.94 185.42 278.26 195.08"/>
      <polygon class="cls-19" points="278.26 199.92 266.58 190.25 266.58 185.42 278.26 195.08 289.94 185.42 289.94 190.25 278.26 199.92"/>
      <polygon class="cls-20" points="278.26 204.75 266.58 195.08 266.58 190.25 278.26 199.92 289.94 190.25 289.94 195.08 278.26 204.75"/>
      <polygon class="cls-25" points="278.26 161.25 266.58 151.58 266.58 146.75 278.26 156.42 289.94 146.75 289.94 151.58 278.26 161.25"/>
      <polygon class="cls-18" points="278.26 166.08 266.58 156.42 266.58 151.58 278.26 161.25 289.94 151.58 289.94 156.42 278.26 166.08"/>
      <polygon class="cls-14" points="278.26 170.92 266.58 161.25 266.58 156.42 278.26 166.08 289.94 156.42 289.94 161.25 278.26 170.92"/>
      <polygon class="cls-19" points="278.26 175.75 266.58 166.08 266.58 161.25 278.26 170.92 289.94 161.25 289.94 166.08 278.26 175.75"/>
      <polygon class="cls-20" points="278.26 180.58 266.58 170.92 266.58 166.08 278.26 175.75 289.94 166.08 289.94 170.92 278.26 180.58"/>
      <polygon class="cls-25" points="278.26 137.08 266.58 127.42 266.58 122.58 278.26 132.25 289.94 122.58 289.94 127.42 278.26 137.08"/>
      <polygon class="cls-18" points="278.26 141.92 266.58 132.25 266.58 127.42 278.26 137.08 289.94 127.42 289.94 132.25 278.26 141.92"/>
      <polygon class="cls-14" points="278.26 146.75 266.58 137.08 266.58 132.25 278.26 141.92 289.94 132.25 289.94 137.08 278.26 146.75"/>
      <polygon class="cls-19" points="278.26 151.58 266.58 141.92 266.58 137.08 278.26 146.75 289.94 137.08 289.94 141.92 278.26 151.58"/>
      <polygon class="cls-20" points="278.26 156.42 266.58 146.75 266.58 141.92 278.26 151.58 289.94 141.92 289.94 146.75 278.26 156.42"/>
      <polygon class="cls-20" points="278.26 132.25 266.58 122.58 266.58 117.75 278.26 127.42 289.94 117.75 289.94 122.58 278.26 132.25"/>
      <polygon class="cls-19" points="278.26 127.42 266.58 117.75 269.5 115.33 278.26 122.58 287.02 115.33 289.94 117.75 278.26 127.42"/>
      <polygon class="cls-14" points="278.26 122.58 269.5 115.33 272.42 112.92 278.26 117.75 284.1 112.92 287.02 115.33 278.26 122.58"/>
      <polygon class="cls-18" points="278.26 117.75 272.42 112.92 275.34 110.5 278.26 112.92 281.18 110.5 284.1 112.92 278.26 117.75"/>
      <polygon class="cls-25" points="278.26 233.75 266.58 224.08 266.58 219.25 278.26 228.92 289.94 219.25 289.94 224.08 278.26 233.75"/>
      <polygon class="cls-18" points="278.26 238.58 266.58 228.92 266.58 224.08 278.26 233.75 289.94 224.08 289.94 228.92 278.26 238.58"/>
      <polygon class="cls-14" points="278.26 243.42 266.58 233.75 266.58 228.92 278.26 238.58 289.94 228.92 289.94 233.75 278.26 243.42"/>
      <polygon class="cls-19" points="278.26 248.25 266.58 238.58 266.58 233.75 278.26 243.42 289.94 233.75 289.94 238.58 278.26 248.25"/>
      <polygon class="cls-20" points="278.26 253.08 266.58 243.42 266.58 238.58 278.26 248.25 289.94 238.58 289.94 243.42 278.26 253.08"/>
      <polygon class="cls-25" points="278.26 257.92 266.58 248.25 266.58 243.42 278.26 253.08 289.94 243.42 289.94 248.25 278.26 257.92"/>
      <polygon class="cls-25" points="278.26 282.08 266.58 272.42 266.58 267.58 278.26 277.25 289.94 267.58 289.94 272.42 278.26 282.08"/>
      <polygon class="cls-18" points="278.26 262.75 266.58 253.08 266.58 248.25 278.26 257.92 289.94 248.25 289.94 253.08 278.26 262.75"/>
      <polygon class="cls-14" points="278.26 267.58 266.58 257.92 266.58 253.08 278.26 262.75 289.94 253.08 289.94 257.92 278.26 267.58"/>
      <polygon class="cls-19" points="278.26 272.42 266.58 262.75 266.58 257.92 278.26 267.58 289.94 257.92 289.94 262.75 278.26 272.42"/>
      <polygon class="cls-20" points="278.26 277.25 266.58 267.58 266.58 262.75 278.26 272.42 289.94 262.75 289.94 267.58 278.26 277.25"/>
      <path class="cls-25" d="M281.18,284.5c0,1.33-1.31,2.42-2.92,2.42s-2.92-1.08-2.92-2.42,1.31-2.42,2.92-2.42,2.92,1.08,2.92,2.42Z"/>
      <line class="cls-9" x1="278.26" y1="286.92" x2="278.26" y2="332.03"/>
      <path class="cls-25" d="M281.18,105.67c0-1.33-1.31-2.42-2.92-2.42s-2.92,1.08-2.92,2.42,1.31,2.42,2.92,2.42,2.92-1.08,2.92-2.42Z"/>
      <line class="cls-9" x1="278.26" y1="103.25" x2="278.26" y2="58.14"/>
      <polygon class="cls-25" points="278.26 108.08 275.34 110.5 278.26 112.92 281.18 110.5 278.26 108.08"/>
    </g>
    <g>
      <polygon class="cls-20" points="243.77 139.5 237.93 144.33 243.77 149.17 243.77 139.5"/>
      <polygon class="cls-20" points="243.77 173.33 237.93 178.17 243.77 183 243.77 173.33"/>
      <polygon class="cls-20" points="243.77 207.17 237.93 212 243.77 216.83 243.77 207.17"/>
      <polygon class="cls-20" points="243.77 241 237.93 245.83 243.77 250.67 243.77 241"/>
      <g>
        <polygon class="cls-18" points="232.09 144.33 220.41 134.67 220.41 139.5 226.25 144.33 220.41 149.17 220.41 154 232.09 144.33"/>
        <polygon class="cls-18" points="232.09 144.33 243.77 134.67 243.77 139.5 237.93 144.33 243.77 149.17 243.77 154 232.09 144.33"/>
        <polygon class="cls-18" points="232.09 178.17 220.41 168.5 220.41 173.33 226.25 178.17 220.41 183 220.41 187.83 232.09 178.17"/>
        <polygon class="cls-18" points="232.09 178.17 243.77 168.5 243.77 173.33 237.93 178.17 243.77 183 243.77 187.83 232.09 178.17"/>
        <polygon class="cls-18" points="232.09 212 220.41 202.33 220.41 207.17 226.25 212 220.41 216.83 220.41 221.67 232.09 212"/>
        <polygon class="cls-18" points="232.09 212 243.77 202.33 243.77 207.17 237.93 212 243.77 216.83 243.77 221.67 232.09 212"/>
        <polygon class="cls-18" points="232.09 245.83 220.41 236.17 220.41 241 226.25 245.83 220.41 250.67 220.41 255.5 232.09 245.83"/>
        <polygon class="cls-18" points="232.09 245.83 243.77 236.17 243.77 241 237.93 245.83 243.77 250.67 243.77 255.5 232.09 245.83"/>
        <polygon class="cls-23" points="232.09 110.5 220.41 120.17 220.41 125 232.09 115.33 243.77 125 243.77 120.17 232.09 110.5"/>
        <polygon class="cls-18" points="232.09 105.67 220.41 115.33 220.41 120.17 232.09 110.5 243.77 120.17 243.77 115.33 232.09 105.67"/>
        <polygon class="cls-25" points="232.09 100.83 220.41 110.5 220.41 115.33 232.09 105.67 243.77 115.33 243.77 110.5 232.09 100.83"/>
        <polygon class="cls-18" points="232.09 284.5 220.41 274.83 220.41 270 232.09 279.67 243.77 270 243.77 274.83 232.09 284.5"/>
        <polygon class="cls-25" points="232.09 289.33 220.41 279.67 220.41 274.83 232.09 284.5 243.77 274.83 243.77 279.67 232.09 289.33"/>
        <polygon class="cls-25" points="232.09 139.5 220.41 129.83 220.41 125 232.09 134.67 243.77 125 243.77 129.83 232.09 139.5"/>
        <polygon class="cls-25" points="232.09 115.33 220.41 125 220.41 129.83 232.09 120.17 243.77 129.83 243.77 125 232.09 115.33"/>
        <polygon class="cls-23" points="232.09 144.33 220.41 134.67 220.41 129.83 232.09 139.5 243.77 129.83 243.77 134.67 232.09 144.33"/>
        <polygon class="cls-23" points="232.09 144.33 220.41 154 220.41 158.83 232.09 149.17 243.77 158.83 243.77 154 232.09 144.33"/>
        <polygon class="cls-20" points="232.09 120.17 223.33 127.42 232.09 134.67 240.85 127.42 232.09 120.17"/>
        <polygon class="cls-18" points="232.09 125 229.17 127.42 232.09 129.83 235.01 127.42 232.09 125"/>
        <polygon class="cls-20" points="220.41 139.5 226.25 144.33 220.41 149.17 220.41 139.5"/>
        <polygon class="cls-25" points="232.09 173.33 220.41 163.67 220.41 158.83 232.09 168.5 243.77 158.83 243.77 163.67 232.09 173.33"/>
        <polygon class="cls-25" points="232.09 149.17 220.41 158.83 220.41 163.67 232.09 154 243.77 163.67 243.77 158.83 232.09 149.17"/>
        <polygon class="cls-23" points="232.09 178.17 220.41 168.5 220.41 163.67 232.09 173.33 243.77 163.67 243.77 168.5 232.09 178.17"/>
        <polygon class="cls-23" points="232.09 178.17 220.41 187.83 220.41 192.67 232.09 183 243.77 192.67 243.77 187.83 232.09 178.17"/>
        <polygon class="cls-20" points="232.09 154 223.33 161.25 232.09 168.5 240.85 161.25 232.09 154"/>
        <polygon class="cls-18" points="232.09 158.83 229.17 161.25 232.09 163.67 235.01 161.25 232.09 158.83"/>
        <polygon class="cls-20" points="220.41 173.33 226.25 178.17 220.41 183 220.41 173.33"/>
        <polygon class="cls-25" points="232.09 207.17 220.41 197.5 220.41 192.67 232.09 202.33 243.77 192.67 243.77 197.5 232.09 207.17"/>
        <polygon class="cls-25" points="232.09 183 220.41 192.67 220.41 197.5 232.09 187.83 243.77 197.5 243.77 192.67 232.09 183"/>
        <polygon class="cls-23" points="232.09 212 220.41 202.33 220.41 197.5 232.09 207.17 243.77 197.5 243.77 202.33 232.09 212"/>
        <polygon class="cls-23" points="232.09 212 220.41 221.67 220.41 226.5 232.09 216.83 243.77 226.5 243.77 221.67 232.09 212"/>
        <polygon class="cls-20" points="232.09 187.83 223.33 195.08 232.09 202.33 240.85 195.08 232.09 187.83"/>
        <polygon class="cls-18" points="232.09 192.67 229.17 195.08 232.09 197.5 235.01 195.08 232.09 192.67"/>
        <polygon class="cls-20" points="220.41 207.17 226.25 212 220.41 216.83 220.41 207.17"/>
        <polygon class="cls-25" points="232.09 241 220.41 231.33 220.41 226.5 232.09 236.17 243.77 226.5 243.77 231.33 232.09 241"/>
        <polygon class="cls-25" points="232.09 216.83 220.41 226.5 220.41 231.33 232.09 221.67 243.77 231.33 243.77 226.5 232.09 216.83"/>
        <polygon class="cls-23" points="232.09 245.83 220.41 236.17 220.41 231.33 232.09 241 243.77 231.33 243.77 236.17 232.09 245.83"/>
        <polygon class="cls-23" points="232.09 245.83 220.41 255.5 220.41 260.33 232.09 250.67 243.77 260.33 243.77 255.5 232.09 245.83"/>
        <polygon class="cls-20" points="232.09 221.67 223.33 228.92 232.09 236.17 240.85 228.92 232.09 221.67"/>
        <polygon class="cls-18" points="232.09 226.5 229.17 228.92 232.09 231.33 235.01 228.92 232.09 226.5"/>
        <polygon class="cls-20" points="220.41 241 226.25 245.83 220.41 250.67 220.41 241"/>
        <polygon class="cls-25" points="232.09 274.83 220.41 265.17 220.41 260.33 232.09 270 243.77 260.33 243.77 265.17 232.09 274.83"/>
        <polygon class="cls-25" points="232.09 250.67 220.41 260.33 220.41 265.17 232.09 255.5 243.77 265.17 243.77 260.33 232.09 250.67"/>
        <polygon class="cls-23" points="232.09 279.67 220.41 270 220.41 265.17 232.09 274.83 243.77 265.17 243.77 270 232.09 279.67"/>
        <polygon class="cls-20" points="232.09 255.5 223.33 262.75 232.09 270 240.85 262.75 232.09 255.5"/>
        <polygon class="cls-18" points="232.09 260.33 229.17 262.75 232.09 265.17 235.01 262.75 232.09 260.33"/>
        <path class="cls-25" d="M235.01,291.75c0,1.33-1.31,2.42-2.92,2.42s-2.92-1.08-2.92-2.42,1.31-2.42,2.92-2.42,2.92,1.08,2.92,2.42Z"/>
        <line class="cls-9" x1="232.09" y1="294.17" x2="232.09" y2="339.28"/>
        <path class="cls-25" d="M235.01,98.42c0-1.33-1.31-2.42-2.92-2.42s-2.92,1.08-2.92,2.42,1.31,2.42,2.92,2.42,2.92-1.08,2.92-2.42Z"/>
        <line class="cls-9" x1="232.09" y1="96" x2="232.09" y2="50.89"/>
      </g>
    </g>
    <g>
      <polygon class="cls-1" points="451.25 192.67 454.17 195.08 451.25 197.5 451.25 192.67"/>
      <polygon class="cls-1" points="451.25 144.33 454.17 146.75 451.25 149.17 451.25 144.33"/>
      <polygon class="cls-1" points="451.25 241 454.17 243.42 451.25 245.83 451.25 241"/>
      <g>
        <polygon class="cls-25" points="462.93 183 451.25 173.33 451.25 168.5 462.93 178.17 474.61 168.5 474.61 173.33 462.93 183"/>
        <polygon class="cls-25" points="462.93 158.83 451.25 168.5 451.25 173.33 462.93 163.67 474.61 173.33 474.61 168.5 462.93 158.83"/>
        <polygon class="cls-22" points="462.93 149.17 451.25 158.83 451.25 163.67 462.93 154 474.61 163.67 474.61 158.83 462.93 149.17"/>
        <polygon class="cls-2" points="462.93 144.33 451.25 154 451.25 158.83 462.93 149.17 474.61 158.83 474.61 154 462.93 144.33"/>
        <polygon class="cls-2" points="462.93 192.67 451.25 202.33 451.25 207.17 462.93 197.5 474.61 207.17 474.61 202.33 462.93 192.67"/>
        <polygon class="cls-1" points="462.93 187.83 451.25 178.17 451.25 173.33 462.93 183 474.61 173.33 474.61 178.17 462.93 187.83"/>
        <polygon class="cls-1" points="462.93 154 451.25 163.67 451.25 168.5 462.93 158.83 474.61 168.5 474.61 163.67 462.93 154"/>
        <polygon class="cls-22" points="462.93 163.67 454.17 170.92 462.93 178.17 471.69 170.92 462.93 163.67"/>
        <polygon class="cls-2" points="462.93 168.5 460.01 170.92 462.93 173.33 465.85 170.92 462.93 168.5"/>
        <polygon class="cls-1" points="474.61 192.67 471.69 195.08 474.61 197.5 474.61 192.67"/>
        <polygon class="cls-22" points="462.93 192.67 451.25 183 451.25 178.17 462.93 187.83 474.61 178.17 474.61 183 462.93 192.67"/>
        <polygon class="cls-25" points="462.93 134.67 451.25 125 451.25 120.17 462.93 129.83 474.61 120.17 474.61 125 462.93 134.67"/>
        <polygon class="cls-25" points="462.93 110.5 451.25 120.17 451.25 125 462.93 115.33 474.61 125 474.61 120.17 462.93 110.5"/>
        <polygon class="cls-22" points="462.93 100.83 451.25 110.5 451.25 115.33 462.93 105.67 474.61 115.33 474.61 110.5 462.93 100.83"/>
        <polygon class="cls-1" points="462.93 139.5 451.25 129.83 451.25 125 462.93 134.67 474.61 125 474.61 129.83 462.93 139.5"/>
        <polygon class="cls-1" points="462.93 105.67 451.25 115.33 451.25 120.17 462.93 110.5 474.61 120.17 474.61 115.33 462.93 105.67"/>
        <polygon class="cls-22" points="462.93 115.33 454.17 122.58 462.93 129.83 471.69 122.58 462.93 115.33"/>
        <polygon class="cls-2" points="462.93 120.17 460.01 122.58 462.93 125 465.85 122.58 462.93 120.17"/>
        <polygon class="cls-22" points="462.93 144.33 451.25 134.67 451.25 129.83 462.93 139.5 474.61 129.83 474.61 134.67 462.93 144.33"/>
        <polygon class="cls-25" points="462.93 231.33 451.25 221.67 451.25 216.83 462.93 226.5 474.61 216.83 474.61 221.67 462.93 231.33"/>
        <polygon class="cls-25" points="462.93 207.17 451.25 216.83 451.25 221.67 462.93 212 474.61 221.67 474.61 216.83 462.93 207.17"/>
        <polygon class="cls-22" points="462.93 197.5 451.25 207.17 451.25 212 462.93 202.33 474.61 212 474.61 207.17 462.93 197.5"/>
        <polygon class="cls-1" points="462.93 236.17 451.25 226.5 451.25 221.67 462.93 231.33 474.61 221.67 474.61 226.5 462.93 236.17"/>
        <polygon class="cls-1" points="462.93 202.33 451.25 212 451.25 216.83 462.93 207.17 474.61 216.83 474.61 212 462.93 202.33"/>
        <polygon class="cls-22" points="462.93 212 454.17 219.25 462.93 226.5 471.69 219.25 462.93 212"/>
        <polygon class="cls-2" points="462.93 216.83 460.01 219.25 462.93 221.67 465.85 219.25 462.93 216.83"/>
        <polygon class="cls-22" points="462.93 241 451.25 231.33 451.25 226.5 462.93 236.17 474.61 226.5 474.61 231.33 462.93 241"/>
        <polygon class="cls-25" points="462.93 279.67 451.25 270 451.25 265.17 462.93 274.83 474.61 265.17 474.61 270 462.93 279.67"/>
        <polygon class="cls-25" points="462.93 255.5 451.25 265.17 451.25 270 462.93 260.33 474.61 270 474.61 265.17 462.93 255.5"/>
        <polygon class="cls-22" points="462.93 245.83 451.25 255.5 451.25 260.33 462.93 250.67 474.61 260.33 474.61 255.5 462.93 245.83"/>
        <polygon class="cls-1" points="462.93 284.5 451.25 274.83 451.25 270 462.93 279.67 474.61 270 474.61 274.83 462.93 284.5"/>
        <polygon class="cls-1" points="462.93 250.67 451.25 260.33 451.25 265.17 462.93 255.5 474.61 265.17 474.61 260.33 462.93 250.67"/>
        <polygon class="cls-22" points="462.93 260.33 454.17 267.58 462.93 274.83 471.69 267.58 462.93 260.33"/>
        <polygon class="cls-2" points="462.93 265.17 460.01 267.58 462.93 270 465.85 267.58 462.93 265.17"/>
        <polygon class="cls-22" points="462.93 289.33 451.25 279.67 451.25 274.83 462.93 284.5 474.61 274.83 474.61 279.67 462.93 289.33"/>
        <polygon class="cls-22" points="465.85 195.08 474.61 187.83 474.61 192.67 471.69 195.08 474.61 197.5 474.61 202.33 465.85 195.08"/>
        <polygon class="cls-22" points="460.01 195.08 451.25 187.83 451.25 192.67 454.17 195.08 451.25 197.5 451.25 202.33 460.01 195.08"/>
        <polygon class="cls-1" points="474.61 144.33 471.69 146.75 474.61 149.17 474.61 144.33"/>
        <polygon class="cls-22" points="465.85 146.75 474.61 139.5 474.61 144.33 471.69 146.75 474.61 149.17 474.61 154 465.85 146.75"/>
        <polygon class="cls-22" points="460.01 146.75 451.25 139.5 451.25 144.33 454.17 146.75 451.25 149.17 451.25 154 460.01 146.75"/>
        <polygon class="cls-2" points="462.93 197.5 451.25 187.83 451.25 183 462.93 192.67 474.61 183 474.61 187.83 462.93 197.5"/>
        <polygon class="cls-2" points="462.93 241 451.25 250.67 451.25 255.5 462.93 245.83 474.61 255.5 474.61 250.67 462.93 241"/>
        <polygon class="cls-1" points="474.61 241 471.69 243.42 474.61 245.83 474.61 241"/>
        <polygon class="cls-22" points="465.85 243.42 474.61 236.17 474.61 241 471.69 243.42 474.61 245.83 474.61 250.67 465.85 243.42"/>
        <polygon class="cls-22" points="460.01 243.42 451.25 236.17 451.25 241 454.17 243.42 451.25 245.83 451.25 250.67 460.01 243.42"/>
        <polygon class="cls-2" points="462.93 245.83 451.25 236.17 451.25 231.33 462.93 241 474.61 231.33 474.61 236.17 462.93 245.83"/>
        <polygon class="cls-2" points="462.93 149.17 451.25 139.5 451.25 134.67 462.93 144.33 474.61 134.67 474.61 139.5 462.93 149.17"/>
        <path class="cls-22" d="M465.85,291.75c0,1.33-1.31,2.42-2.92,2.42s-2.92-1.08-2.92-2.42,1.31-2.42,2.92-2.42,2.92,1.08,2.92,2.42Z"/>
        <line class="cls-5" x1="462.93" y1="294.17" x2="462.93" y2="339.28"/>
        <path class="cls-22" d="M465.85,98.42c0-1.33-1.31-2.42-2.92-2.42s-2.92,1.08-2.92,2.42,1.31,2.42,2.92,2.42,2.92-1.08,2.92-2.42Z"/>
        <line class="cls-5" x1="462.93" y1="96" x2="462.93" y2="50.89"/>
      </g>
    </g>
    <g>
      <polygon class="cls-19" points="555.27 144.34 543.59 134.67 543.59 139.5 549.43 144.34 543.59 149.17 543.59 154 555.27 144.34"/>
      <polygon class="cls-19" points="555.27 178.17 543.59 168.5 543.59 173.34 549.43 178.17 543.59 183 543.59 187.83 555.27 178.17"/>
      <polygon class="cls-19" points="555.27 212 543.59 202.33 543.59 207.17 549.43 212 543.59 216.83 543.59 221.67 555.27 212"/>
      <polygon class="cls-19" points="555.27 245.83 543.59 236.17 543.59 241 549.43 245.83 543.59 250.67 543.59 255.5 555.27 245.83"/>
      <polygon class="cls-2" points="555.27 110.5 543.59 120.17 543.59 125 555.27 115.33 566.95 125 566.95 120.17 555.27 110.5"/>
      <polygon class="cls-14" points="555.27 139.5 543.59 129.83 543.59 125 555.27 134.67 566.95 125 566.95 129.83 555.27 139.5"/>
      <polygon class="cls-19" points="555.27 144.34 566.95 134.67 566.95 139.5 561.11 144.34 566.95 149.17 566.95 154 555.27 144.34"/>
      <polygon class="cls-14" points="555.27 115.33 543.59 125 543.59 129.83 555.27 120.17 566.95 129.83 566.95 125 555.27 115.33"/>
      <polygon class="cls-2" points="555.27 144.34 543.59 134.67 543.59 129.83 555.27 139.5 566.95 129.83 566.95 134.67 555.27 144.34"/>
      <polygon class="cls-2" points="555.27 144.34 543.59 154 543.59 158.84 555.27 149.17 566.95 158.84 566.95 154 555.27 144.34"/>
      <polygon class="cls-19" points="555.27 120.17 546.51 127.42 555.27 134.67 564.03 127.42 555.27 120.17"/>
      <polygon class="cls-20" points="555.27 125 552.35 127.42 555.27 129.83 558.19 127.42 555.27 125"/>
      <polygon class="cls-18" points="566.95 139.5 561.11 144.34 566.95 149.17 566.95 139.5"/>
      <polygon class="cls-18" points="543.59 139.5 549.43 144.34 543.59 149.17 543.59 139.5"/>
      <polygon class="cls-14" points="555.27 173.34 543.59 163.67 543.59 158.84 555.27 168.5 566.95 158.84 566.95 163.67 555.27 173.34"/>
      <polygon class="cls-19" points="555.27 178.17 566.95 168.5 566.95 173.34 561.11 178.17 566.95 183 566.95 187.83 555.27 178.17"/>
      <polygon class="cls-14" points="555.27 149.17 543.59 158.84 543.59 163.67 555.27 154 566.95 163.67 566.95 158.84 555.27 149.17"/>
      <polygon class="cls-2" points="555.27 178.17 543.59 168.5 543.59 163.67 555.27 173.34 566.95 163.67 566.95 168.5 555.27 178.17"/>
      <polygon class="cls-2" points="555.27 178.17 543.59 187.83 543.59 192.67 555.27 183 566.95 192.67 566.95 187.83 555.27 178.17"/>
      <polygon class="cls-19" points="555.27 154 546.51 161.25 555.27 168.5 564.03 161.25 555.27 154"/>
      <polygon class="cls-20" points="555.27 158.84 552.35 161.25 555.27 163.67 558.19 161.25 555.27 158.84"/>
      <polygon class="cls-18" points="566.95 173.34 561.11 178.17 566.95 183 566.95 173.34"/>
      <polygon class="cls-18" points="543.59 173.34 549.43 178.17 543.59 183 543.59 173.34"/>
      <polygon class="cls-14" points="555.27 207.17 543.59 197.5 543.59 192.67 555.27 202.33 566.95 192.67 566.95 197.5 555.27 207.17"/>
      <polygon class="cls-19" points="555.27 212 566.95 202.33 566.95 207.17 561.11 212 566.95 216.83 566.95 221.67 555.27 212"/>
      <polygon class="cls-14" points="555.27 183 543.59 192.67 543.59 197.5 555.27 187.83 566.95 197.5 566.95 192.67 555.27 183"/>
      <polygon class="cls-2" points="555.27 212 543.59 202.33 543.59 197.5 555.27 207.17 566.95 197.5 566.95 202.33 555.27 212"/>
      <polygon class="cls-2" points="555.27 212 543.59 221.67 543.59 226.5 555.27 216.83 566.95 226.5 566.95 221.67 555.27 212"/>
      <polygon class="cls-19" points="555.27 187.83 546.51 195.09 555.27 202.33 564.03 195.09 555.27 187.83"/>
      <polygon class="cls-20" points="555.27 192.67 552.35 195.09 555.27 197.5 558.19 195.09 555.27 192.67"/>
      <polygon class="cls-18" points="566.95 207.17 561.11 212 566.95 216.83 566.95 207.17"/>
      <polygon class="cls-18" points="543.59 207.17 549.43 212 543.59 216.83 543.59 207.17"/>
      <polygon class="cls-14" points="555.27 241 543.59 231.33 543.59 226.5 555.27 236.17 566.95 226.5 566.95 231.33 555.27 241"/>
      <polygon class="cls-19" points="555.27 245.83 566.95 236.17 566.95 241 561.11 245.83 566.95 250.67 566.95 255.5 555.27 245.83"/>
      <polygon class="cls-14" points="555.27 216.83 543.59 226.5 543.59 231.33 555.27 221.67 566.95 231.33 566.95 226.5 555.27 216.83"/>
      <polygon class="cls-2" points="555.27 245.83 543.59 236.17 543.59 231.33 555.27 241 566.95 231.33 566.95 236.17 555.27 245.83"/>
      <polygon class="cls-2" points="555.27 245.83 543.59 255.5 543.59 260.33 555.27 250.67 566.95 260.33 566.95 255.5 555.27 245.83"/>
      <polygon class="cls-19" points="555.27 221.67 546.51 228.92 555.27 236.17 564.03 228.92 555.27 221.67"/>
      <polygon class="cls-20" points="555.27 226.5 552.35 228.92 555.27 231.33 558.19 228.92 555.27 226.5"/>
      <polygon class="cls-18" points="566.95 241 561.11 245.83 566.95 250.67 566.95 241"/>
      <polygon class="cls-18" points="543.59 241 549.43 245.83 543.59 250.67 543.59 241"/>
      <polygon class="cls-14" points="555.27 274.83 543.59 265.17 543.59 260.33 555.27 270 566.95 260.33 566.95 265.17 555.27 274.83"/>
      <polygon class="cls-14" points="555.27 250.67 543.59 260.33 543.59 265.17 555.27 255.5 566.95 265.17 566.95 260.33 555.27 250.67"/>
      <polygon class="cls-2" points="555.27 279.67 543.59 270 543.59 265.17 555.27 274.83 566.95 265.17 566.95 270 555.27 279.67"/>
      <polygon class="cls-18" points="555.27 284.5 543.59 274.83 543.59 270 555.27 279.67 566.95 270 566.95 274.83 555.27 284.5"/>
      <polygon class="cls-14" points="555.27 289.33 543.59 279.67 543.59 274.83 555.27 284.5 566.95 274.83 566.95 279.67 555.27 289.33"/>
      <polygon class="cls-18" points="555.27 105.67 543.59 115.33 543.59 120.17 555.27 110.5 566.95 120.17 566.95 115.33 555.27 105.67"/>
      <polygon class="cls-14" points="555.27 100.83 543.59 110.5 543.59 115.33 555.27 105.67 566.95 115.33 566.95 110.5 555.27 100.83"/>
      <polygon class="cls-19" points="555.27 255.5 546.51 262.75 555.27 270 564.03 262.75 555.27 255.5"/>
      <polygon class="cls-20" points="555.27 260.33 552.35 262.75 555.27 265.17 558.19 262.75 555.27 260.33"/>
      <path class="cls-14" d="M558.19,291.75c0,1.33-1.31,2.42-2.92,2.42s-2.92-1.08-2.92-2.42,1.31-2.42,2.92-2.42,2.92,1.08,2.92,2.42Z"/>
      <line class="cls-3" x1="555.27" y1="294.17" x2="555.27" y2="339.28"/>
      <path class="cls-14" d="M558.19,98.42c0-1.33-1.31-2.42-2.92-2.42s-2.92,1.08-2.92,2.42,1.31,2.42,2.92,2.42,2.92-1.08,2.92-2.42Z"/>
      <line class="cls-3" x1="555.27" y1="96" x2="555.27" y2="50.89"/>
    </g>
    <g>
      <polygon class="cls-19" points="601.44 117.75 592.68 125 592.68 129.83 601.44 122.58 610.2 129.83 610.2 125 601.44 117.75"/>
      <polygon class="cls-13" points="601.44 112.92 592.68 120.17 592.68 125 601.44 117.75 610.2 125 610.2 120.17 601.44 112.92"/>
      <polygon class="cls-13" points="601.44 141.92 592.68 134.67 592.68 129.83 601.44 137.08 610.2 129.83 610.2 134.67 601.44 141.92"/>
      <polygon class="cls-22" points="601.44 108.08 592.68 115.33 592.68 120.17 601.44 112.92 610.2 120.17 610.2 115.33 601.44 108.08"/>
      <polygon class="cls-15" points="601.44 103.25 592.68 110.5 592.68 115.33 601.44 108.08 610.2 115.33 610.2 110.5 601.44 103.25"/>
      <polygon class="cls-22" points="601.44 146.75 592.68 139.5 592.68 134.67 601.44 141.92 610.2 134.67 610.2 139.5 601.44 146.75"/>
      <polygon class="cls-19" points="601.44 137.08 592.68 129.83 592.68 125 601.44 132.25 610.2 125 610.2 129.83 601.44 137.08"/>
      <polygon class="cls-15" points="601.44 122.58 595.6 127.42 601.44 132.25 607.28 127.42 601.44 122.58"/>
      <polygon class="cls-22" points="601.44 141.92 592.68 149.17 592.68 154 601.44 146.75 610.2 154 610.2 149.17 601.44 141.92"/>
      <polygon class="cls-15" points="610.2 139.5 604.36 144.33 610.2 149.17 610.2 139.5"/>
      <polygon class="cls-15" points="592.68 139.5 598.52 144.33 592.68 149.17 592.68 139.5"/>
      <polygon class="cls-19" points="601.44 151.58 592.68 158.83 592.68 163.67 601.44 156.42 610.2 163.67 610.2 158.83 601.44 151.58"/>
      <polygon class="cls-13" points="601.44 146.75 592.68 154 592.68 158.83 601.44 151.58 610.2 158.83 610.2 154 601.44 146.75"/>
      <polygon class="cls-13" points="601.44 175.75 592.68 168.5 592.68 163.67 601.44 170.92 610.2 163.67 610.2 168.5 601.44 175.75"/>
      <polygon class="cls-22" points="601.44 180.58 592.68 173.33 592.68 168.5 601.44 175.75 610.2 168.5 610.2 173.33 601.44 180.58"/>
      <polygon class="cls-19" points="601.44 170.92 592.68 163.67 592.68 158.83 601.44 166.08 610.2 158.83 610.2 163.67 601.44 170.92"/>
      <polygon class="cls-15" points="601.44 156.42 595.6 161.25 601.44 166.08 607.28 161.25 601.44 156.42"/>
      <polygon class="cls-22" points="601.44 175.75 592.68 183 592.68 187.83 601.44 180.58 610.2 187.83 610.2 183 601.44 175.75"/>
      <polygon class="cls-15" points="610.2 173.33 604.36 178.17 610.2 183 610.2 173.33"/>
      <polygon class="cls-15" points="592.68 173.33 598.52 178.17 592.68 183 592.68 173.33"/>
      <polygon class="cls-19" points="601.44 185.42 592.68 192.67 592.68 197.5 601.44 190.25 610.2 197.5 610.2 192.67 601.44 185.42"/>
      <polygon class="cls-13" points="601.44 180.58 592.68 187.83 592.68 192.67 601.44 185.42 610.2 192.67 610.2 187.83 601.44 180.58"/>
      <polygon class="cls-13" points="601.44 209.58 592.68 202.33 592.68 197.5 601.44 204.75 610.2 197.5 610.2 202.33 601.44 209.58"/>
      <polygon class="cls-22" points="601.44 214.42 592.68 207.17 592.68 202.33 601.44 209.58 610.2 202.33 610.2 207.17 601.44 214.42"/>
      <polygon class="cls-19" points="601.44 204.75 592.68 197.5 592.68 192.67 601.44 199.92 610.2 192.67 610.2 197.5 601.44 204.75"/>
      <polygon class="cls-15" points="601.44 190.25 595.6 195.08 601.44 199.92 607.28 195.08 601.44 190.25"/>
      <polygon class="cls-22" points="601.44 209.58 592.68 216.83 592.68 221.67 601.44 214.42 610.2 221.67 610.2 216.83 601.44 209.58"/>
      <polygon class="cls-15" points="610.2 207.17 604.36 212 610.2 216.83 610.2 207.17"/>
      <polygon class="cls-15" points="592.68 207.17 598.52 212 592.68 216.83 592.68 207.17"/>
      <polygon class="cls-19" points="601.44 219.25 592.68 226.5 592.68 231.33 601.44 224.08 610.2 231.33 610.2 226.5 601.44 219.25"/>
      <polygon class="cls-13" points="601.44 214.42 592.68 221.67 592.68 226.5 601.44 219.25 610.2 226.5 610.2 221.67 601.44 214.42"/>
      <polygon class="cls-13" points="601.44 243.42 592.68 236.17 592.68 231.33 601.44 238.58 610.2 231.33 610.2 236.17 601.44 243.42"/>
      <polygon class="cls-22" points="601.44 248.25 592.68 241 592.68 236.17 601.44 243.42 610.2 236.17 610.2 241 601.44 248.25"/>
      <polygon class="cls-19" points="601.44 238.58 592.68 231.33 592.68 226.5 601.44 233.75 610.2 226.5 610.2 231.33 601.44 238.58"/>
      <polygon class="cls-15" points="601.44 224.08 595.6 228.92 601.44 233.75 607.28 228.92 601.44 224.08"/>
      <polygon class="cls-22" points="601.44 243.42 592.68 250.67 592.68 255.5 601.44 248.25 610.2 255.5 610.2 250.67 601.44 243.42"/>
      <polygon class="cls-15" points="610.2 241 604.36 245.83 610.2 250.67 610.2 241"/>
      <polygon class="cls-15" points="592.68 241 598.52 245.83 592.68 250.67 592.68 241"/>
      <polygon class="cls-19" points="601.44 253.08 592.68 260.33 592.68 265.17 601.44 257.92 610.2 265.17 610.2 260.33 601.44 253.08"/>
      <polygon class="cls-13" points="601.44 248.25 592.68 255.5 592.68 260.33 601.44 253.08 610.2 260.33 610.2 255.5 601.44 248.25"/>
      <polygon class="cls-13" points="601.44 277.25 592.68 270 592.68 265.17 601.44 272.42 610.2 265.17 610.2 270 601.44 277.25"/>
      <polygon class="cls-22" points="601.44 282.08 592.68 274.83 592.68 270 601.44 277.25 610.2 270 610.2 274.83 601.44 282.08"/>
      <polygon class="cls-15" points="601.44 286.92 592.68 279.67 592.68 274.83 601.44 282.08 610.2 274.83 610.2 279.67 601.44 286.92"/>
      <polygon class="cls-19" points="601.44 272.42 592.68 265.17 592.68 260.33 601.44 267.58 610.2 260.33 610.2 265.17 601.44 272.42"/>
      <polygon class="cls-15" points="601.44 257.92 595.6 262.75 601.44 267.58 607.28 262.75 601.44 257.92"/>
      <ellipse class="cls-15" cx="601.44" cy="289.33" rx="2.92" ry="2.42"/>
      <line class="cls-4" x1="601.44" y1="291.75" x2="601.44" y2="336.86"/>
      <ellipse class="cls-15" cx="601.44" cy="100.83" rx="2.92" ry="2.42"/>
      <line class="cls-4" x1="601.44" y1="98.42" x2="601.44" y2="53.31"/>
    </g>
    <g>
      <polygon class="cls-18" points="102.35 139.5 96.5 144.33 102.35 149.17 102.35 139.5"/>
      <polygon class="cls-18" points="102.35 173.33 96.5 178.17 102.35 183 102.35 173.33"/>
      <polygon class="cls-18" points="102.35 207.17 96.5 212 102.35 216.83 102.35 207.17"/>
      <polygon class="cls-18" points="102.35 241 96.5 245.83 102.35 250.67 102.35 241"/>
      <g>
        <polygon class="cls-19" points="93.58 117.75 84.82 125 84.82 129.83 93.58 122.58 102.35 129.83 102.35 125 93.58 117.75"/>
        <polygon class="cls-20" points="93.58 112.92 84.82 120.17 84.82 125 93.58 117.75 102.35 125 102.35 120.17 93.58 112.92"/>
        <polygon class="cls-20" points="93.58 141.92 84.82 134.67 84.82 129.83 93.58 137.08 102.35 129.83 102.35 134.67 93.58 141.92"/>
        <polygon class="cls-25" points="93.58 108.08 84.82 115.33 84.82 120.17 93.58 112.92 102.35 120.17 102.35 115.33 93.58 108.08"/>
        <polygon class="cls-18" points="93.58 103.25 84.82 110.5 84.82 115.33 93.58 108.08 102.35 115.33 102.35 110.5 93.58 103.25"/>
        <polygon class="cls-25" points="93.58 146.75 84.82 139.5 84.82 134.67 93.58 141.92 102.35 134.67 102.35 139.5 93.58 146.75"/>
        <polygon class="cls-19" points="93.58 137.08 84.82 129.83 84.82 125 93.58 132.25 102.35 125 102.35 129.83 93.58 137.08"/>
        <polygon class="cls-18" points="93.58 122.58 87.74 127.42 93.58 132.25 99.42 127.42 93.58 122.58"/>
        <polygon class="cls-25" points="93.58 141.92 84.82 149.17 84.82 154 93.58 146.75 102.35 154 102.35 149.17 93.58 141.92"/>
        <polygon class="cls-18" points="84.82 139.5 90.66 144.33 84.82 149.17 84.82 139.5"/>
        <polygon class="cls-19" points="93.58 151.58 84.82 158.83 84.82 163.67 93.58 156.42 102.35 163.67 102.35 158.83 93.58 151.58"/>
        <polygon class="cls-20" points="93.58 146.75 84.82 154 84.82 158.83 93.58 151.58 102.35 158.83 102.35 154 93.58 146.75"/>
        <polygon class="cls-20" points="93.58 175.75 84.82 168.5 84.82 163.67 93.58 170.92 102.35 163.67 102.35 168.5 93.58 175.75"/>
        <polygon class="cls-25" points="93.58 180.58 84.82 173.33 84.82 168.5 93.58 175.75 102.35 168.5 102.35 173.33 93.58 180.58"/>
        <polygon class="cls-19" points="93.58 170.92 84.82 163.67 84.82 158.83 93.58 166.09 102.35 158.83 102.35 163.67 93.58 170.92"/>
        <polygon class="cls-18" points="93.58 156.42 87.74 161.25 93.58 166.08 99.42 161.25 93.58 156.42"/>
        <polygon class="cls-25" points="93.58 175.75 84.82 183 84.82 187.83 93.58 180.58 102.35 187.83 102.35 183 93.58 175.75"/>
        <polygon class="cls-18" points="84.82 173.33 90.66 178.17 84.82 183 84.82 173.33"/>
        <polygon class="cls-19" points="93.58 185.42 84.82 192.67 84.82 197.5 93.58 190.25 102.35 197.5 102.35 192.67 93.58 185.42"/>
        <polygon class="cls-20" points="93.58 180.58 84.82 187.83 84.82 192.67 93.58 185.42 102.35 192.67 102.35 187.83 93.58 180.58"/>
        <polygon class="cls-20" points="93.58 209.58 84.82 202.33 84.82 197.5 93.58 204.75 102.35 197.5 102.35 202.33 93.58 209.58"/>
        <polygon class="cls-25" points="93.58 214.42 84.82 207.17 84.82 202.33 93.58 209.58 102.35 202.33 102.35 207.17 93.58 214.42"/>
        <polygon class="cls-19" points="93.58 204.75 84.82 197.5 84.82 192.67 93.58 199.92 102.35 192.67 102.35 197.5 93.58 204.75"/>
        <polygon class="cls-18" points="93.58 190.25 87.74 195.08 93.58 199.92 99.42 195.08 93.58 190.25"/>
        <polygon class="cls-25" points="93.58 209.58 84.82 216.83 84.82 221.67 93.58 214.42 102.35 221.67 102.35 216.83 93.58 209.58"/>
        <polygon class="cls-18" points="84.82 207.17 90.66 212 84.82 216.83 84.82 207.17"/>
        <polygon class="cls-19" points="93.58 219.25 84.82 226.5 84.82 231.33 93.58 224.08 102.35 231.33 102.35 226.5 93.58 219.25"/>
        <polygon class="cls-20" points="93.58 214.42 84.82 221.67 84.82 226.5 93.58 219.25 102.35 226.5 102.35 221.67 93.58 214.42"/>
        <polygon class="cls-20" points="93.58 243.42 84.82 236.17 84.82 231.33 93.58 238.58 102.35 231.33 102.35 236.17 93.58 243.42"/>
        <polygon class="cls-25" points="93.58 248.25 84.82 241 84.82 236.17 93.58 243.42 102.35 236.17 102.35 241 93.58 248.25"/>
        <polygon class="cls-19" points="93.58 238.58 84.82 231.33 84.82 226.5 93.58 233.75 102.35 226.5 102.35 231.33 93.58 238.58"/>
        <polygon class="cls-18" points="93.58 224.08 87.74 228.92 93.58 233.75 99.42 228.92 93.58 224.08"/>
        <polygon class="cls-25" points="93.58 243.42 84.82 250.67 84.82 255.5 93.58 248.25 102.35 255.5 102.35 250.67 93.58 243.42"/>
        <polygon class="cls-18" points="84.82 241 90.66 245.83 84.82 250.67 84.82 241"/>
        <polygon class="cls-19" points="93.58 253.08 84.82 260.33 84.82 265.17 93.58 257.92 102.35 265.17 102.35 260.33 93.58 253.08"/>
        <polygon class="cls-20" points="93.58 248.25 84.82 255.5 84.82 260.33 93.58 253.08 102.35 260.33 102.35 255.5 93.58 248.25"/>
        <polygon class="cls-20" points="93.58 277.25 84.82 270 84.82 265.17 93.58 272.42 102.35 265.17 102.35 270 93.58 277.25"/>
        <polygon class="cls-25" points="93.58 282.08 84.82 274.83 84.82 270 93.58 277.25 102.35 270 102.35 274.83 93.58 282.08"/>
        <polygon class="cls-18" points="93.58 286.92 84.82 279.67 84.82 274.83 93.58 282.08 102.35 274.83 102.35 279.67 93.58 286.92"/>
        <polygon class="cls-19" points="93.58 272.42 84.82 265.17 84.82 260.33 93.58 267.58 102.35 260.33 102.35 265.17 93.58 272.42"/>
        <polygon class="cls-18" points="93.58 257.92 87.74 262.75 93.58 267.58 99.42 262.75 93.58 257.92"/>
        <path class="cls-18" d="M96.5,289.33c0,1.33-1.31,2.42-2.92,2.42s-2.92-1.08-2.92-2.42,1.31-2.42,2.92-2.42,2.92,1.08,2.92,2.42Z"/>
        <line class="cls-12" x1="93.58" y1="291.75" x2="93.58" y2="336.86"/>
        <path class="cls-18" d="M96.5,100.83c0-1.33-1.31-2.42-2.92-2.42s-2.92,1.08-2.92,2.42,1.31,2.42,2.92,2.42,2.92-1.08,2.92-2.42Z"/>
        <line class="cls-12" x1="93.58" y1="98.42" x2="93.58" y2="53.31"/>
      </g>
    </g>
    <g>
      <polygon class="cls-23" points="139.75 115.33 128.07 125 128.07 129.83 139.75 120.17 151.43 129.83 151.43 125 139.75 115.33"/>
      <polygon class="cls-26" points="139.75 105.67 128.07 115.33 128.07 125 139.75 115.33 151.43 125 151.43 115.33 139.75 105.67"/>
      <polygon class="cls-23" points="139.75 139.5 128.07 149.17 128.07 154 139.75 144.33 151.43 154 151.43 149.17 139.75 139.5"/>
      <polygon class="cls-26" points="139.75 129.83 128.07 139.5 128.07 149.17 139.75 139.5 151.43 149.17 151.43 139.5 139.75 129.83"/>
      <polygon class="cls-25" points="139.75 120.17 128.07 129.83 128.07 139.5 139.75 129.83 151.43 139.5 151.43 129.83 139.75 120.17"/>
      <polygon class="cls-23" points="139.75 163.67 128.07 173.33 128.07 178.17 139.75 168.5 151.43 178.17 151.43 173.33 139.75 163.67"/>
      <polygon class="cls-26" points="139.75 154 128.07 163.67 128.07 173.33 139.75 163.67 151.43 173.33 151.43 163.67 139.75 154"/>
      <polygon class="cls-25" points="139.75 144.33 128.07 154 128.07 163.67 139.75 154 151.43 163.67 151.43 154 139.75 144.33"/>
      <polygon class="cls-23" points="139.75 187.83 128.07 197.5 128.07 202.33 139.75 192.67 151.43 202.33 151.43 197.5 139.75 187.83"/>
      <polygon class="cls-26" points="139.75 178.17 128.07 187.83 128.07 197.5 139.75 187.83 151.43 197.5 151.43 187.83 139.75 178.17"/>
      <polygon class="cls-25" points="139.75 168.5 128.07 178.17 128.07 187.83 139.75 178.17 151.43 187.83 151.43 178.17 139.75 168.5"/>
      <polygon class="cls-23" points="139.75 212 128.07 221.67 128.07 226.5 139.75 216.83 151.43 226.5 151.43 221.67 139.75 212"/>
      <polygon class="cls-26" points="139.75 202.33 128.07 212 128.07 221.67 139.75 212 151.43 221.67 151.43 212 139.75 202.33"/>
      <polygon class="cls-25" points="139.75 192.67 128.07 202.33 128.07 212 139.75 202.33 151.43 212 151.43 202.33 139.75 192.67"/>
      <polygon class="cls-23" points="139.75 236.17 128.07 245.83 128.07 250.67 139.75 241 151.43 250.67 151.43 245.83 139.75 236.17"/>
      <polygon class="cls-26" points="139.75 226.5 128.07 236.17 128.07 245.83 139.75 236.17 151.43 245.83 151.43 236.17 139.75 226.5"/>
      <polygon class="cls-25" points="139.75 216.83 128.07 226.5 128.07 236.17 139.75 226.5 151.43 236.17 151.43 226.5 139.75 216.83"/>
      <polygon class="cls-23" points="139.75 260.33 128.07 270 128.07 274.83 139.75 265.17 151.43 274.83 151.43 270 139.75 260.33"/>
      <polygon class="cls-26" points="139.75 250.67 128.07 260.33 128.07 270 139.75 260.33 151.43 270 151.43 260.33 139.75 250.67"/>
      <polygon class="cls-25" points="139.75 241 128.07 250.67 128.07 260.33 139.75 250.67 151.43 260.33 151.43 250.67 139.75 241"/>
      <polygon class="cls-26" points="139.75 274.83 133.91 279.67 139.75 284.5 145.59 279.67 139.75 274.83"/>
      <polygon class="cls-25" points="139.75 265.17 128.07 274.83 133.91 279.67 139.75 274.83 145.59 279.67 151.43 274.83 139.75 265.17"/>
      <path class="cls-26" d="M142.67,286.92c0,1.33-1.31,2.42-2.92,2.42s-2.92-1.08-2.92-2.42,1.31-2.42,2.92-2.42,2.92,1.08,2.92,2.42Z"/>
      <line class="cls-11" x1="139.75" y1="289.33" x2="139.75" y2="334.44"/>
      <path class="cls-26" d="M142.67,103.25c0-1.33-1.31-2.42-2.92-2.42s-2.92,1.08-2.92,2.42,1.31,2.42,2.92,2.42,2.92-1.08,2.92-2.42Z"/>
      <line class="cls-11" x1="139.75" y1="100.83" x2="139.75" y2="55.72"/>
    </g>
    <g>
      <polygon class="cls-20" points="506.18 277.25 512.02 272.42 514.94 274.83 509.1 279.67 506.18 277.25"/>
      <polygon class="cls-25" points="503.26 274.83 509.1 270 512.02 272.42 506.18 277.25 503.26 274.83"/>
      <polygon class="cls-18" points="503.26 270 506.18 267.58 509.1 270 503.26 274.83 503.26 270"/>
      <polygon class="cls-20" points="514.94 129.83 503.26 120.17 503.26 115.33 514.94 125 514.94 129.83"/>
      <polygon class="cls-19" points="514.94 134.67 503.26 125 503.26 120.17 514.94 129.83 514.94 134.67"/>
      <polygon class="cls-14" points="514.94 139.5 503.26 129.83 503.26 125 514.94 134.67 514.94 139.5"/>
      <polygon class="cls-18" points="514.94 144.33 503.26 134.67 503.26 129.83 514.94 139.5 514.94 144.33"/>
      <polygon class="cls-25" points="514.94 149.17 503.26 139.5 503.26 134.67 514.94 144.33 514.94 149.17"/>
      <polygon class="cls-20" points="514.94 154 503.26 144.33 503.26 139.5 514.94 149.17 514.94 154"/>
      <polygon class="cls-19" points="514.94 158.83 503.26 149.17 503.26 144.33 514.94 154 514.94 158.83"/>
      <polygon class="cls-14" points="514.94 163.67 503.26 154 503.26 149.17 514.94 158.83 514.94 163.67"/>
      <polygon class="cls-18" points="514.94 168.5 503.26 158.83 503.26 154 514.94 163.67 514.94 168.5"/>
      <polygon class="cls-25" points="514.94 173.33 503.26 163.67 503.26 158.83 514.94 168.5 514.94 173.33"/>
      <polygon class="cls-20" points="514.94 178.17 503.26 168.5 503.26 163.67 514.94 173.33 514.94 178.17"/>
      <polygon class="cls-19" points="514.94 183 503.26 173.33 503.26 168.5 514.94 178.17 514.94 183"/>
      <polygon class="cls-14" points="514.94 187.83 503.26 178.17 503.26 173.33 514.94 183 514.94 187.83"/>
      <polygon class="cls-18" points="514.94 192.67 503.26 183 503.26 178.17 514.94 187.83 514.94 192.67"/>
      <polygon class="cls-25" points="514.94 197.5 503.26 187.83 503.26 183 514.94 192.67 514.94 197.5"/>
      <polygon class="cls-20" points="514.94 202.33 503.26 192.67 503.26 187.83 514.94 197.5 514.94 202.33"/>
      <polygon class="cls-19" points="514.94 207.17 503.26 197.5 503.26 192.67 514.94 202.33 514.94 207.17"/>
      <polygon class="cls-14" points="514.94 212 503.26 202.33 503.26 197.5 514.94 207.17 514.94 212"/>
      <polygon class="cls-18" points="514.94 216.83 503.26 207.17 503.26 202.33 514.94 212 514.94 216.83"/>
      <polygon class="cls-25" points="514.94 221.67 503.26 212 503.26 207.17 514.94 216.83 514.94 221.67"/>
      <polygon class="cls-20" points="514.94 226.5 503.26 216.83 503.26 212 514.94 221.67 514.94 226.5"/>
      <polygon class="cls-19" points="514.94 231.33 503.26 221.67 503.26 216.83 514.94 226.5 514.94 231.33"/>
      <polygon class="cls-14" points="514.94 236.17 503.26 226.5 503.26 221.67 514.94 231.33 514.94 236.17"/>
      <polygon class="cls-18" points="514.94 241 503.26 231.33 503.26 226.5 514.94 236.17 514.94 241"/>
      <polygon class="cls-25" points="514.94 245.83 503.26 236.17 503.26 231.33 514.94 241 514.94 245.83"/>
      <polygon class="cls-20" points="514.94 250.67 503.26 241 503.26 236.17 514.94 245.83 514.94 250.67"/>
      <polygon class="cls-19" points="514.94 255.5 503.26 245.83 503.26 241 514.94 250.67 514.94 255.5"/>
      <polygon class="cls-14" points="514.94 260.33 503.26 250.67 503.26 245.83 514.94 255.5 514.94 260.33"/>
      <polygon class="cls-18" points="514.94 265.17 503.26 255.5 503.26 250.67 514.94 260.33 514.94 265.17"/>
      <polygon class="cls-25" points="514.94 270 503.26 260.33 503.26 255.5 514.94 265.17 514.94 270"/>
      <polygon class="cls-20" points="514.94 274.83 503.26 265.17 503.26 260.33 514.94 270 514.94 274.83"/>
      <polygon class="cls-14" points="503.26 265.17 506.18 267.58 503.26 270 503.26 265.17"/>
      <path class="cls-20" d="M512.02,282.08c0,1.33-1.31,2.42-2.92,2.42s-2.92-1.08-2.92-2.42,1.31-2.42,2.92-2.42,2.92,1.08,2.92,2.42Z"/>
      <line class="cls-7" x1="509.1" y1="284.5" x2="509.1" y2="329.61"/>
      <polygon class="cls-20" points="512.02 112.92 506.18 117.75 503.26 115.33 509.1 110.5 512.02 112.92"/>
      <polygon class="cls-25" points="514.94 115.33 509.1 120.17 506.18 117.75 512.02 112.92 514.94 115.33"/>
      <polygon class="cls-18" points="514.94 120.17 512.02 122.58 509.1 120.17 514.94 115.33 514.94 120.17"/>
      <polygon class="cls-14" points="514.94 125 512.02 122.58 514.94 120.17 514.94 125"/>
      <path class="cls-20" d="M506.18,108.08c0-1.33,1.31-2.42,2.92-2.42s2.92,1.08,2.92,2.42-1.31,2.42-2.92,2.42-2.92-1.08-2.92-2.42Z"/>
      <line class="cls-7" x1="509.1" y1="105.67" x2="509.1" y2="60.56"/>
    </g>
    <g>
      <polygon class="cls-26" points="416.76 132.25 405.08 122.58 405.08 117.75 416.76 127.42 428.44 117.75 428.44 122.58 416.76 132.25"/>
      <polygon class="cls-2" points="416.76 137.08 405.08 127.42 405.08 122.58 416.76 132.25 428.44 122.58 428.44 127.42 416.76 137.08"/>
      <polygon class="cls-19" points="416.76 141.92 405.08 132.25 405.08 127.42 416.76 137.08 428.44 127.42 428.44 132.25 416.76 141.92"/>
      <polygon class="cls-24" points="416.76 146.75 405.08 137.08 405.08 132.25 416.76 141.92 428.44 132.25 428.44 137.08 416.76 146.75"/>
      <polygon class="cls-20" points="416.76 151.58 405.08 141.92 405.08 137.08 416.76 146.75 428.44 137.08 428.44 141.92 416.76 151.58"/>
      <polygon class="cls-26" points="416.76 156.42 405.08 146.75 405.08 141.92 416.76 151.58 428.44 141.92 428.44 146.75 416.76 156.42"/>
      <polygon class="cls-2" points="416.76 161.25 405.08 151.58 405.08 146.75 416.76 156.42 428.44 146.75 428.44 151.58 416.76 161.25"/>
      <polygon class="cls-19" points="416.76 166.08 405.08 156.42 405.08 151.58 416.76 161.25 428.44 151.58 428.44 156.42 416.76 166.08"/>
      <polygon class="cls-24" points="416.76 170.92 405.08 161.25 405.08 156.42 416.76 166.08 428.44 156.42 428.44 161.25 416.76 170.92"/>
      <polygon class="cls-20" points="416.76 175.75 405.08 166.08 405.08 161.25 416.76 170.92 428.44 161.25 428.44 166.08 416.76 175.75"/>
      <polygon class="cls-26" points="416.76 180.58 405.08 170.92 405.08 166.08 416.76 175.75 428.44 166.08 428.44 170.92 416.76 180.58"/>
      <polygon class="cls-2" points="416.76 185.42 405.08 175.75 405.08 170.92 416.76 180.58 428.44 170.92 428.44 175.75 416.76 185.42"/>
      <polygon class="cls-19" points="416.76 190.25 405.08 180.58 405.08 175.75 416.76 185.42 428.44 175.75 428.44 180.58 416.76 190.25"/>
      <polygon class="cls-24" points="416.76 195.08 405.08 185.42 405.08 180.58 416.76 190.25 428.44 180.58 428.44 185.42 416.76 195.08"/>
      <polygon class="cls-20" points="416.76 199.92 405.08 190.25 405.08 185.42 416.76 195.08 428.44 185.42 428.44 190.25 416.76 199.92"/>
      <polygon class="cls-26" points="416.76 204.75 405.08 195.08 405.08 190.25 416.76 199.92 428.44 190.25 428.44 195.08 416.76 204.75"/>
      <polygon class="cls-2" points="416.76 209.58 405.08 199.92 405.08 195.08 416.76 204.75 428.44 195.08 428.44 199.92 416.76 209.58"/>
      <polygon class="cls-19" points="416.76 214.42 405.08 204.75 405.08 199.92 416.76 209.58 428.44 199.92 428.44 204.75 416.76 214.42"/>
      <polygon class="cls-24" points="416.76 219.25 405.08 209.58 405.08 204.75 416.76 214.42 428.44 204.75 428.44 209.58 416.76 219.25"/>
      <polygon class="cls-20" points="416.76 224.08 405.08 214.42 405.08 209.58 416.76 219.25 428.44 209.58 428.44 214.42 416.76 224.08"/>
      <polygon class="cls-26" points="416.76 228.92 405.08 219.25 405.08 214.42 416.76 224.08 428.44 214.42 428.44 219.25 416.76 228.92"/>
      <polygon class="cls-2" points="416.76 233.75 405.08 224.08 405.08 219.25 416.76 228.92 428.44 219.25 428.44 224.08 416.76 233.75"/>
      <polygon class="cls-19" points="416.76 238.58 405.08 228.92 405.08 224.08 416.76 233.75 428.44 224.08 428.44 228.92 416.76 238.58"/>
      <polygon class="cls-24" points="416.76 243.42 405.08 233.75 405.08 228.92 416.76 238.58 428.44 228.92 428.44 233.75 416.76 243.42"/>
      <polygon class="cls-20" points="416.76 248.25 405.08 238.58 405.08 233.75 416.76 243.42 428.44 233.75 428.44 238.58 416.76 248.25"/>
      <polygon class="cls-26" points="416.76 253.08 405.08 243.42 405.08 238.58 416.76 248.25 428.44 238.58 428.44 243.42 416.76 253.08"/>
      <polygon class="cls-2" points="416.76 257.92 405.08 248.25 405.08 243.42 416.76 253.08 428.44 243.42 428.44 248.25 416.76 257.92"/>
      <polygon class="cls-19" points="416.76 262.75 405.08 253.08 405.08 248.25 416.76 257.92 428.44 248.25 428.44 253.08 416.76 262.75"/>
      <polygon class="cls-24" points="416.76 267.58 405.08 257.92 405.08 253.08 416.76 262.75 428.44 253.08 428.44 257.92 416.76 267.58"/>
      <polygon class="cls-20" points="416.76 272.42 405.08 262.75 405.08 257.92 416.76 267.58 428.44 257.92 428.44 262.75 416.76 272.42"/>
      <polygon class="cls-26" points="416.76 277.25 405.08 267.58 405.08 262.75 416.76 272.42 428.44 262.75 428.44 267.58 416.76 277.25"/>
      <polygon class="cls-2" points="416.76 282.08 405.08 272.42 405.08 267.58 416.76 277.25 428.44 267.58 428.44 272.42 416.76 282.08"/>
      <polygon class="cls-20" points="416.76 127.42 405.08 117.75 408 115.33 416.76 122.58 425.52 115.33 428.44 117.75 416.76 127.42"/>
      <polygon class="cls-24" points="416.76 122.58 408 115.33 410.92 112.92 416.76 117.75 422.6 112.92 425.52 115.33 416.76 122.58"/>
      <polygon class="cls-19" points="416.76 117.75 410.92 112.92 413.84 110.5 416.76 112.92 419.68 110.5 422.6 112.92 416.76 117.75"/>
      <polygon class="cls-2" points="416.76 108.08 413.84 110.5 416.76 112.92 419.68 110.5 416.76 108.08"/>
      <path class="cls-2" d="M419.68,284.5c0,1.33-1.31,2.42-2.92,2.42s-2.92-1.08-2.92-2.42,1.31-2.42,2.92-2.42,2.92,1.08,2.92,2.42Z"/>
      <line class="cls-10" x1="416.76" y1="286.92" x2="416.76" y2="332.03"/>
      <path class="cls-2" d="M413.84,105.67c0-1.33,1.31-2.42,2.92-2.42s2.92,1.08,2.92,2.42-1.31,2.42-2.92,2.42-2.92-1.08-2.92-2.42Z"/>
      <line class="cls-10" x1="416.76" y1="103.25" x2="416.76" y2="58.14"/>
    </g>
    <g>
      <polygon class="cls-16" points="191.76 129.83 180.08 120.17 180.08 115.33 191.76 125 191.76 129.83"/>
      <polygon class="cls-2" points="191.76 134.67 180.08 125 180.08 120.17 191.76 129.83 191.76 134.67"/>
      <polygon class="cls-19" points="191.76 139.5 180.08 129.83 180.08 125 191.76 134.67 191.76 139.5"/>
      <polygon class="cls-14" points="191.76 144.33 180.08 134.67 180.08 129.83 191.76 139.5 191.76 144.33"/>
      <polygon class="cls-1" points="191.76 149.17 180.08 139.5 180.08 134.67 191.76 144.33 191.76 149.17"/>
      <polygon class="cls-16" points="191.76 154 180.08 144.33 180.08 139.5 191.76 149.17 191.76 154"/>
      <polygon class="cls-2" points="191.76 158.83 180.08 149.17 180.08 144.33 191.76 154 191.76 158.83"/>
      <polygon class="cls-19" points="191.76 163.67 180.08 154 180.08 149.17 191.76 158.83 191.76 163.67"/>
      <polygon class="cls-14" points="191.76 168.5 180.08 158.83 180.08 154 191.76 163.67 191.76 168.5"/>
      <polygon class="cls-1" points="191.76 173.33 180.08 163.67 180.08 158.83 191.76 168.5 191.76 173.33"/>
      <polygon class="cls-16" points="191.76 178.17 180.08 168.5 180.08 163.67 191.76 173.33 191.76 178.17"/>
      <polygon class="cls-2" points="191.76 183 180.08 173.33 180.08 168.5 191.76 178.17 191.76 183"/>
      <polygon class="cls-19" points="191.76 187.83 180.08 178.17 180.08 173.33 191.76 183 191.76 187.83"/>
      <polygon class="cls-14" points="191.76 192.67 180.08 183 180.08 178.17 191.76 187.83 191.76 192.67"/>
      <polygon class="cls-1" points="191.76 197.5 180.08 187.83 180.08 183 191.76 192.67 191.76 197.5"/>
      <polygon class="cls-16" points="191.76 202.33 180.08 192.67 180.08 187.83 191.76 197.5 191.76 202.33"/>
      <polygon class="cls-2" points="191.76 207.17 180.08 197.5 180.08 192.67 191.76 202.33 191.76 207.17"/>
      <polygon class="cls-19" points="191.76 212 180.08 202.33 180.08 197.5 191.76 207.17 191.76 212"/>
      <polygon class="cls-14" points="191.76 216.83 180.08 207.17 180.08 202.33 191.76 212 191.76 216.83"/>
      <polygon class="cls-1" points="191.76 221.67 180.08 212 180.08 207.17 191.76 216.83 191.76 221.67"/>
      <polygon class="cls-16" points="191.76 226.5 180.08 216.83 180.08 212 191.76 221.67 191.76 226.5"/>
      <polygon class="cls-2" points="191.76 231.33 180.08 221.67 180.08 216.83 191.76 226.5 191.76 231.33"/>
      <polygon class="cls-19" points="191.76 236.17 180.08 226.5 180.08 221.67 191.76 231.33 191.76 236.17"/>
      <polygon class="cls-14" points="191.76 241 180.08 231.33 180.08 226.5 191.76 236.17 191.76 241"/>
      <polygon class="cls-1" points="191.76 245.83 180.08 236.17 180.08 231.33 191.76 241 191.76 245.83"/>
      <polygon class="cls-16" points="191.76 250.67 180.08 241 180.08 236.17 191.76 245.83 191.76 250.67"/>
      <polygon class="cls-2" points="191.76 255.5 180.08 245.83 180.08 241 191.76 250.67 191.76 255.5"/>
      <polygon class="cls-19" points="191.76 260.33 180.08 250.67 180.08 245.83 191.76 255.5 191.76 260.33"/>
      <polygon class="cls-14" points="191.76 265.17 180.08 255.5 180.08 250.67 191.76 260.33 191.76 265.17"/>
      <polygon class="cls-1" points="191.76 270 180.08 260.33 180.08 255.5 191.76 265.17 191.76 270"/>
      <polygon class="cls-16" points="191.76 274.83 180.08 265.17 180.08 260.33 191.76 270 191.76 274.83"/>
      <path class="cls-2" d="M188.84,282.08c0,1.33-1.31,2.42-2.92,2.42s-2.92-1.08-2.92-2.42,1.31-2.42,2.92-2.42,2.92,1.08,2.92,2.42Z"/>
      <line class="cls-10" x1="185.92" y1="284.5" x2="185.92" y2="329.61"/>
      <polygon class="cls-2" points="183 277.25 188.84 272.42 191.76 274.83 185.92 279.67 183 277.25"/>
      <polygon class="cls-16" points="180.08 274.83 185.92 270 188.84 272.42 183 277.25 180.08 274.83"/>
      <polygon class="cls-1" points="180.08 270 183 267.58 185.92 270 180.08 274.83 180.08 270"/>
      <polygon class="cls-14" points="180.08 265.17 183 267.58 180.08 270 180.08 265.17"/>
      <path class="cls-2" d="M183,108.08c0-1.33,1.31-2.42,2.92-2.42s2.92,1.08,2.92,2.42-1.31,2.42-2.92,2.42-2.92-1.08-2.92-2.42Z"/>
      <line class="cls-10" x1="185.92" y1="105.67" x2="185.92" y2="60.56"/>
      <polygon class="cls-2" points="188.84 112.92 183 117.75 180.08 115.33 185.92 110.5 188.84 112.92"/>
      <polygon class="cls-16" points="191.76 115.33 185.92 120.17 183 117.75 188.84 112.92 191.76 115.33"/>
      <polygon class="cls-1" points="191.76 120.17 188.84 122.58 185.92 120.17 191.76 115.33 191.76 120.17"/>
      <polygon class="cls-14" points="191.76 125 188.84 122.58 191.76 120.17 191.76 125"/>
    </g>
  </g>
</svg>