<?xml version="1.0" encoding="UTF-8"?>
<svg id="Layer_1" data-name="Layer 1" xmlns="http://www.w3.org/2000/svg" xmlns:xlink="http://www.w3.org/1999/xlink" viewBox="0 0 700 395">
  <defs>
    <style>
      .cls-1 {
        fill: #8fc3a1;
      }

      .cls-2 {
        fill: #bc989f;
      }

      .cls-3 {
        fill: #8dc2c3;
        filter: url(#drop-shadow-16);
        stroke: #a69b89;
        stroke-width: 17.25px;
      }

      .cls-3, .cls-4 {
        stroke-miterlimit: 10;
      }

      .cls-5 {
        fill: #efedea;
      }

      .cls-6 {
        filter: url(#drop-shadow-19);
      }

      .cls-7 {
        filter: url(#drop-shadow-18);
      }

      .cls-8 {
        filter: url(#drop-shadow-17);
      }

      .cls-9 {
        filter: url(#drop-shadow-20);
        opacity: .8;
      }

      .cls-4 {
        fill: none;
        stroke: #bc989f;
        stroke-linecap: round;
        stroke-width: 1px;
      }

      .cls-10 {
        fill: #7f7f7f;
      }

      .cls-11 {
        fill: #293c46;
      }
    </style>
    <filter id="drop-shadow-16" x="226.36" y="75.13" width="254.29" height="254.29" filterUnits="userSpaceOnUse">
      <feOffset dx="7" dy="7"/>
      <feGaussianBlur result="blur" stdDeviation="0"/>
      <feFlood flood-color="#000" flood-opacity=".1"/>
      <feComposite in2="blur" operator="in"/>
      <feComposite in="SourceGraphic"/>
    </filter>
    <filter id="drop-shadow-17" x="309.13" y="125.09" width="66.45" height="65.62" filterUnits="userSpaceOnUse">
      <feOffset dx="7" dy="7"/>
      <feGaussianBlur result="blur-2" stdDeviation="0"/>
      <feFlood flood-color="#000" flood-opacity=".05"/>
      <feComposite in2="blur-2" operator="in"/>
      <feComposite in="SourceGraphic"/>
    </filter>
    <filter id="drop-shadow-18" x="349.94" y="224.18" width="60.68" height="60.57" filterUnits="userSpaceOnUse">
      <feOffset dx="7" dy="7"/>
      <feGaussianBlur result="blur-3" stdDeviation="0"/>
      <feFlood flood-color="#000" flood-opacity=".05"/>
      <feComposite in2="blur-3" operator="in"/>
      <feComposite in="SourceGraphic"/>
    </filter>
    <filter id="drop-shadow-19" x="387.15" y="145.75" width="51.95" height="81.66" filterUnits="userSpaceOnUse">
      <feOffset dx="7" dy="7"/>
      <feGaussianBlur result="blur-4" stdDeviation="0"/>
      <feFlood flood-color="#000" flood-opacity=".05"/>
      <feComposite in2="blur-4" operator="in"/>
      <feComposite in="SourceGraphic"/>
    </filter>
    <filter id="drop-shadow-20" x="279.55" y="184.15" width="67.22" height="83.47" filterUnits="userSpaceOnUse">
      <feOffset dx="7" dy="7"/>
      <feGaussianBlur result="blur-5" stdDeviation="0"/>
      <feFlood flood-color="#000" flood-opacity=".05"/>
      <feComposite in2="blur-5" operator="in"/>
      <feComposite in="SourceGraphic"/>
    </filter>
  </defs>
  <rect class="cls-5" y=".1" width="700" height="395"/>
  <circle class="cls-3" cx="350" cy="198.77" r="115"/>
  <g class="cls-8">
    <path class="cls-10" d="M354.03,179.63c.77-.44,1.04-1.44.59-2.21-2.03-3.52-4.48-9.1-6.34-11.47-2.9-3.7-4.58-6.81-6.06-9.54-1.15-2.13-7.92-14.87-9.4-16.83-.02-.02-.11-.15-.25-.33-.35-.47-.98-1.34-1.72-2.48-2.06-3.17-3.36-5.95-4.13-7.78-.05-.09-.35-.58-.98-.75-.4-.11-.84-.06-1.23.16-.77.44-1.04,1.44-.59,2.21,6.69,12.02,9.12,16.09,9.94,17.25.14.2.81,1.13,1.57,2.47.63,1.12,1.05,2.04,1.13,2.22,1.15,2.51,3.42,5.45,5.86,9.79,2.04,3.62,4.42,8.6,5.53,10.11.08.11.46.61.89,1.35.44.74.71,1.32.8,1.53.34.73.96,1.89,2.18,3.71.12.09,1.4,1.06,2.21.59Z"/>
    <path class="cls-10" d="M367.39,163.79c.29-.84-.16-1.77-1-2.06-3.84-1.33-9.35-3.94-12.3-4.51-4.61-.9-7.92-2.14-10.82-3.24-2.27-.85-15.73-6.05-18.13-6.56-.03,0-.18-.04-.4-.09-.57-.13-1.62-.37-2.92-.74-3.63-1.04-6.44-2.29-8.22-3.17-.1-.04-.65-.21-1.24.07-.37.18-.68.5-.82.92-.29.84.16,1.77,1,2.06,12.93,4.7,17.43,6.18,18.81,6.52.24.06,1.35.32,2.81.84,1.21.43,2.13.85,2.31.93,2.52,1.14,6.15,1.88,10.84,3.56,3.92,1.4,8.98,3.6,10.8,4.01.13.03.75.16,1.56.43.82.27,1.4.54,1.6.63.74.33,1.96.8,4.08,1.38.15,0,1.75-.12,2.06-1Z"/>
    <path class="cls-10" d="M362.82,135.88c-.56-.69-1.59-.79-2.28-.23-3.15,2.57-8.26,5.88-10.3,8.09-3.19,3.45-5.98,5.61-8.44,7.51-1.92,1.48-13.41,10.2-15.11,11.98-.02.02-.13.14-.28.29-.41.42-1.16,1.18-2.17,2.1-2.79,2.54-5.34,4.28-7.02,5.33-.08.07-.52.44-.59,1.09-.04.41.07.84.35,1.19.56.69,1.59.79,2.28.23,10.79-8.53,14.42-11.58,15.43-12.57.18-.17.98-.98,2.19-1.95,1-.8,1.85-1.36,2.01-1.47,2.3-1.54,4.83-4.25,8.72-7.35,3.25-2.6,7.78-5.74,9.09-7.08.09-.09.53-.55,1.19-1.1.66-.55,1.19-.91,1.38-1.03.67-.46,1.71-1.25,3.32-2.74.07-.13.82-1.56.23-2.28Z"/>
    <path class="cls-10" d="M348.27,125.76c-.85-.26-1.76.21-2.03,1.06-1.21,3.88-3.64,9.47-4.12,12.44-.75,4.64-1.89,7.98-2.89,10.92-.78,2.29-5.55,15.91-5.98,18.33,0,.03-.03.18-.07.4-.11.57-.32,1.63-.65,2.95-.93,3.66-2.09,6.51-2.91,8.32-.03.1-.19.65.11,1.23.19.37.52.66.95.79.85.26,1.76-.21,2.03-1.06,4.28-13.07,5.63-17.61,5.92-19,.05-.24.28-1.36.75-2.83.39-1.22.79-2.16.86-2.33,1.06-2.55,1.68-6.21,3.21-10.95,1.28-3.96,3.31-9.08,3.67-10.92.03-.13.14-.75.38-1.57.25-.83.49-1.42.58-1.62.31-.75.74-1.99,1.25-4.12-.01-.15-.18-1.75-1.06-2.03Z"/>
    <path class="cls-10" d="M344.15,125.11c-.88-.15-1.72.44-1.87,1.31-.7,4-2.4,9.86-2.5,12.86-.15,4.7-.86,8.16-1.48,11.2-.48,2.37-3.47,16.49-3.59,18.94,0,.03,0,.19-.02.41-.03.58-.11,1.66-.27,3-.45,3.75-1.24,6.72-1.82,8.62-.02.11-.1.67.27,1.21.24.34.6.59,1.04.67.88.15,1.72-.44,1.87-1.31,2.58-13.51,3.33-18.19,3.45-19.6.02-.25.1-1.39.38-2.9.23-1.26.51-2.24.56-2.43.73-2.67.88-6.37,1.79-11.27.76-4.09,2.13-9.43,2.25-11.3,0-.13.04-.77.18-1.61.14-.85.31-1.47.37-1.68.21-.78.48-2.07.71-4.24-.03-.14-.4-1.71-1.31-1.87Z"/>
    <path class="cls-10" d="M334.27,125.2c-.88.13-1.49.96-1.36,1.84.59,4.02.82,10.11,1.68,12.99,1.33,4.51,1.75,8.01,2.13,11.1.29,2.4,1.9,16.74,2.55,19.11,0,.02.05.18.11.39.15.56.42,1.61.69,2.94.75,3.7.94,6.77.98,8.76.02.11.11.67.64,1.06.33.25.76.37,1.2.3.88-.13,1.49-.96,1.36-1.84-1.8-13.63-2.56-18.31-2.9-19.69-.06-.24-.34-1.35-.55-2.88-.18-1.27-.23-2.28-.24-2.48-.15-2.76-1.17-6.33-1.85-11.26-.57-4.12-.95-9.62-1.42-11.43-.03-.13-.2-.74-.33-1.58-.14-.85-.17-1.49-.18-1.71-.05-.81-.2-2.11-.66-4.25-.08-.13-.92-1.5-1.84-1.36Z"/>
    <path class="cls-10" d="M328.34,125.6c-.84.31-1.27,1.24-.96,2.07,1.4,3.81,2.86,9.73,4.28,12.38,2.22,4.14,3.35,7.49,4.34,10.43.77,2.29,5.26,16.01,6.38,18.19.01.02.09.17.19.36.26.52.74,1.49,1.27,2.73,1.49,3.47,2.3,6.44,2.74,8.37.04.1.25.63.84.91.38.17.82.21,1.24.05.84-.31,1.27-1.24.96-2.07-4.53-12.98-6.23-17.41-6.84-18.69-.11-.22-.61-1.25-1.13-2.7-.43-1.21-.68-2.19-.73-2.38-.7-2.67-2.43-5.96-4.1-10.65-1.39-3.92-2.89-9.23-3.72-10.9-.06-.12-.35-.68-.65-1.48-.31-.81-.47-1.43-.53-1.64-.21-.78-.62-2.03-1.51-4.03-.1-.11-1.2-1.28-2.07-.96Z"/>
    <path class="cls-10" d="M319.19,131.33c-.7.55-.82,1.58-.26,2.27,2.52,3.18,5.77,8.34,7.96,10.41,3.41,3.24,5.53,6.06,7.39,8.54,1.45,1.94,10.02,13.55,11.77,15.27.02.02.13.13.29.29.41.41,1.17,1.18,2.07,2.2,2.5,2.83,4.2,5.39,5.23,7.09.07.09.43.53,1.08.6.41.05.84-.06,1.19-.34.7-.55.82-1.58.26-2.27-8.38-10.9-11.38-14.57-12.36-15.6-.17-.18-.97-1-1.92-2.21-.79-1.01-1.34-1.86-1.44-2.03-1.51-2.32-4.18-4.89-7.24-8.82-2.55-3.28-5.64-7.86-6.95-9.18-.09-.09-.54-.54-1.08-1.2-.54-.67-.89-1.21-1.02-1.39-.45-.67-1.23-1.73-2.7-3.35-.13-.07-1.54-.84-2.27-.26Z"/>
    <path class="cls-10" d="M314.76,137.27c-.51.73-.33,1.74.4,2.25,3.33,2.33,7.91,6.35,10.6,7.71,4.19,2.13,7.03,4.23,9.52,6.08,1.95,1.44,13.47,10.12,15.64,11.27.02.01.17.09.36.19.51.28,1.46.8,2.61,1.52,3.21,2,5.57,3.97,7.04,5.3.09.06.56.38,1.21.27.41-.07.79-.3,1.04-.66.51-.73.33-1.74-.4-2.25-11.15-8.06-15.07-10.72-16.3-11.42-.22-.12-1.21-.68-2.47-1.57-1.05-.75-1.81-1.41-1.96-1.53-2.11-1.79-5.4-3.49-9.45-6.39-3.38-2.42-7.65-5.92-9.29-6.82-.12-.06-.68-.36-1.38-.84-.71-.49-1.2-.9-1.37-1.04-.62-.52-1.67-1.31-3.54-2.44-.14-.03-1.72-.36-2.25.4Z"/>
    <path class="cls-10" d="M309.13,152.43c-.04.89.65,1.65,1.54,1.69,4.06.18,10.08,1.11,13.08.82,4.68-.45,8.2-.2,11.3.02,2.41.17,16.8,1.32,19.25,1.12.03,0,.19-.02.41-.03.58-.04,1.66-.11,3.01-.12,3.78-.04,6.83.36,8.78.7.11,0,.68.02,1.16-.42.31-.28.51-.68.53-1.12.04-.89-.65-1.65-1.54-1.69-13.73-.82-18.47-.96-19.88-.89-.25.01-1.39.08-2.93,0-1.28-.07-2.28-.21-2.48-.24-2.74-.38-6.43-.05-11.41-.32-4.15-.23-9.63-.89-11.49-.77-.13,0-.76.06-1.62.03-.86-.03-1.5-.12-1.72-.15-.8-.11-2.11-.21-4.3-.16-.14.05-1.65.61-1.69,1.54Z"/>
    <path class="cls-10" d="M309.34,154.12c0,.89.72,1.62,1.61,1.62,4.06.01,10.12.68,13.1.27,4.66-.65,8.18-.55,11.29-.46,2.42.07,16.84.61,19.28.31.03,0,.19-.02.41-.05.58-.07,1.65-.18,3.01-.25,3.77-.2,6.84.07,8.81.33.11,0,.68-.01,1.14-.47.29-.29.48-.7.48-1.14,0-.89-.72-1.62-1.61-1.62-13.75-.24-18.49-.18-19.9-.05-.25.02-1.38.14-2.93.12-1.28-.01-2.29-.12-2.48-.13-2.75-.26-6.43.22-11.41.16-4.16-.05-9.66-.49-11.52-.29-.13.01-.76.09-1.62.1-.86,0-1.5-.05-1.72-.07-.81-.07-2.12-.12-4.3.02-.14.06-1.62.68-1.62,1.61Z"/>
    <path class="cls-10" d="M309.66,155.95c.07.89.86,1.55,1.75,1.48,4.05-.33,10.14-.18,13.08-.84,4.58-1.04,8.11-1.24,11.21-1.41,2.42-.14,16.83-.82,19.23-1.33.03,0,.18-.04.4-.08.57-.12,1.63-.32,2.97-.5,3.74-.52,6.82-.51,8.8-.42.11,0,.68-.07,1.1-.57.27-.32.42-.73.38-1.18-.07-.89-.86-1.55-1.75-1.48-13.72.93-18.44,1.39-19.84,1.64-.24.04-1.37.25-2.91.37-1.28.1-2.29.08-2.49.08-2.76-.03-6.39.77-11.36,1.13-4.15.3-9.66.33-11.5.69-.13.03-.75.15-1.6.23-.86.08-1.5.07-1.72.07-.81,0-2.12.06-4.29.39-.13.07-1.56.82-1.48,1.75Z"/>
    <path class="cls-10" d="M311.08,161.9c.24.86,1.14,1.36,1.99,1.12,3.91-1.09,9.93-2.09,12.68-3.3,4.3-1.89,7.73-2.75,10.74-3.51,2.35-.59,16.37-3.99,18.63-4.94.02,0,.17-.07.38-.16.54-.22,1.54-.62,2.83-1.06,3.58-1.21,6.6-1.79,8.56-2.08.11-.03.65-.2.97-.77.2-.36.27-.8.15-1.23-.24-.86-1.14-1.36-1.99-1.12-13.3,3.51-17.84,4.85-19.17,5.36-.23.09-1.3.51-2.78.91-1.24.34-2.24.51-2.43.55-2.72.49-6.13,1.96-10.94,3.26-4.02,1.08-9.43,2.16-11.16,2.86-.12.05-.71.29-1.53.53-.83.24-1.46.36-1.68.4-.8.15-2.07.46-4.14,1.19-.12.09-1.37,1.1-1.12,1.99Z"/>
    <path class="cls-10" d="M312.76,167.64c.37.81,1.33,1.17,2.14.81,3.7-1.67,9.5-3.57,12.03-5.18,3.97-2.52,7.22-3.89,10.09-5.09,2.23-.94,15.58-6.42,17.67-7.7.02-.01.16-.1.35-.21.5-.3,1.43-.85,2.63-1.47,3.35-1.74,6.25-2.76,8.15-3.35.1-.05.61-.29.85-.9.15-.39.15-.83-.04-1.24-.37-.81-1.33-1.17-2.14-.81-12.61,5.48-16.9,7.49-18.14,8.19-.22.12-1.2.7-2.61,1.32-1.17.52-2.13.84-2.32.91-2.61.9-5.76,2.86-10.32,4.87-3.81,1.68-8.99,3.56-10.6,4.51-.11.07-.66.4-1.43.76-.78.37-1.39.57-1.6.65-.76.27-1.98.77-3.91,1.8-.1.11-1.19,1.29-.81,2.14Z"/>
    <path class="cls-10" d="M322.51,178.91c.74.49,1.75.29,2.24-.45,2.26-3.38,6.17-8.05,7.47-10.76,2.04-4.24,4.07-7.12,5.87-9.65,1.4-1.98,9.83-13.69,10.93-15.88.01-.02.08-.17.18-.36.26-.52.77-1.47,1.46-2.64,1.92-3.25,3.85-5.65,5.15-7.15.06-.09.37-.57.24-1.21-.08-.41-.32-.78-.69-1.03-.74-.49-1.75-.29-2.24.45-7.81,11.32-10.38,15.3-11.06,16.55-.12.22-.65,1.23-1.52,2.5-.72,1.06-1.37,1.84-1.49,1.99-1.74,2.15-3.37,5.48-6.18,9.59-2.34,3.44-5.75,7.77-6.61,9.43-.06.12-.35.68-.81,1.4-.47.72-.87,1.22-1.01,1.39-.51.63-1.27,1.7-2.36,3.6-.03.14-.33,1.73.45,2.24Z"/>
    <path class="cls-10" d="M317.1,175.85c.64.62,1.67.59,2.29-.05,2.81-2.93,7.47-6.86,9.23-9.3,2.74-3.82,5.25-6.3,7.45-8.49,1.72-1.7,12.05-11.78,13.51-13.75.02-.02.11-.15.24-.33.35-.46,1.01-1.32,1.89-2.35,2.46-2.87,4.77-4.9,6.31-6.15.08-.08.46-.5.45-1.15,0-.41-.18-.83-.5-1.13-.64-.62-1.67-.59-2.29.05-9.66,9.79-12.88,13.27-13.76,14.38-.15.19-.86,1.1-1.93,2.2-.9.92-1.66,1.58-1.81,1.71-2.09,1.81-4.27,4.81-7.75,8.37-2.9,2.98-7.01,6.66-8.15,8.14-.08.11-.46.61-1.04,1.24-.59.63-1.07,1.05-1.24,1.2-.61.53-1.54,1.45-2.95,3.13-.05.14-.62,1.64.05,2.29Z"/>
  </g>
  <g class="cls-7">
    <path class="cls-1" d="M389.7,274.09h0c.22-.13.3-.42.17-.64l-12.25-23.21-13.93-22.24c-.13-.22-.42-.3-.64-.17h0c-.22.13-.3.42-.17.64l12.23,23.22,13.95,22.23c.13.22.42.3.64.17Z"/>
    <path class="cls-1" d="M393.43,272.09h0c.2-.16.23-.46.07-.66l-15.77-20.98-17.27-19.75c-.16-.2-.46-.23-.66-.07h0c-.2.16-.23.46-.07.66l15.75,20.99,17.29,19.74c.16.2.46.23.66.07Z"/>
    <path class="cls-1" d="M385.98,275.86h0c.24-.09.36-.36.27-.6l-8.48-24.83-10.29-24.14c-.09-.24-.36-.36-.6-.27h0c-.24.09-.36.36-.27.6l8.45,24.84,10.31,24.13c.09.24.36.36.6.27Z"/>
    <path class="cls-1" d="M398.77,265.47h0c-.14.22-.43.28-.65.14l-22.56-13.41-21.5-15.04c-.22-.14-.28-.43-.14-.65h0c.14-.22.43-.28.65-.14l22.57,13.39,21.49,15.06c.22.14.28.43.14.65Z"/>
    <path class="cls-1" d="M396.59,269.08h0c-.17.19-.47.21-.66.04l-20.15-16.81-18.85-18.25c-.19-.17-.21-.47-.04-.66h0c.17-.19.47-.21.66-.04l20.17,16.79,18.84,18.27c.19.17.21.47.04.66Z"/>
    <path class="cls-1" d="M400.73,261.83h0c-.1.24-.38.34-.62.24l-24.37-9.72-23.59-11.5c-.24-.1-.34-.38-.24-.62h0c.1-.24.38-.34.62-.24l24.38,9.7,23.58,11.52c.24.1.34.38.24.62Z"/>
    <path class="cls-1" d="M403.15,252.98h0c.02-.26-.17-.48-.43-.5l-26.06-3.09-26.22-1.16c-.26-.02-.48.17-.5.43h0c-.02.26.17.48.43.5l26.06,3.11,26.22,1.13c.26.02.48-.17.5-.43Z"/>
    <path class="cls-1" d="M403.61,248.78h0c-.02-.26-.25-.45-.5-.43l-26.22,1.07-26.07,3.01c-.26.02-.45.25-.43.5h0c.02.26.25.45.5.43l26.22-1.05,26.07-3.03c.26-.02.45-.25.43-.5Z"/>
    <path class="cls-1" d="M402.49,257.05h0c.06-.25-.09-.5-.34-.57l-25.26-7.12-25.71-5.23c-.25-.06-.5.09-.57.34h0c-.06.25.09.5.34.57l25.25,7.14,25.72,5.21c.25.06.5-.09.57-.34Z"/>
    <path class="cls-1" d="M401.19,240.62h0c.1.24-.01.51-.25.61l-23.84,10.96-24.59,9.17c-.24.1-.51-.01-.61-.25h0c-.1-.24.01-.51.25-.61l23.83-10.98,24.6-9.15c.24-.1.51.01.61.25Z"/>
    <path class="cls-1" d="M402.93,244.47h0c.06.25-.1.5-.35.56l-25.28,7.05-25.73,5.16c-.25.06-.5-.1-.56-.35h0c-.06-.25.1-.5.35-.56l25.27-7.07,25.73-5.14c.25-.06.5.1.56.35Z"/>
    <path class="cls-1" d="M399.31,236.94h0c.13.22.07.51-.15.64l-21.84,14.55-22.85,12.89c-.22.13-.51.07-.64-.15h0c-.13-.22-.07-.51.15-.64l21.83-14.57,22.87-12.87c.22-.13.51-.07.64.15Z"/>
    <path class="cls-1" d="M397.23,233.89h0c.16.2.13.5-.07.66l-19.69,17.35-20.91,15.85c-.2.16-.5.13-.66-.07h0c-.16-.2-.13-.5.07-.66l19.67-17.37,20.93-15.83c.2-.16.5-.13.66.07Z"/>
    <path class="cls-1" d="M394.37,230.91h0c.19.17.21.47.04.66l-16.74,20.21-18.18,18.92c-.17.19-.47.21-.66.04h0c-.19-.17-.21-.47-.04-.66l16.72-20.23,18.2-18.9c.17-.19.47-.21.66-.04Z"/>
    <path class="cls-1" d="M376.88,277.56h0c-.26,0-.47-.2-.48-.46l-1.37-26.2.57-26.23c0-.26.2-.47.46-.48h0c.26,0,.47.2.48.46l1.4,26.2-.59,26.23c0,.26-.2.47-.46.48Z"/>
    <path class="cls-1" d="M372.66,277.75h0c-.25-.04-.43-.28-.4-.53l2.79-26.09,4.71-25.81c.04-.25.28-.43.53-.4h0c.25.04.43.28.4.53l-2.77,26.1-4.74,25.81c-.04.25-.28.43-.53.4Z"/>
    <path class="cls-1" d="M380.99,277.17h0c-.25.04-.5-.13-.54-.38l-5.44-25.67-3.53-26c-.04-.25.13-.5.38-.54h0c.25-.04.5.13.54.38l5.47,25.67,3.51,26.01c.04.25-.13.5-.38.54Z"/>
    <path class="cls-1" d="M364.68,274.8h0c.23.11.51.02.63-.21l12.5-23.07,10.76-23.93c.11-.23.02-.51-.21-.63h0c-.23-.11-.51-.02-.63.21l-12.52,23.06-10.74,23.94c-.11.23-.02.51.21.63Z"/>
    <path class="cls-1" d="M368.41,276.78h0c.25.08.51-.06.59-.31l8.69-24.76,6.84-25.33c.08-.25-.06-.51-.31-.59h0c-.25-.08-.51.06-.59.31l-8.71,24.75-6.82,25.34c-.08.25.06.51.31.59Z"/>
    <path class="cls-1" d="M361.14,272.68h0c.21.15.5.1.65-.11l15.95-20.84,14.37-21.96c.15-.21.1-.5-.11-.65h0c-.21-.15-.5-.1-.65.11l-15.97,20.82-14.34,21.97c-.15.21-.1.5.11.65Z"/>
    <path class="cls-1" d="M358.42,263.19c6.17,9.06,19.2,10.92,29.12,4.17s14.2-18.93,6.79-28.62c-6.66-8.7-18.99-10.6-29.12-4.17-11.77,7.47-12.95,19.57-6.79,28.62Z"/>
  </g>
  <g class="cls-6">
    <path class="cls-2" d="M424.64,206.67s4.09,3.88,1.93,7.48c-2.15,3.59-9.17,1.13-9.17,1.13,0,0-9.32-4.77-12.45-9.86-3.13-5.09-1.44-11.62.31-16.47,1.75-4.86,5.25-10.87.79-18.18s-9.97-9.43-11.72-10.99c-1.71-1.52-4.44-9.63,5.37-7.93,9.81,1.71,18.13,19.45,18.69,24.68.94,8.84-7.32,20.23-4.58,23.89,2.58,3.45,10.84,6.25,10.84,6.25Z"/>
    <path class="cls-4" d="M392.52,146.25c2.16,1.15,1.98,2.63,1.57,3.72-.41,1.09.9,3.48.9,3.48"/>
    <path class="cls-4" d="M389.21,148.85c-.39,3.09,5.01,5.06,5.01,5.06"/>
    <path class="cls-4" d="M387.65,157.28c1.81,2.52,6.13-.89,6.13-.89"/>
    <path class="cls-4" d="M431.6,210.37c-1.74-3.61-7.72-2.48-7.72-2.48"/>
    <path class="cls-4" d="M430.37,211.71c-.74,1.65-1.05-.79-1.87-1.31s-2.32-.84-2.32-.84"/>
    <path class="cls-4" d="M430.18,214.95c-4.57,1.81-5.45-3.42-5.45-3.42"/>
    <path class="cls-4" d="M426.57,219.91c-4.47-3.82-2.44-6.66-2.44-6.66"/>
  </g>
  <g class="cls-9">
    <path class="cls-11" d="M287.77,237.79h-2.14c-1.31,0-2.6-.37-3.59-1.12-.72-.55-1.39-1.24-1.87-2.12-1.74-3.2.72-6.59.65-10.27-.06-3.13-1-7.34-.65-10.27.07-.6.27-1.57,1.09-2.29.67-.59,1.61-.95,2.63-.95h3.88c2.05,0,3.72,1.46,3.72,3.24-.39,3-.65,6.34-.67,9.98-.01,3.12.16,6.04.45,8.7.19,1.78-.69,3.5-2.39,4.5-.33.19-.7.39-1.11.61Z"/>
    <path class="cls-11" d="M303.23,258.96l-1.84.95c-1.13.58-2.46.84-3.74.63-.94-.15-1.92-.45-2.85-1-3.37-1.98-3.24-6-5.45-9.13-1.89-2.67-5.15-5.87-6.57-8.55-.29-.55-.69-1.47-.4-2.46.24-.8.82-1.53,1.71-1.99l3.34-1.72c1.76-.91,4.06-.4,5.1,1.14,1.42,2.75,3.15,5.75,5.27,8.88,1.82,2.69,3.67,5.12,5.47,7.29,1.2,1.44,1.45,3.32.58,4.93-.17.31-.37.65-.6,1.02Z"/>
    <path class="cls-11" d="M316.29,225.67l-1.26-1.37c-.77-.83-1.22-1.88-1.16-2.94.04-.78.23-1.62.69-2.43,1.67-2.99,5.97-3.41,9.01-5.61,2.59-1.88,5.58-4.94,8.25-6.44.55-.31,1.47-.75,2.57-.65.89.09,1.74.46,2.34,1.12l2.27,2.47c1.2,1.31.96,3.23-.54,4.27-2.75,1.51-5.71,3.3-8.78,5.43-2.63,1.83-4.98,3.64-7.05,5.39-1.38,1.16-3.35,1.61-5.18,1.11-.35-.1-.74-.21-1.16-.35Z"/>
    <path class="cls-11" d="M307.56,247.94l-1.88-.62c-1.15-.38-2.15-1.07-2.72-2.02-.42-.69-.75-1.49-.83-2.4-.31-3.31,3.14-5.58,4.47-8.83,1.13-2.77,1.91-6.73,3.33-9.2.29-.5.83-1.3,1.83-1.69.82-.32,1.77-.37,2.67-.08l3.4,1.12c1.8.59,2.71,2.35,2.04,3.92-1.48,2.52-2.98,5.38-4.38,8.57-1.2,2.74-2.15,5.34-2.91,7.76-.51,1.61-1.94,2.87-3.81,3.26-.36.07-.76.15-1.21.21Z"/>
    <path class="cls-11" d="M287.77,211.17h-2.14c-1.31,0-2.6-.37-3.59-1.12-.72-.55-1.39-1.24-1.87-2.12-1.74-3.2.72-6.59.65-10.27-.06-3.13-1-7.34-.65-10.27.07-.6.27-1.57,1.09-2.29.67-.59,1.61-.95,2.63-.95h3.88c2.05,0,3.72,1.46,3.72,3.24-.39,3-.65,6.34-.67,9.98-.01,3.12.16,6.04.45,8.7.19,1.78-.69,3.5-2.39,4.5-.33.19-.7.39-1.11.61Z"/>
  </g>
</svg>