<?xml version="1.0" encoding="UTF-8"?>
<svg id="Layer_1" data-name="Layer 1" xmlns="http://www.w3.org/2000/svg" viewBox="0 0 700 395">
  <defs>
    <style>
      .cls-1 {
        fill: #de5b48;
      }

      .cls-2 {
        fill: #efedea;
      }

      .cls-3 {
        fill: #8a64b5;
      }
    </style>
  </defs>
  <g>
    <g>
      <path class="cls-1" d="M351.07,115.13c15.76,43.3-32.85,100.74-32.85,100.74,0,0-74.16-12.76-89.91-56.06-6.69-18.38,2.79-38.71,21.17-45.4,11.83-4.31,24.45-1.89,33.73,5.26,2.51-11.44,10.63-21.41,22.46-25.71,18.39-6.69,38.72,2.79,45.41,21.17Z"/>
      <path class="cls-1" d="M316.38,210.55c.01-.65.21-.68.44-.08,0,0,1.02,2.72,3.19,4.44,2.3,1.83,4.73,2.47,4.73,2.47.63.17.66.52.06.78l-8.94,3.93c-.6.26-.88-.02-.63-.62,0,0,.52-1.26.84-4.98.27-3.12.32-5.96.32-5.96Z"/>
    </g>
    <g>
      <path class="cls-3" d="M469.26,125.54c-23.04,39.9-98.29,39.59-98.29,39.59,0,0-37.89-65.01-14.86-104.91,9.78-16.94,31.45-22.75,48.39-12.97,10.9,6.29,17.16,17.51,17.65,29.22,10.38-5.43,23.23-5.62,34.13.67,16.95,9.78,22.75,31.45,12.97,48.39Z"/>
      <path class="cls-3" d="M373.87,160.31c.51-.41.66-.28.34.29,0,0-1.42,2.53-1.36,5.3.07,2.94,1.14,5.21,1.14,5.21.28.59.03.83-.56.55l-8.76-4.32c-.58-.29-.55-.68.07-.88,0,0,1.3-.41,4.36-2.55,2.57-1.8,4.77-3.58,4.77-3.58Z"/>
    </g>
    <path class="cls-1" d="M334.97,352.5c9.29,0,10.57-1.33,10.73-1.63l-1.22-.43h0s-1.6,1.43-13.51,1.04c-3.42-.11-4.48-.66-4.77-1.1-.84-1.28,2.58-4.05,5.88-6.72,1.97-1.59,4-3.24,5.53-4.84,6.18-6.48.13-16.17-5.83-23.89-6.1-7.9-11.77-25.33-12.07-26.25-.17-1.72-5.58-55.22-6.35-66.22-.41-5.9,1.19-7.37,2.19-7.72,1.11-.39,2.32.25,2.37.27l.72-.74c-.08-.04-1.92-1.03-3.73-.4-2.24.78-3.2,3.65-2.86,8.55.78,11.14,6.3,65.73,6.36,66.28v.04s.02.04.02.04c.24.75,5.89,18.36,12.22,26.56,5.77,7.47,11.65,16.82,5.86,22.89-1.49,1.56-3.5,3.19-5.44,4.76-3.9,3.15-7.27,5.88-6.04,7.74.69,1.05,2.59,1.59,5.99,1.7,1.45.05,2.76.07,3.94.07Z"/>
    <path class="cls-3" d="M349.73,352.76c-9.29,0-10.54-1.83-10.7-2.24l1.23-.58h0s1.57,1.96,13.49,1.42c3.42-.15,4.49-.9,4.79-1.5.87-1.76-2.49-5.55-5.74-9.21-1.93-2.18-3.93-4.44-5.43-6.64-6.05-8.88.21-22.17,6.33-32.75,6.26-10.83,12.31-34.72,12.63-35.99.21-2.36,6.76-75.71,7.76-90.79.54-8.09-1.04-10.1-2.02-10.58-1.1-.54-2.33.34-2.38.38l-.71-1.02c.08-.06,1.94-1.41,3.74-.55,2.22,1.07,3.12,5.01,2.67,11.72-1.02,15.27-7.7,90.12-7.77,90.87v.05s-.02.05-.02.05c-.25,1.02-6.28,25.17-12.79,36.41-5.93,10.24-12.01,23.07-6.34,31.39,1.46,2.14,3.43,4.37,5.34,6.53,3.83,4.32,7.14,8.06,5.88,10.61-.71,1.44-2.63,2.18-6.03,2.33-1.45.07-2.76.1-3.94.1Z"/>
  </g>
</svg>