<?xml version="1.0" encoding="UTF-8"?>
<svg id="Layer_1" data-name="Layer 1" xmlns="http://www.w3.org/2000/svg" viewBox="0 0 700 395">
  <defs>
    <style>
      .cls-1 {
        fill: #efedea;
      }

      .cls-2 {
        fill: #2b2b2b;
        fill-rule: evenodd;
      }
    </style>
  </defs>
  <g>
    <path class="cls-2" d="M104.18,219.15c0,5.05,3.46,9.3,8.14,10.51l.26.06.26.06.27.05.27.05.27.04.27.03.27.02.28.02h.28s.28.01.28.01h.28s.28-.01.28-.01l.28-.02.28-.02.27-.03.27-.04.27-.05.27-.05.26-.06.23-.06h.03s0,0,.01,0c1.28-.33,2.47-.89,3.52-1.63.02-.01.04-.03.06-.04.32-.23.62-.47.92-.73.4-.36.78-.75,1.12-1.16,1.56-1.88,2.5-4.3,2.5-6.93,0-.61-.05-1.21-.15-1.79-.22-1.34-.69-2.6-1.36-3.72-.1-.17-.2-.34-.31-.5-.06-.08-.11-.17-.17-.25-1.46-2.07-3.63-3.6-6.15-4.25l-.26-.06-.26-.06-.26-.05-.27-.04-.27-.04-.27-.03-.28-.02-.28-.02h-.28s-.28-.01-.28-.01h-.28s-.28.01-.28.01l-.28.02-.28.02-.27.03-.27.04-.27.04-.26.05-.26.06-.26.06c-4.68,1.2-8.14,5.45-8.14,10.51Z"/>
    <path class="cls-2" d="M99.26,280.42h0ZM92.08,270.47l.43-2.9-10.13-.44-.39-.02c-.25-.01-.49,0-.73,0,0,0-.01,0-.02,0-2.55.18-4.89,1.82-5.82,4.38-1.27,3.47.51,7.33,3.98,8.6l32.82,12.05c.06.02.11.04.17.06-.66-.44-1.26-.98-1.77-1.62-.49-.62-.89-1.33-1.18-2.11-.7-1.9-.59-3.9.15-5.63.03-.07.06-.13.09-.19.15-.32.31-.62.5-.91.69-1.07,1.65-1.98,2.83-2.61.31-.16.63-.3.96-.43l.29-.09-11.96-4.39h0s-.09.94-.09.94l-.15,1.59c-.08.84-.39,1.58-.86,2.2-.49.64-1.15,1.14-1.91,1.48-1.14.5-2.47.61-3.7.34-1.2-.26-2.33-.89-3.12-1.86h0c-.35-.42-.62-.91-.81-1.47-.17-.51-.26-1.06-.25-1.66,0-.11,0-.22,0-.32,0-.12.01-.23.02-.33v-.04s.55-3.7.55-3.7l.06-.42.07-.5Z"/>
    <path class="cls-2" d="M138.59,267.57l.43,2.9.07.46.07.46.55,3.7v.04c.01.1.02.21.03.33,0,.1,0,.21,0,.33,0,.84-.17,1.59-.49,2.24-.35.71-.86,1.29-1.49,1.75-.84.62-1.82.99-2.82,1.11-1,.12-2.03-.02-2.99-.42-.79-.33-1.47-.83-1.98-1.48-.49-.63-.81-1.38-.89-2.24l-.15-1.59-.09-.94h0s-11.96,4.4-11.96,4.4l-1.3.48-1.27.47s-.03.01-.05.02c-1.22.46-2.23,1.24-2.97,2.21-.28.37-.53.77-.73,1.19-.74,1.57-.88,3.42-.24,5.18.5,1.36,1.39,2.45,2.49,3.21.83.57,1.77.95,2.77,1.1,1.03.16,2.12.08,3.17-.27.06-.02.11-.04.17-.06l32.82-12.05c3.48-1.27,5.26-5.12,3.99-8.6-.93-2.54-3.23-4.17-5.76-4.38,0,0-.01,0-.02.01-.26-.02-.53-.03-.81-.01l-.39.02h0l-10.12.44Z"/>
    <path class="cls-2" d="M115.27,231.22c-3.76-.03-7.53-.6-11.26.18-2.76.58-4.84,2-5.86,5.28-.2.27-.37,1.11-.56,2.82l-5.28,35.72c-.02.18-.03.36-.02.54v.13s0,.01,0,.01v.05s0,0,0,0v.04s0,.03,0,.03v.02s0,.05,0,.05h0s0,.05,0,.05v.05s0,.03,0,.03h0s0,.06,0,.06h0s0,.05,0,.05v.02s0,.02,0,.02v.04s0,0,0,0v.04s0,.01,0,.01v.03s.01.04.01.04v.04c.02.09.04.17.06.26v.04s.01,0,.01,0v.04c.18.62.49,1.15.91,1.6.44.46.97.82,1.56,1.06,1.23.53,2.64.55,3.9.03h.02s0-.01,0-.01l.06-.02h.02c.4-.18.76-.41,1.07-.69h0s.04-.04.04-.04h0s.08-.08.08-.08h0s.04-.04.04-.04h0s.04-.04.04-.04h0s.04-.04.04-.04h0s.03-.04.03-.04h0s.03-.04.03-.04c.28-.33.51-.7.65-1.12h0c.02-.06.04-.12.05-.17v-.05s.02-.01.02-.01v-.05s.01-.01.01-.01v-.05s.01-.01.01-.01v-.05s.01,0,.01,0v-.05s.02-.06.02-.06h0s.01-.06.01-.06c0-.06.02-.13.02-.19h0l.33-3.38.18-1.83,2.08-21.61-.17,8.14-.25,3.79-.61,8.8-.12.81-.02.15-.18,1.83h0s-.07.75-.07.75v.02s0,0,0,0l13.25,4.07h0s0,0,0,0l13.25-4.07h0s0-.03,0-.03l-.07-.75h0s-.17-1.83-.17-1.83l-.02-.15-.12-.81-.61-8.8-.25-3.79-.17-8.14,2.08,21.61.18,1.83.32,3.38h0c0,.07.02.13.03.19v.06s0,0,0,0v.06s.02.05.02.05h0s.01.06.01.06h0s.01.06.01.06h0s.01.06.01.06h0s.01.06.01.06c.02.06.03.12.05.17h0c.15.42.37.8.66,1.13l.03.04h0s.03.05.03.05h0s.04.04.04.04h0s.03.04.03.04h0s.04.04.04.04h0s.08.08.08.08h0s.04.04.04.04h0c.31.28.68.51,1.07.68h.02s.06.03.06.03h0s.02.01.02.01c1.26.52,2.67.5,3.9-.03.59-.24,1.12-.6,1.56-1.06.42-.44.73-.97.9-1.6v-.04s.01,0,.01,0v-.04c.03-.08.05-.17.06-.26v-.04s.01-.04.01-.04v-.03s0-.01,0-.01v-.04s0,0,0,0v-.04s0-.02,0-.02v-.02s0-.04,0-.04h0s0-.05,0-.05h0s0-.05,0-.05v-.03s0-.02,0-.02v-.05s0,0,0,0v-.05s0-.02,0-.02v-.07s0,0,0,0v-.05s0-.01,0-.01v-.13c0-.18,0-.36-.02-.54l-5.28-35.72c-.19-1.72-.37-2.55-.56-2.82-.96-3.09-2.85-4.53-5.37-5.17-3.9-.99-7.81-.34-11.81-.3-.17,0-.33,0-.49,0Z"/>
  </g>
  <g>
    <path class="cls-2" d="M207.83,184.61c.34-2.77-.34-5.46-1.76-7.66-.48-.74-1.05-1.43-1.69-2.04-.66-.63-1.39-1.18-2.19-1.65-1.07-.62-2.26-1.08-3.54-1.33-6.22-1.22-12.26,2.83-13.48,9.05-1.22,6.22,2.83,12.26,9.05,13.48.71.14,1.42.21,2.13.22,2.28.02,4.46-.64,6.3-1.83,1.97-1.27,3.56-3.14,4.46-5.41.18-.45.33-.91.45-1.39.05-.21.1-.42.14-.64.05-.27.1-.54.13-.81Z"/>
    <path class="cls-2" d="M208.09,177.57c1.09,2.25,1.54,4.83,1.16,7.47-.03.18-.06.37-.09.55h0s-.02.11-.02.11c-.05.26-.11.52-.18.78,1.96.59,3.59,1.07,4.92,1.46h.03s-.24.35-.24.35c-1,1.42-2.67,3.7-4.24,5.8.44.23.85.49,1.24.78,1.21.89,2.22,2.04,3.04,3.38.45.73.84,1.52,1.18,2.36.22.53.41,1.08.59,1.65,1.96-2.6,4.75-6.35,6.18-8.39,1.41-2.01,2.81-4.1,4.02-6.04.39-.53.67-1.16.81-1.84.56-2.63-1.13-5.22-3.77-5.78-1.3-.28-3.25-.8-6.17-1.64-2.7-.78-5.81-1.71-9.57-2.85.07.09.13.19.2.29.34.5.64,1.03.91,1.58Z"/>
    <path class="cls-2" d="M207.14,194.71c-1.18-.36-2.52-.52-4.03-.42-1.33.81-2.81,1.37-4.37,1.65.35.13.68.29,1.01.48.48.28.93.63,1.33,1.05,1.22,1.26,1.81,2.89,1.78,4.52-.03,1.62-.67,3.22-1.93,4.44h0s-5,4.82-5,4.82l-1.38,1.33c.08,1.75.03,3.35-.15,4.83-.36,2.97-1.28,5.53-2.72,7.88-1.44,2.36-1.88,5.04-1.45,7.56l-.55.43c-1.85,1.42-3.78,2.7-5.54,3.76-.61-.69-1.22-1.42-1.83-2.19-1.48-1.86-2.95-3.93-4.48-6.19l-1.07,1.03-1.59,1.54h0c-1.26,1.21-2.89,1.8-4.51,1.78-1.62-.03-3.23-.67-4.44-1.93-.08-.08-.16-.17-.23-.26-.52-.6-.91-1.28-1.17-1.99-.56,1.85-.33,3.92.82,5.66,2.14,3.23,4.16,6.13,6.19,8.7,2.17,2.74,4.38,5.14,6.77,7.23,2.22,1.94,5.37,2.15,7.78.74,4.37-2.33,8.25-5.5,12.38-8.26.43-.29.86-.57,1.3-.85.05-.03.1-.06.15-.09.39-.25.77-.5,1.15-.75,3.95-2.69,6.99-5.77,9.19-9.14.35-.54.69-1.09,1-1.65.33-.59.63-1.18.91-1.78,1.18-2.55,1.95-5.23,2.33-8.01.65-4.79.86-10.31,0-15.04-.12-.63-.25-1.26-.41-1.86-.15-.59-.33-1.17-.52-1.73-.87-2.49-2.18-4.57-4.06-5.94-.39-.29-.81-.54-1.25-.76-.44-.22-.91-.41-1.4-.56Z"/>
    <path class="cls-2" d="M199.92,205.38c1.94-1.87,1.99-4.96.12-6.89-.62-.64-1.38-1.08-2.18-1.31-.79-.22-1.64-.24-2.44-.05-.83.19-1.61.61-2.27,1.24l-.65.63-25.09,24.16c-.27.26-.51.55-.7.85-.53.82-.79,1.76-.78,2.7,0,.71.17,1.42.48,2.07.22.46.51.88.89,1.27,1.87,1.94,4.96,1.99,6.89.12l1.78-1.71,1.07-1.03,1.07-1.03,14.96-14.4,1.37-1.31,1.33-1.29,4.17-4.01Z"/>
    <path class="cls-2" d="M211.11,233.84c-2.33,3.27-5.43,6.26-9.37,8.87-.24.16-.48.32-.73.47-.19.12-.38.24-.57.37,3.11,13.53,3.19,26.07-1.42,40.24-1.14,3.51.78,7.29,4.29,8.43,3.51,1.14,7.29-.78,8.43-4.29,6.17-18.99,5.57-39.09.42-55.67-.23.37-.47.75-.73,1.11-.11.16-.21.31-.32.46Z"/>
  </g>
  <g>
    <path class="cls-2" d="M529.42,200.33c1.98,1.84,3.7,3.81,5.14,5.94,6.4-5.05,10.41-8.68,17.37-13.99,2.24-1.71,3.62-4.45,2.87-7.33-.74-2.86-1.6-6.33-2.44-9.77-1.63-6.61-2.3-9.96-4.1-15.83-1.07-3.54-4.82-5.54-8.36-4.46-3.54,1.08-5.54,4.82-4.46,8.36,1.66,5.41,2.3,8.65,3.9,15.15.44,1.78.88,3.57,1.35,5.44-2.69,1.89-5.86,4.09-8.96,6.24-3.98,2.76-5.23,3.43-8.25,5.57,2.08,1.4,4.06,2.94,5.93,4.68Z"/>
    <path class="cls-2" d="M533.41,207.17c-2.83-4.2-6.73-7.66-11.21-10.6-.44-.29-.88-.57-1.32-.85-8.81-5.47-17.81-8.01-27.19-11.51h0c-2.5-.92-5.42-.29-7.31,1.81-3.49,3.89-4.83,5.37-8.17,9.19-3.6,4.11-6.9,7.94-9.39,10.94-2.36,2.85-1.97,7.08.88,9.44,2.85,2.36,7.08,1.97,9.44-.88,2.72-3.28,5.88-6.96,9.13-10.67,2.4-2.74,2.52-2.85,4.88-5.5,3.28,1.55,6.73,3.49,10.11,5.38,4.25,2.38,6.11,3.43,10.01,5.08-.17,2.95.85,5.95,3.06,8.24,1.64,1.69,5.35,4.04,5.73,7.02,1.08,8.46-5.2,24.45,1.56,29.21.65,11.41.47,17.03.16,26.59-.08,2.36-.15,4.7-.22,7.51-.06,2.69,2.07,4.91,4.76,4.97,2.69.06,4.92-2.07,4.97-4.76.05-2.16.14-4.78.22-7.43.33-10.16.53-16.42-.24-28.7,2.22-2.53,3.8-6.19,4.52-9.33,1.26-5.5,1.36-13.75.16-23.08-.52-4.08-1.83-7.66-3.74-10.83-.25-.42-.52-.83-.79-1.24Z"/>
    <path class="cls-2" d="M519.49,253.85c.12-6.34-4.92-11.58-11.26-11.7-6.34-.12-11.58,4.92-11.7,11.26-.12,6.34,4.92,11.58,11.26,11.7,6.34.12,11.58-4.92,11.7-11.26Z"/>
  </g>
  <g>
    <path class="cls-2" d="M586.98,233.12c-.43-.42-.84-.88-1.21-1.37-.37-.49-.71-1-1-1.53-.04-.07-.08-.15-.12-.22-1.89.47-4.9,1.03-6.67,2.03-2.34,1.33-3.16,4.3-1.83,6.64l8.55,15.04,1.73,3.04c.2.36.45.68.72.97,0-.01-.02-.02-.03-.04.75.79,1.76,1.34,2.93,1.49,2.66.34,5.1-1.55,5.44-4.21l.02-.16h0s-.52-3.13-.52-3.13l-2.75-16.44-.38-2.28c-.26-1.58.14-3.11,1-4.31.04-.05.08-.11.12-.16.25-.33.54-.63.86-.9.33-.28.7-.53,1.09-.73-.24-.07-.49-.12-.75-.16-1.98-.25-3.82.72-4.78,2.32-.34.56-.56,1.2-.65,1.89l-.29,2.29-.76,6.04-.19,1.51-.92,7.28v-.03s.58-7.85.58-7.85l.12-1.64-2.64-4.65,2.5,2.55.36-2.8-.49-.48Z"/>
    <path class="cls-2" d="M606.58,279.09l-9.45,7.3-.75.58,3.86,2.98c2.92,2.26,7.13,1.72,9.39-1.21,2.26-2.92,1.72-7.13-1.21-9.39l-1.1-.85-.74.58Z"/>
    <path class="cls-2" d="M603.71,233.69l.49,2.94,2.55-2.92c-.06.11-.13.22-.19.33l-2.43,4.7.18,1.63.86,7.63-1.18-7.02-.25-1.5-.84-5.03-.19-1.14-.09-.55-.26-1.55h0s0-.02,0-.02h0s0-.02,0-.02h0s0,0,0,0h0s0-.01,0-.01h0s0-.02,0-.02h0s0-.02,0-.02h0s0-.02,0-.02h0v-.02h0s0-.02,0-.02h0s0-.02,0-.02h0s0-.02,0-.02h0s0-.02,0-.02h0s0-.02,0-.02h0v-.02h0s0-.02,0-.02h0v-.02h0s0-.02,0-.02h0c-.18-.77-.54-1.45-1.01-2.02-.74-.87-1.8-1.5-2.94-1.65-.83-.12-1.5-.09-2.27.16-.38.12-.73.29-1.06.49-.24.15-.46.31-.67.5-1.22,1.07-1.87,2.74-1.58,4.46l.45,2.68,2.18,13.03.52,3.13.52,3.13.12.74c.17,1.03.66,1.93,1.34,2.62.01.02.03.03.04.04.27.26.57.5.89.69.1.06.2.11.3.17.9.47,1.96.66,3.03.48,2.86-.48,3.63-2.77,4.77-4.98l8.29-16.03c1.23-2.39.29-5.33-2.1-6.56-1.85-.95-4.33-1.54-6.45-2.02-.04.08-.08.15-.12.23-.31.58-.67,1.14-1.07,1.65-.4.52-.85,1.02-1.33,1.47l-.45.42Z"/>
    <path class="cls-2" d="M614.8,254.72c2.88-1.78,6.69-1.13,8.8,1.61,2.26,2.92,1.72,7.13-1.21,9.39l-31.36,24.24c-2.92,2.26-7.13,1.72-9.39-1.21-2.26-2.92-1.72-7.13,1.21-9.39l20.62-15.94-6.29,3.89-1.39.9c-3.54-2.27-7.08-4.55-10.61-6.82l8.91,6.89.51.39.3.23-.35.27-.4.31-4.85,3.75-4.6,3.56-.74.58-14.85-11.48c-3-2.32-3.82-6.45-1.43-9.56,1.7-2.2,4.49-3.05,7.01-2.38,0,0-.01,0-.01,0,.39.1.78.24,1.16.42l8.87,4.2,6.49,3.07-6.49-3.51v-2.58l.93,1.65c.79,1.39,2.06,2.32,3.49,2.72,1.42.39,3,.24,4.39-.54.85-.48,1.52-1.14,2.01-1.91.15-.24.29-.49.4-.74.41,1.11,1.14,2.04,2.06,2.69.22.16.46.3.71.43,1.07.56,2.32.78,3.6.57.22-.04.41-.08.59-.14.07-.02.14-.04.22-.06,1.41-.45,2.65-1.44,3.38-2.86l.43-.84v2l-6.45,3.95,6.45-3.49,7.95-4.3-.08.05Z"/>
    <path class="cls-2" d="M607.12,224.26c0-6.34-5.14-11.48-11.48-11.48s-11.48,5.14-11.48,11.48c0,2,.51,3.88,1.41,5.52.55,1,1.24,1.9,2.04,2.69l.21-1.67c.07-.56.22-1.08.43-1.57.39-.9,1-1.68,1.76-2.27,1.17-.9,2.68-1.36,4.26-1.16.69.09,1.33.29,1.91.59.14-.03.28-.06.42-.09,1.58-.26,3.11.14,4.31,1,.66.47,1.21,1.07,1.63,1.78.35.59.6,1.26.71,1.98l.26,1.55c.88-.84,1.64-1.81,2.22-2.89.88-1.62,1.37-3.48,1.37-5.45Z"/>
  </g>
  <g>
    <path class="cls-2" d="M339.29,291.83c-2.21-1.13-3.69-3.47-3.6-6.11l1.86-87.12-2.71,28.18c-.15,1.57-1.19,2.6-2.43,3.11-1.71.71-3.68.48-5.17-.62-1.06-.77-1.7-1.91-1.69-3.44,0-.19,0-.37.02-.56l4.25-38.83c1.14-10.42,10.1-7.6,19.32-7.42.56,0,1.11,0,1.67,0,9.24-.17,18.22-3.02,19.36,7.42l4.25,38.83c.02.19.03.38.02.56.01,1.1-.32,1.99-.9,2.7-1.42,1.72-4.05,2.2-6.05,1.32-1.21-.53-2.2-1.55-2.35-3.08l-2.71-28.18,1.86,87.12c.07,2.25-.98,4.28-2.66,5.53-1.89,1.41-4.6,1.69-6.78.8-2.33-.96-4.01-3.21-4.11-5.89l-.1-36.5v-10.07c0-.35-.28-.64-.62-.65h0s0,0,0,0h-.04c-.35.02-.62.31-.62.65v10.07l-.1,36.5c-.09,2.44-1.49,4.53-3.5,5.6-1.93,1.03-4.51,1.07-6.46.07Z"/>
    <path class="cls-2" d="M338.71,166.16c.26,6.22,5.52,11.04,11.74,10.78,6.22-.26,11.04-5.52,10.78-11.74-.26-6.22-5.52-11.04-11.74-10.78-6.22.26-11.04,5.52-10.78,11.74Z"/>
  </g>
  <g>
    <path class="cls-2" d="M265.1,211.35l-.17,7.75-.13,6.37-1.29,60.25c-.09,2.65,1.39,4.98,3.6,6.11,1.95,1,4.53.96,6.46-.07,2.01-1.07,3.41-3.16,3.5-5.6l.1-36.5v-10.07c0-.31.22-.57.5-.64.08-.02.16-.02.25,0,.31.05.55.32.55.65v10.07l.1,36.5c.1,2.68,1.78,4.94,4.11,5.89,2.18.89,4.89.61,6.78-.8,1.68-1.25,2.74-3.28,2.66-5.53l-1.86-87.12,2.71,28.18c.15,1.53,1.14,2.55,2.35,3.08,2,.88,4.63.4,6.05-1.32.58-.71.91-1.6.9-2.7,0-.19,0-.38-.02-.56l-4.25-38.83c-1.14-10.44-10.12-7.59-19.36-7.42-.27,0-.54,0-.81,0-.29,0-.57,0-.86,0-3.2-.06-6.36-.44-9.18-.48-10.37-.13-13.64,13.86-18.32,22.79-.92,1.76-.72,3.82.42,5.3l2.39,3.27,10.14,13.9c.42.54.92.96,1.48,1.28l.15-7.12.17-7.75-4.68-7.01,4.14-8.04,1.46,14.75-.03,1.46Z"/>
    <path class="cls-2" d="M266.53,166.16c.26,6.22,5.52,11.04,11.74,10.78,6.22-.26,11.04-5.52,10.78-11.74-.26-6.22-5.52-11.04-11.74-10.78-6.22.26-11.04,5.52-10.78,11.74Z"/>
  </g>
  <g>
    <path class="cls-2" d="M411.85,166.16c.26,6.22,5.52,11.04,11.73,10.78,6.22-.26,11.04-5.52,10.78-11.74-.27-6.22-5.52-11.04-11.74-10.78-6.22.26-11.04,5.52-10.78,11.74Z"/>
    <path class="cls-2" d="M422.26,179.02c-3.87-.07-7.69-.61-10.91-.45-8.6.43-12.52,15.24-16.48,22.51l-.14.26c-.95,1.75-.72,3.82.42,5.3l12.53,17.17c.42.54.92.96,1.48,1.28.29.16.59.29.9.39.29.09.6.16.91.19,1.22.14,2.49-.17,3.54-.98,2.13-1.64,2.52-4.7.88-6.83l-5.91-7.65-4.68-7.01.35-.63,3.3-6.49.5-.92,1.46,14.75,5.71,7.39c.97,1.26,1.34,2.8,1.16,4.27-.19,1.47-.94,2.86-2.2,3.84-1.22.94-2.69,1.32-4.11,1.18l-.15-.02c-.25-.03-.51-.08-.75-.15l-19.41,56.24c-1.25,3.48.55,7.32,4.03,8.57.25.09.51.17.77.23,3.34.94,6.89-.84,8.1-4.15l19.59-47.6,19.6,48.47c1.21,3.31,4.76,5.09,8.1,4.15.26-.06.51-.13.77-.23,3.48-1.25,5.28-5.09,4.03-8.57l-19.41-57.1c-.25.07-.5.11-.75.15l-.15.02c-1.42.14-2.9-.23-4.11-1.18-1.26-.97-2.01-2.37-2.2-3.84-.19-1.47.18-3,1.16-4.27l5.71-7.39,1.46-14.75.5.92,3.3,6.49.35.63-4.68,7.01-5.91,7.65c-1.64,2.13-1.25,5.18.88,6.83,1.05.81,2.32,1.12,3.53.98.31-.04.61-.1.91-.19.31-.1.61-.23.9-.39.56-.31,1.06-.74,1.48-1.28l12.52-17.17c1.14-1.48,1.37-3.55.42-5.3l-.14-.26c-3.96-7.27-7.89-22.08-16.48-22.51-3.22-.16-7.05.38-10.91.45-.56,0-1.12,0-1.69,0Z"/>
  </g>
</svg>