<?xml version="1.0" encoding="UTF-8"?>
<svg xmlns="http://www.w3.org/2000/svg" xmlns:xlink="http://www.w3.org/1999/xlink" viewBox="0 0 700 395">
  <defs>
    <style>
      .cls-1 {
        fill: #d6d6d6;
      }

      .cls-2 {
        opacity: .2;
      }

      .cls-2, .cls-3 {
        mix-blend-mode: multiply;
      }

      .cls-4 {
        fill: #16a992;
      }

      .cls-5 {
        fill: #3a4040;
      }

      .cls-6 {
        isolation: isolate;
      }

      .cls-7 {
        fill: #c6c5c4;
      }

      .cls-8 {
        fill: #efedea;
      }

      .cls-9 {
        fill: #fff;
      }

      .cls-10 {
        fill: #242424;
      }

      .cls-11 {
        fill: #0a8c76;
      }

      .cls-12 {
        opacity: .06;
      }

      .cls-3 {
        fill: #c7c7c7;
      }

      .cls-13 {
        fill: #f2f2f2;
      }

      .cls-14 {
        clip-path: url(#clippath);
      }

      .cls-15 {
        fill: gray;
        opacity: .46;
      }
    </style>
    <clipPath id="clippath">
      <rect class="cls-5" x="202.24" y="98.21" width="295.62" height="180.75"/>
    </clipPath>
  </defs>
  <g class="cls-6">
    <g id="Layer_1" data-name="Layer 1">
      <rect class="cls-8" y=".25" width="700" height="395"/>
      <path class="cls-2" d="M505.7,342.57c0-3.38-69.51-6.13-155.26-6.13s-155.26,2.74-155.26,6.13,69.51,6.13,155.26,6.13,155.26-2.74,155.26-6.13Z"/>
      <g>
        <g>
          <polygon class="cls-1" points="389.06 290.25 311.03 290.25 304.74 335.07 395.35 335.07 389.06 290.25"/>
          <polygon class="cls-3" points="389.06 290.25 311.03 290.25 308.27 313.39 391.83 313.39 389.06 290.25"/>
        </g>
        <path class="cls-13" d="M284.98,340.14h0c0-4.12,3.34-7.45,7.45-7.45h115.23c4.12,0,7.45,3.34,7.45,7.45h-130.14Z"/>
      </g>
      <g>
        <rect class="cls-10" x="185.11" y="81.08" width="329.88" height="215" rx="7.27" ry="7.27"/>
        <g>
          <rect class="cls-5" x="202.24" y="98.21" width="295.62" height="180.75"/>
          <g class="cls-14">
            <g class="cls-12">
              <rect class="cls-9" x="286.81" y="9.52" width="101.67" height="336.61" transform="translate(169.49 -164.74) rotate(36.08)"/>
              <rect class="cls-9" x="382.02" y="53.93" width="30.96" height="336.61" transform="translate(207.12 -191.46) rotate(36.08)"/>
            </g>
          </g>
        </g>
        <path class="cls-15" d="M352.68,89.29c0,1.46-1.18,2.63-2.63,2.63s-2.63-1.18-2.63-2.63,1.18-2.63,2.63-2.63,2.63,1.18,2.63,2.63Z"/>
      </g>
      <g>
        <path class="cls-4" d="M351.73,258.98c6.03-3.63,12.3-6.95,17.88-11.18,8.53-6.47,16.65-13.49,23.8-21.55,7.97-8.99,14.53-18.94,20.52-29.31,7.67-13.29,12.26-27.73,16.03-42.5,2.67-10.47,3.99-21.1,4.48-31.87.49-10.82,1.13-21.64,1.77-33.49,0-1.52-.05-4.06.02-6.59.04-1.24-.38-1.72-1.62-1.92-7.13-1.15-14.25-2.4-21.37-3.58-13.77-2.3-27.07-6.22-39.86-11.79-7.2-3.13-14.27-6.54-21.35-9.93-.69-.33-1.34-.53-1.97-.6v-9.4h1.12c2.67,1.39,5.31,2.85,8.02,4.16,13.64,6.58,27.48,12.73,42.23,16.32,9.76,2.37,19.69,4.01,29.56,5.92,4.24.82,8.5,1.49,12.76,2.22v11.15c-.1.6-.26,1.2-.29,1.81-.53,10.88-1.09,21.76-1.56,32.65-.5,11.58-2.01,23-4.84,34.26-3.42,13.57-7.41,26.96-13.85,39.4-10.56,20.38-23.72,38.82-41.64,53.58-7.94,6.54-15.8,13.13-24.92,18-1.74.93-3.55,1.74-5.37,2.5-.35.14-.8.22-1.21.18v-7.99c.6-.02,1.23-.19,1.68-.46Z"/>
        <path class="cls-11" d="M283.31,69.15c16.82-2.89,32.8-8.39,48.26-15.49,5.16-2.37,10.26-4.86,15.38-7.31.58-.28,1.08-.72,1.62-1.09h1.49v9.4c-.89-.09-1.76.09-2.74.58-13.21,6.62-26.63,12.76-40.85,16.98-9.61,2.85-19.43,4.71-29.33,6.21-4.21.64-8.39,1.49-12.59,2.19-1.02.17-1.32.63-1.28,1.62.56,12.56,1.01,25.12,1.67,37.67.34,6.54.61,13.14,1.61,19.6,2.42,15.54,6.38,30.71,12.88,45.1,8.75,19.4,20.49,36.75,36.21,51.19,8.34,7.66,16.89,15.13,26.97,20.55,2.06,1.11,4.2,2.13,6.39,2.94.31.11.68.16,1.07.14v7.99c-.2-.02-.38-.05-.54-.12-2.49-1.08-5.02-2.11-7.38-3.44-7.29-4.12-14.01-9.04-20.38-14.49-9.1-7.79-17.85-15.9-25.18-25.43-14.17-18.41-25-38.52-31.11-61.04-3.19-11.76-5.91-23.61-6.76-35.8-.68-9.76-1.05-19.53-1.57-29.3-.25-4.75-.51-9.5-.77-14.25v-9.67c8.98-1.58,17.96-3.18,26.94-4.73Z"/>
        <path class="cls-7" d="M347.2,60.96c-13.55,6.92-27.31,13.45-42.17,17.04-9.22,2.23-18.63,3.69-27.96,5.5-2.54.49-5.07.99-7.82,1.53.21,6.05.36,11.8.61,17.55.28,6.68.7,13.35.96,20.03.93,23.98,6.36,46.89,17.19,68.3,9.52,18.82,22.36,35.12,38.89,48.46,6.58,5.31,13.31,10.25,20.97,13.89.77.37,1.49.56,2.2.59v5.58c-.39.01-.76-.03-1.07-.14-2.19-.81-4.33-1.83-6.39-2.94-10.07-5.42-18.63-12.89-26.97-20.55-15.72-14.44-27.46-31.8-36.21-51.19-6.49-14.39-10.46-29.56-12.88-45.1-1.01-6.46-1.27-13.05-1.61-19.6-.65-12.55-1.1-25.11-1.67-37.67-.04-.99.26-1.45,1.28-1.62,4.2-.7,8.38-1.55,12.59-2.19,9.9-1.5,19.72-3.36,29.33-6.21,14.22-4.22,27.63-10.36,40.85-16.98.98-.49,1.85-.67,2.74-.58v5.57c-.92-.03-1.83.21-2.84.73Z"/>
        <path class="cls-8" d="M373.37,65.18c12.79,5.56,26.09,9.49,39.86,11.79,7.13,1.19,14.24,2.44,21.37,3.58,1.25.2,1.66.68,1.62,1.92-.08,2.54-.02,5.07-.02,6.59-.63,11.85-1.28,22.66-1.77,33.49-.49,10.77-1.8,21.4-4.48,31.87-3.77,14.77-8.36,29.21-16.03,42.5-5.98,10.37-12.55,20.32-20.52,29.31-7.14,8.06-15.27,15.08-23.8,21.55-5.58,4.23-11.86,7.55-17.88,11.18-.45.27-1.08.43-1.68.46v-5.58c.9.03,1.77-.21,2.69-.7,6.67-3.57,13.05-7.54,18.8-12.52,6.84-5.92,13.83-11.68,19.67-18.64,13.14-15.65,23.58-32.88,29.41-52.56,2.82-9.51,4.97-19.23,7.04-28.93.91-4.26.98-8.73,1.19-13.11.62-12.8,1.2-25.6,1.63-38.41.15-4.46,1.04-3.82-3.96-4.77-10.67-2.02-21.42-3.69-31.97-6.24-14.79-3.57-28.51-10.05-41.98-17.01-.9-.47-1.72-.71-2.53-.74v-5.57c.63.07,1.28.27,1.97.6,7.08,3.39,14.16,6.8,21.35,9.93Z"/>
        <path class="cls-4" d="M352.58,60.97c13.46,6.96,27.19,13.44,41.98,17.01,10.54,2.55,21.3,4.22,31.97,6.24,4.99.94,4.1.31,3.96,4.77-.42,12.81-1.01,25.61-1.63,38.41-.21,4.38-.28,8.85-1.19,13.11-2.07,9.71-4.22,19.43-7.04,28.93-5.83,19.68-16.27,36.91-29.41,52.56-5.84,6.96-12.83,12.72-19.67,18.64-5.75,4.97-12.13,8.95-18.8,12.52-.92.49-1.79.73-2.69.7V60.23c.81.03,1.63.27,2.53.74Z"/>
        <path class="cls-11" d="M326.88,239.37c-16.52-13.34-29.37-29.64-38.89-48.46-10.83-21.41-16.25-44.32-17.19-68.3-.26-6.68-.67-13.36-.96-20.03-.24-5.75-.4-11.5-.61-17.55,2.75-.54,5.29-1.04,7.82-1.53,9.33-1.81,18.74-3.27,27.96-5.5,14.86-3.59,28.62-10.12,42.17-17.04,1.01-.52,1.93-.76,2.84-.73v193.62c-.7-.03-1.42-.22-2.2-.59-7.66-3.65-14.39-8.58-20.97-13.89Z"/>
        <polygon class="cls-8" points="339.29 181.68 302.3 147.01 318.08 132.22 339.29 152.1 381.92 112.14 397.7 126.93 339.29 181.68"/>
        <polygon class="cls-7" points="350 142.14 339.29 152.18 318.08 132.3 302.3 147.09 339.29 181.77 350 171.73 350 142.14"/>
      </g>
    </g>
  </g>
</svg>