<?xml version="1.0" encoding="UTF-8"?>
<svg id="Layer_1" data-name="Layer 1" xmlns="http://www.w3.org/2000/svg" viewBox="0 0 700 395">
  <defs>
    <style>
      .cls-1 {
        fill: #12a992;
      }

      .cls-2 {
        fill: #efedea;
      }

      .cls-3 {
        fill: none;
        stroke: #12a992;
        stroke-miterlimit: 10;
        stroke-width: 2px;
      }

      .cls-4 {
        fill: #2b2b2b;
        fill-rule: evenodd;
      }
    </style>
  </defs>
  <path class="cls-3" d="M493.05,317.05c0,9.47-65.02,19.86-145.23,19.86s-145.23-10.39-145.23-19.86,65.02-17.15,145.23-17.15,145.23,7.68,145.23,17.15Z"/>
  <g>
    <polygon class="cls-1" points="347.82 295.01 350.29 294.99 350.29 295.04 347.82 295.01"/>
    <polygon class="cls-1" points="355.26 294.96 360.23 294.97 360.22 295.24 355.26 295.13 355.26 294.96"/>
    <polygon class="cls-1" points="365.19 295 370.16 295.06 370.14 295.55 365.18 295.38 365.19 295"/>
    <polygon class="cls-1" points="375.12 295.17 380.09 295.3 380.06 295.95 375.1 295.74 375.12 295.17"/>
    <polygon class="cls-1" points="385.05 295.47 390.02 295.66 389.97 296.47 385.02 296.2 385.05 295.47"/>
    <polygon class="cls-1" points="394.98 295.88 399.94 296.14 399.88 297.11 394.93 296.77 394.98 295.88"/>
    <polygon class="cls-1" points="404.9 296.42 409.86 296.74 409.77 297.87 404.83 297.47 404.9 296.42"/>
    <polygon class="cls-1" points="414.81 297.08 419.77 297.46 419.66 298.76 414.72 298.29 414.81 297.08"/>
    <polygon class="cls-1" points="424.72 297.88 429.67 298.33 429.52 299.78 424.59 299.25 424.72 297.88"/>
    <polygon class="cls-1" points="434.62 298.81 439.56 299.34 439.38 300.93 434.45 300.34 434.62 298.81"/>
    <polygon class="cls-1" points="444.5 299.92 449.43 300.53 449.21 302.21 444.29 301.55 444.5 299.92"/>
    <polygon class="cls-1" points="454.36 301.19 459.29 301.9 459.02 303.67 454.12 302.92 454.36 301.19"/>
    <polygon class="cls-1" points="464.2 302.66 469.11 303.47 468.79 305.33 463.91 304.47 464.2 302.66"/>
    <polygon class="cls-1" points="474.01 304.34 478.9 305.28 478.5 307.23 473.65 306.24 474.01 304.34"/>
    <polygon class="cls-1" points="483.78 306.29 488.64 307.4 488.15 309.43 483.34 308.28 483.78 306.29"/>
    <polygon class="cls-1" points="493.48 308.63 498.29 310 497.65 312.09 492.92 310.69 493.48 308.63"/>
    <path class="cls-1" d="M503.06,311.57c1.58.57,3.15,1.19,4.69,1.91l-.98,2.07c-1.45-.69-2.96-1.31-4.49-1.88l.77-2.1Z"/>
    <path class="cls-1" d="M512.26,316.11c.71.57,1.42,1.21,1.97,2.16.27.47.49,1.06.51,1.71.02.59-.07,1.1-.21,1.6l-2.29-.67c.09-.29.13-.61.13-.85,0-.18-.07-.4-.2-.65-.27-.49-.78-1.02-1.36-1.48l1.45-1.83Z"/>
    <path class="cls-1" d="M511.36,326.14c-1.31,1.19-2.72,2.18-4.18,3.08l-1.29-2.12c1.37-.83,2.68-1.73,3.84-2.76l1.63,1.81Z"/>
    <path class="cls-1" d="M502.71,331.65c-1.52.74-3.06,1.42-4.61,2.05l-.96-2.4c1.52-.6,3.01-1.24,4.48-1.94l1.1,2.28Z"/>
    <polygon class="cls-1" points="493.4 335.48 488.64 337.05 487.86 334.52 492.54 333 493.4 335.48"/>
    <polygon class="cls-1" points="483.84 338.45 479 339.72 478.36 337.12 483.13 335.88 483.84 338.45"/>
    <polygon class="cls-1" points="474.14 340.87 469.27 341.93 468.72 339.27 473.55 338.24 474.14 340.87"/>
    <polygon class="cls-1" points="464.37 342.89 459.47 343.78 459 341.07 463.87 340.21 464.37 342.89"/>
    <polygon class="cls-1" points="454.55 344.59 449.63 345.34 449.23 342.59 454.12 341.87 454.55 344.59"/>
    <polygon class="cls-1" points="444.69 346.03 439.76 346.67 439.42 343.88 444.33 343.26 444.69 346.03"/>
    <polygon class="cls-1" points="434.81 347.25 429.86 347.79 429.58 344.96 434.5 344.44 434.81 347.25"/>
    <polygon class="cls-1" points="424.91 348.28 419.96 348.72 419.71 345.86 424.65 345.43 424.91 348.28"/>
    <polygon class="cls-1" points="415 349.13 410.03 349.5 409.83 346.6 414.77 346.25 415 349.13"/>
    <polygon class="cls-1" points="405.07 349.84 400.11 350.14 399.94 347.2 404.89 346.92 405.07 349.84"/>
    <polygon class="cls-1" points="395.14 350.41 390.17 350.65 390.04 347.67 394.99 347.45 395.14 350.41"/>
    <polygon class="cls-1" points="385.2 350.85 380.23 351.03 380.14 348.03 385.09 347.86 385.2 350.85"/>
    <polygon class="cls-1" points="375.26 351.18 370.29 351.31 370.23 348.27 375.18 348.16 375.26 351.18"/>
    <polygon class="cls-1" points="365.32 351.41 360.35 351.49 360.32 348.42 365.27 348.36 365.32 351.41"/>
    <polygon class="cls-1" points="355.38 351.54 350.41 351.57 350.4 348.47 355.36 348.45 355.38 351.54"/>
    <polygon class="cls-1" points="345.44 351.58 340.46 351.54 340.49 348.45 345.44 348.46 345.44 351.58"/>
    <polygon class="cls-1" points="335.49 351.49 330.52 351.41 330.57 348.34 335.53 348.41 335.49 351.49"/>
    <polygon class="cls-1" points="325.55 351.3 320.58 351.16 320.66 348.14 325.62 348.25 325.55 351.3"/>
    <polygon class="cls-1" points="315.6 351 310.63 350.81 310.75 347.82 315.71 347.99 315.6 351"/>
    <polygon class="cls-1" points="305.66 350.59 300.7 350.33 300.85 347.38 305.8 347.61 305.66 350.59"/>
    <polygon class="cls-1" points="295.73 350.05 290.76 349.73 290.96 346.8 295.9 347.11 295.73 350.05"/>
    <polygon class="cls-1" points="285.8 349.37 280.84 348.98 281.07 346.09 286.01 346.47 285.8 349.37"/>
    <polygon class="cls-1" points="275.88 348.55 270.92 348.07 271.2 345.22 276.14 345.68 275.88 348.55"/>
    <polygon class="cls-1" points="265.97 347.56 261.03 346.99 261.36 344.18 266.28 344.72 265.97 347.56"/>
    <polygon class="cls-1" points="256.09 346.38 251.15 345.72 251.53 342.95 256.44 343.59 256.09 346.38"/>
    <polygon class="cls-1" points="246.22 345 241.3 344.22 241.75 341.49 246.64 342.25 246.22 345"/>
    <polygon class="cls-1" points="236.39 343.38 231.49 342.46 232.01 339.78 236.87 340.67 236.39 343.38"/>
    <polygon class="cls-1" points="226.6 341.47 221.73 340.39 222.33 337.75 227.16 338.81 226.6 341.47"/>
    <polygon class="cls-1" points="216.88 339.21 212.05 337.92 212.76 335.35 217.53 336.61 216.88 339.21"/>
    <polygon class="cls-1" points="207.25 336.5 202.49 334.93 203.36 332.44 208.03 333.97 207.25 336.5"/>
    <path class="cls-1" d="M197.79,333.15c-1.55-.63-3.09-1.3-4.62-2.03l1.09-2.3c1.47.69,2.97,1.32,4.49,1.92l-.97,2.41Z"/>
    <path class="cls-1" d="M188.69,328.73c-1.46-.88-2.89-1.84-4.22-3l1.6-1.85c1.18,1,2.52,1.89,3.9,2.7l-1.27,2.15Z"/>
    <path class="cls-1" d="M181.15,321.29c-.16-.49-.27-1.03-.26-1.6,0-.65.2-1.26.46-1.74.54-.98,1.25-1.62,1.96-2.2l1.46,1.84c-.57.46-1.08.98-1.33,1.47-.13.24-.18.45-.18.63,0,.27.05.55.15.84l-2.27.76Z"/>
    <path class="cls-1" d="M187.83,313.12c1.55-.71,3.12-1.33,4.7-1.89l.77,2.11c-1.53.56-3.04,1.17-4.49,1.86l-.97-2.08Z"/>
    <polygon class="cls-1" points="197.3 309.66 202.11 308.31 202.67 310.39 197.94 311.77 197.3 309.66"/>
    <polygon class="cls-1" points="206.96 307.11 211.82 306.02 212.26 308.02 207.45 309.15 206.96 307.11"/>
    <polygon class="cls-1" points="216.7 305.02 221.59 304.1 221.95 306.02 217.1 306.98 216.7 305.02"/>
    <polygon class="cls-1" points="226.5 303.24 231.41 302.45 231.7 304.28 226.82 305.12 226.5 303.24"/>
    <polygon class="cls-1" points="236.33 301.71 241.25 301.02 241.49 302.76 236.59 303.49 236.33 301.71"/>
    <polygon class="cls-1" points="246.18 300.38 251.12 299.77 251.32 301.41 246.4 302.06 246.18 300.38"/>
    <polygon class="cls-1" points="256.06 299.21 261 298.69 261.16 300.23 256.24 300.8 256.06 299.21"/>
    <polygon class="cls-1" points="265.95 298.22 270.9 297.78 271.02 299.16 266.09 299.68 265.95 298.22"/>
    <polygon class="cls-1" points="275.85 297.38 280.8 297.01 280.9 298.23 275.96 298.68 275.85 297.38"/>
    <polygon class="cls-1" points="285.76 296.67 290.72 296.37 290.79 297.42 285.84 297.81 285.76 296.67"/>
    <polygon class="cls-1" points="295.68 296.09 300.64 295.85 300.69 296.74 295.74 297.07 295.68 296.09"/>
    <polygon class="cls-1" points="305.6 295.63 310.57 295.44 310.6 296.18 305.64 296.44 305.6 295.63"/>
    <polygon class="cls-1" points="315.53 295.28 320.49 295.15 320.51 295.73 315.55 295.94 315.53 295.28"/>
    <polygon class="cls-1" points="325.46 295.05 330.43 294.99 330.43 295.38 325.47 295.54 325.46 295.05"/>
    <polygon class="cls-1" points="335.39 294.96 340.36 294.96 340.36 295.13 335.4 295.24 335.39 294.96"/>
    <polygon class="cls-1" points="345.34 294.99 347.82 295.01 345.34 295.04 345.34 294.99"/>
  </g>
  <g>
    <path class="cls-4" d="M330.62,321.19c-4-2.05-6.67-6.28-6.51-11.07l3.36-157.67-4.91,51c-.27,2.84-2.15,4.7-4.4,5.64-3.09,1.29-6.65.87-9.36-1.12-1.91-1.4-3.08-3.46-3.05-6.22,0-.34,0-.68.04-1.02l7.69-70.28c2.06-18.86,18.28-13.75,34.97-13.43,1.01.02,2.01.02,3.02,0,16.72-.31,32.98-5.46,35.04,13.43l7.7,70.28c.04.34.05.68.04,1.02.02,1.98-.58,3.61-1.62,4.88-2.56,3.12-7.34,3.98-10.95,2.39-2.18-.96-3.98-2.8-4.25-5.57l-4.91-51,3.36,157.67c.13,4.08-1.78,7.74-4.82,10.01-3.42,2.55-8.33,3.06-12.27,1.45-4.22-1.73-7.27-5.81-7.44-10.66l-.18-66.06v-18.23c0-.63-.5-1.15-1.13-1.18h-.01s-.02,0-.02,0h-.07c-.62.03-1.12.55-1.12,1.18v18.23l-.18,66.06c-.17,4.42-2.7,8.19-6.33,10.14-3.48,1.87-8.17,1.95-11.69.13Z"/>
    <path class="cls-4" d="M329.58,93.76c.48,11.25,9.99,19.99,21.24,19.51,11.25-.48,19.99-9.99,19.51-21.24-.48-11.25-9.99-19.99-21.24-19.51-11.25.48-19.99,9.99-19.51,21.24Z"/>
  </g>
</svg>