<?xml version="1.0" encoding="UTF-8"?>
<svg id="Layer_1" data-name="Layer 1" xmlns="http://www.w3.org/2000/svg" viewBox="0 0 700 395">
  <defs>
    <style>
      .cls-1 {
        fill: #6952a8;
      }

      .cls-2 {
        fill: #efedea;
      }

      .cls-3 {
        opacity: .5;
      }
    </style>
  </defs>
  <g>
    <g>
      <circle class="cls-2" cx="352.7" cy="191.87" r="112.5"/>
      <path class="cls-1" d="M352.7,306.37c-63.14,0-114.5-51.36-114.5-114.5s51.36-114.5,114.5-114.5,114.5,51.36,114.5,114.5-51.36,114.5-114.5,114.5ZM352.7,81.37c-60.93,0-110.5,49.57-110.5,110.5s49.57,110.5,110.5,110.5,110.5-49.57,110.5-110.5-49.57-110.5-110.5-110.5Z"/>
    </g>
    <g class="cls-3">
      <path class="cls-1" d="M298.08,213.03c30.4.71,67.5-9.89,109.24,0,0,30.17-24.45,54.62-54.62,54.62s-54.62-24.45-54.62-54.62Z"/>
    </g>
    <path class="cls-1" d="M296.45,177.87c-1.33,0-2.6-.76-3.18-2.05-.8-1.76-.02-3.83,1.73-4.63l27.55-12.53-27.74-14.63c-1.71-.9-2.36-3.01-1.46-4.72.9-1.71,3.01-2.36,4.72-1.46l34.04,17.96c1.18.62,1.9,1.86,1.86,3.19-.04,1.33-.83,2.53-2.05,3.08l-34.03,15.48c-.47.21-.96.31-1.44.31Z"/>
    <path class="cls-1" d="M408.95,177.87c-.48,0-.98-.1-1.44-.31l-34.03-15.48c-1.21-.55-2.01-1.75-2.05-3.08-.04-1.33.68-2.57,1.86-3.19l34.04-17.96c1.71-.9,3.82-.25,4.72,1.46.9,1.71.25,3.82-1.46,4.72l-27.74,14.63,27.55,12.53c1.76.8,2.53,2.87,1.73,4.63-.59,1.29-1.86,2.05-3.18,2.05Z"/>
    <path class="cls-1" d="M307.06,243.3c23.34-21.01,67.77-23.28,91.11,0-25.6,38.4-74.4,27.15-91.11,0Z"/>
  </g>
</svg>