<?xml version="1.0" encoding="UTF-8"?>
<svg id="Layer_1" data-name="Layer 1" xmlns="http://www.w3.org/2000/svg" viewBox="0 0 700 395">
  <defs>
    <style>
      .cls-1 {
        fill: #de5b48;
      }

      .cls-2 {
        fill: #efedea;
      }
    </style>
  </defs>
  <g>
    <g>
      <path class="cls-1" d="M311.71,284.48c-3.6,0-7.24-.92-10.59-2.85-10.15-5.86-13.62-18.83-7.76-28.98l76.54-132.57c5.86-10.13,18.82-13.61,28.98-7.76,10.15,5.86,13.62,18.83,7.76,28.98l-76.54,132.57c-3.93,6.8-11.06,10.61-18.39,10.61Z"/>
      <path class="cls-1" d="M388.29,284.48c-7.33,0-14.46-3.8-18.39-10.61l-76.54-132.57c-5.86-10.15-2.38-23.12,7.76-28.98,10.15-5.85,23.13-2.38,28.98,7.76l76.54,132.57c5.86,10.15,2.38,23.12-7.76,28.98-3.34,1.93-6.99,2.85-10.59,2.85Z"/>
    </g>
    <g>
      <path class="cls-1" d="M151.13,284.48c-3.6,0-7.24-.92-10.59-2.85-10.15-5.86-13.62-18.83-7.76-28.98l76.54-132.57c5.86-10.13,18.83-13.61,28.98-7.76,10.15,5.86,13.62,18.83,7.76,28.98l-76.54,132.57c-3.93,6.8-11.06,10.61-18.39,10.61Z"/>
      <path class="cls-1" d="M227.71,284.48c-7.33,0-14.46-3.8-18.39-10.61l-76.54-132.57c-5.86-10.15-2.38-23.12,7.76-28.98,10.15-5.85,23.13-2.38,28.98,7.76l76.54,132.57c5.86,10.15,2.38,23.12-7.76,28.98-3.34,1.93-6.99,2.85-10.59,2.85Z"/>
    </g>
    <g>
      <path class="cls-1" d="M472.3,284.48c-3.6,0-7.24-.92-10.59-2.85-10.15-5.86-13.62-18.83-7.77-28.98l76.53-132.57c5.86-10.13,18.83-13.61,28.98-7.76,10.15,5.86,13.62,18.83,7.77,28.98l-76.53,132.57c-3.93,6.8-11.06,10.61-18.39,10.61Z"/>
      <path class="cls-1" d="M548.87,284.48c-7.33,0-14.46-3.8-18.39-10.61l-76.53-132.57c-5.86-10.15-2.38-23.12,7.77-28.98,10.16-5.85,23.12-2.38,28.98,7.76l76.53,132.57c5.86,10.15,2.38,23.12-7.77,28.98-3.34,1.93-6.99,2.85-10.59,2.85Z"/>
    </g>
  </g>
</svg>