<?xml version="1.0" encoding="UTF-8"?>
<svg id="Layer_1" data-name="Layer 1" xmlns="http://www.w3.org/2000/svg" viewBox="0 0 700 395">
  <defs>
    <style>
      .cls-1, .cls-2 {
        fill: #2b2b2b;
      }

      .cls-3 {
        fill: #f4e0b3;
      }

      .cls-4 {
        fill: #e05b49;
        opacity: .6;
      }

      .cls-5 {
        fill: #efedea;
      }

      .cls-2 {
        fill-rule: evenodd;
      }
    </style>
  </defs>
  <g>
    <rect class="cls-1" x="364.7" y="160.57" width="30.88" height="94.17" rx="15.44" ry="15.44" transform="translate(720.95 474.98) rotate(-170.54)"/>
    <circle class="cls-1" cx="318.39" cy="119.31" r="20.78"/>
    <rect class="cls-1" x="297.19" y="141.39" width="35.64" height="94.17" rx="17.82" ry="17.82" transform="translate(-26.71 54.37) rotate(-9.46)"/>
    <rect class="cls-1" x="310.66" y="207.05" width="25.22" height="137.69" rx="12.61" ry="12.61"/>
    <circle class="cls-1" cx="386.84" cy="136.79" r="20.78"/>
    <rect class="cls-1" x="361.62" y="226.61" width="25.22" height="118.12" rx="11.68" ry="11.68" transform="translate(748.46 571.34) rotate(180)"/>
    <g>
      <path class="cls-2" d="M384.39,192.59l-28.06,13.29-32.21,8.65c-3.92,1.43-8.45-1.07-10.08-5.54l-.28-.78c-1.63-4.47.24-9.3,4.16-10.72,0,0,24.79-4.07,32.32-6.81,7.54-2.74,27.94-15.12,27.94-15.12"/>
      <path class="cls-3" d="M384.39,192.59l-13.98,6.76-14,6.71h-.02s-.02.01-.02.01l-32.18,8.74h.02c-2.17.8-4.66.39-6.57-.83-1.94-1.19-3.35-3.16-4.06-5.27-.82-2.08-1-4.49-.28-6.65.69-2.16,2.33-4.08,4.51-4.85h.03s.03-.01.03-.01c5.33-.87,10.65-1.82,15.96-2.84,5.29-1.06,10.62-2.07,15.75-3.68,2.54-.86,4.96-2.09,7.37-3.3,2.4-1.23,4.78-2.5,7.15-3.8,4.74-2.6,9.43-5.28,14.08-8.03-4.61,2.83-9.25,5.59-13.95,8.27-2.34,1.35-4.72,2.64-7.12,3.88-2.41,1.23-4.82,2.47-7.4,3.36-5.18,1.66-10.49,2.69-15.79,3.78-5.31,1.05-10.62,2.03-15.96,2.93h.05c-1.99.71-3.48,2.46-4.11,4.47-.66,2.02-.48,4.24.3,6.23.67,2.04,1.97,3.84,3.77,4.97,1.77,1.14,4.05,1.52,6.04.8h.01s.01,0,.01,0l32.23-8.55h-.03s14.06-6.57,14.06-6.57l14.09-6.53Z"/>
    </g>
    <g>
      <path class="cls-2" d="M306.81,169.76l23.83,23.18,29.4,20.26c3.46,2.82,8.75,2.11,11.76-1.57l.52-.64c3.01-3.69,2.64-9.01-.82-11.84,0,0-23.44-13.12-30.09-18.55-6.66-5.43-18.16-19.11-18.16-19.11"/>
      <path class="cls-3" d="M306.81,169.76l12.01,11.49,11.96,11.54-.03-.02,29.46,20.18h.01s0,.01,0,.01c1.69,1.39,4,1.91,6.14,1.51,2.16-.38,4.09-1.62,5.44-3.37,1.45-1.66,2.3-3.81,2.23-6.01-.04-2.18-1.02-4.34-2.72-5.72l.04.03c-4.48-2.54-8.93-5.12-13.35-7.77-4.42-2.65-8.82-5.33-13.08-8.22-4.35-2.82-7.98-6.57-11.49-10.31-3.51-3.77-6.89-7.66-10.19-11.61,3.36,3.9,6.81,7.72,10.37,11.43,3.59,3.67,7.19,7.39,11.52,10.16,4.27,2.86,8.68,5.52,13.1,8.14,4.43,2.61,8.9,5.17,13.38,7.68h.02s.02.03.02.03c1.84,1.48,2.91,3.81,2.97,6.15.09,2.35-.83,4.69-2.34,6.44-1.39,1.84-3.51,3.22-5.83,3.6-2.31.41-4.81-.16-6.63-1.68h.02s-29.35-20.33-29.35-20.33h-.01s-.01-.02-.01-.02l-11.87-11.64-11.82-11.69Z"/>
    </g>
    <path class="cls-4" d="M367.38,96.27c2.45,8.99-8.3,19.75-8.3,19.75,0,0-14.73-3.81-17.18-12.79-1.04-3.82,1.21-7.75,5.02-8.79,2.45-.67,4.96.03,6.71,1.62.7-2.26,2.5-4.14,4.95-4.81,3.82-1.04,7.75,1.21,8.8,5.02Z"/>
    <path class="cls-4" d="M353.19,74.96c-2.11,6.5-13.05,8.78-13.05,8.78,0,0-7.51-8.27-5.4-14.77.9-2.76,3.86-4.27,6.62-3.38,1.78.58,3.03,2.01,3.47,3.7,1.34-1.11,3.2-1.53,4.98-.96,2.76.9,4.27,3.86,3.38,6.63Z"/>
    <path class="cls-4" d="M367.07,53.5c.66,4.82-5.64,9.67-5.64,9.67,0,0-7.37-2.97-8.03-7.8-.28-2.05,1.15-3.94,3.2-4.22,1.32-.18,2.57.35,3.37,1.3.52-1.13,1.58-1.97,2.89-2.15,2.05-.28,3.94,1.15,4.22,3.2Z"/>
  </g>
</svg>