<?xml version="1.0" encoding="UTF-8"?>
<svg id="Layer_1" data-name="Layer 1" xmlns="http://www.w3.org/2000/svg" viewBox="0 0 700 395">
  <defs>
    <style>
      .cls-1 {
        fill: #2b2b2b;
      }

      .cls-2 {
        fill: #de5b48;
      }

      .cls-3 {
        fill: #e29aad;
      }

      .cls-4 {
        fill: #16a992;
      }

      .cls-5 {
        fill: #efedea;
      }

      .cls-6 {
        fill: #8a64b5;
      }

      .cls-7 {
        fill: #fff;
      }

      .cls-8 {
        fill: #eeba3e;
      }
    </style>
  </defs>
  <g>
    <g>
      <circle class="cls-1" cx="345.65" cy="206.7" r="125"/>
      <g>
        <g>
          <path class="cls-7" d="M345.66,263.06c-31.08,0-56.37-25.29-56.37-56.37s25.29-56.36,56.37-56.36,56.36,25.28,56.36,56.36-25.28,56.37-56.36,56.37ZM345.66,152.26c-30.02,0-54.45,24.42-54.45,54.44s24.43,54.45,54.45,54.45,54.44-24.42,54.44-54.45-24.42-54.44-54.44-54.44Z"/>
          <path class="cls-7" d="M345.66,279.85c-40.34,0-73.16-32.82-73.16-73.16s32.82-73.15,73.16-73.15,73.15,32.81,73.15,73.15-32.81,73.16-73.15,73.16ZM345.66,135.47c-39.28,0-71.24,31.95-71.24,71.22s31.96,71.23,71.24,71.23,71.23-31.96,71.23-71.23-31.95-71.22-71.23-71.22Z"/>
          <path class="cls-7" d="M345.66,296.64c-49.6,0-89.95-40.35-89.95-89.95s40.35-89.94,89.95-89.94,89.93,40.35,89.93,89.94-40.34,89.95-89.93,89.95ZM345.66,118.68c-48.54,0-88.03,39.48-88.03,88.01s39.49,88.02,88.03,88.02,88.01-39.49,88.01-88.02-39.48-88.01-88.01-88.01Z"/>
          <path class="cls-7" d="M345.66,313.43c-58.86,0-106.74-47.88-106.74-106.74s47.88-106.72,106.74-106.72,106.72,47.88,106.72,106.72-47.87,106.74-106.72,106.74ZM345.66,101.89c-57.8,0-104.82,47.01-104.82,104.8s47.02,104.81,104.82,104.81,104.8-47.02,104.8-104.81-47.01-104.8-104.8-104.8Z"/>
        </g>
        <g>
          <path class="cls-8" d="M371.97,206.7c0,14.54-11.79,26.32-26.31,26.32s-26.32-11.78-26.32-26.32,11.79-26.32,26.32-26.32,26.31,11.78,26.31,26.32Z"/>
          <g>
            <rect class="cls-8" x="345.18" y="174.48" width=".94" height="3.53"/>
            <polygon class="cls-8" points="338.49 175.28 339.42 175.08 340.15 178.54 339.22 178.73 338.49 175.28"/>
            <rect class="cls-8" x="332.79" y="177.11" width=".95" height="3.53" transform="translate(-43.92 150.72) rotate(-23.96)"/>
            <rect class="cls-8" x="327.28" y="180.29" width=".95" height="3.53" transform="translate(-44.34 228.05) rotate(-36.1)"/>
            <rect class="cls-8" x="322.54" y="184.55" width=".95" height="3.53" transform="translate(-31.07 303.28) rotate(-48.26)"/>
            <polygon class="cls-8" points="317.51 191 317.98 190.17 321.04 191.94 320.57 192.77 317.51 191"/>
            <rect class="cls-8" x="316.21" y="195.52" width=".95" height="3.53" transform="translate(30.99 437.27) rotate(-71.95)"/>
            <rect class="cls-8" x="314.89" y="201.75" width=".95" height="3.53" transform="translate(80.11 495.97) rotate(-84.02)"/>
            <rect class="cls-8" x="313.6" y="209.41" width="3.53" height=".95" transform="translate(-20.06 33.83) rotate(-5.95)"/>
            <polygon class="cls-8" points="314.86 216.21 318.22 215.11 318.51 216.01 315.15 217.1 314.86 216.21"/>
            <rect class="cls-8" x="317.51" y="221.45" width="3.53" height=".95" transform="translate(-68.17 189.11) rotate(-29.96)"/>
            <rect class="cls-8" x="321.25" y="226.6" width="3.53" height=".95" transform="translate(-68.95 274.65) rotate(-42.03)"/>
            <rect class="cls-8" x="325.99" y="230.87" width="3.53" height=".95" transform="translate(-51.99 360.69) rotate(-54.03)"/>
            <rect class="cls-8" x="331.5" y="234.05" width="3.53" height=".95" transform="translate(-16.55 443.56) rotate(-66)"/>
            <polygon class="cls-8" points="338.49 238.12 339.22 234.66 340.15 234.86 339.42 238.32 338.49 238.12"/>
            <rect class="cls-8" x="345.18" y="235.39" width=".94" height="3.53"/>
            <polygon class="cls-8" points="351.15 234.86 352.08 234.66 352.82 238.12 351.89 238.32 351.15 234.86"/>
            <polygon class="cls-8" points="356.89 233.1 357.75 232.72 359.19 235.94 358.33 236.33 356.89 233.1"/>
            <polygon class="cls-8" points="362.14 230.19 362.9 229.63 364.98 232.49 364.21 233.04 362.14 230.19"/>
            <rect class="cls-8" x="367.81" y="225.31" width=".95" height="3.53" transform="translate(-46.88 348.89) rotate(-48.01)"/>
            <rect class="cls-8" x="371.55" y="220.16" width=".95" height="3.53" transform="translate(-6.49 432.6) rotate(-59.92)"/>
            <rect class="cls-8" x="374.15" y="214.34" width=".94" height="3.54" transform="translate(53.31 505.6) rotate(-72)"/>
            <rect class="cls-8" x="375.47" y="208.12" width=".95" height="3.53" transform="translate(128.84 562.48) rotate(-84.15)"/>
            <rect class="cls-8" x="374.18" y="203.04" width="3.53" height=".95" transform="translate(-19.43 40.93) rotate(-6.07)"/>
            <rect class="cls-8" x="372.85" y="196.81" width="3.53" height=".95" transform="translate(-42.6 125.27) rotate(-17.98)"/>
            <rect class="cls-8" x="370.26" y="191" width="3.53" height=".95" transform="translate(-45.89 211.76) rotate(-30.01)"/>
            <polygon class="cls-8" points="366.66 187.15 369.28 184.78 369.91 185.49 367.29 187.85 366.66 187.15"/>
            <rect class="cls-8" x="361.79" y="181.58" width="3.53" height=".95" transform="translate(2.72 369.45) rotate(-54.04)"/>
            <rect class="cls-8" x="356.28" y="178.4" width="3.53" height=".94" transform="translate(49.07 433.29) rotate(-66.02)"/>
            <polygon class="cls-8" points="351.16 178.54 351.89 175.08 352.82 175.28 352.08 178.73 351.16 178.54"/>
          </g>
        </g>
      </g>
    </g>
    <circle class="cls-3" cx="388.91" cy="150.34" r="9.34"/>
    <circle class="cls-2" cx="308.85" cy="165.35" r="9.34"/>
    <circle class="cls-4" cx="266.97" cy="248.84" r="9.34"/>
    <path class="cls-1" d="M314.41,164.2c0,3.92-5.56,7.1-5.56,7.1,0,0-5.56-3.18-5.56-7.1,0-1.66,1.35-3.01,3.01-3.01,1.07,0,2.01.56,2.54,1.4.53-.84,1.47-1.4,2.54-1.4,1.67,0,3.01,1.35,3.01,3.01Z"/>
    <g>
      <g>
        <path class="cls-1" d="M388.92,156.9c-.35,0-.64-.29-.64-.64v-4.63c0-.35.29-.64.64-.64s.64.29.64.64v4.63c0,.35-.29.64-.64.64Z"/>
        <path class="cls-1" d="M390.85,155.03h-3.86c-.35,0-.64-.29-.64-.64s.29-.64.64-.64h3.86c.35,0,.64.29.64.64s-.29.64-.64.64Z"/>
      </g>
      <path class="cls-1" d="M388.91,152.27c-2.35,0-4.25-1.91-4.25-4.25s1.91-4.25,4.25-4.25,4.25,1.91,4.25,4.25-1.91,4.25-4.25,4.25ZM388.91,145.05c-1.64,0-2.97,1.33-2.97,2.97s1.33,2.97,2.97,2.97,2.97-1.33,2.97-2.97-1.33-2.97-2.97-2.97Z"/>
    </g>
    <g>
      <g>
        <path class="cls-1" d="M272.03,248.05c-.37,0-.67-.3-.67-.67v-2.94h-2.94c-.37,0-.67-.3-.67-.67s.3-.67.67-.67h3.61c.37,0,.67.3.67.67v3.61c0,.37-.3.67-.67.67Z"/>
        <path class="cls-1" d="M268.42,248.05c-.17,0-.34-.07-.47-.2-.26-.26-.26-.68,0-.95l3.61-3.61c.26-.26.68-.26.95,0,.26.26.26.68,0,.95l-3.61,3.61c-.13.13-.3.2-.47.2Z"/>
      </g>
      <path class="cls-1" d="M265.69,254.56c-2.45,0-4.44-1.99-4.44-4.44s1.99-4.44,4.44-4.44,4.44,1.99,4.44,4.44-1.99,4.44-4.44,4.44ZM265.69,247.02c-1.71,0-3.1,1.39-3.1,3.1s1.39,3.1,3.1,3.1,3.1-1.39,3.1-3.1-1.39-3.1-3.1-3.1Z"/>
    </g>
    <path class="cls-6" d="M408.23,297.92c0,5.15-4.18,9.34-9.33,9.34s-9.34-4.18-9.34-9.34,4.18-9.34,9.34-9.34,9.33,4.18,9.33,9.34Z"/>
    <path class="cls-1" d="M394.95,297.02c-.02-.11-.03-.21-.03-.33,0-1.03.83-1.86,1.86-1.86.23,0,.44.04.64.11.05-.5.46-.88.97-.88.36,0,.67.19.84.48.5-.35,1.11-.56,1.77-.56,1.7,0,3.08,1.38,3.08,3.08,0,.13,0,.27-.03.4.43.35.71.89.71,1.49h0c0,1.02-.8,1.86-1.8,1.92-.44.59-1.14.97-1.93.97s-1.46-.37-1.9-.94c-.41.46-1,.75-1.66.75s-1.28-.3-1.69-.78h-.82c-1.06,0-1.93-.87-1.93-1.93h0c0-1.06.86-1.92,1.92-1.93Z"/>
  </g>
</svg>