<?xml version="1.0" encoding="UTF-8"?>
<svg xmlns="http://www.w3.org/2000/svg" viewBox="0 0 700 395">
  <defs>
    <style>
      .cls-1 {
        fill: #2b2b2b;
      }

      .cls-2 {
        isolation: isolate;
      }

      .cls-3 {
        fill: #1a1a1a;
        opacity: .4;
      }

      .cls-4 {
        fill: #efedea;
      }

      .cls-5 {
        fill: #e8d2a0;
        mix-blend-mode: multiply;
        opacity: .6;
      }
    </style>
  </defs>
  <g class="cls-2">
    <g id="Layer_1" data-name="Layer 1">
      <polygon class="cls-5" points="0 243.36 700 347.19 700 395 0 395 0 243.36"/>
      <path class="cls-3" d="M525,307.25c-.47-3.75-3.46-6.83-6.71-6.97,0,0,0-.02,0-.02-.19-.19-.35-.38-.53-.57,0,0-13.47-21.92-13.49-21.98.16,0,.33.01.49.02.02,0,.04,0,.06,0,1.07,0,2.05-.44,2.76-1.23.86-.96,1.25-2.34,1.07-3.79-.34-2.74-2.56-5.01-4.95-5.04-1.3-.02-2.6-.09-3.89-.13.4-.19.75-.44,1.02-.77.71-.88.87-2.19.49-3.88-.31-2.26-2.17-4.1-4.14-4.1-.09,0-.18,0-.27,0-.26,0-.53-.01-.79-.02.01-.03.03-.06.02-.09-.15-.44-15.13-44.36-15.13-65.59s7.46-39.99,7.94-41.21l6.25,1c.16.03.32.04.47.04.66,0,1.29-.23,1.8-.66.73-.62,1.15-1.61,1.15-2.71,0-2.1-1.49-4.05-3.33-4.37l3.82.61c.22.04.43.05.64.05.9,0,1.75-.31,2.44-.9.99-.85,1.57-2.19,1.57-3.69v-1.86c0-2.89-2.06-5.56-4.59-5.97l-4.95-.79s-.14-.1-.32-.26l-4.51-6.99c-.1-.23-.2-.43-.3-.67.04,0,.08,0,.11,0,.66,0,1.29-.23,1.8-.66.73-.62,1.15-1.61,1.15-2.71,0-2.12-1.51-4.08-3.37-4.38l-3.75-.6c-.38-25.43,10.68-29.82,10.79-29.86.04-.02.08-.06.09-.1.01-.05,0-.1-.03-.14-.13-.17-13.09-15.93-26.77-19.63,1.7-.02,3.24-.51,4.28-1.39.91-.77,1.39-1.78,1.39-2.91,0-2.33-2.08-4.63-4.96-5.81l6.97,1.12s.02,0,.02,0c.05,0,.09-.02.12-.06.03-.04.04-.1.02-.16l-4.02-9.58,5.96,3.35s.05.02.08.02.05,0,.08-.02c.05-.03.08-.08.08-.13v-14.03s-.02-.09-.06-.12c-.04-.03-.09-.04-.14-.03l-6.18,1.77,4.21-8.67s.02-.1,0-.14c-.02-.04-.07-.07-.11-.08l-18.78-3.01c-.06,0-.11.01-.15.06-.03.05-.04.11-.02.16l4.79,10.31-6.72-4.09s-.11-.03-.16,0c-.05.03-.08.08-.08.13v14.03s.02.09.06.12c.03.02.06.03.09.03.01,0,.02,0,.04,0l6.61-1.59-4.63,8.49s-.02.1,0,.14c.02.04.07.08.11.08l7.13,1.14c-1.45.12-2.75.56-3.67,1.34-.91.77-1.39,1.78-1.39,2.91,0,2.41,2.23,4.79,5.26,5.92-13.52-1.19-26.22,11.08-26.35,11.21-.02.02-.02.05-.03.07,0,0-.02,0-.02.01,0,0,0,0,0,.01,0,0-.01.02,0,.03,0,.05.03.09.07.11.11.08,11.2,8.03,10.82,33.33l-3.71-.6c-.84-.14-1.64.09-2.27.62-.73.62-1.15,1.61-1.15,2.71,0,2.04,1.41,3.92,3.17,4.32-.09.18-.17.33-.26.5l-4.6,5.66c-.13.07-.22.11-.24.12l-5.03-.81c-1.13-.19-2.22.12-3.07.85-.99.85-1.57,2.19-1.57,3.69v1.86c0,2.89,2.06,5.56,4.59,5.97l3.93.63c-.83-.13-1.62.1-2.24.62-.73.62-1.15,1.61-1.15,2.71,0,2.12,1.51,4.08,3.37,4.38l6.28,1.01c.35.99,7.96,22.97,7.96,43.81s-14.97,60.33-15.12,60.72c0,.02,0,.03,0,.05-.33-.11-.67-.2-1-.3-.93-.3-1.86-.2-2.64.29-.84.52-1.39,1.41-1.55,2.5-.6,2.45.19,4.09,1.38,5.06-1.24-.36-2.48-.69-3.72-1.07-1.11-.34-2.23-.2-3.16.4-1.01.65-1.66,1.75-1.84,3.1-.35,2.67,1.38,5.46,3.84,6.22.18.06.36.1.55.16,0,.03-.04.15-.1.34l-13.46,17.38c-.15.11-.29.23-.45.34h0c-1.48-.4-2.96-.2-4.19.59-1.4.9-2.3,2.42-2.54,4.28-.42,3.22,1.33,6.55,4.03,8.06l-.04,6.71s.04.04.06.06c.01.03,0,.07.03.08.01,0,.05.04.08.07l-154.02,55.34,103.82,8.98,140.71-43.83-4.31-1c1.25.02,2.48.09,3.74.09,2.68,0,5.4-.05,8.16-.16,1-.04,1.96-.15,2.88-.33,2.53-.51,4.08-1.44,4.83-1.88.17-.1.36-.21.41-.22.02,0,.02-.04.04-.05.03.03.03.07.07.07,0,0,0,0,0,0,.09,0,.15-.07.15-.16l-.13-6.51c1.22-.15,2.34-.7,3.18-1.64,1.19-1.33,1.73-3.25,1.48-5.25Z"/>
      <g>
        <ellipse class="cls-1" cx="313.42" cy="224.45" rx="28.45" ry="27.17"/>
        <path class="cls-1" d="M339.46,258.84c-3.1,3.1-11.35,4.86-25.73,4.86s-23.56-2.07-26.35-4.86c-2.63-2.63,11.97-9.52,26.35-9.52s28.36,6.88,25.73,9.52Z"/>
        <path class="cls-1" d="M283.1,306.84c0-2.07,13.72-3.75,30.64-3.75s30.64,1.68,30.64,3.75v6.88c0,2.07-13.72,5.63-30.64,5.63s-30.64-3.56-30.64-5.63v-6.88Z"/>
        <path class="cls-1" d="M373.13,348.73c0-3.45-26.59-21.26-59.4-21.26s-59.4,17.8-59.4,21.26v12.5c0,6.25,26.59,13.76,59.4,13.76s59.4-6.88,59.4-13.76v-12.5Z"/>
        <path class="cls-1" d="M366.88,343.73c0,3.8-23.93,6.88-53.46,6.88s-53.46-3.08-53.46-6.88,23.93-29.39,53.46-29.39,53.46,25.59,53.46,29.39Z"/>
        <path class="cls-1" d="M313.71,244.94h-13.73s-1.9,66.27-15.01,76.9c6.48,0,17.69,0,28.74,0h.02c11.04,0,22.25,0,28.74,0-13.11-10.63-15.01-76.9-15.01-76.9h-13.73"/>
      </g>
    </g>
  </g>
</svg>