<?xml version="1.0" encoding="UTF-8"?>
<svg xmlns="http://www.w3.org/2000/svg" version="1.1" viewBox="0 0 700 395">
  <!-- Generator: Adobe Illustrator 30.2.1, SVG Export Plug-In . SVG Version: 2.1.1 Build 1)  -->
  <defs>
    <style>
      .st0 {
        fill: #d9d9d9;
        mix-blend-mode: multiply;
      }

      .st0, .st1 {
        isolation: isolate;
      }

      .st2 {
        fill: #39424b;
      }

      .st3 {
        fill: #9b5b40;
      }

      .st4 {
        fill: #ab6a4e;
      }

      .st5 {
        fill: #85503e;
      }

      .st6 {
        fill: #efedea;
      }

      .st7 {
        fill: #a4624c;
      }

      .st8 {
        fill: #eeba3e;
      }

      .st9 {
        fill: #ffa21f;
      }

      .st10 {
        fill: #704334;
      }
    </style>
  </defs>
  <g class="st1">
    <g id="Layer_1">
      <rect class="st6" y="0" width="700" height="395"/>
      <g>
        <path class="st0" d="M114.6,318.1c0,7.4,116.2,3.2,242.3,3.2s228.4,4.2,228.4-3.2-102.2-12.7-228.4-12.7-242.3,5.3-242.3,12.7Z"/>
        <g>
          <g>
            <g>
              <path class="st8" d="M402.8,214.5l67.8-36.6c3.7-2,5-6.6,3.1-10.2l-29.4-54.5c-2-3.7-6.6-5-10.2-3.1l-67.8,36.6c-3.7,2-5,6.6-3.1,10.2l29.4,54.5c2,3.7,6.6,5,10.2,3.1h0Z"/>
              <path class="st9" d="M392.6,211.5l-29.4-54.5c-2-3.7-.6-8.3,3.1-10.2l27.3-14.7c3.7-2,8.3-.6,10.2,3.1l29.4,54.5c2,3.7.6,8.3-3.1,10.2l-27.3,14.7c-3.7,2-8.3.6-10.2-3.1h0Z"/>
              <path class="st7" d="M353,144.5l86.4-46.7c3.7-2,5-6.6,3.1-10.2l-5-9.3c-2-3.7-6.6-5-10.2-3.1l-86.4,46.7c-3.7,2-5,6.6-3.1,10.2l5,9.3c2,3.7,6.6,5,10.2,3.1h0Z"/>
              <path class="st10" d="M424.5,76.7s-.6-1.2-1.4-2.6c-.8-1.4-2.6-2-4.1-1.2l-75.8,40.9c-1.5.8-2,2.6-1.2,4.1l1.4,2.6,81.1-43.8h0Z"/>
              <path class="st10" d="M417.5,251.3l75.8-40.9c1.5-.8,2-2.6,1.2-4.1l-1.4-2.6-81.1,43.8s.6,1.2,1.4,2.6c.8,1.4,2.6,2,4.1,1.2h0Z"/>
              <path class="st7" d="M397.2,226.4l86.4-46.7c3.7-2,8.3-.6,10.2,3.1l5,9.3c2,3.7.6,8.3-3.1,10.2l-86.4,46.7c-3.7,2-8.3.6-10.2-3.1l-5-9.3c-2-3.7-.6-8.3,3.1-10.2h0Z"/>
              <rect class="st7" x="360.5" y="124.3" width="77.1" height="4.3" transform="translate(-12.2 204.7) rotate(-28.4)"/>
              <rect class="st5" x="358.5" y="120.9" width="77.1" height="3.9" transform="translate(-10.7 203.4) rotate(-28.4)"/>
              <rect class="st5" x="400.9" y="199.4" width="77.1" height="3.9" transform="translate(-42.9 232.9) rotate(-28.4)"/>
              <rect class="st5" x="399" y="196" width="77.1" height="3.9" transform="translate(-41.5 231.7) rotate(-28.4)"/>
              <path class="st3" d="M389.5,124.8l-36.6,19.7c-3.7,2-8.3.6-10.2-3.1l-5-9.3c-2-3.7-.6-8.3,3.1-10.2l36.6-19.7c3.7-2,8.3-.6,10.2,3.1l5,9.3c2,3.7.6,8.3-3.1,10.2h0Z"/>
              <path class="st3" d="M445.9,229.2l-36.6,19.7c-3.7,2-8.3.6-10.2-3.1l-5-9.3c-2-3.7-.6-8.3,3.1-10.2l36.6-19.7c3.7-2,8.3-.6,10.2,3.1l5,9.3c2,3.7.6,8.3-3.1,10.2h0Z"/>
              <path class="st5" d="M358.8,141.3l3.4-1.8,1.8,3.4c-1-1.9-3.4-2.6-5.3-1.6h0Z"/>
              <path class="st5" d="M433.5,101l-3.4,1.8,1.8,3.4c-1-1.9-.3-4.2,1.6-5.3h0Z"/>
              <path class="st5" d="M403,223.2l3.4-1.8-1.8-3.4c1,1.9.3,4.2-1.6,5.3Z"/>
              <path class="st5" d="M477.7,182.9l-3.4,1.8-1.8-3.4c1,1.9,3.4,2.6,5.3,1.6Z"/>
              <rect class="st3" x="358.3" y="179.9" width="14.5" height="21.9" transform="translate(-46.8 196.6) rotate(-28.4)"/>
              <rect class="st5" x="362" y="194.8" width="14.5" height="6" transform="translate(-49.7 199.2) rotate(-28.4)"/>
              <path class="st3" d="M166.4,314.2l198-110.3-10.4-19.3-200.8,105c-14.8,7.7-18.4,16.8-14.6,23.8,3.8,7,13.3,8.9,27.9.8h0Z"/>
              <path class="st5" d="M163.5,309l198-110.3,2.8,5.3-198,110.3c-14.6,8.1-24.1,6.2-27.9-.8-.5-.9-.8-1.8-1.1-2.8,4.6,4.9,13.4,5.4,26.1-1.7h0Z"/>
              <path class="st5" d="M139,301.6c.1.3.2.5.4.8,4.5,8.4,14.9,11.5,23.3,7l3.3,5.1c-14.3,7.8-23.7,5.9-27.5-1-1.9-3.6-1.9-7.6.5-11.8h0Z"/>
              <path class="st4" d="M368.4,181.1s-13.6,7.4-34,18.6c-10.2,5.5-22.1,12-34.9,18.8-12.8,6.8-26.4,14.1-40.1,21.4-13.7,7.2-27.4,14.5-40.2,21.3-12.8,6.8-24.9,13-35.1,18.4-5.2,2.7-9.9,5.1-14.1,7.3-.5.2-1,.5-1.5.7-.5.3-1,.5-1.5.8-1,.5-2,1-2.9,1.5-1.8,1-3.5,2-5,3-3,1.9-5.2,3.7-6.6,5.2-.4.4-.7.7-1,1-.3.3-.5.6-.7.8-.4.4-.5.6-.5.6-1.1,1.3-.9,3.2.4,4.3,1.3,1.1,3.2.9,4.3-.4,0,0,0,0,0,0l.2-.2s.1-.2.4-.5c.1-.2.3-.3.4-.6.2-.2.4-.5.7-.8,1.1-1.2,2.9-2.8,5.6-4.7,1.3-.9,2.8-1.9,4.5-3,.8-.5,1.7-1,2.7-1.6.5-.3.9-.5,1.4-.8.5-.3,1-.6,1.6-.8,4.1-2.3,8.8-4.9,13.8-7.8,10.2-5.6,22-12.3,34.7-19.3,12.7-7,26.3-14.5,39.8-21.9,13.6-7.4,27.2-14.8,39.9-21.8,12.8-6.9,24.7-13.3,34.9-18.8,20.5-10.9,34.1-18.2,34.1-18.2.7-.4,1-1.3.6-2-.4-.7-1.3-1-2-.6h0s0,0,0,0Z"/>
              <rect class="st5" x="371.5" y="161.3" width="6.8" height="49" transform="translate(-43.3 200.4) rotate(-28.4)"/>
            </g>
            <g>
              <path class="st10" d="M371.1,288v-9.8c0-5.4,6.8-9.8,15.1-9.8h145.1c8.3,0,15.1,4.4,15.1,9.8v9.8h-175.3Z"/>
              <path class="st3" d="M348.5,305.6v-10.3c0-7.4,6.8-13.3,15.1-13.3h190.4c8.3,0,15.1,6,15.1,13.3v10.3c0,1.7-1.4,3-3,3h-214.6c-1.7,0-3-1.4-3-3h0Z"/>
              <path class="st10" d="M342.8,318.1v-4.7c0-2.6,3.4-4.7,7.6-4.7h216.9c4.2,0,7.6,2.1,7.6,4.7v4.7h-232,0Z"/>
              <path class="st5" d="M567.2,308.6h-108.5v9.5h116v-4.7c0-2.6-3.4-4.7-7.6-4.7h0Z"/>
              <path class="st5" d="M531.3,268.4h-72.5v19.6h87.6v-9.8c0-5.4-6.8-9.8-15.1-9.8Z"/>
              <path class="st7" d="M554,282h-95.2v26.7h107.3c1.7,0,3-1.4,3-3v-10.3c0-7.4-6.8-13.3-15.1-13.3h0Z"/>
            </g>
          </g>
          <g>
            <g>
              <path class="st2" d="M514.6,213.5c1.4,0,2.6-.9,3.1-2.2h0c.5-1.8-.4-3.6-2.1-4.2-1.7-.6-3.5.4-4.1,2.1-.5,1.7.4,3.6,2.1,4.1.3.1.7.2,1,.2h0Z"/>
              <path class="st2" d="M519.2,198.9c1.4,0,2.7-.9,3.1-2.3l4.7-14.7c.5-1.7-.4-3.6-2.1-4.1-1.7-.5-3.6.4-4.1,2.1l-4.7,14.7c-.3.8-.2,1.7.2,2.5.4.8,1.1,1.4,1.9,1.6.3.1.7.2,1,.2h0Z"/>
            </g>
            <g>
              <path class="st2" d="M537.9,226c1,1,2.5,1.2,3.8.6h0c1.6-.9,2.2-2.8,1.4-4.4-.8-1.6-2.8-2.2-4.4-1.4-1.6.8-2.2,2.8-1.4,4.4.2.3.4.6.6.8h0Z"/>
              <path class="st2" d="M551.4,218.9c1,1,2.5,1.2,3.8.6l13.6-7.1c1.6-.8,2.2-2.8,1.4-4.4-.8-1.6-2.8-2.2-4.4-1.4l-13.7,7.1c-.8.4-1.3,1.1-1.6,1.9-.3.8-.2,1.7.2,2.5.2.3.4.6.6.8h0Z"/>
            </g>
            <g>
              <path class="st2" d="M545.6,251.3c0,1.4.9,2.6,2.3,3h0c1.7.5,3.5-.4,4.1-2.2.5-1.7-.4-3.5-2.2-4.1-1.7-.5-3.6.4-4.1,2.2-.1.3-.2.7-.1,1h0Z"/>
              <path class="st2" d="M560.3,255.8c0,1.4,1,2.7,2.3,3.1l14.7,4.5c1.7.5,3.6-.4,4.1-2.2.5-1.7-.5-3.6-2.2-4.1l-14.7-4.5c-.8-.3-1.7-.2-2.5.2-.8.4-1.3,1.1-1.6,1.9-.1.3-.1.7-.1,1Z"/>
            </g>
          </g>
        </g>
      </g>
    </g>
  </g>
</svg>