<?xml version="1.0" encoding="UTF-8"?>
<svg xmlns="http://www.w3.org/2000/svg" xmlns:xlink="http://www.w3.org/1999/xlink" viewBox="0 0 700 395">
  <defs>
    <style>
      .cls-1 {
        fill: #e99b82;
        mix-blend-mode: multiply;
        opacity: .4;
      }

      .cls-2 {
        fill: url(#linear-gradient-4);
      }

      .cls-3 {
        fill: url(#linear-gradient-3);
      }

      .cls-4 {
        fill: url(#linear-gradient-2);
      }

      .cls-5 {
        fill: url(#linear-gradient);
      }

      .cls-6 {
        fill: #4f4f4f;
      }

      .cls-7 {
        fill: #e5e5e5;
      }

      .cls-8 {
        fill: #3a3a3a;
      }

      .cls-9 {
        fill: #e5cba1;
      }

      .cls-10 {
        isolation: isolate;
      }

      .cls-11 {
        fill: #9e8154;
      }

      .cls-12 {
        fill: #efedea;
      }

      .cls-13 {
        fill: #8dc2c3;
        opacity: .6;
      }

      .cls-14 {
        fill: #fff;
      }

      .cls-15 {
        fill: #262626;
      }

      .cls-16 {
        fill: #b39662;
      }

      .cls-17 {
        fill: #d85f48;
      }

      .cls-18 {
        fill: #8f7242;
      }

      .cls-19 {
        fill: #a36c50;
      }

      .cls-20 {
        fill: #d7bb86;
      }

      .cls-21 {
        fill: #343434;
      }
    </style>
    <linearGradient id="linear-gradient" x1="453.17" y1="103.47" x2="543.83" y2="61.93" gradientTransform="translate(1.3 210.23) rotate(-24.19)" gradientUnits="userSpaceOnUse">
      <stop offset=".48" stop-color="#d7bb86"/>
      <stop offset="1" stop-color="#f4e0b3"/>
    </linearGradient>
    <linearGradient id="linear-gradient-2" x1="346.2" y1="55.42" x2="436.86" y2="13.88" gradientTransform="translate(581.44 210.23) rotate(-155.81) scale(1 -1)" xlink:href="#linear-gradient"/>
    <linearGradient id="linear-gradient-3" x1="506.52" y1="268.41" x2="597.18" y2="226.87" gradientTransform="matrix(1,0,0,1,0,0)" xlink:href="#linear-gradient"/>
    <linearGradient id="linear-gradient-4" x1="136.61" y1="268.41" x2="227.27" y2="226.87" gradientTransform="translate(330.09) rotate(-180) scale(1 -1)" xlink:href="#linear-gradient"/>
  </defs>
  <g class="cls-10">
    <g id="Layer_1" data-name="Layer 1">
      <rect class="cls-12" y=".1" width="700" height="395"/>
      <g>
        <g>
          <path class="cls-15" d="M352.7,162.23c-13.79-.37-31.18,5.95-40.1,14.23-11.47,10.65-14.1,29.91-8.92,52.52,5.77,25.21,28,52.12,63.36,48.8,1.1-.11,5.17.08,6.13-.45,2.39-1.33,4.82-2.56,6.33-6.35,2.17-5.45,17.19-21.2,20.3-41.98,5.98-39.84-15.59-65.92-47.1-66.77Z"/>
          <g>
            <g>
              <path class="cls-20" d="M366.81,265.06l-14.76.38-14.75.39s10.61,22.82-13.07,31.27c16.44,19.13,50.41,10.91,57.62-1.5-24.1-7.2-15.04-30.54-15.04-30.54Z"/>
              <path class="cls-16" d="M365.68,270.47l-28.38-4.64s5.33,11.1-.21,21.52c24.63-4.16,28.59-16.88,28.59-16.88Z"/>
              <g>
                <path class="cls-7" d="M362.32,377.61c8.98-22.33,14.47-49.78,13.54-78.61-23.22,11.23-44.04-1.95-44.04-1.95-3.58,23.44,2.5,58.33,8.7,79.78,7.23.56,14.57,1.27,21.8.79Z"/>
                <path class="cls-14" d="M330.99,296.61s-2.7,33.92-1.89,39.9c.81,5.98,6.51,12.1,9.85,13.22,7.09.97,10.69-8.22,24.57-.56,6.03,3.33,12.84-8.3,13.81-13.16,1.18-21.05-1.71-29.83-1.49-39.4-24.28,17.54-44.85,0-44.85,0Z"/>
                <g>
                  <path class="cls-15" d="M326.19,294.87c-8.03,2.8-24.79,8.45-42.22,13.22-7.44,2.62-9.73,8.23-10.47,16.46-.2,2.22-1.06,13.94-2.21,29.86,13.78,8.76,28.67,15.06,44.05,18.87,8.06,2,21.57,3.31,29.81,3.95-3.89-29.97-16.99-80.79-14.02-84.11,0,0-1.81.66-4.94,1.75Z"/>
                  <path class="cls-15" d="M426.66,324.55c-.75-8.23-3.04-13.84-10.48-16.46-5.95-.7-16.25-4.56-25.53-8.47-5.56-2.35-10.66-5-14.34-6.72-3.32-1.55-4.69-2.86-4.69-2.86-.45,2.08-.46,5.1-.88,7.3-4.34,22.95-9.72,51.76-10.94,80.42,11.3-.76,24.28-3.21,35.21-6.53,11.78-3.57,23.2-8.63,33.98-15.17-1.2-16.75-2.11-29.21-2.32-31.51Z"/>
                </g>
                <g>
                  <path class="cls-6" d="M386.03,297.89c-2.49-3.54-10.96-9.77-15.17-8.38,1.63,4.63-11.84,58.54-15.05,88.25,1.35,0,2.68.06,3.97,0,8.64-21.25,22.49-38.47,22.49-38.47l-13.05-17.21,14.23,4.45s8.47-20.26,2.57-28.63Z"/>
                  <path class="cls-6" d="M333.47,291.54c-4.2-1.39-14.28,2.44-16.11,6.36-2.77,5.93.81,26.87.81,26.87l16-2.67-13.05,17.21s14.04,16.93,22.7,37.77c1.24.13,2.51.18,4.09.31-3.3-29.77-16.31-79.99-14.43-85.85Z"/>
                </g>
              </g>
            </g>
            <g>
              <g>
                <g>
                  <path class="cls-16" d="M380.91,229.2c-1.4,6.66,1.07,12.76,5.5,13.64,4.43.87,9.16-3.82,10.56-10.48,1.4-6.66-1.06-12.77-5.49-13.64-4.43-.87-9.16,3.82-10.56,10.48Z"/>
                  <path class="cls-11" d="M381.58,228.62c-1.16,5.13.77,9.81,4.3,10.45,3.54.64,7.34-2.99,8.5-8.12,1.16-5.13-.77-9.81-4.3-10.45-3.53-.64-7.33,2.99-8.49,8.12Z"/>
                  <path class="cls-18" d="M391.62,223.25c-.36-.23-.82-.37-1.25-.39-.44-.03-.86.03-1.24.13-.76.21-1.32.54-1.7.78-.38.25-.59.41-.59.41,0,0,.19-.17.55-.45.36-.27.91-.64,1.67-.92.75-.27,1.83-.41,2.8.11.97.53,1.44,1.57,1.66,2.53.43,1.98.18,3.98-.2,5.41-.59,2.24-2.52,7.58-5.26,6.4-2.38-2.11,3.37-4.85,3.52-4.98.35-.27.38-.96.61-1.67.42-1.34.88-3.22.65-5.07-.13-.9-.47-1.82-1.23-2.3Z"/>
                </g>
                <g>
                  <path class="cls-16" d="M325.99,229.2c1.4,6.66-1.06,12.76-5.5,13.64-4.43.87-9.16-3.82-10.56-10.48-1.4-6.66,1.06-12.77,5.49-13.64,4.43-.87,9.16,3.82,10.56,10.48Z"/>
                  <path class="cls-1" d="M325.32,228.62c1.16,5.13-.77,9.81-4.3,10.45-3.53.64-7.33-2.99-8.49-8.12-1.16-5.13.76-9.81,4.3-10.45,3.53-.64,7.34,2.99,8.49,8.12Z"/>
                  <path class="cls-1" d="M315.28,223.25c.36-.23.82-.37,1.25-.39.44-.03.86.03,1.23.13.76.21,1.33.54,1.71.78.38.25.58.41.58.41,0,0-.19-.17-.55-.45-.37-.27-.9-.64-1.67-.92-.75-.27-1.83-.41-2.8.11-.97.53-1.44,1.57-1.66,2.53-.43,1.98-.18,3.98.2,5.41.59,2.24,2.52,7.58,5.26,6.4,2.37-2.11-3.37-4.85-3.52-4.98-.34-.27-.38-.96-.61-1.67-.42-1.34-.88-3.22-.64-5.07.13-.9.47-1.82,1.23-2.3Z"/>
                </g>
              </g>
              <path class="cls-20" d="M353.45,168.04c-19.22,0-37.25,15.58-37.25,34.8l2.45,36.19s0,8.79,8.61,18.71c7.46,8.6,17.54,19.7,26.2,19.7s18.24-11,26.19-19.7c8.12-8.89,8.61-18.71,8.61-18.71l2.45-36.19c0-19.22-18.03-34.8-37.25-34.8Z"/>
              <g>
                <g>
                  <g>
                    <g>
                      <path class="cls-9" d="M357.13,231.51c-.05,1.32-.14,2.55-.16,3.76-.02,1.21.05,2.4.15,3.6l.36,3.66c.12,1.24.22,2.52.11,3.84-.67-1.14-1.18-2.31-1.58-3.53-.4-1.22-.71-2.5-.81-3.81-.22-2.62.34-5.41,1.93-7.52Z"/>
                      <path class="cls-16" d="M350.15,247.84c1.64.13,5.45.02,7.02-.32,2.15-.47-1.14-3.6-3.75-3.66-1.64-.04-6.29,3.44-3.27,3.98Z"/>
                    </g>
                    <g>
                      <path class="cls-21" d="M342.93,259.73s10.65-6.45,23.4,0c-3.05-3.15-7.96-7.34-11.75-5.02-3.64-2.67-9.37,1.87-11.65,5.02Z"/>
                      <path class="cls-15" d="M343.08,259.65s2.01-1.21,3.47-.29c1.46.92,6.91,3.71,13.82,1.31,1.59-.73,3.99-1.47,5.71-1.13-1.89-.96-6.01-3.09-11.44-3.09-3.44,0-7.64.87-11.55,3.2Z"/>
                    </g>
                    <g>
                      <path class="cls-15" d="M345.31,212.7c-.71-.61-1.53-.93-2.08-.48-.56.45-1.39,3.15-7.45,2.58-6.5-.61-12.13.6-13.37,3.67,1.95-2.38,7.67-1.49,13.11-.98,8.05.75,10.28-2.27,10.56-2.74.32-1.12.13-1.28-.77-2.05Z"/>
                      <path class="cls-15" d="M361.12,212.7c.71-.61,1.53-.93,2.09-.48.55.45,1.39,3.15,7.46,2.58,6.5-.61,12.13.6,13.36,3.67-1.95-2.38-7.67-1.49-13.11-.98-8.05.75-10.29-2.27-10.56-2.74-.33-1.12-.13-1.28.76-2.05Z"/>
                    </g>
                  </g>
                  <g>
                    <g>
                      <path class="cls-16" d="M325.45,227.43s11.43-14.97,21.84.1c0,0-5.74,7.08-14.9,2.89-2.14-.98-4.45-3.62-6.94-2.99Z"/>
                      <path class="cls-15" d="M324.3,227.62c1.72.15,3.5,1.14,5.2,1.94,8.05,3.79,14.17,2.31,17.79-2.02-6.19,4.77-14.85.77-16.78,0-1.92-.77-3.68-2.23-6.21.09Z"/>
                    </g>
                    <g>
                      <path class="cls-16" d="M383.49,227.43s-11.42-14.97-21.84.1c0,0,5.74,7.08,14.9,2.89,2.14-.98,4.45-3.62,6.94-2.99Z"/>
                      <path class="cls-15" d="M384.64,227.62c-1.72.15-3.5,1.14-5.2,1.94-8.05,3.79-14.17,2.31-17.79-2.02,6.19,4.77,14.85.77,16.78,0,1.92-.77,3.68-2.23,6.21.09Z"/>
                    </g>
                  </g>
                </g>
                <path class="cls-16" d="M360.87,197.57c-8.47-13.59-22.5-12.46-31.99-10.2-12.8,3.05-14.44,11.54-14.44,16.2l4.24,35.38s0,8.79,8.6,18.7c7.46,8.59,17.53,19.69,26.18,19.69,1,0,2.01-.16,3.02-.43-2.92,0-4.73-.54-6.43-1.46-12.69-6.62-21.96-19.54-23.65-27.65-1.84-8.89.81-14.22-1.89-25.13-1.9-7.69-6.4-24.57,1.47-27.76,1.51-.61,5.6.25,6.64.14,1.05-.12,3.24-2.59,5.64-3.26,3.73-1.05,8.95-.12,15.94,6.75,5.63,5.54,16.94,32.66,41.06,28.71-5.66-2.67-21.23-8.56-34.39-29.66Z"/>
              </g>
            </g>
          </g>
          <g>
            <g>
              <g>
                <path class="cls-21" d="M378.99,271.49s54.24,33.31-6.03,80.78c1.61-4.58,9.03-12.66,3.87-23.22-5.16-10.56-21.64-15.82-9.71-51.71,9.12,1.22,11.87-5.84,11.87-5.84Z"/>
                <path class="cls-15" d="M374.77,319c-11.34-21.88-8.14-33-3.5-41.55-.66-.12-2.45.33-4.23.33-12.73,29.61,2.44,42.24,5.9,53.48,2.42,7.87,2.68,11.79-.42,15.97,8.15-6.19,8.26-16.63,2.25-28.23Z"/>
                <path class="cls-15" d="M373.16,278.29c-1.26,5.62-1.98,11.32-1.75,16.98.21,5.65,1.45,11.23,3.87,16.28.61,1.24,1.31,2.5,1.99,3.78.68,1.28,1.31,2.59,1.92,3.91,1.22,2.64,2.29,5.39,2.88,8.29.62,2.9.52,5.99-.32,8.8-.83,2.81-2.05,5.42-3.27,8.03.86-2.74,1.91-5.45,2.44-8.23.27-1.39.42-2.78.38-4.17-.05-1.39-.26-2.76-.6-4.12-.7-2.7-1.84-5.31-3.08-7.86-.63-1.27-1.29-2.53-1.98-3.78-.67-1.25-1.39-2.49-2.06-3.82-2.63-5.3-3.8-11.24-3.75-17.08.04-2.92.34-5.83.91-8.68.59-2.85,1.42-5.63,2.43-8.32Z"/>
                <path class="cls-15" d="M378.99,277.33c2.86,2.63,5.06,5.92,6.9,9.35,1.84,3.44,3.21,7.12,4.3,10.86.98,3.78,1.7,7.62,1.97,11.5.21,1.93.14,3.88.19,5.81-.06,1.94-.21,3.87-.39,5.79-.24-1.93-.35-3.84-.55-5.75l-.35-2.85c-.11-.95-.2-1.9-.39-2.84-.16-.94-.32-1.88-.45-2.82-.14-.94-.38-1.86-.56-2.8-.33-1.87-.85-3.7-1.31-5.54-1.02-3.65-2.27-7.24-3.79-10.72-1.55-3.47-3.3-6.86-5.55-10Z"/>
                <path class="cls-15" d="M395.55,293.71c2.16,3.84,3.21,8.26,3.5,12.69.31,4.45-.27,8.93-1.45,13.23-.76,2.1-1.39,4.24-2.42,6.22l-.72,1.5c-.23.5-.48,1-.79,1.47-.57.95-1.16,1.89-1.75,2.83-.55.96-1.25,1.82-1.93,2.69l-2.05,2.59c-1.49,1.62-3.06,3.17-4.63,4.68,1.26-1.81,2.62-3.51,3.88-5.27l1.76-2.73c.58-.91,1.22-1.78,1.69-2.76.51-.95,1.02-1.9,1.54-2.83.28-.46.49-.95.7-1.45l.64-1.48c.95-1.93,1.54-3.99,2.24-6.01,1.16-4.11,1.8-8.36,1.8-12.64-.01-4.28-.58-8.6-2-12.74Z"/>
              </g>
              <path class="cls-15" d="M366.68,277.45c.55-1.06,2.67.35,7.12-1.94,2.38-1.22,4.79-4.2,5.58-4.71.97-.63-.11,4.52-4.55,6.24-4.44,1.72-8.7,1.47-8.15.41Z"/>
            </g>
            <g>
              <g>
                <path class="cls-21" d="M332,193.81c-12.49-4.44-15.58,7.66-12.4,21.25,3.17,13.56,4.94,33.83-10.43,42.42,5.9-8.04,6.26-16.12,3.55-25.25-1.57-5.29-5.2-12.69-6.4-18.99-2.14-11.27-2.34-33.41,20.25-39.52.17,10.83,3.35,16.53,5.43,20.08Z"/>
                <path class="cls-15" d="M315.06,251.64c13.92-9.39,7.52-27.2,4.54-38.86-3.18-12.42,1.77-23,12.4-18.98-3.1-5.76-8.73-6.65-14.35-2.33-5.62,4.32-6.49,14.37-2.48,24.58,4.78,12.15,5.94,26.4-.11,35.59Z"/>
                <path class="cls-15" d="M319.72,182.81c-2.93,1.04-5.26,3.29-6.8,5.9-1.55,2.63-2.5,5.59-2.98,8.6-.92,6.04-.21,12.29,1.82,18.04.5,1.44,1.12,2.84,1.79,4.2.34.67.71,1.36,1.04,2.1.31.73.56,1.49.76,2.25.81,3.05,1.07,6.17,1.19,9.27.13,6.21-.43,12.39-1.48,18.48.58-6.14.92-12.31.65-18.45-.15-3.06-.45-6.13-1.26-9.04-.2-.73-.46-1.43-.74-2.13-.29-.67-.64-1.35-1-2.06-.68-1.4-1.3-2.84-1.8-4.32-2.04-5.89-2.72-12.3-1.6-18.44.57-3.06,1.57-6.08,3.28-8.7,1.68-2.61,4.14-4.83,7.13-5.7Z"/>
              </g>
              <g>
                <path class="cls-6" d="M332,193.81s12.84-11.91,25.39,4.3c12.56,16.21,36.83,31.94,48.68,29.98-8.69-11.76-1.2-26.56-11.37-45.33-7.35-13.55-24.71-31.81-56.3-21.54-11.99,3.9-20.85,19.39-6.4,32.58Z"/>
                <path class="cls-21" d="M380.97,190.07c-22.36-26.89-46.15-14.46-48.98-10.49-4.95,6.95-3.31,11.72,0,14.22,5.51-7.44,15.91-8.86,29.82,8.9,12.82,16.37,38.1,29.68,49.77,23.35-3.61.21-6.82-1.54-9.02-1.91,2.37.5,5.71.94,6.61-.52-15.54-1.67-14.09-16.58-28.2-33.55Z"/>
                <path class="cls-15" d="M366.16,200.67c-12.39-18.94-25.35-17.21-29.08-16.58-6.26,1.05-8.74,7.57-5.08,9.72,6.85-7.67,20.98-4.78,30.19,10.81,10.52,17.79,33.6,31.95,49.39,21.45-18.16,2.71-31.62-4.29-45.42-25.39Z"/>
                <path class="cls-15" d="M336.04,182.19c1.55-.8,3.22-1.36,4.92-1.75,1.71-.4,3.46-.64,5.22-.71,3.53-.11,7.1.53,10.42,1.83,3.32,1.32,6.37,3.27,9.03,5.63,2.67,2.35,4.97,5.09,6.98,7.98.52.71.98,1.47,1.45,2.23l.7,1.13.63,1.16,2.48,4.57c1.63,3.05,3.33,6.04,5.28,8.84,1.96,2.78,4.27,5.33,7.11,7.2,2.81,1.92,6.13,3.06,9.54,3.7-3.47-.2-6.93-1.16-10.04-2.89-3.09-1.76-5.69-4.31-7.82-7.12-2.17-2.79-3.93-5.84-5.66-8.85l-2.53-4.55-.62-1.12-.68-1.08c-.45-.72-.9-1.44-1.4-2.13-1.91-2.82-4.11-5.43-6.61-7.72-2.47-2.32-5.32-4.2-8.39-5.6-6.17-2.72-13.45-3.09-20-.74Z"/>
                <path class="cls-8" d="M328.87,180.95c1.45-3.12,3.8-5.83,6.64-7.89,2.84-2.1,6.3-3.35,9.82-3.76.88-.05,1.77-.11,2.65-.14l2.64.17c.87.09,1.73.31,2.59.47.43.1.87.14,1.28.28l1.24.41c3.35.99,6.38,2.73,9.21,4.64-3.21-1.2-6.33-2.51-9.6-3.19-3.23-.73-6.55-1.15-9.79-.73-3.24.35-6.4,1.39-9.21,3.1-2.81,1.71-5.34,3.96-7.47,6.64Z"/>
                <path class="cls-8" d="M328.87,174.9c.58-1.31,1.54-2.41,2.55-3.42,1.01-1.02,2.13-1.93,3.3-2.77,2.35-1.67,4.97-2.95,7.71-3.89,5.49-1.91,11.48-2.21,17.18-1.26,2.85.5,5.66,1.23,8.36,2.25,2.68,1.05,5.32,2.21,7.79,3.67,5,2.81,9.54,6.32,13.64,10.24-4.59-3.34-9.35-6.38-14.35-8.91-4.99-2.52-10.28-4.46-15.75-5.35-5.45-.94-11.1-.74-16.42.78-2.65.78-5.25,1.82-7.65,3.25-1.21.69-2.38,1.47-3.47,2.35-1.07.9-2.13,1.84-2.89,3.05Z"/>
                <path class="cls-8" d="M367.35,173.17c4.47,1.79,8.59,4.44,12.33,7.51,3.74,3.08,7.09,6.66,9.91,10.61,1.47,1.94,2.64,4.06,3.9,6.13,1.22,2.1,2.2,4.37,3.02,6.64.78,2.29,1.5,4.55,2.32,6.78.82,2.23,1.84,4.4,2.87,6.56-1.33-1.99-2.52-4.09-3.58-6.26-1.08-2.16-1.92-4.43-2.85-6.61-.91-2.19-1.97-4.28-3.22-6.27-.63-1.01-1.29-1.99-1.95-2.97-.64-1-1.34-1.94-2.04-2.89-2.83-3.77-5.96-7.32-9.46-10.5-1.71-1.64-3.55-3.13-5.41-4.61-1.87-1.48-3.81-2.85-5.85-4.12Z"/>
              </g>
            </g>
          </g>
        </g>
        <g>
          <path class="cls-17" d="M551.87,370.37c-23.87-3.38-98.81-29.91-98.81-29.91,0,0,79.36-4.68,103.23-1.3,10.13,1.43,17.81,6.39,17.15,11.06-.43,3.01-4.21,5.16-9.55,5.94,4.91,2.23,7.95,5.34,7.53,8.35-.66,4.68-9.42,7.3-19.55,5.87Z"/>
          <path class="cls-17" d="M148.13,370.37c23.87-3.38,98.81-29.91,98.81-29.91,0,0-79.36-4.68-103.23-1.3-10.13,1.43-17.81,6.39-17.15,11.06.43,3.01,4.21,5.16,9.55,5.94-4.91,2.23-7.95,5.34-7.53,8.35.66,4.68,9.42,7.3,19.55,5.87Z"/>
        </g>
        <path class="cls-17" d="M365.9,38.72c0,24.11-15.76,102.03-15.76,102.03,0,0-15.76-77.92-15.76-102.03,0-10.23,3.83-18.53,8.55-18.53,3.04,0,5.7,3.45,7.22,8.62,1.51-5.18,4.18-8.62,7.21-8.62,4.72,0,8.55,8.3,8.55,18.53Z"/>
        <g>
          <g>
            <path class="cls-19" d="M470.22,121.64s.07-.08.11-.12c-.04.04-.07.08-.11.12Z"/>
            <path class="cls-19" d="M445.09,105.94c-.09,0-.18.01-.27.02.09,0,.18-.02.27-.02Z"/>
            <path class="cls-19" d="M470.13,122.32l.04-.04-.04.04Z"/>
            <path class="cls-19" d="M444.48,105.99c-.16.02-.32.03-.47.05.16-.02.32-.03.47-.05Z"/>
            <path class="cls-19" d="M445.76,105.89c-.07,0-.15,0-.22.02.07,0,.15-.01.22-.02Z"/>
            <path class="cls-20" d="M461.27,137.61c-1.53,2.23-3.56,5.9-4.76,7.58-1.63,2.27-2.53,4-4.49,6.58,0,0-1.87,7.61-2.35,10.32-.48,2.71-1.82,9.91-2.98,12.63-1.16,2.73-3.03,3.58-4.33,3.13-1.29-.44-2.88-2.1-1.95-5.97.93-3.87,2.13-11.06,2.42-13.7.28-2.64,1.02-6.04-.13-6.35-1.16-.32-3.39,2.57-4.62,5.1-1.23,2.52-4.4,8.35-6.15,10.91-1.75,2.56-5.13,9.25-6.04,10.49-.92,1.24-2.66,1.82-4.43,1.04-1.77-.77-2.59-2.61-.92-6.18,1.66-3.57,4.34-7.88,5.45-9.86,1.11-1.98,6.05-12.86,6.51-14.54.45-1.68-1.52-2.39-2.98-.73-1.45,1.65-6.55,6.56-8.87,8.57-2.33,2.01-6.37,5.67-7.83,7.06-1.46,1.38-4.71,4.75-5.63,5.59-.92.84-2.85,2.43-5.05.32-2.21-2.12-.98-4.78.61-6.43,1.59-1.66,4.19-4.32,5.56-6.05,1.37-1.73,5.6-6.28,7.65-8.28,2.05-2,8.46-6.98,7.06-8.58-1.4-1.61-10.14,3.78-12.14,4.77-2.01.99-6.08,3.44-7.88,4.22-1.81.78-8.26,5.58-10.44,1.77-2.17-3.81,1.63-5.84,3.84-7.18,2.2-1.33,10.48-6.23,13.61-8.26,3.13-2.03,13.75-7.86,15.56-11.82,1.81-3.96.33-3.52-2.83-2.98-3.16.54-7.66,2.19-11.46,1.53-2.24-.39-6.12-1.83-6.38-4.6-.26-2.76,1.92-1.86,4.41-2.52,2.49-.66,9.06-3.23,11.75-3.56,2.7-.33,5.46-2.6,7.3-3.19,3.56-1.16,8.82-1.33,11.52-1.8.97-.17,2.25-.36,3.57-.51.67-.02,1.33-.06,2-.11,5.03-.4,9.12,4.55,9.6,9.22.81-.08,1.61-.15,2.42-.23,2.61.1,5.11,1.25,6.91,3.14,1.69,1.78,2.66,4.15,2.74,6.6.22.02.44.04.66.07-.5.74-.95,1.5-1.25,2.21-.97,2.25-3.69,8.37-5.22,10.61Z"/>
            <path class="cls-19" d="M469.77,122.74l-.05.06.05-.06Z"/>
            <path class="cls-19" d="M443.79,106.07c-.12.01-.25.03-.37.04.12-.01.25-.03.37-.04Z"/>
            <path class="cls-19" d="M446.37,105.85c-.06,0-.12,0-.19,0,.06,0,.13,0,.19,0Z"/>
            <path class="cls-19" d="M448.1,105.84s-.07,0-.1,0c.03,0,.07,0,.1,0Z"/>
            <path class="cls-19" d="M448.54,105.87s-.04,0-.06,0c.02,0,.04,0,.06,0Z"/>
            <path class="cls-19" d="M470.54,121.3s.07-.08.11-.11c-.03.04-.07.07-.11.11Z"/>
            <path class="cls-19" d="M448.98,105.94s-.05,0-.08-.01c.03,0,.05,0,.08.01Z"/>
            <path class="cls-19" d="M447,105.83s-.08,0-.12,0c.04,0,.08,0,.12,0Z"/>
            <path class="cls-19" d="M447.54,105.83s-.08,0-.12,0c.04,0,.08,0,.12,0Z"/>
            <path class="cls-5" d="M464.35,118.13c-1.79-1.89-4.3-3.04-6.91-3.14-.81.08-1.61.15-2.42.23-.48-4.67-4.57-9.62-9.6-9.22-.67.05-1.33.09-2,.11h0c.12-.01.25-.03.37-.04.07,0,.15-.02.22-.02.16-.02.32-.03.47-.05.11-.01.23-.02.34-.03.09,0,.18-.02.27-.02.15-.01.3-.02.45-.04.07,0,.15-.01.22-.02.14,0,.28-.02.42-.03.06,0,.13,0,.19,0,.17,0,.34-.02.51-.02.04,0,.08,0,.12,0,.14,0,.28,0,.42,0,.04,0,.08,0,.12,0,.16,0,.31,0,.46.01.03,0,.07,0,.1,0,.13,0,.26.02.38.03.02,0,.04,0,.06,0,.13.01.25.03.37.05.03,0,.05,0,.08.01.11.02.24.02.33.05,1.26.39,39.07-41.09,83.17-88.77l29.3,10.52c-35.9,35.31-90.18,92.47-90.86,93.15-.08.08-.18.19-.27.28-.03.04-.08.08-.11.12-.07.07-.14.15-.22.23-.04.04.07.2.04.24-.11.12-.08.37-.2.51l-.04.04-.36.42-.05.06c-.56.67-1.3,1.32-1.83,2.11,0,0-.07-.06-.07-.06-.22-.03-.47-.08-.69-.1-.08-2.44-1.09-4.85-2.78-6.63Z"/>
          </g>
          <g>
            <path class="cls-19" d="M229.78,121.64s-.07-.08-.11-.12c.04.04.07.08.11.12Z"/>
            <path class="cls-19" d="M254.91,105.94c.09,0,.18.01.27.02-.09,0-.18-.02-.27-.02Z"/>
            <path class="cls-19" d="M229.87,122.32l-.04-.04.04.04Z"/>
            <path class="cls-19" d="M255.52,105.99c.16.02.32.03.47.05-.16-.02-.32-.03-.47-.05Z"/>
            <path class="cls-19" d="M254.24,105.89c.07,0,.15,0,.22.02-.07,0-.15-.01-.22-.02Z"/>
            <path class="cls-20" d="M238.73,137.61c1.53,2.23,3.56,5.9,4.76,7.58,1.63,2.27,2.53,4,4.49,6.58,0,0,1.87,7.61,2.35,10.32.48,2.71,1.82,9.91,2.98,12.63,1.16,2.73,3.03,3.58,4.33,3.13,1.29-.44,2.88-2.1,1.95-5.97-.93-3.87-2.13-11.06-2.42-13.7-.28-2.64-1.02-6.04.13-6.35,1.16-.32,3.39,2.57,4.62,5.1,1.23,2.52,4.4,8.35,6.15,10.91,1.75,2.56,5.13,9.25,6.04,10.49.92,1.24,2.66,1.82,4.43,1.04,1.77-.77,2.59-2.61.92-6.18-1.66-3.57-4.34-7.88-5.45-9.86-1.11-1.98-6.05-12.86-6.51-14.54-.45-1.68,1.52-2.39,2.98-.73,1.45,1.65,6.55,6.56,8.87,8.57,2.33,2.01,6.37,5.67,7.83,7.06,1.46,1.38,4.71,4.75,5.63,5.59.92.84,2.85,2.43,5.05.32,2.21-2.12.98-4.78-.61-6.43-1.59-1.66-4.19-4.32-5.56-6.05-1.37-1.73-5.6-6.28-7.65-8.28-2.05-2-8.46-6.98-7.06-8.58,1.4-1.61,10.14,3.78,12.14,4.77,2.01.99,6.08,3.44,7.88,4.22,1.81.78,8.26,5.58,10.44,1.77,2.17-3.81-1.63-5.84-3.84-7.18-2.2-1.33-10.48-6.23-13.61-8.26-3.13-2.03-13.75-7.86-15.56-11.82-1.81-3.96-.33-3.52,2.83-2.98,3.16.54,7.66,2.19,11.46,1.53,2.24-.39,6.12-1.83,6.38-4.6.26-2.76-1.92-1.86-4.41-2.52-2.49-.66-9.06-3.23-11.75-3.56-2.7-.33-5.46-2.6-7.3-3.19-3.56-1.16-8.82-1.33-11.52-1.8-.97-.17-2.25-.36-3.57-.51-.67-.02-1.33-.06-2-.11-5.03-.4-9.12,4.55-9.6,9.22-.81-.08-1.61-.15-2.42-.23-2.61.1-5.11,1.25-6.91,3.14-1.69,1.78-2.66,4.15-2.74,6.6-.22.02-.44.04-.66.07.5.74.95,1.5,1.25,2.21.97,2.25,3.69,8.37,5.22,10.61Z"/>
            <path class="cls-19" d="M230.23,122.74l.05.06-.05-.06Z"/>
            <path class="cls-19" d="M256.21,106.07c.12.01.25.03.37.04-.12-.01-.25-.03-.37-.04Z"/>
            <path class="cls-19" d="M253.63,105.85c.06,0,.12,0,.19,0-.06,0-.13,0-.19,0Z"/>
            <path class="cls-19" d="M251.9,105.84s.07,0,.1,0c-.03,0-.07,0-.1,0Z"/>
            <path class="cls-19" d="M251.46,105.87s.04,0,.06,0c-.02,0-.04,0-.06,0Z"/>
            <path class="cls-19" d="M229.46,121.3s-.07-.08-.11-.11c.03.04.07.07.11.11Z"/>
            <path class="cls-19" d="M251.02,105.94s.05,0,.08-.01c-.03,0-.05,0-.08.01Z"/>
            <path class="cls-19" d="M253,105.83s.08,0,.12,0c-.04,0-.08,0-.12,0Z"/>
            <path class="cls-19" d="M252.46,105.83s.08,0,.12,0c-.04,0-.08,0-.12,0Z"/>
            <path class="cls-4" d="M235.65,118.13c1.79-1.89,4.3-3.04,6.91-3.14.81.08,1.61.15,2.42.23.48-4.67,4.57-9.62,9.6-9.22.67.05,1.33.09,2,.11h0c-.12-.01-.25-.03-.37-.04-.07,0-.15-.02-.22-.02-.16-.02-.32-.03-.47-.05-.11-.01-.23-.02-.34-.03-.09,0-.18-.02-.27-.02-.15-.01-.3-.02-.45-.04-.07,0-.15-.01-.22-.02-.14,0-.28-.02-.42-.03-.06,0-.13,0-.19,0-.17,0-.34-.02-.51-.02-.04,0-.08,0-.12,0-.14,0-.28,0-.42,0-.04,0-.08,0-.12,0-.16,0-.31,0-.46.01-.03,0-.07,0-.1,0-.13,0-.26.02-.38.03-.02,0-.04,0-.06,0-.13.01-.25.03-.37.05-.03,0-.05,0-.08.01-.11.02-.24.02-.33.05-1.26.39-39.07-41.09-83.17-88.77l-29.3,10.52c35.9,35.31,90.18,92.47,90.86,93.15.08.08.18.19.27.28.03.04.08.08.11.12.07.07.14.15.22.23.04.04-.07.2-.04.24.11.12.08.37.2.51l.04.04.36.42.05.06c.56.67,1.3,1.32,1.83,2.11,0,0,.07-.06.07-.06.22-.03.47-.08.69-.1.08-2.44,1.09-4.85,2.78-6.63Z"/>
          </g>
        </g>
        <g>
          <g>
            <path class="cls-19" d="M517.4,276.26c.05-.02.1-.04.14-.06-.05.02-.09.04-.14.06Z"/>
            <path class="cls-19" d="M500.91,251.64c-.08-.03-.17-.06-.25-.09.08.03.17.06.25.09Z"/>
            <path class="cls-19" d="M517.05,276.84l.05-.02-.05.02Z"/>
            <path class="cls-19" d="M500.34,251.44c-.15-.05-.3-.1-.45-.15.15.05.3.1.45.15Z"/>
            <path class="cls-19" d="M501.55,251.87c-.07-.03-.14-.05-.21-.08.07.03.14.05.21.08Z"/>
            <path class="cls-20" d="M502.69,287.16c-2.32,1.41-5.67,3.92-7.45,4.96-2.41,1.4-3.95,2.61-6.8,4.16,0,0-4.82,6.17-6.37,8.45-1.55,2.28-5.72,8.29-7.89,10.3-2.17,2.01-4.23,2.02-5.23,1.08-1-.94-1.77-3.1.67-6.25,2.44-3.15,6.48-9.21,7.82-11.51,1.34-2.29,3.4-5.09,2.48-5.85-.92-.76-4.15.95-6.31,2.76-2.16,1.8-7.44,5.82-10.08,7.44-2.64,1.62-8.47,6.34-9.81,7.09-1.34.76-3.17.57-4.47-.87-1.3-1.43-1.29-3.44,1.69-6.02,2.98-2.57,7.19-5.41,9.01-6.76,1.82-1.36,10.79-9.25,11.9-10.6,1.1-1.35-.41-2.8-2.41-1.89-2,.91-8.66,3.3-11.61,4.18-2.94.88-8.13,2.57-10.03,3.23-1.9.66-6.24,2.4-7.43,2.79-1.18.39-3.59,1.05-4.74-1.78-1.15-2.83,1.06-4.76,3.19-5.62,2.13-.86,5.59-2.23,7.55-3.24,1.96-1.02,7.68-3.43,10.37-4.42,2.69-.99,10.58-2.9,9.96-4.93-.62-2.04-10.8-.7-13.03-.62-2.23.08-6.95.65-8.92.62-1.97-.03-9.82,1.7-10.25-2.66-.42-4.36,3.89-4.66,6.44-4.97,2.55-.31,12.11-1.39,15.8-1.96,3.69-.56,15.77-1.53,19.04-4.4,3.27-2.87,1.74-3.08-1.36-3.88-3.11-.8-7.88-1.14-11.07-3.3-1.88-1.27-4.83-4.18-3.94-6.81.89-2.63,2.52-.91,5.05-.5,2.54.42,9.59.76,12.18,1.57,2.59.81,6.04-.13,7.97.08,3.72.4,8.6,2.4,11.24,3.08.95.25,2.2.6,3.47,1,.62.25,1.24.49,1.87.72,4.75,1.7,6.45,7.89,4.98,12.35.77.26,1.53.52,2.3.78,2.34,1.16,4.15,3.23,5.01,5.69.81,2.31.72,4.88-.2,7.14.19.11.38.22.57.33-.76.47-1.48.98-2.05,1.51-1.8,1.66-6.8,6.13-9.11,7.54Z"/>
            <path class="cls-19" d="M516.55,277.08l-.07.03.07-.03Z"/>
            <path class="cls-19" d="M499.67,251.22c-.12-.04-.24-.08-.35-.11.12.04.24.08.35.11Z"/>
            <path class="cls-19" d="M502.11,252.09c-.06-.02-.12-.05-.17-.07.06.02.12.04.17.07Z"/>
            <path class="cls-19" d="M503.7,252.79s-.06-.03-.09-.05c.03.02.06.03.09.05Z"/>
            <path class="cls-19" d="M504.09,252.99s-.03-.02-.05-.03c.02,0,.03.02.05.03Z"/>
            <path class="cls-19" d="M517.84,276.08s.1-.04.14-.06c-.05.02-.09.04-.14.06Z"/>
            <path class="cls-19" d="M504.47,253.23s-.04-.03-.06-.04c.02.01.04.03.06.04Z"/>
            <path class="cls-19" d="M502.7,252.33s-.07-.03-.11-.05c.04.02.08.03.11.05Z"/>
            <path class="cls-19" d="M503.2,252.54s-.07-.03-.11-.05c.04.02.07.03.11.05Z"/>
            <path class="cls-3" d="M513.49,270.65c-.86-2.46-2.68-4.53-5.01-5.69-.77-.26-1.53-.52-2.3-.78,1.47-4.46-.23-10.65-4.98-12.35-.63-.23-1.25-.47-1.87-.72h0c.12.04.24.08.35.11.07.02.14.05.21.07.15.05.3.1.45.15.11.04.21.07.32.11.08.03.17.06.25.09.14.05.28.1.42.15.07.03.14.05.21.08.13.05.26.1.39.15.06.02.12.05.17.07.16.06.32.13.47.19.04.02.08.03.11.05.13.06.26.11.39.17.04.02.07.03.11.05.15.07.28.13.42.2.03.02.06.03.09.05.12.06.23.12.34.18.02,0,.03.02.05.03.11.07.22.13.31.19.02.01.04.03.06.04.09.07.21.11.28.18.99.88,52.48-21.48,112.24-46.9l22.42,21.61c-47.21,17.5-120.15,47.4-121.05,47.74-.11.04-.24.1-.37.15-.05.02-.1.04-.15.06-.09.04-.19.08-.29.13-.05.02-.01.21-.06.23-.15.07-.23.31-.39.38l-.05.02-.5.24-.07.03c-.78.38-1.72.67-2.54,1.18,0,0-.04-.09-.04-.09-.19-.11-.4-.26-.59-.37.92-2.26.99-4.87.18-7.18Z"/>
          </g>
          <g>
            <path class="cls-19" d="M182.6,276.26c-.05-.02-.1-.04-.14-.06.05.02.09.04.14.06Z"/>
            <path class="cls-19" d="M199.09,251.64c.08-.03.17-.06.25-.09-.08.03-.17.06-.25.09Z"/>
            <path class="cls-19" d="M182.95,276.84l-.05-.02.05.02Z"/>
            <path class="cls-19" d="M199.66,251.44c.15-.05.3-.1.45-.15-.15.05-.3.1-.45.15Z"/>
            <path class="cls-19" d="M198.45,251.87c.07-.03.14-.05.21-.08-.07.03-.14.05-.21.08Z"/>
            <path class="cls-20" d="M197.31,287.16c2.32,1.41,5.67,3.92,7.45,4.96,2.41,1.4,3.95,2.61,6.8,4.16,0,0,4.82,6.17,6.37,8.45,1.55,2.28,5.72,8.29,7.89,10.3,2.17,2.01,4.23,2.02,5.23,1.08,1-.94,1.77-3.1-.67-6.25-2.44-3.15-6.48-9.21-7.82-11.51-1.34-2.29-3.4-5.09-2.48-5.85.92-.76,4.15.95,6.31,2.76,2.16,1.8,7.44,5.82,10.08,7.44,2.64,1.62,8.47,6.34,9.81,7.09,1.34.76,3.17.57,4.47-.87,1.3-1.43,1.29-3.44-1.69-6.02-2.98-2.57-7.19-5.41-9.01-6.76-1.82-1.36-10.79-9.25-11.9-10.6-1.1-1.35.41-2.8,2.41-1.89,2,.91,8.66,3.3,11.61,4.18,2.94.88,8.13,2.57,10.03,3.23,1.9.66,6.24,2.4,7.43,2.79,1.18.39,3.59,1.05,4.74-1.78,1.15-2.83-1.06-4.76-3.19-5.62-2.13-.86-5.59-2.23-7.55-3.24-1.96-1.02-7.68-3.43-10.37-4.42-2.69-.99-10.58-2.9-9.96-4.93.62-2.04,10.8-.7,13.03-.62,2.23.08,6.95.65,8.92.62,1.97-.03,9.82,1.7,10.25-2.66.42-4.36-3.89-4.66-6.44-4.97-2.55-.31-12.11-1.39-15.8-1.96-3.69-.56-15.77-1.53-19.04-4.4-3.27-2.87-1.74-3.08,1.36-3.88,3.11-.8,7.88-1.14,11.07-3.3,1.88-1.27,4.83-4.18,3.94-6.81-.89-2.63-2.52-.91-5.05-.5-2.54.42-9.59.76-12.18,1.57-2.59.81-6.04-.13-7.97.08-3.72.4-8.6,2.4-11.24,3.08-.95.25-2.2.6-3.47,1-.62.25-1.24.49-1.87.72-4.75,1.7-6.45,7.89-4.98,12.35-.77.26-1.53.52-2.3.78-2.34,1.16-4.15,3.23-5.01,5.69-.81,2.31-.72,4.88.2,7.14-.19.11-.38.22-.57.33.76.47,1.48.98,2.05,1.51,1.8,1.66,6.8,6.13,9.11,7.54Z"/>
            <path class="cls-19" d="M183.45,277.08l.07.03-.07-.03Z"/>
            <path class="cls-19" d="M200.33,251.22c.12-.04.24-.08.35-.11-.12.04-.24.08-.35.11Z"/>
            <path class="cls-19" d="M197.89,252.09c.06-.02.12-.05.17-.07-.06.02-.12.04-.17.07Z"/>
            <path class="cls-19" d="M196.3,252.79s.06-.03.09-.05c-.03.02-.06.03-.09.05Z"/>
            <path class="cls-19" d="M195.91,252.99s.03-.02.05-.03c-.02,0-.03.02-.05.03Z"/>
            <path class="cls-19" d="M182.16,276.08s-.1-.04-.14-.06c.05.02.09.04.14.06Z"/>
            <path class="cls-19" d="M195.53,253.23s.04-.03.06-.04c-.02.01-.04.03-.06.04Z"/>
            <path class="cls-19" d="M197.3,252.33s.07-.03.11-.05c-.04.02-.08.03-.11.05Z"/>
            <path class="cls-19" d="M196.8,252.54s.07-.03.11-.05c-.04.02-.07.03-.11.05Z"/>
            <path class="cls-2" d="M186.51,270.65c.86-2.46,2.68-4.53,5.01-5.69.77-.26,1.53-.52,2.3-.78-1.47-4.46.23-10.65,4.98-12.35.63-.23,1.25-.47,1.87-.72h0c-.12.04-.24.08-.35.11-.07.02-.14.05-.21.07-.15.05-.3.1-.45.15-.11.04-.21.07-.32.11-.08.03-.17.06-.25.09-.14.05-.28.1-.42.15-.07.03-.14.05-.21.08-.13.05-.26.1-.39.15-.06.02-.12.05-.17.07-.16.06-.32.13-.47.19-.04.02-.08.03-.11.05-.13.06-.26.11-.39.17-.04.02-.07.03-.11.05-.15.07-.28.13-.42.2-.03.02-.06.03-.09.05-.12.06-.23.12-.34.18-.02,0-.03.02-.05.03-.11.07-.22.13-.31.19-.02.01-.04.03-.06.04-.09.07-.21.11-.28.18-.99.88-52.48-21.48-112.24-46.9l-22.42,21.61c47.21,17.5,120.15,47.4,121.05,47.74.11.04.24.1.37.15.05.02.1.04.15.06.09.04.19.08.29.13.05.02.01.21.06.23.15.07.23.31.39.38l.05.02.5.24.07.03c.78.38,1.72.67,2.54,1.18,0,0,.04-.09.04-.09.19-.11.4-.26.59-.37-.92-2.26-.99-4.87-.18-7.18Z"/>
          </g>
        </g>
        <g>
          <polygon class="cls-13" points="521.29 190.98 518.35 209.12 546.51 192.17 550.05 223.4 559.83 198.95 579.2 225.96 580.12 190.92 610.53 183.01 591.73 159.75 614.07 134.52 587.78 141.19 592.05 113.7 564.88 131.61 566.69 106.66 546.3 124.18 546.98 98.78 527.2 116.33 523 87.17 511.95 114.78 492.46 105.32 498.71 134.51 478 143.18 493.93 152.91 475.26 175.02 502.02 176.23 411.55 244.59 521.29 190.98"/>
          <polygon class="cls-13" points="178.71 190.98 181.65 209.12 153.49 192.17 149.95 223.4 140.17 198.95 120.8 225.96 119.88 190.92 89.47 183.01 108.27 159.75 85.93 134.52 112.22 141.19 107.95 113.7 135.12 131.61 133.31 106.66 153.7 124.18 153.02 98.78 172.8 116.33 177 87.17 188.05 114.78 207.54 105.32 201.29 134.51 222 143.18 206.07 152.91 224.74 175.02 197.98 176.23 288.45 244.59 178.71 190.98"/>
        </g>
      </g>
    </g>
  </g>
</svg>