<?xml version="1.0" encoding="UTF-8"?>
<svg id="Layer_1" data-name="Layer 1" xmlns="http://www.w3.org/2000/svg" viewBox="0 0 700 395">
  <defs>
    <style>
      .cls-1 {
        fill: #2b2b2b;
      }

      .cls-2 {
        stroke: #57a863;
        stroke-miterlimit: 10;
      }

      .cls-2, .cls-3 {
        fill: #61b06e;
      }

      .cls-4 {
        fill: #efedea;
      }
    </style>
  </defs>
  <circle class="cls-1" cx="350" cy="197.5" r="125"/>
  <g>
    <path class="cls-2" d="M386.43,103.74l.18-.35-.2.33.02.02.18-.35-.2.33s.02.02.05.07c.09.14.28.52.39,1.31.14,1.06.11,2.91-.7,5.86-.36,1.32-1.08,2.7-2.11,4.09-1.79,2.45-4.49,4.94-7.59,7.54-4.66,3.9-10.24,8.05-15.15,12.87-2.45,2.41-4.74,5-6.66,7.82-1.92,2.82-3.48,5.88-4.45,9.25-1.55,5.39-1.91,12.58-1.66,20.36.26,7.78,1.15,16.13,2.19,23.8.77,5.73,1.62,11.06,2.35,15.47.73,4.4,1.33,7.89,1.59,9.85l1.29-.26c-.28-2.06-.88-5.52-1.6-9.92-.72-4.4-1.57-9.71-2.34-15.4-1.03-7.61-1.91-15.9-2.16-23.55-.26-7.64.13-14.65,1.57-19.63,1.37-4.74,4.05-8.98,7.39-12.82,5.01-5.77,11.47-10.63,17.01-15.16,2.77-2.27,5.31-4.46,7.34-6.68,1.01-1.11,1.9-2.22,2.62-3.37.72-1.15,1.28-2.33,1.62-3.57.87-3.16.96-5.33.76-6.82-.11-.84-.32-1.45-.52-1.86-.2-.41-.38-.62-.44-.67l-.75,1.44h0Z"/>
    <path class="cls-3" d="M421.67,220.17c-1.56-23.4-27.17-21.76-26.21-29.46.67-3.37,12.3.48,17.5-2.02,5.33-2.56,6.57-8.18,7.24-8.95.67-.77,1.35-1.25,1.44-1.73.1-.48-.1-1.54-1.73-3.08-1.64-1.54-16.66-23.78-36.88-24.46s-25.43,15.69-26.58,18.29c-1.14,2.6-4.8,3.31-4.8,3.31-2.03.07-7.38-.51-8.12-3.31-.23-.87-6.35-18.97-26.58-18.29-20.22.67-35.24,22.92-36.88,24.46-1.64,1.54-1.83,2.6-1.73,3.08.1.48.77.96,1.44,1.73.67.77,3.2,7.05,8.57,9.53,6.45,2.98,15.5-1.93,16.18,1.44.96,7.7-24.65,6.07-26.21,29.46-.56,12.71,2.52,19.55,4.26,22.72,1.73,3.18,5.68,6.84,6.55,7.8.87.96,1.93,3.56,3.18,4.04,1.25.48,2.98-2.12,4.14-2.21,1.16-.1,12.52-3.95,16.18-5.3,3.66-1.35,7.9-6.74,9.92-11.46,2.02-4.72,4.72-10.98,5.58-13.96s1.73-6.55,3.85-5.68c2.12.87.67,14.73-3.56,20.22-4.24,5.49-10.4,11.55-10.11,22.53.29,10.98,14.64,34.09,30.91,34.37.27,0,.53,0,.78-.02.25.02.51.03.78.02,16.27-.29,30.62-23.4,30.91-34.37.29-10.98-5.87-17.04-10.11-22.53-4.24-5.49-5.68-19.35-3.56-20.22,2.12-.87,2.98,2.7,3.85,5.68s3.56,9.24,5.58,13.96c2.02,4.72,6.26,10.11,9.92,11.46,3.66,1.35,15.02,5.2,16.18,5.3,1.16.1,2.89,2.7,4.14,2.21,1.25-.48,2.31-3.08,3.18-4.04s4.81-4.62,6.55-7.8c1.73-3.18,4.81-10.01,4.26-22.72Z"/>
  </g>
</svg>