<?xml version="1.0" encoding="UTF-8"?>
<svg id="Layer_1" data-name="Layer 1" xmlns="http://www.w3.org/2000/svg" xmlns:xlink="http://www.w3.org/1999/xlink" viewBox="0 0 700 395">
  <defs>
    <style>
      .cls-1 {
        fill: #2b2b2b;
      }

      .cls-2 {
        fill: #777;
      }

      .cls-3 {
        fill: #b1801f;
      }

      .cls-4 {
        fill: #d29e2f;
      }

      .cls-5 {
        fill: #efedea;
      }

      .cls-6 {
        fill: #262626;
      }

      .cls-7 {
        fill: #f1c561;
      }

      .cls-8 {
        fill: #e6ae40;
      }

      .cls-9 {
        fill: #545555;
      }

      .cls-10 {
        fill: #fbfbfb;
        filter: url(#outer-glow-25);
      }
    </style>
    <filter id="outer-glow-25" x="325.59" y="114.2" width="50.73" height="60.07" filterUnits="userSpaceOnUse">
      <feOffset dx="0" dy="0"/>
      <feGaussianBlur result="blur" stdDeviation="4.37"/>
      <feFlood flood-color="#fbfbfb" flood-opacity=".75"/>
      <feComposite in2="blur" operator="in"/>
      <feComposite in="SourceGraphic"/>
    </filter>
  </defs>
  <circle class="cls-1" cx="350" cy="197.5" r="125"/>
  <g>
    <g>
      <path class="cls-7" d="M331.98,165.4l-54.75,6.93,3.39,5.72,43.31,8.85c.58.12,1.12.42,1.52.85l6.07,6.49,17.32-3.43-16.86-25.41Z"/>
      <path class="cls-7" d="M369.18,165.4l-16.86,25.41,16.78,3.32,5.97-6.38c.41-.44.94-.73,1.52-.85l44.04-9,3.3-5.57-54.75-6.93Z"/>
      <polygon class="cls-7" points="348.54 213.08 348.54 194.13 333.55 197.07 348.54 213.08"/>
      <polygon class="cls-7" points="352.32 213.08 352.32 194.13 367.31 197.07 352.32 213.08"/>
      <polygon class="cls-4" points="269.09 178.62 294.74 202.08 348.54 216.62 323.36 189.71 269.09 178.62"/>
      <polygon class="cls-8" points="294.92 205.27 294.92 254.48 348.54 278.04 348.54 219.6 294.92 205.27"/>
      <polygon class="cls-4" points="405.61 205.27 351.98 219.6 351.98 278.04 405.61 254.48 405.61 205.27"/>
    </g>
    <g>
      <path class="cls-6" d="M360.36,189.68c-4.02,2.4-14.98,2.69-18.8,0-.97-.68-2.27-4.15-2.27-4.15v-8.66h23.24v8.71s-1.16,3.5-2.17,4.1Z"/>
      <path class="cls-9" d="M361.45,186.59h-20.99c-.21,0-.41-.08-.57-.22-.15-.13-.27-.18-.42-.23-.64-.23-1.06-.6-1.06-1.65v-4.5c0-.48.39-.86.86-.86h23.38c.48,0,.86.39.86.86v4.5c0,1.05-.43,1.42-1.06,1.65-.16.06-.27.1-.43.24-.16.14-.36.21-.57.21Z"/>
      <path class="cls-9" d="M350.96,194.13c-4.24,0-7.72-1.94-9.4-3.6-.25-.25-.33-.62-.19-.94.13-.32.45-.53.8-.53h17.6c.35,0,.66.21.8.53.13.32.06.7-.19.94-1.69,1.66-5.17,3.6-9.4,3.6Z"/>
      <path class="cls-10" d="M339.46,174.27h22.99c.54-.58.84-1.33.84-2.11,0-.01,0-.02,0-.04.13-2.95.45-8.06,1.15-9.08.88-1.27,1.82-2.54,2.8-3.87,4.46-6.04,9.08-12.28,9.08-19.6,0-13.99-11.38-25.36-25.37-25.36s-25.37,11.38-25.37,25.36c0,7.31,4.62,13.56,9.08,19.6.99,1.34,1.92,2.6,2.81,3.88.7,1.02,1.02,6.13,1.15,9.08,0,.01,0,.02,0,.04,0,.78.3,1.54.84,2.11Z"/>
      <g>
        <path class="cls-2" d="M348.04,171.8c-.48,0-.86-.39-.86-.86v-11.54l-5.33-8.54c-.25-.4-.13-.93.27-1.19.4-.25.93-.13,1.19.27l5.47,8.75c.09.14.13.29.13.46v11.79c0,.48-.39.86-.86.86Z"/>
        <path class="cls-2" d="M353.88,171.8c-.48,0-.86-.39-.86-.86v-11.79c0-.16.05-.32.13-.46l5.47-8.75c.25-.4.78-.53,1.19-.27.4.25.53.78.27,1.19l-5.33,8.54v11.54c0,.48-.39.86-.86.86Z"/>
      </g>
    </g>
  </g>
  <polygon class="cls-3" points="427.94 177.14 373.67 188.23 348.49 215.15 402.3 200.61 427.94 177.14"/>
</svg>