<svg xmlns="http://www.w3.org/2000/svg" id="Layer_1" data-name="Layer 1" viewBox="0 0 700 395"><defs><filter id="outer-glow-25" width="50.73" height="60.07" x="325.59" y="114.2" filterUnits="userSpaceOnUse"><feOffset/><feGaussianBlur result="blur" stdDeviation="4.37"/><feFlood flood-color="#fbfbfb" flood-opacity=".75"/><feComposite in2="blur" operator="in"/><feComposite in="SourceGraphic"/></filter><style>.cls-4{fill:#d29e2f}</style></defs><circle cx="350" cy="197.5" r="125" style="fill:#2b2b2b"/><path d="m331.98 165.4-54.75 6.93 3.39 5.72 43.31 8.85c.58.12 1.12.42 1.52.85l6.07 6.49 17.32-3.43zm37.2 0-16.86 25.41 16.78 3.32 5.97-6.38c.41-.44.94-.73 1.52-.85l44.04-9 3.3-5.57zm-20.64 47.68v-18.95l-14.99 2.94zm3.78 0v-18.95l14.99 2.94z" style="fill:#f1c561"/><path d="m269.09 178.62 25.65 23.46 53.8 14.54-25.18-26.91z" class="cls-4"/><path d="M294.92 205.27v49.21l53.62 23.56V219.6z" style="fill:#e6ae40"/><path d="m405.61 205.27-53.63 14.33v58.44l53.63-23.56z" class="cls-4"/><path d="M360.36 189.68c-4.02 2.4-14.98 2.69-18.8 0-.97-.68-2.27-4.15-2.27-4.15v-8.66h23.24v8.71s-1.16 3.5-2.17 4.1" style="fill:#262626"/><path d="M361.45 186.59h-20.99c-.21 0-.41-.08-.57-.22-.15-.13-.27-.18-.42-.23-.64-.23-1.06-.6-1.06-1.65v-4.5c0-.48.39-.86.86-.86h23.38c.48 0 .86.39.86.86v4.5c0 1.05-.43 1.42-1.06 1.65-.16.06-.27.1-.43.24s-.36.21-.57.21m-10.49 7.54c-4.24 0-7.72-1.94-9.4-3.6a.85.85 0 0 1-.19-.94c.13-.32.45-.53.8-.53h17.6c.35 0 .66.21.8.53.13.32.06.7-.19.94-1.69 1.66-5.17 3.6-9.4 3.6Z" style="fill:#545555"/><path d="M339.46 174.27h22.99c.54-.58.84-1.33.84-2.11v-.04c.13-2.95.45-8.06 1.15-9.08.88-1.27 1.82-2.54 2.8-3.87 4.46-6.04 9.08-12.28 9.08-19.6 0-13.99-11.38-25.36-25.37-25.36s-25.37 11.38-25.37 25.36c0 7.31 4.62 13.56 9.08 19.6.99 1.34 1.92 2.6 2.81 3.88.7 1.02 1.02 6.13 1.15 9.08v.04c0 .78.3 1.54.84 2.11Z" style="fill:#fbfbfb;filter:url(#outer-glow-25)"/><path d="M348.04 171.8a.86.86 0 0 1-.86-.86V159.4l-5.33-8.54c-.25-.4-.13-.93.27-1.19.4-.25.93-.13 1.19.27l5.47 8.75c.09.14.13.29.13.46v11.79c0 .48-.39.86-.86.86Zm5.84 0a.86.86 0 0 1-.86-.86v-11.79c0-.16.05-.32.13-.46l5.47-8.75c.25-.4.78-.53 1.19-.27.4.25.53.78.27 1.19l-5.33 8.54v11.54c0 .48-.39.86-.86.86Z" style="fill:#777"/><path d="m427.94 177.14-54.27 11.09-25.18 26.92 53.81-14.54z" style="fill:#b1801f"/></svg>