<?xml version="1.0" encoding="UTF-8"?>
<svg id="Layer_1" data-name="Layer 1" xmlns="http://www.w3.org/2000/svg" viewBox="0 0 700 395">
  <defs>
    <style>
      .cls-1 {
        fill: #2b2b2b;
      }

      .cls-2 {
        stroke-width: .75px;
      }

      .cls-2, .cls-3, .cls-4, .cls-5 {
        fill: #efedea;
      }

      .cls-2, .cls-3, .cls-5 {
        stroke: #3a2a0b;
        stroke-miterlimit: 10;
      }

      .cls-3 {
        stroke-width: .5px;
      }
    </style>
  </defs>
  <rect class="cls-3" y=".1" width="700" height="395"/>
  <circle class="cls-1" cx="349.1" cy="194.14" r="125"/>
  <path class="cls-4" d="M371.57,130.69c-.41-1.53-.65-5.17-.7-6.57-.18-5.42-.72-8.4-1.82-13.71-.42-2.03-1.13-4.33-3.03-5.16-1.15-.51-2.45-.29-3.55.36-.06-2.16-.38-4.28-1.22-6.21-.9-2.06-5.65-.2-6.68,2.42-.82,2.08-1.29,14.61-1.73,16.71-1.47,7.02-2.28,9.22-3.19,13.6-1.23,5.89-1.33,11.5-3.04,17.09-.88-.02-1.76-.04-2.64-.07-.65-4.47-1.73-7.16-2-11.69-.18-3.1-.04-9.82-.31-14.22-.33-5.31.62-7.04-.41-12.75-.24-1.32-.42-4.24-1.7-4.65-1.44-.46-3.04.38-3.94,1.6-.89,1.22-1.24,2.75-1.56,4.23-2.02,9.22-1.76,15.1-1.96,19.6-.18,3.96.48,9.15-.04,15.48-.45,5.49-2.83,11.78-2.65,17.28-3.16-2.12-5.81-6.27-6.94-9.71.27-5.39-.94-11.39-3.91-15.44-.69-.94-2.72-2.78-3.83-3.13s-3.54-.25-3.72.9c-.34,2.16.1,7.28-.09,10.38-.13,2.21-1.2,5.95-.71,8.11.92,4.03,3.42,5.75,4.12,9.83.43,2.48.94,4.94,1.67,7.35.53,1.77,1.66,3.28,2.77,4.76,3.21,4.29,5.94,8.73,9.16,13.02,1.62,2.16,3.26,4.36,4.25,6.87.85,2.16.71,4.48,1.05,6.77.52,3.52,1.04,7.05,1.56,10.57,0,0-2.48,54.06-3.03,72.76-.49,16.99-4.92,51.99-4.63,69.13h51.1c.43-8,1.06-25.08-.28-39.83-1.82-20.04-9.88-65.59-9.55-82.03.27-12.98-1-28.43.51-37.68.54-3.28,3.22-6.38,4.26-9.54,2.44-7.42,4.22-16.73,4.09-25.61-.04-2.5,1.89-8.27,1.92-10.76.07-5.62-1.92-11.76-3.29-15.67-.59-1.71-2.64-2.73-4.3-4.4ZM358.58,151.12c-.18-.04-.5-.13-.82-.33.38-4.29,1.91-11.92,2.28-15.94.35-3.82.7-7.64,1.05-11.46.31,1.79.59,3.59.76,5.39.61,6.72-.66,16.12-3.27,22.34Z"/>
  <path class="cls-2" d="M377.87,315.81c-1.82-20.04-9.83-65.03-9.49-81.46.27-12.98-1-28.43.51-37.68.54-3.28,3.22-6.38,4.26-9.54,2.44-7.42,4.22-16.73,4.09-25.61-.04-2.5,1.89-8.27,1.92-10.76.07-5.62-1.92-11.76-3.29-15.67-.59-1.71-2.64-2.73-4.3-4.4-.41-1.53-.65-5.17-.7-6.57-.18-5.42-.72-8.4-1.82-13.71-.42-2.03-1.13-4.33-3.03-5.16-1.15-.51-2.45-.29-3.55.36-.06-2.16-.38-4.28-1.22-6.21-.9-2.06-5.65-.2-6.68,2.42-.82,2.08-1.29,14.61-1.73,16.71-1.47,7.02-2.28,9.22-3.19,13.6-1.23,5.89-1.33,11.5-3.04,17.09-.88-.02-1.76-.04-2.64-.07-.65-4.47-1.73-7.16-2-11.69-.18-3.1-.04-9.82-.31-14.22-.33-5.31.62-7.04-.41-12.75-.24-1.32-.42-4.24-1.7-4.65-1.44-.46-3.04.38-3.94,1.6-.89,1.22-1.24,2.75-1.56,4.23-2.02,9.22-1.76,15.1-1.96,19.6-.18,3.96.48,9.15-.04,15.48-.45,5.49-2.83,11.78-2.65,17.28-3.16-2.12-5.81-6.27-6.94-9.71.27-5.39-.94-11.39-3.91-15.44-.69-.94-2.72-2.78-3.83-3.13s-3.54-.25-3.72.9c-.34,2.16.1,7.28-.09,10.38-.13,2.21-1.2,5.95-.71,8.11.92,4.03,3.42,5.75,4.12,9.83.43,2.48.94,4.94,1.67,7.35.53,1.77,1.66,3.28,2.77,4.76,3.21,4.29,5.94,8.73,9.16,13.02,1.62,2.16,3.26,4.36,4.25,6.87.85,2.16.71,4.48,1.05,6.77.52,3.52,1.04,7.05,1.56,10.57,0,0-2.48,54.06-3.03,72.76M358.58,151.12c-.18-.04-.5-.13-.82-.33.38-4.29,1.91-11.92,2.28-15.94.35-3.82.7-7.64,1.05-11.46.31,1.79.59,3.59.76,5.39.61,6.72-.66,16.12-3.27,22.34Z"/>
  <path class="cls-4" d="M321.32,329.26c6.3-12.42,10.28-25.9,16.17-38.52,5.9-12.62,15.11-19.88,24.33-30.31,3.17-3.59,8.74-13.23,10.76-16.39,1.31-2.05,2.78-8.51,3.33-10.88.77-3.35,1.98-5.94,2.3-10.04.08-1.08-1.49-4.28-4.21-5.06-2.61-.75-2.97-1.34-5.67-1.57v5.88c-2.1,2.07-6.81,3.18-9.52,4.31-3.35,1.4-4.77,2.3-7.85.38-1.72-1.07-3.01-2.68-4.25-4.28-5.39-6.95-12.75-15.56-14.09-24.15-3.04,3.69-8.16,7.17-11.94,10.09-2.34,1.8-3.15,5.01-3.02,8.61.1,2.96,1.49,5.25-2.91,8.3-1,.7-1.85,1.64-2.49,2.68-1.96,3.19,1.55,7.43-.04,11.02-.84,1.9-2.17,3.69-2.21,5.77-.03,1.6.91,3.04,1.77,4.39,2.99,4.76,5.26,9.98,6.72,15.41.45,1.68.83,3.44.52,5.16-.44,2.49-2.23,4.5-3.94,6.37-5.69,6.2-17.13,15.18-29.81,25.21"/>
  <path class="cls-5" d="M326.76,317.15c3.58-8.8,6.71-17.8,10.73-26.4,5.9-12.62,15.11-19.88,24.33-30.31,3.17-3.59,8.74-13.23,10.76-16.39,1.31-2.05,2.78-8.51,3.33-10.88.77-3.35,1.98-5.94,2.3-10.04.08-1.08-1.49-4.28-4.21-5.06-2.61-.75-2.97-1.34-5.67-1.57v5.88c-2.1,2.07-6.81,3.18-9.52,4.31-3.35,1.4-4.77,2.3-7.85.38-1.72-1.07-3.01-2.68-4.25-4.28-5.39-6.95-12.75-15.56-14.09-24.15-3.04,3.69-8.16,7.17-11.94,10.09-2.34,1.8-3.15,5.01-3.02,8.61.1,2.96,1.49,5.25-2.91,8.3-1,.7-1.85,1.64-2.49,2.68-1.96,3.19,1.55,7.43-.04,11.02-.84,1.9-2.17,3.69-2.21,5.77-.03,1.6.91,3.04,1.77,4.39,2.99,4.76,5.26,9.98,6.72,15.41.45,1.68.83,3.44.52,5.16-.44,2.49-2.23,4.5-3.94,6.37-5.69,6.2-17.13,15.18-29.81,25.21"/>
</svg>