<?xml version="1.0" encoding="UTF-8"?>
<svg id="Layer_1" data-name="Layer 1" xmlns="http://www.w3.org/2000/svg" viewBox="0 0 700 395">
  <defs>
    <style>
      .cls-1 {
        fill: #2b2b2b;
      }

      .cls-2 {
        fill: #efedea;
      }
    </style>
  </defs>
  <rect class="cls-2" x="0" y="0" width="700" height="395"/>
  <g>
    <circle class="cls-1" cx="350" cy="197.6" r="125"/>
    <g>
      <path class="cls-2" d="M449.17,151.75s1.29-13.47-11.77-15.93c-13.06-2.46-34.24-5.74-48.77-11.26-14.53-5.53-23.17-7.05-28.72,3.93-5.55,10.98-7.21,17.4-7.09,22.39.11,5-2.41,7.25-4.15,9.93-1.1,1.68-4,16.15-3.11,28.54.88,12.39,4.99,21.39,6.9,27.43,3.45,10.9,9.91,16.42,22.6,19.91l10.79,2.47c12.86,2.77,21.15.88,29.25-7.19,4.49-4.47,12.3-10.54,18.82-21.12,6.52-10.57,10.65-24.74,10.46-26.74-.31-3.18-1.5-6.35.91-10.72,2.41-4.37,3.92-10.82,4.08-23.13.16-12.3-8.2-14.95-23.63-16.78-15.44-1.83-35.73-8.73-48.44-12.6-12.71-3.87-17.8,8.67-17.8,8.67"/>
      <path class="cls-2" d="M306.85,275.06c-5.8,0-11.29-2.12-15.87-6.14-1.83-1.6-3.98-3.4-6.27-5.3-8.98-7.48-20.16-16.78-25.32-25.81-5.4-9.46-3.61-16.7-2.65-20.58.18-.74.36-1.44.37-1.77.07-2.05-.82-4.84-2.71-8.55-2.59-5.07-3.75-12.1-3.78-22.81v-.09s.05-.82.05-.82c-.38-5.41,1.95-15.85,13.53-17.4,2.08-.28,4.36-.57,6.78-.87,8.81-1.11,19.78-2.49,29.72-4.55,3.62-.87,7.57-1.88,12.38-3.17l.21-.07c4.74-1.54,8.19-2.47,11.14-2.99l.52-.14c1.56-.41,3.09-.62,4.55-.62,2.29,0,4.48.51,6.48,1.5,1.4.62,2.73,1.56,3.89,2.76,3.11,2.94,4.23,6.69,4.4,7.32l.24.68c3.96,9.76,5.53,16.63,5.07,22.24-.34,4.14-.09,7.07.75,8.93.13.3.56.88,1.01,1.49,2.37,3.23,6.78,9.24,5.39,20.04-1.33,10.32-8.14,23.19-13.6,33.53-1.38,2.62-2.69,5.09-3.77,7.26-4.2,8.45-11.94,13.31-21.83,13.7-3.61,1.47-7.2,2.22-10.68,2.22Z"/>
      <g>
        <path class="cls-1" d="M377.47,166.77s2.48-.04,4.29-.37c1.81-.33,3.3-.48,4.58-.17,1.2.3,1.38-1.24.26-2.28-1.12-1.04-2.47-5.82-9.29-6.85-6.82-1.03-9.59,2.22-11.01,3.52-1.42,1.3-2.76,2.82-1.45,3.12,1.52.34,2.54,2.54,6.25,3,3.71.46,5.16.14,6.38.02Z"/>
        <path class="cls-1" d="M416.58,175.64s-2.34-.84-3.94-1.73c-1.6-.89-2.97-1.52-4.28-1.63-1.23-.1-.91-1.62.49-2.24,1.4-.62,4.21-4.71,11-3.49,6.79,1.22,8.36,5.2,9.29,6.89.92,1.68,1.7,3.56.37,3.42-1.55-.16-3.22,1.59-6.88.83-3.66-.76-4.93-1.53-6.04-2.03Z"/>
        <path class="cls-1" d="M371.61,145.8c-2.45.44-7.9,1.79-10.29,3-2.39,1.21-3.11,5.25-.77,3,2.34-2.24,8.9-2.75,11.94-3.29,3.03-.54,8.75,1.58,11.75,1.57,3-.01,7.84-1.39,7.55-3.03-.29-1.64-1.07-2.52-4.6-1.66,0,0-4.63,1.08-7.55.82-2.91-.27-6.25-.72-8.02-.41Z"/>
        <path class="cls-1" d="M428.79,158.92c1.98,1.51,6.2,5.21,7.77,7.38,1.57,2.17.36,6.09-.69,3.02-1.06-3.06-6.65-6.52-9.1-8.39-2.45-1.87-8.5-2.61-11.16-3.99-2.66-1.38-6.33-4.83-5.32-6.15,1.01-1.33,2.1-1.75,4.85.63,0,0,3.62,3.09,6.34,4.19,2.72,1.1,5.89,2.23,7.32,3.32Z"/>
        <path class="cls-1" d="M360.59,180.33c-1.11,1.54-2.73,2.34-2.73-.39,0,0-.95-10,2.34-12.17,0,0,1.18.52.24,1.62-.93,1.11,2.02,8.31.14,10.93Z"/>
        <g>
          <path class="cls-1" d="M412.72,208.04l-5.55.47c-.21.02-.36.2-.34.41,0,0,0,0,0,0l-.04,14.48c.02.21.2.36.41.34l8.07-.69c.21-.02.36-.2.35-.41l-2.49-14.26c-.02-.21-.2-.36-.41-.35ZM413.92,221.42c.02.18-.12.35-.31.36l-5,.42c-.18.02-.34-.11-.36-.29,0,0,0,0,0,0l-.08-4.86,5-.42.75,4.8Z"/>
          <path class="cls-1" d="M413.23,205.86l-3.49-.87c-.24-.06-.48.07-.53.28l-.54,2.18c.05-.22-.1-.44-.34-.5l-3.49-.87c-.24-.06-.48.07-.53.28l.54-2.18c.05-.22-.1-.44-.34-.5l-3.49-.87c-.24-.06-.48.07-.53.28l-.54,2.18c.05-.22-.1-.44-.34-.5l-3.49-.87c-.24-.06-.48.07-.53.28l.54-2.18c.05-.22-.1-.44-.34-.5l-3.49-.87c-.24-.06-.48.07-.53.28l-.54,2.18c.05-.22-.1-.44-.34-.5l-3.49-.87c-.24-.06-.48.07-.53.28l.54-2.18c.05-.22-.1-.44-.34-.5l-3.49-.87c-.24-.06-.48.07-.53.28l-.54,2.18c.05-.22-.1-.44-.34-.5l-3.49-.87c-.24-.06-.48.07-.53.28l-1.43,5.76c-.05.22.1.44.34.5l3.49.87c.24.06.48-.07.53-.28l.54-2.18c-.05.22.1.44.34.5l3.49.87c.24.06.48-.07.53-.28l-.54,2.18c-.05.22.1.44.34.5l3.49.87c.24.06.48-.07.53-.28l.54-2.18c-.05.22.1.44.34.5l3.49.87c.24.06.48-.07.53-.28l-.54,2.18c-.05.22.1.44.34.5l3.49.87c.24.06.48-.07.53-.28l.54-2.18c-.05.22.1.44.34.5l3.49.87c.24.06.48-.07.53-.28l-.54,2.18c-.05.22.1.44.34.5l3.49.87c.24.06.48-.07.53-.28l.54-2.18c-.05.22.1.44.34.5l3.49.87c.24.06.48-.07.53-.28l1.43-5.76c.05-.22-.1-.44-.34-.5Z"/>
          <path class="cls-1" d="M364.18,200.2c-.05.22.1.44.34.5l3.49.87c.24.06.48-.07.53-.28l-.54,2.18c-.05.22.1.44.34.5l3.49.87c.24.06.48-.07.53-.28l.54-2.18c-.05.22.1.44.34.5l3.49.87c.24.06.48-.07.53-.28l1.43-5.76c.05-.22-.1-.44-.34-.5l-3.49-.87c-.24-.06-.48.07-.53.28l-.54,2.18c.05-.22-.1-.44-.34-.5l-3.49-.87c-.24-.06-.48.07-.53.28l.54-2.18c.05-.22-.1-.44-.34-.5l-3.49-.87c-.24-.06-.48.07-.53.28l-.54,2.18-.89,3.58Z"/>
        </g>
        <path class="cls-1" d="M311.38,234.76c.34-.06,5.55-1.12,10.64-2.57,5.09-1.46,11.54-5.25,14.29-7.72,2.75-2.47,2.64-2.47,3.57-1.9.93.57.36.92-1.79,5.59-2.15,4.67-9.72,20.78-16.3,23.41-6.58,2.64-18.05,4.29-25.44-2.12-7.39-6.4-12.08-10.29-14.53-11.31-2.45-1.01-2.86-2.41-2.47-2.76.8-.71,2.12.3,5.35.86,6.28,1.08,16.25.15,26.67-1.49Z"/>
        <path class="cls-1" d="M290.56,207.86s-3.46.5-6.52,1.76c-3.06,1.27-4.74,2.56-9.07.77-4.33-1.79-4.28-1.05-2.46-3.68,1.81-2.63,4.38-6.34,9.53-6.68,5.15-.34,9.24,2.32,10.71,4.01,1.47,1.7,1.93,4.24-2.18,3.81Z"/>
        <path class="cls-1" d="M317.15,203.53s3.42-.74,6.73-.62c3.31.12,5.34.75,8.77-2.44,3.43-3.19,3.64-2.47,1.03-4.3-2.62-1.83-6.31-4.41-11.26-2.94-4.95,1.48-7.85,5.4-8.64,7.5-.79,2.1-.33,4.64,3.37,2.81Z"/>
        <path class="cls-1" d="M283.79,188.77s-5.74-.86-9.55.27c-3.81,1.13-6.11,2.57-7.56,4.84-1.45,2.27-1.45,2.35-1.84,2.09-.39-.25.93-5.25,4.28-7.13,3.36-1.88,10.53-4.8,15.07-4.07,4.54.74,8.16,2.4,7.56,3.42-.6,1.02-4.31,1.52-7.96.57Z"/>
        <path class="cls-1" d="M316.31,182.8s4.95-3.03,8.9-3.47c3.95-.44,6.63-.01,8.85,1.51,2.22,1.52,2.25,1.6,2.51,1.21.26-.39-2.9-4.48-6.72-4.9-3.82-.42-11.56-.32-15.46,2.13-3.89,2.45-6.58,5.39-5.63,6.09.95.7,4.56-.28,7.55-2.57Z"/>
        <path class="cls-1" d="M269.65,219.23c-1.36,1.61-3.07.98-3.02-1.49,0,0-.38-2.92,4.01-5.08,0,0,1.08-.38.31,1.28-1.3,2.8.38,3.29-1.31,5.29Z"/>
      </g>
    </g>
  </g>
</svg>