<?xml version="1.0" encoding="UTF-8"?>
<svg id="Layer_1" data-name="Layer 1" xmlns="http://www.w3.org/2000/svg" viewBox="0 0 700 395">
  <defs>
    <style>
      .cls-1 {
        fill: #efedea;
      }

      .cls-2 {
        fill: #2b2b2b;
        fill-rule: evenodd;
      }
    </style>
  </defs>
  <path class="cls-2" d="M464.04,144.71h1.71c5.09,0,9.25-4.17,9.25-9.26s-4.17-9.26-9.25-9.26h-1.71v18.51ZM464.04,126.2v18.51h-10.76v-18.51h10.76ZM453.29,98.52c1.54-3.03,1.35-6.63,0-8.65v8.65ZM453.29,89.87c-.05-.08-.11-.16-.17-.23-2.55-4.41-8.23-5.93-12.64-3.39l-13.35,7.7v21.37l22.6-13.05c1.64-.95,2.8-2.29,3.55-3.77v-8.65h0ZM453.29,126.2v18.51h-26.15v-18.51h26.15ZM427.13,93.96v21.37l-2.5,1.45-13.69,7.9h-17.15v-11.47l33.35-19.25h0ZM427.13,126.2v18.51h-33.35v-8.39l17.54-10.12h15.81ZM393.79,298.77l6.56,11.47c3.31,5.79,10.78,7.77,16.55,4.44,5.77-3.33,7.74-10.77,4.44-16.55l-27.54-48.2v48.84h0ZM393.79,134.59l14.52-8.39h-14.52v8.39ZM393.79,113.21v11.47h-19.87l19.87-11.47h0ZM393.79,126.2v8.39l-17.54,10.12v123.37l-12.48-21.84v-120.05h30.01ZM393.79,136.32l-14.52,8.39h14.52v-8.39h0ZM393.79,249.92l-16.02-28.03v48.84l16.02,28.03v-48.84h0ZM363.77,329.87c6.62-.05,11.99-5.49,12.02-12.12l.2-47.07-12.22-21.38v80.56h0ZM363.77,116.63v-32.04c4.72,3.77,7.57,9.48,7.57,16.02s-2.86,12.25-7.57,16.02ZM363.77,84.59c-3.64-2.91-8.4-4.65-13.81-4.72v41.48c5.4-.03,10.16-1.79,13.81-4.72v-32.04h0ZM363.77,126.2v120.05l-13.59-23.78c-.08-.13-.15-.27-.22-.41v-95.86h13.81ZM363.77,249.3l-11.83-20.7-.39,89.15c-.03,6.66,5.45,12.12,12.12,12.12h.1v-80.57ZM349.96,79.87c-5.31,0-10.14,1.99-13.81,5.27v30.93c3.67,3.28,8.51,5.27,13.81,5.27v-41.48h0ZM349.96,126.2v95.86l-2,3.51-11.82,20.68v-120.05h13.81ZM336.14,329.87h.1c6.66,0,12.15-5.45,12.12-12.12l-.39-89.15-11.83,20.7v80.56ZM336.14,85.14v30.93c-4.25-3.8-6.92-9.32-6.92-15.47s2.68-11.67,6.92-15.47h0ZM336.14,126.2v120.05l-12.48,21.84v-123.37l-17.54-10.12v-8.39h30.01ZM336.14,249.3l-12.22,21.38.2,47.07c.03,6.63,5.4,12.06,12.02,12.12v-80.56h0ZM306.13,298.77l16.02-28.03v-48.84l-16.02,28.03v48.84h0ZM306.13,144.71h14.52l-14.52-8.39v8.39h0ZM306.13,124.68v-11.47l19.87,11.47h-19.87ZM306.13,113.21v11.47h-17.15l-13.69-7.9-2.46-1.42v-21.37l33.31,19.23h0ZM306.13,126.2v8.39l-14.52-8.39h14.52ZM306.13,136.32l-17.54-10.12h-15.77v18.51h33.31v-8.39h0ZM306.13,249.92v48.84l-6.56,11.47c-3.31,5.79-10.78,7.77-16.55,4.44-5.77-3.33-7.74-10.77-4.44-16.55l27.54-48.2h0ZM272.83,93.98l-13.39-7.73c-4.41-2.55-10.1-1.02-12.64,3.39-.06.07-.11.15-.16.23v8.65c.75,1.48,1.91,2.82,3.55,3.77l22.64,13.07v-21.37h0ZM272.83,126.2v18.51h-26.19v-18.51h26.19ZM246.63,89.87c-1.36,2.01-1.54,5.62,0,8.65v-8.65h0ZM246.63,126.2v18.51h-10.76v-18.51h10.76ZM235.87,126.2h-1.63c-5.09,0-9.25,4.17-9.25,9.26s4.17,9.26,9.25,9.26h1.63v-18.51Z"/>
</svg>