<?xml version="1.0" encoding="UTF-8"?>
<svg xmlns="http://www.w3.org/2000/svg" id="Layer_2" data-name="Layer 2" viewBox="0 0 201.53 98.77">
  <defs>
    <style>
      .cls-1 {
        fill: #fff;
      }
    </style>
  </defs>
  <g id="Layer_1-2" data-name="Layer 1">
    <path class="cls-1" d="M133.54,24.4c2.1,0,2.96-.1,2.96-1.34,0-1.53-.86-16.34-16.34-16.34-7.36,0-13.18,2.77-16.62,7.83-3.23,4.74-4.03,8.78-4.23,11.63-.07.94-.07,1.75-.07,2.41.1,7.45,1.72,11.18,6.59,16.43,3.15,3.44,8.22,4.49,14.33,4.49,8.98,0,15.19-6.59,16.91-10.13.86-1.62.57-2.1.19-2.29l-1.62-.86c-.38-.29-.76-.19-.95.29-1.91,3.06-5.73,5.25-10.41,5.25-6.97,0-12.61-4.87-12.61-14.81v-2.58h21.88ZM111.76,20.77c.67-6.69,3.06-10.22,7.55-10.22,2.96,0,4.68,4.11,4.68,8.31,0,1.43-.95,1.91-3.06,1.91h-9.17ZM166.79,10.54c-.1-.67-.29-1.14-1.72-1.82-1.72-.86-4.87-2.01-10.03-2.01-4.01,0-6.69.67-10.51,3.44-3.63,2.67-4.97,6.4-4.97,10.89,0,3.76,1.46,6.44,3.89,8.42,2.01,1.64,4.69,2.8,7.77,3.71,6.21,1.91,8.98,3.15,8.98,6.97,0,3.34-2.1,5.83-5.64,5.83-4.39,0-6.59-2.39-8.31-4.87l-3.82-5.64c-.19-.38-.38-.48-.67-.38l-1.72.48c-.38.1-.67.29-.67.77l1.24,9.17c.1.57.19.95.57,1.24,1.15.86,5.83,2.77,11.18,2.77,10.41,0,17.1-6.11,17.1-14.62,0-1.38-.1-2.58-.39-3.68-.41-1.58-1.21-2.98-2.67-4.44-2.87-3.06-5.16-3.73-9.84-4.97-7.07-1.91-8.22-2.87-8.41-6.21,0-3.25,2.77-5.16,5.64-5.16s4.68,1.53,5.92,2.77l5.35,5.73c.38.38.67.48.96.29l1.72-.77c.38-.19.48-.38.38-.86l-1.34-7.07ZM198.85,10.54c-.1-.67-.29-1.14-1.72-1.82-1.72-.86-4.87-2.01-10.03-2.01-4.01,0-6.69.67-10.51,3.44-3.63,2.67-4.97,6.4-4.97,10.89,0,6.02,3.73,9.26,9.21,11.32.78.29,1.6.56,2.45.81,6.21,1.91,8.98,3.15,8.98,6.97,0,3.34-2.1,5.83-5.64,5.83-4.39,0-6.59-2.39-8.31-4.87l-3.82-5.64c-.19-.38-.38-.48-.67-.38l-1.72.48c-.38.1-.67.29-.67.77l1.24,9.17c.1.57.19.95.57,1.24,1.15.86,5.83,2.77,11.18,2.77,10.41,0,17.1-6.11,17.1-14.62,0-.42,0-.82-.03-1.21-.14-2.71-.85-4.74-3.03-6.91-2.87-3.06-5.16-3.73-9.84-4.97-7.07-1.91-8.22-2.87-8.41-6.21,0-3.25,2.77-5.16,5.64-5.16s4.68,1.53,5.92,2.77l5.35,5.73c.38.38.67.48.96.29l1.72-.77c.38-.19.48-.38.38-.86l-1.34-7.07ZM69.56,9.59c.28-3.66-2.08-6.77-7.29-6.77-3.66,0-8.59,2.54-11.97,5.21-1.41-1.55-7.04-8.03-19.16-8.03C12.96,0,5.07,11.27,5.07,20.57c0,11.97,6.76,17.89,12.12,20.99v.28c-4.23,1.97-12.12,6.76-12.12,14.37,0,4.51,3.38,9.02,9.58,10.42v.85c-6.76,2.82-14.65,8.17-14.65,15.78,0,4.51,1.97,8.17,7.04,11.13,6.2,3.52,15.21,4.37,21.98,4.37,13.24.28,23.1-4.23,27.61-7.89,6.2-4.79,8.73-10.14,8.73-16.34,0-4.23-1.41-9.58-7.04-13.8-6.2-5.07-13.24-5.92-23.95-5.35-12.4.56-17.75.56-17.75-5.07,0-3.38,3.52-5.92,6.06-7.04,2.96.56,4.93.56,8.03.56,6.62,0,13.38-1.69,17.89-6.48,4.23-4.51,5.92-10.14,5.92-15.64,0-4.51-.85-7.61-1.69-9.3.47-.35,1-.56,1.51-.68h0c1.03.44,2.12,1.35,2.19,3.03.08,1.83.09,4.95.1,8.12,0,.48,0,.96,0,1.44l-.1,4.2c0,8.21-.38,11.27,3.63,16.62,3.34,4.39,6.21,4.39,10.03,4.39,5.16,0,10.7-2.96,12.61-6.3h.57l.57,5.16c.1.67.67,1.15,1.62,1.15.86,0,1.53-.19,2.1-.38l13.37-3.34c.38-.1.57-.29.48-.76l-.29-1.82c-.1-.38-.38-.57-1.15-.38-1.15.29-2.58.29-3.15.29-.38,0-1.43-.38-1.72-3.34-.19-1.72-.19-6.4-.19-10.99v-7.07c0-9.65.48-12.13.57-12.99.1-.48-.29-.95-.86-.95-.29,0-.67.1-1.15.1-.48.1-.95.19-1.62.19h-9.17c-.96,0-1.15.1-1.15,1.03,0,0,.11,1.28.11,1.73,0,.31.56,1.54.56,3.93l.04,9.87.05,12.58c0,.96-.67,2.48-1.53,3.44-1.43,1.82-3.54,3.06-5.16,3.06-1.72,0-3.25.19-4.68-2.01-2.39-3.73-1.82-10.89-1.82-14.71v-5.16c0-5.4.15-9.24.27-11.3.02-.37.04-.68.06-.93M33.81,68.04c13.52-.56,19.44,4.51,19.44,12.68.28,8.31-11.83,12.54-19.16,12.54-8.17,0-12.12-.85-16.48-3.38-2.68-1.55-5.07-5.77-5.07-9.72,0-5.64,4.65-10.14,8.59-11.27l12.68-.85ZM30.71,38.88c-3.94,0-6.06-1.13-8.03-3.1-2.39-2.11-3.52-6.62-3.52-11.13,0-5.5.85-11.97,3.94-15.92,2.11-2.53,4.65-3.52,7.61-3.52,3.38,0,5.35,1.27,6.62,2.82,1.41,1.83,3.1,5.49,3.1,11.13,0,10-2.39,19.72-9.72,19.72ZM72.1,65.16h1.65c2.7,0,4.89-2.2,4.89-4.92s-2.19-4.89-4.89-4.89h-1.65c-.43,0-.77.34-.77.77v8.26c0,.42.34.77.77.77ZM72.88,56.91h.87c1.85,0,3.33,1.5,3.33,3.33s-1.48,3.35-3.33,3.36h-.87v-6.7ZM83.57,65.16h.01s0,0,.03,0h4.54c.41,0,.77-.35.77-.77s-.36-.78-.77-.78h-3.8v-2.58h3.26c.42,0,.77-.35.77-.79,0-.41-.35-.77-.77-.77h-3.26v-2.56h3.8c.41,0,.77-.35.77-.79s-.36-.77-.77-.77h-4.58c-.43,0-.77.34-.77.77v8.26c0,.42.34.77.77.77ZM93,63.75c.8.63,2.07,1.39,3.59,1.4.99,0,1.9-.29,2.59-.8.7-.5,1.2-1.27,1.2-2.17,0-.43-.13-.85-.34-1.19-.32-.52-.83-.88-1.4-1.16-.56-.27-1.22-.45-1.93-.59h-.03c-.76-.14-1.39-.36-1.75-.62-.18-.13-.31-.25-.38-.36-.07-.11-.1-.22-.1-.39,0-.29.15-.6.53-.88.38-.28.94-.48,1.57-.48.85,0,1.54.42,2.25.9.34.22.78.13.99-.21.22-.32.13-.77-.2-.99-.71-.46-1.71-1.12-3.05-1.12-.91,0-1.77.27-2.42.74-.64.48-1.12,1.2-1.12,2.04,0,.42.11.81.32,1.15.31.49.77.84,1.3,1.09s1.15.42,1.81.55h.03c.83.15,1.51.39,1.92.66.21.14.34.28.42.42.08.14.13.27.13.45,0,.35-.18.7-.6,1.01-.42.31-1.05.52-1.75.52-.99.01-2.06-.57-2.68-1.08-.31-.25-.77-.21-1.02.1-.24.31-.2.77.11,1.02ZM104.73,64.39c0,.43.34.77.77.77s.78-.34.78-.77v-8.26c0-.43-.36-.77-.78-.77s-.77.34-.77.77v8.26ZM115.74,65.16c1.19,0,2.3-.41,3.18-1.09.14-.1.22-.21.27-.34h0s.01-.06.03-.08c.01-.08.04-.14.04-.24v-3.1c0-.45-.36-.78-.81-.78h-2.79c-.43,0-.8.34-.8.78s.36.8.8.8h2v1.92c-.56.32-1.22.53-1.92.53-1.01,0-1.89-.38-2.52-1.02-.66-.63-1.05-1.49-1.05-2.41s.39-1.81,1.05-2.44c.63-.64,1.51-1.02,2.52-1.02.84,0,1.61.29,2.21.76.35.28.87.21,1.13-.13.27-.35.21-.87-.15-1.13-.87-.69-2-1.09-3.19-1.09-2.84,0-5.17,2.24-5.17,5.06s2.33,5.03,5.17,5.03ZM126.04,58.58l4.48,6.22s.04.06.07.08c.14.17.35.28.57.28.42,0,.77-.35.77-.77v-8.14c0-.41-.35-.76-.77-.76s-.76.35-.76.76v5.77l-4.52-6.26c-.24-.34-.71-.41-1.06-.17-.21.15-.32.41-.31.64h0v8.15c0,.42.34.77.77.77.41,0,.76-.35.76-.77v-5.81ZM144.47,65.16c.43,0,.78-.34.78-.77v-3.36h3.63v3.36c0,.43.34.77.77.77s.78-.34.78-.77v-8.26c0-.43-.35-.77-.78-.77s-.77.34-.77.77v3.36h-3.63v-3.36c0-.43-.35-.77-.78-.77s-.77.34-.77.77v8.26c0,.43.34.77.77.77ZM159.68,55.08c-1.34,0-2.58.58-3.43,1.5-.87.92-1.39,2.16-1.39,3.54s.52,2.63,1.39,3.54c.85.91,2.09,1.5,3.43,1.5s2.52-.59,3.35-1.5c.87-.91,1.42-2.16,1.42-3.54s-.55-2.62-1.42-3.54c-.83-.92-2.06-1.5-3.35-1.5ZM161.9,62.56c-.59.63-1.37,1.01-2.21,1.01-.9,0-1.68-.38-2.27-1.01-.59-.6-.95-1.48-.95-2.44s.36-1.83.95-2.45c.59-.63,1.37-.99,2.27-.99.84,0,1.62.36,2.21.99.57.62.95,1.5.95,2.45s-.38,1.83-.95,2.44ZM176.78,61.12v-4.99c0-.43-.34-.77-.77-.77s-.78.34-.78.77v4.99c0,1.37-1.11,2.49-2.49,2.49s-2.49-1.12-2.49-2.49v-4.99c0-.43-.36-.77-.78-.77s-.77.34-.77.77v4.99c0,2.23,1.79,4.05,4.05,4.05s4.05-1.82,4.05-4.05ZM181.97,63.75c.8.63,2.07,1.39,3.59,1.4.99,0,1.91-.29,2.59-.8.7-.5,1.2-1.27,1.2-2.17,0-.43-.13-.85-.34-1.19-.32-.52-.83-.88-1.4-1.16-.56-.27-1.22-.45-1.93-.59h-.03c-.76-.14-1.39-.36-1.75-.62-.18-.13-.31-.25-.38-.36-.07-.11-.1-.22-.1-.39,0-.29.15-.6.53-.88.38-.28.94-.48,1.57-.48.85,0,1.54.42,2.26.9.34.22.78.13.99-.21.22-.32.13-.77-.2-.99-.71-.46-1.71-1.12-3.05-1.12-.91,0-1.76.27-2.42.74-.64.48-1.12,1.2-1.12,2.04,0,.42.11.81.32,1.15.31.49.77.84,1.3,1.09s1.15.42,1.81.55h.03c.83.15,1.51.39,1.92.66.21.14.34.28.42.42.08.14.13.27.13.45,0,.35-.18.7-.6,1.01-.42.31-1.05.52-1.75.52-.99.01-2.06-.57-2.68-1.08-.31-.25-.77-.21-1.02.1-.24.31-.2.77.11,1.02ZM194.37,65.16h.01s0,0,.03,0h4.54c.41,0,.77-.35.77-.77s-.36-.78-.77-.78h-3.8v-2.58h3.26c.42,0,.77-.35.77-.79,0-.41-.35-.77-.77-.77h-3.26v-2.56h3.8c.41,0,.77-.35.77-.79s-.36-.77-.77-.77h-4.58c-.43,0-.77.34-.77.77v8.26c0,.42.34.77.77.77Z"></path>
  </g>
</svg>
