<?xml version="1.0" encoding="UTF-8"?>
<svg xmlns="http://www.w3.org/2000/svg" viewBox="0 0 113.39 36.67">
  <defs>
    <style>
      .cls-1 {
        fill: #16a992;
        opacity: .5;
      }

      .cls-2 {
        fill: #fff;
      }
    </style>
  </defs>
  <g>
    <path class="cls-1" d="M33.41,19.97c0,9.23-7.48,16.7-16.7,16.7S0,29.19,0,19.97,7.48,3.26,16.7,3.26s16.7,7.48,16.7,16.7ZM19.37,22.1c-1.18,0-2.13.95-2.13,2.13s.95,2.13,2.13,2.13,2.13-.95,2.13-2.13-.95-2.13-2.13-2.13ZM13.97,14.21c-1.19,0-2.15.96-2.15,2.15s.96,2.15,2.15,2.15,2.15-.96,2.15-2.15-.96-2.15-2.15-2.15ZM21.04,16.07c-1.19,0-2.15.96-2.15,2.15s.96,2.15,2.15,2.15,2.15-.96,2.15-2.15-.96-2.15-2.15-2.15ZM12.48,20.14c-1.18-.06-2.19.84-2.26,2.02s.84,2.19,2.02,2.26,2.19-.84,2.26-2.02-.84-2.19-2.02-2.26Z"/>
    <path class="cls-1" d="M28.95,19.97c0,6.77-5.48,12.25-12.25,12.25s-12.25-5.48-12.25-12.25,5.48-12.25,12.25-12.25,12.25,5.48,12.25,12.25ZM19.36,22.1c-1.18,0-2.13.95-2.13,2.13s.95,2.13,2.13,2.13,2.13-.95,2.13-2.13-.95-2.13-2.13-2.13ZM13.97,14.22c-1.19,0-2.15.96-2.15,2.15s.96,2.15,2.15,2.15,2.15-.96,2.15-2.15-.96-2.15-2.15-2.15ZM21.03,16.07c-1.19,0-2.15.96-2.15,2.15s.96,2.15,2.15,2.15,2.15-.96,2.15-2.15-.96-2.15-2.15-2.15ZM12.47,20.14c-1.18-.06-2.19.84-2.26,2.02s.84,2.19,2.02,2.26,2.19-.84,2.26-2.02-.84-2.19-2.02-2.26Z"/>
  </g>
  <g>
    <path class="cls-2" d="M34.01,16.2v-2.21c0-.16-.13-.28-.28-.28h-3.41v-6.72c0-.21-.22-.35-.41-.26l-1.26.62c-.68.33-1.11,1.03-1.11,1.78v4.58h-3.46c-.16,0-.28.13-.28.28v2.21c0,.16.13.28.28.28h3.46v17.61c0,.16.13.28.28.28h.51c1.1,0,1.99-.89,1.99-1.99v-15.91h3.41c.16,0,.28-.13.28-.28Z"/>
    <path class="cls-2" d="M51.51,16.53c-2.19-2.26-4.82-3.39-7.89-3.39s-5.52,1.06-7.68,3.18c-2.01,1.98-3.17,4.62-3.23,7.44-.07,3.09,1,5.75,3.23,7.98,2.16,2.16,4.72,3.24,7.68,3.24s5.69-1.13,7.88-3.38v2.78h1.05c1.1,0,1.99-.89,1.99-1.99v-14.54c0-1.58-1.88-2.39-3.03-1.32ZM49.38,29.82c-1.58,1.58-3.5,2.38-5.76,2.38s-4.22-.79-5.79-2.35c-1.57-1.57-2.35-3.5-2.35-5.79s.79-4.22,2.35-5.79c1.57-1.57,3.49-2.35,5.79-2.35s4.18.79,5.76,2.38c1.59,1.58,2.38,3.5,2.38,5.76s-.79,4.18-2.38,5.76Z"/>
    <path class="cls-2" d="M59.47,13.7h-.51c-1.1,0-1.99.89-1.99,1.99v18.4c0,.16.13.28.28.28h.51c1.1,0,1.99-.89,1.99-1.99V13.98c0-.16-.13-.28-.28-.28Z"/>
    <path class="cls-2" d="M59.47,5.61h-1.47c-.56,0-1.02.46-1.02,1.02v1.73c0,.16.13.28.28.28h1.47c.56,0,1.02-.46,1.02-1.02v-1.73c0-.16-.13-.28-.28-.28Z"/>
    <path class="cls-2" d="M64.71,0h-.51c-1.1,0-1.99.89-1.99,1.99v32.1c0,.16.13.28.28.28h.51c1.1,0,1.99-.89,1.99-1.99V.28C64.99.13,64.87,0,64.71,0Z"/>
    <path class="cls-2" d="M77.3,13.14c-2.97,0-5.53,1.06-7.68,3.19-2.16,2.13-3.24,4.7-3.24,7.73s1.08,5.53,3.24,7.68c2.16,2.16,4.72,3.24,7.68,3.24s5.61-1.08,7.73-3.24c2.12-2.15,3.19-4.72,3.19-7.68s-1.06-5.61-3.19-7.73c-2.12-2.12-4.7-3.19-7.73-3.19ZM83.06,29.82c-1.58,1.58-3.5,2.38-5.76,2.38s-4.22-.79-5.79-2.35c-1.57-1.57-2.35-3.5-2.35-5.79s.79-4.22,2.35-5.79c1.57-1.57,3.49-2.35,5.79-2.35s4.18.79,5.76,2.38c1.59,1.58,2.38,3.5,2.38,5.76s-.79,4.18-2.38,5.76Z"/>
    <path class="cls-2" d="M97.72,13.14c-2.29,0-4.21.81-5.76,2.43-.94-.75-2.32-.08-2.32,1.11v17.41c0,.16.13.28.28.28h.51c1.1,0,1.99-.89,1.99-1.99v-11.02c0-1.28.39-2.56,1.21-3.55,1.03-1.26,2.4-1.89,4.1-1.89.47,0,.89.05,1.25.14.13.03.26-.02.32-.14l.06-.12h0c.62-1.22-.26-2.66-1.63-2.67Z"/>
  </g>
</svg>