<?xml version="1.0" encoding="UTF-8"?>
<svg id="Layer_1" data-name="Layer 1" xmlns="http://www.w3.org/2000/svg" viewBox="0 0 700 395">
  <defs>
    <style>
      .cls-1 {
        fill: #efedea;
      }

      .cls-2 {
        fill: #8a64b5;
      }
    </style>
  </defs>
  <rect class="cls-1" width="700" height="395"/>
  <g>
    <circle class="cls-2" cx="349.1" cy="197.5" r="125"/>
    <g>
      <g>
        <g>
          <path class="cls-1" d="M323.45,156.59l-71.32,9.03,4.42,7.45,56.42,11.53c.76.15,1.45.54,1.98,1.11l7.91,8.45,22.56-4.46-21.97-33.1Z"/>
          <path class="cls-1" d="M371.91,156.59l-21.97,33.1,21.86,4.33,7.78-8.31c.53-.57,1.22-.95,1.98-1.11l57.37-11.72,4.3-7.26-71.32-9.03Z"/>
          <polygon class="cls-1" points="345.03 218.7 345.03 194.02 325.49 197.84 345.03 218.7"/>
          <polygon class="cls-1" points="349.94 218.7 349.94 194.02 369.47 197.84 349.94 218.7"/>
          <polygon class="cls-1" points="241.53 173.81 274.93 204.38 345.03 223.32 312.22 188.26 241.53 173.81"/>
          <polygon class="cls-1" points="275.17 208.53 275.17 272.63 345.03 303.33 345.03 227.19 275.17 208.53"/>
          <polygon class="cls-1" points="419.36 208.53 349.5 227.19 349.5 303.33 419.36 272.63 419.36 208.53"/>
        </g>
        <polygon class="cls-1" points="453 173.81 382.3 188.26 349.5 223.32 419.59 204.38 453 173.81"/>
      </g>
      <path class="cls-1" d="M353.58,114.52c0-4.32-3.12-6.01-6.73-6.01-4.08,0-6.73,2.16-9.85,5.04l-11.29-10.33c5.89-6.73,14.17-11.29,23.78-11.29,13.21,0,23.78,6.01,23.78,21.14s-17.54,18.26-16.34,31.47h-18.02c-2.4-15.61,14.65-22.34,14.65-30.03ZM338.05,159.48c0-5.45,4.1-9.77,9.77-9.77s9.77,4.32,9.77,9.77-4.1,9.77-9.77,9.77-9.77-4.32-9.77-9.77Z"/>
    </g>
  </g>
</svg>