<?xml version="1.0" encoding="UTF-8"?>
<svg id="Layer_1" data-name="Layer 1" xmlns="http://www.w3.org/2000/svg" viewBox="0 0 700 395">
  <defs>
    <style>
      .cls-1 {
        fill: #2b2b2b;
      }

      .cls-2 {
        fill: #2f2f2f;
      }

      .cls-3 {
        fill: #efedea;
      }

      .cls-4 {
        opacity: .5;
      }
    </style>
  </defs>
  <rect class="cls-3" y="0" width="700" height="395"/>
  <circle class="cls-1" cx="403.03" cy="308.89" r="39.98"/>
  <circle class="cls-1" cx="460.1" cy="226.13" r="39.98"/>
  <g>
    <g>
      <path class="cls-2" d="M315.8,164.2l-7.55-8.21c8.86-8.16,19.79-13.51,31.62-15.48,11.52-1.92,23.29-.56,34.05,3.93l-4.3,10.29c-18.2-7.59-39.32-3.88-53.82,9.47Z"/>
      <polygon class="cls-2" points="358.11 161.54 391.42 163.38 376.36 133.61 358.11 161.54"/>
    </g>
    <g>
      <path class="cls-2" d="M304.64,243.28c-8.16-8.86-13.51-19.79-15.48-31.62-1.92-11.52-.56-23.29,3.93-34.05l10.29,4.3c-7.6,18.19-3.88,39.32,9.47,53.82l-8.21,7.55Z"/>
      <polygon class="cls-2" points="310.19 193.41 312.03 160.1 282.26 175.16 310.19 193.41"/>
    </g>
    <g>
      <path class="cls-2" d="M350.07,263.21c-8.15,0-16.24-1.61-23.82-4.77l4.3-10.29c18.19,7.6,39.32,3.88,53.82-9.47l7.55,8.21c-8.86,8.16-19.79,13.51-31.62,15.48-3.4.57-6.82.85-10.23.85Z"/>
      <polygon class="cls-2" points="342.06 241.33 308.74 239.5 323.81 269.27 342.06 241.33"/>
    </g>
    <g>
      <path class="cls-2" d="M407.09,225.27l-10.29-4.3c7.6-18.19,3.88-39.32-9.47-53.82l8.21-7.55c8.16,8.86,13.51,19.79,15.48,31.62,1.92,11.52.56,23.29-3.92,34.05Z"/>
      <polygon class="cls-2" points="389.98 209.47 388.14 242.78 417.91 227.72 389.98 209.47"/>
    </g>
  </g>
  <circle class="cls-1" cx="240.07" cy="226.12" r="39.98"/>
  <path class="cls-1" d="M350.08,45.57c-22.08,0-39.98,17.9-39.98,39.98s17.9,39.98,39.98,39.98,39.98-17.9,39.98-39.98-17.9-39.98-39.98-39.98ZM350.14,110.92c-2.52-.03-4.07-1.42-4.07-1.42h8.03s-1.44,1.45-3.96,1.42ZM357.31,109.32h-14.46v-8.08h14.46v8.08ZM366.45,76.06c-.04.91-.34,5.86-2.92,9.51-2.58,3.64-4.55,9.72-4.77,12.3-.18,2.06-1.36,3.15-1.36,3.15h-14.64s-1-.7-1.36-3.15c-.36-2.44-.15-3.91-4.77-12.3-3.08-5.01-2.91-9.45-2.92-9.47.14-2.21.33-7.1,4.76-11.61,4.44-4.51,9.5-4.83,11.53-4.88,2.03-.05,6.84.23,11.68,4.88,4.84,4.65,4.8,10.67,4.76,11.58Z"/>
  <path class="cls-3" d="M221.31,229.14s5.57-3.77,6.15-7.79c.58-4.03-5.8-1.2-5.23-5.23.58-4.03,2.95-6.4,6.97-6.97,4.03-.58,1.2,5.8,5.23,5.23,4.03-.58,7.79-6.15,7.79-6.15,0,0,6.93,2.41,6.62,7.32-.31,4.91-4.91.31-5.23,5.23-.31,4.91,2.06,7.28,6.97,6.97,4.91-.31.31-4.91,5.23-5.23,4.91-.31,7.32,6.62,7.32,6.62l-20.91,20.91-20.91-20.91Z"/>
  <circle class="cls-1" cx="297.14" cy="309.44" r="39.98"/>
  <path class="cls-3" d="M445.52,236.93c-3.93-3.34-6.37-7.97-6.37-13.09,0-10.17,9.63-18.42,21.5-18.42s21.5,8.25,21.5,18.42-9.63,18.42-21.5,18.42c-2.82,0-5.51-.47-7.98-1.31l-9.73,5.88,2.58-9.9Z"/>
  <g>
    <path class="cls-3" d="M282.49,286.81h27.67v42.65h-27.67v-42.65ZM302.04,314.69l2.53,2.22,15.54-17.76-2.53-2.22-15.54,17.76ZM300.2,319.35l4.37-2.44-2.53-2.22-1.84,4.66Z"/>
    <path class="cls-3" d="M283.35,292.03h-1.68c-.3,0-.55-.24-.55-.55s.24-.55.55-.55h1.68c.3,0,.55.24.55.55s-.24.55-.55.55Z"/>
    <path class="cls-3" d="M283.38,289.31h-1.74c-.3,0-.55-.24-.55-.55s.24-.55.55-.55h1.74c.3,0,.55.24.55.55s-.24.55-.55.55Z"/>
    <path class="cls-3" d="M283.38,294.75h-1.74c-.3,0-.55-.24-.55-.55s.24-.55.55-.55h1.74c.3,0,.55.24.55.55s-.24.55-.55.55Z"/>
    <path class="cls-3" d="M283.36,297.46h-1.74c-.3,0-.55-.24-.55-.55s.24-.55.55-.55h1.74c.3,0,.55.24.55.55s-.24.55-.55.55Z"/>
    <path class="cls-3" d="M283.36,300.18h-1.74c-.3,0-.55-.24-.55-.55s.24-.55.55-.55h1.74c.3,0,.55.24.55.55s-.24.55-.55.55Z"/>
    <path class="cls-3" d="M283.37,302.89h-1.74c-.3,0-.55-.24-.55-.55s.24-.55.55-.55h1.74c.3,0,.55.24.55.55s-.24.55-.55.55Z"/>
    <path class="cls-3" d="M283.37,305.61h-1.74c-.3,0-.55-.24-.55-.55s.24-.55.55-.55h1.74c.3,0,.55.24.55.55s-.24.55-.55.55Z"/>
    <path class="cls-3" d="M283.37,308.32h-1.74c-.3,0-.55-.24-.55-.55s.24-.55.55-.55h1.74c.3,0,.55.24.55.55s-.24.55-.55.55Z"/>
    <path class="cls-3" d="M283.37,311.04h-1.74c-.3,0-.55-.24-.55-.55s.24-.55.55-.55h1.74c.3,0,.55.24.55.55s-.24.55-.55.55Z"/>
    <path class="cls-3" d="M283.36,313.76h-1.74c-.3,0-.55-.24-.55-.55s.24-.55.55-.55h1.74c.3,0,.55.24.55.55s-.24.55-.55.55Z"/>
    <path class="cls-3" d="M283.37,316.47h-1.74c-.3,0-.55-.24-.55-.55s.24-.55.55-.55h1.74c.3,0,.55.24.55.55s-.24.55-.55.55Z"/>
    <path class="cls-3" d="M283.36,319.19h-1.74c-.3,0-.55-.24-.55-.55s.24-.55.55-.55h1.74c.3,0,.55.24.55.55s-.24.55-.55.55Z"/>
    <path class="cls-3" d="M283.36,321.9h-1.74c-.3,0-.55-.24-.55-.55s.24-.55.55-.55h1.74c.3,0,.55.24.55.55s-.24.55-.55.55Z"/>
    <path class="cls-3" d="M283.36,324.62h-1.74c-.3,0-.55-.24-.55-.55s.24-.55.55-.55h1.74c.3,0,.55.24.55.55s-.24.55-.55.55Z"/>
    <path class="cls-3" d="M283.38,327.34h-1.74c-.3,0-.55-.24-.55-.55s.24-.55.55-.55h1.74c.3,0,.55.24.55.55s-.24.55-.55.55Z"/>
  </g>
  <g>
    <circle class="cls-1" cx="439.14" cy="133.61" r="39.98"/>
    <path class="cls-3" d="M460.65,128.04c0,14.86-21.07,26.91-21.07,26.91,0,0-21.07-12.05-21.07-26.91,0-6.31,5.12-11.43,11.43-11.43,4.06,0,7.62,2.12,9.64,5.32,2.02-3.19,5.58-5.32,9.64-5.32,6.31,0,11.43,5.12,11.43,11.43Z"/>
  </g>
  <g>
    <circle class="cls-3" cx="403.03" cy="308.9" r="25.37"/>
    <g class="cls-4">
      <path class="cls-1" d="M390.71,314.03c6.85.16,15.22-2.23,24.63,0,0,6.8-5.51,12.32-12.32,12.32s-12.32-5.51-12.32-12.32Z"/>
    </g>
    <path class="cls-1" d="M390.34,306.1c-.3,0-.59-.17-.72-.46-.18-.4,0-.86.39-1.04l6.21-2.83-6.25-3.3c-.38-.2-.53-.68-.33-1.06.2-.38.68-.53,1.06-.33l7.67,4.05c.27.14.43.42.42.72,0,.3-.19.57-.46.69l-7.67,3.49c-.11.05-.22.07-.33.07Z"/>
    <path class="cls-1" d="M415.71,306.1c-.11,0-.22-.02-.33-.07l-7.67-3.49c-.27-.12-.45-.39-.46-.69,0-.3.15-.58.42-.72l7.67-4.05c.38-.2.86-.06,1.06.33.2.38.06.86-.33,1.06l-6.25,3.3,6.21,2.83c.4.18.57.65.39,1.04-.13.29-.42.46-.72.46Z"/>
    <path class="cls-1" d="M392.74,320.85c5.26-4.74,15.28-5.25,20.54,0-5.77,8.66-16.78,6.12-20.54,0Z"/>
  </g>
  <g>
    <path class="cls-1" d="M247.18,126.97c0-.75.08-1.48.19-2.2-2.95,1.66-4.95,4.82-4.95,8.45,0,5.34,4.35,9.69,9.69,9.69,2.4,0,4.6-.88,6.29-2.33-6.38-1.24-11.22-6.87-11.22-13.61Z"/>
    <path class="cls-1" d="M261.05,117.28c-2.4,0-4.6.88-6.29,2.33,6.38,1.24,11.22,6.87,11.22,13.61,0,.75-.08,1.48-.19,2.2,2.95-1.66,4.95-4.82,4.95-8.45,0-5.34-4.35-9.69-9.69-9.69Z"/>
    <path class="cls-1" d="M252.1,123.53s-.07,0-.11,0c-.41,1.07-.64,2.23-.64,3.44,0,5.34,4.35,9.69,9.69,9.69.04,0,.07,0,.11,0,.41-1.07.64-2.23.64-3.44,0-5.34-4.35-9.69-9.69-9.69Z"/>
    <path class="cls-1" d="M260.59,93.63c-22.08,0-39.98,17.9-39.98,39.98s17.9,39.98,39.98,39.98,39.98-17.9,39.98-39.98-17.9-39.98-39.98-39.98ZM282.95,118.4c0,1.15-.94,2.09-2.09,2.09s-2.09-.94-2.09-2.09v-6.23l-6.58,6.58c1.7,2.3,2.72,5.14,2.72,8.22,0,6.69-4.75,12.28-11.06,13.58-2.1,3.35-5.58,5.74-9.64,6.36v5h4.2c1.15,0,2.09.94,2.09,2.09s-.94,2.09-2.09,2.09h-4.2v4.02c0,1.15-.94,2.09-2.09,2.09s-2.09-.94-2.09-2.09v-4.02h-4.2c-1.15,0-2.09-.94-2.09-2.09s.94-2.09,2.09-2.09h4.2v-4.99c-6.67-1-11.8-6.75-11.8-13.7s4.75-12.28,11.06-13.58c2.45-3.92,6.8-6.54,11.75-6.54,3.06,0,5.89,1.01,8.19,2.7l6.59-6.59h-6.23c-1.15,0-2.09-.94-2.09-2.09s.94-2.09,2.09-2.09h11.28s.03,0,.05,0c.12,0,.24.01.36.04.07.01.13.04.19.06.07.02.13.03.2.06.07.03.14.07.21.11.05.03.1.05.15.08.23.15.43.35.58.58.03.05.06.1.09.16.04.07.08.13.11.2.03.07.05.14.07.22.02.06.04.11.05.17.03.14.04.27.04.41v11.27Z"/>
  </g>
</svg>