<?xml version="1.0" encoding="UTF-8"?>
<svg id="Layer_1" data-name="Layer 1" xmlns="http://www.w3.org/2000/svg" viewBox="0 0 700 395">
  <defs>
    <style>
      .cls-1 {
        fill: #16a992;
      }

      .cls-2 {
        fill: #efedea;
      }

      .cls-3 {
        opacity: .7;
      }
    </style>
  </defs>
  <rect class="cls-2" width="700" height="395"/>
  <g class="cls-3">
    <path class="cls-1" d="M340.83,323c-69.04,0-125-55.96-125-125,0-69.04,55.96-125,125-125,69.04,0,125,55.96,125,125,0,5.63-.38,11.16-1.1,16.59-8.92-3.85-16.73-7.22-17.28-8.42-2.48-5.45-8.78-13.17-16.85-16.26-12.44-4.75-24.89-2.39-27.81,5.27-2.92,7.66,4.79,17.72,17.22,22.47,8.2,3.13,17.81,1.36,23.29-1.17,1.23-.57,10.22,2.56,20.14,5.94-11.35,57.35-61.93,100.59-122.61,100.59Z"/>
    <path class="cls-1" d="M489.84,226.64c.79.2,1.62.42,2.48.65,1.11.18,7.65,2.46,16.8.94,4.55-.74,9.57-2.62,14.66-5.23,5.12-2.56,10.35-5.87,16.19-8.18,5.78-2.39,12.52-2.96,18.12-1.08,5.61,1.77,10.06,4.93,13.54,7.8,6.93,5.88,10.5,10.71,10.39,10.79-.24.24-4.17-4.29-11.23-9.73-3.53-2.66-7.97-5.53-13.24-7-5.27-1.55-11.24-.88-16.67,1.49-5.46,2.31-10.58,5.7-15.78,8.45-5.17,2.8-10.49,4.93-15.42,5.83-9.96,1.83-17.09-.55-18.25-.73-.93-.25-1.8-.54-2.61-.85-5.1-.55-15.69-4.08-25.39-7.38.51-2.58.94-5.18,1.29-7.82,9.66,4.16,20.61,8.89,25.1,12.05Z"/>
  </g>
</svg>