<?xml version="1.0" encoding="UTF-8"?>
<svg id="Layer_1" data-name="Layer 1" xmlns="http://www.w3.org/2000/svg" xmlns:xlink="http://www.w3.org/1999/xlink" viewBox="0 0 700 395">
  <defs>
    <style>
      .cls-1, .cls-2, .cls-3, .cls-4, .cls-5, .cls-6, .cls-7, .cls-8, .cls-9, .cls-10, .cls-11 {
        fill: none;
      }

      .cls-12 {
        fill: #2b2b2b;
      }

      .cls-2 {
        stroke-dasharray: 3.07 3.07;
      }

      .cls-2, .cls-3, .cls-4, .cls-5, .cls-6, .cls-7, .cls-8, .cls-9, .cls-10, .cls-11 {
        stroke: #7f7f7f;
        stroke-miterlimit: 10;
        stroke-width: .59px;
      }

      .cls-3 {
        stroke-dasharray: 3.01 3.01;
      }

      .cls-4 {
        stroke-dasharray: 2.92 2.92;
      }

      .cls-5 {
        stroke-dasharray: 3.3 3.3;
      }

      .cls-6 {
        stroke-dasharray: 2.91 2.91;
      }

      .cls-13 {
        fill: #efedea;
      }

      .cls-14 {
        fill: #fff;
      }

      .cls-7 {
        stroke-dasharray: 2.97 2.97;
      }

      .cls-9 {
        stroke-dasharray: 2.85 2.85;
      }

      .cls-15 {
        fill: #7f7f7f;
      }

      .cls-10 {
        stroke-dasharray: 2.94 2.94;
      }

      .cls-11 {
        stroke-dasharray: 2.85 2.85;
      }

      .cls-16 {
        clip-path: url(#clippath);
      }
    </style>
    <clipPath id="clippath">
      <path class="cls-1" d="M345.2,247.64c.05-2.8,1.32-6.75-.73-9.08-.96-1.25-.29-3.02-.04-4.45.18-1.89.19-4.49-.84-6.2-1.27-2.29,2.01-2.66,2.35-4.57.27-2.37-.28-4.5.14-6.88.55-2.56,2.27-5.11,2.97-7.69.57-2.41-2.79-2.07-3.01-3.59-.65-3.32-.53-7.02-2.22-10.02-.81-1.28-.84-2.24-.72-3.5.21-.65.4-1.46.01-2.02-1.53-1.94-3.97-3.75-3.44-6.47.27-1.28,2.16-4.27,2.07-4.88-.65-4.4-2.59-6.98-1.72-11.61.53-2.71-1.61-4.57-2.88-6.86-.66-1.3.64-1.72-.07-3.32-.46-1.02-1.59-1.55-1.59-2.63-.07-1.54.71-3.05-.12-4.48-.68-1.45-2.2-2.78-1.86-4.69.36-1.76,2.2-3.23,1.45-5.14-.48-1.17-2.18-1.89-2.49-2.93-.44-2.05-2.37-4.54-1.57-6.59l-85.01,12.61,18.15,122.31,81.61-12.11c-.07-.62.11-1.29.52-1.94.62-1.02-.94-2.19-.95-3.27Z"/>
    </clipPath>
  </defs>
  <rect class="cls-13" width="700" height="395"/>
  <circle class="cls-12" cx="349.07" cy="191.87" r="125"/>
  <g>
    <g class="cls-16">
      <g>
        <path class="cls-14" d="M345.46,247.83c.05-2.8,1.32-6.75-.73-9.08-.96-1.25-.29-3.02-.04-4.45.18-1.89.19-4.49-.84-6.2-1.27-2.29,2.01-2.66,2.35-4.57.27-2.37-.28-4.5.14-6.88.55-2.56,2.27-5.11,2.97-7.69.57-2.41-2.79-2.07-3.01-3.59-.65-3.32-.53-7.02-2.22-10.02-.81-1.28-.84-2.24-.72-3.5.21-.65.4-1.46.01-2.02-1.53-1.94-3.97-3.75-3.44-6.47.27-1.28,2.16-4.27,2.07-4.88-.65-4.4-2.59-6.98-1.72-11.61.53-2.71-1.61-4.57-2.88-6.86-.66-1.3.64-1.72-.07-3.32-.46-1.02-1.59-1.55-1.59-2.63-.07-1.54.71-3.05-.12-4.48-.68-1.45-2.2-2.78-1.86-4.69.36-1.76,2.2-3.23,1.45-5.14-.48-1.17-2.18-1.89-2.49-2.93-.44-2.05-2.37-4.54-1.57-6.59l-85.01,12.61,18.15,122.31,81.61-12.11c-.07-.62.11-1.29.52-1.94.62-1.02-.94-2.19-.95-3.27Z"/>
        <g>
          <rect class="cls-8" x="269.62" y="155.97" width="29.13" height="97.11" transform="translate(-26.94 43.92) rotate(-8.44)"/>
          <rect class="cls-8" x="298.44" y="151.69" width="29.13" height="97.11" transform="translate(-26 48.1) rotate(-8.44)"/>
          <polyline class="cls-8" points="345.08 244.58 334.54 246.14 320.29 150.08 335.36 147.84"/>
          <g>
            <line class="cls-8" x1="265.5" y1="177.84" x2="265.29" y2="176.39"/>
            <line class="cls-5" x1="264.81" y1="173.13" x2="263.11" y2="161.72"/>
            <line class="cls-8" x1="262.87" y1="160.09" x2="262.65" y2="158.63"/>
          </g>
          <g>
            <line class="cls-8" x1="341.74" y1="186.17" x2="340.28" y2="186.38"/>
            <line class="cls-9" x1="337.47" y1="186.8" x2="271.22" y2="196.63"/>
            <polyline class="cls-8" points="269.81 196.84 268.36 197.05 268.14 195.6"/>
            <line class="cls-5" x1="267.66" y1="192.34" x2="265.96" y2="180.93"/>
            <polyline class="cls-8" points="265.72 179.3 265.5 177.84 266.96 177.63"/>
            <line class="cls-11" x1="269.78" y1="177.21" x2="335.96" y2="167.39"/>
            <line class="cls-8" x1="337.36" y1="167.18" x2="338.82" y2="166.96"/>
          </g>
          <g>
            <line class="cls-8" x1="346.05" y1="205.16" x2="344.6" y2="205.38"/>
            <line class="cls-6" x1="341.72" y1="205.8" x2="274.1" y2="215.84"/>
            <polyline class="cls-8" points="272.66 216.05 271.21 216.27 270.99 214.81"/>
            <line class="cls-5" x1="270.51" y1="211.55" x2="268.81" y2="200.14"/>
            <line class="cls-8" x1="268.57" y1="198.51" x2="268.36" y2="197.05"/>
          </g>
          <g>
            <line class="cls-8" x1="346.76" y1="224.69" x2="345.31" y2="224.91"/>
            <line class="cls-2" x1="342.27" y1="225.36" x2="277.03" y2="235.04"/>
            <polyline class="cls-8" points="275.51 235.26 274.06 235.48 273.84 234.02"/>
            <line class="cls-5" x1="273.36" y1="230.76" x2="271.66" y2="219.35"/>
            <line class="cls-8" x1="271.42" y1="217.72" x2="271.21" y2="216.27"/>
          </g>
        </g>
      </g>
      <g>
        <path class="cls-15" d="M267.09,150.87l1.47-.22,1.35,2.51c.17.33.34.7.51,1.05h.04c.06-.39.11-.79.18-1.15l.55-2.79,1.46-.22.88,5.96-1.22.18-.32-2.18c-.09-.58-.11-1.47-.13-2.05h-.04s-.27,1.49-.27,1.49l-.51,2.4-.74.11-1.19-2.15-.68-1.35h-.04c.15.57.39,1.42.47,2.01l.32,2.18-1.21.18-.88-5.96Z"/>
        <path class="cls-15" d="M274.21,152.84c-.29-1.95.64-3.22,2.25-3.46s2.87.72,3.16,2.66-.64,3.28-2.24,3.52c-1.61.24-2.88-.77-3.17-2.72ZM278.24,152.24c-.18-1.19-.79-1.82-1.61-1.7s-1.22.91-1.04,2.1.8,1.88,1.61,1.76,1.21-.95,1.04-2.15Z"/>
        <path class="cls-15" d="M280.31,148.92l1.38-.2,1.99,2.73.78,1.23h.04c-.15-.63-.38-1.45-.49-2.16l-.31-2.1,1.28-.19.88,5.96-1.38.2-1.99-2.74-.78-1.21h-.04c.15.66.38,1.43.48,2.14l.31,2.11-1.28.19-.88-5.96Z"/>
      </g>
      <g>
        <path class="cls-15" d="M296.33,147.71l-1.64.24-.17-1.13,4.62-.68.17,1.13-1.64.24.71,4.82-1.35.2-.71-4.82Z"/>
        <path class="cls-15" d="M300.52,149.2l-.47-3.2,1.35-.2.49,3.34c.17,1.17.6,1.52,1.27,1.42s.99-.56.82-1.73l-.49-3.34,1.3-.19.47,3.2c.3,2-.39,2.99-1.92,3.22-1.54.23-2.51-.52-2.81-2.52Z"/>
        <path class="cls-15" d="M306.17,145.1l3.73-.55.17,1.13-2.38.35.18,1.2,2.03-.3.17,1.12-2.03.3.2,1.37,2.48-.37.17,1.13-3.82.57-.88-5.96Z"/>
        <path class="cls-15" d="M311.56,149.62l.63-1.04c.48.3,1.07.48,1.56.4.56-.08.8-.34.75-.7-.06-.37-.41-.44-.96-.59l-.83-.21c-.65-.16-1.31-.58-1.44-1.45-.15-.99.61-1.9,1.86-2.09.69-.1,1.45.07,2.03.5l-.56.95c-.44-.24-.83-.36-1.3-.29s-.73.31-.68.65c.05.37.47.44,1.01.57l.81.2c.76.19,1.29.6,1.42,1.44.15.99-.55,1.97-1.97,2.18-.78.11-1.64-.06-2.33-.53Z"/>
      </g>
      <g>
        <path class="cls-15" d="M322.32,142.55l1.38-.2.82,2.73c.17.61.35,1.23.52,1.85h.04c.03-.65.05-1.3.08-1.94l.23-2.88,1.14-.17,1.05,2.69c.21.59.42,1.21.63,1.83h.04c-.01-.66-.02-1.3-.03-1.92v-2.85s1.29-.19,1.29-.19l-.18,6.11-1.69.25-.98-2.62c-.17-.44-.31-.92-.44-1.34h-.04c0,.45,0,.95-.04,1.42l-.16,2.79-1.66.25-1.99-5.79Z"/>
        <path class="cls-15" d="M330.32,141.36l3.73-.55.17,1.13-2.38.35.18,1.2,2.03-.3.17,1.12-2.03.3.2,1.37,2.48-.37.17,1.13-3.82.57-.88-5.96Z"/>
        <path class="cls-15" d="M335.33,140.62l1.68-.25c1.82-.27,3.12.46,3.42,2.51.3,2.05-.72,3.18-2.47,3.44l-1.75.26-.88-5.96ZM337.65,145.25c1.01-.15,1.62-.74,1.41-2.17-.21-1.43-.95-1.76-1.97-1.61l-.26.04.56,3.78.26-.04Z"/>
      </g>
    </g>
    <g>
      <g>
        <path class="cls-14" d="M444.95,252.66c-1.25-.07-2.21-1.13-2.15-2.39.06-1.25,1.13-2.21,2.39-2.15.1,0,.2.02.3.04l.26-3.98c-1.17-.15-2.05-1.17-1.98-2.37.06-1.22,1.08-2.16,2.28-2.15l.29-4.34c-1.23-.09-2.17-1.14-2.11-2.38.06-1.25,1.13-2.21,2.39-2.15,0,0,.01,0,.02,0l.3-4.51s-.06,0-.09,0c-1.25-.06-2.21-1.13-2.15-2.39.07-1.25,1.13-2.21,2.39-2.15.05,0,.1,0,.15.02l.29-4.35c-.07,0-.14,0-.21,0-1.25-.07-2.21-1.13-2.15-2.39.06-1.25,1.13-2.21,2.39-2.15.09,0,.19.02.28.03l.32-4.82c-.07,0-.15,0-.22,0-1.25-.07-2.21-1.13-2.15-2.39.07-1.25,1.13-2.21,2.39-2.15.1,0,.19.02.28.03l.29-4.38c-.11.01-.23.02-.34.01-1.25-.07-2.21-1.13-2.15-2.39.06-1.25,1.13-2.21,2.39-2.15.14,0,.27.03.4.06l.31-4.68c-.15.02-.31.03-.47.03-1.25-.07-2.21-1.13-2.15-2.39.07-1.25,1.13-2.21,2.39-2.15.18,0,.36.04.53.09l.32-4.81c-.05,0-.1,0-.15,0-1.25-.07-2.21-1.13-2.15-2.39.07-1.25,1.13-2.21,2.39-2.15.07,0,.15.01.22.02l.3-4.48c-.92-.32-1.56-1.21-1.53-2.23.04-1.07.81-1.94,1.81-2.14l.29-4.44c-1.05-.23-1.83-1.18-1.78-2.3.04-1.16.95-2.09,2.08-2.18l.31-4.61c-1.19-.11-2.1-1.13-2.05-2.34.05-1.25,1.1-2.23,2.35-2.19,0,0,0,0,0,0l.29-4.34s-.09,0-.13,0c-1.25-.05-2.23-1.1-2.19-2.35.05-1.25,1.1-2.23,2.35-2.19.09,0,.18.01.27.03l.35-5.23-90.31-5.98c-1.21,1.83-.6,4.63-.61,6.72.08,1.08,1.25,2.08,1.47,3.33.33,2.02-1.44,3.13-2.16,4.78-.73,1.8.86,3.29,1.22,4.85.51,1.57-.97,3.01-1.22,4.53-.22,1.06,1.31,1.16,1.54,2.25.35,1.71-1.55,2.51-1.18,3.92.76,2.51,2.45,4.77,1.36,7.32-1.82,4.34-.91,9.16-1.21,13.6-.04.61-2.08,1.25-2.62,2.44-1.09,2.54.91,4.83,1.99,7.05.27.63-.09,1.38-.44,1.97-.39,1.2-1.7,2.5-1.18,3.92,1.01,3.3,1.26,6.54,1.19,9.92-.1,1.53,3.26,1.91,2.19,4.14-1.23,2.38-3.65,4.06-4.73,6.45-.92,2.25-.63,4.88-1.39,7.13-.73,1.8-4.73,1.84-3.98,4.35.64,1.89.81,4.05.23,5.86-.55,1.35-2.49,2.76-1.81,4.18,1.51,2.71.34,6.48-.3,9.2-.22,1.06,1.06,2.53.24,3.4-.54.55-.85,1.16-.91,1.78l94.48,6.25.4-6.06c-.08,0-.16,0-.24,0Z"/>
        <g>
          <polyline class="cls-8" points="362.74 147.42 376.41 148.29 370.27 245.21 351 243.99"/>
          <rect class="cls-8" x="373.31" y="149.11" width="29.13" height="97.11" transform="translate(13.28 -24.14) rotate(3.63)"/>
          <rect class="cls-8" x="402.38" y="150.96" width="29.13" height="97.11" transform="translate(13.45 -25.97) rotate(3.63)"/>
          <g>
            <line class="cls-8" x1="434.56" y1="151.98" x2="434.47" y2="153.45"/>
            <line class="cls-5" x1="434.26" y1="156.73" x2="433.53" y2="168.25"/>
            <line class="cls-8" x1="433.42" y1="169.89" x2="433.33" y2="171.36"/>
          </g>
          <g>
            <line class="cls-8" x1="362.24" y1="166.85" x2="363.71" y2="166.95"/>
            <line class="cls-7" x1="366.67" y1="167.13" x2="430.38" y2="171.17"/>
            <polyline class="cls-8" points="431.86 171.27 433.33 171.36 433.24 172.83"/>
            <line class="cls-5" x1="433.03" y1="176.12" x2="432.3" y2="187.63"/>
            <line class="cls-8" x1="432.2" y1="189.27" x2="432.1" y2="190.74"/>
          </g>
          <g>
            <line class="cls-8" x1="361.78" y1="186.1" x2="363.25" y2="186.19"/>
            <line class="cls-10" x1="366.18" y1="186.39" x2="429.17" y2="190.55"/>
            <polyline class="cls-8" points="430.63 190.65 432.1 190.74 432.01 192.21"/>
            <line class="cls-5" x1="431.8" y1="195.5" x2="431.07" y2="207.01"/>
            <line class="cls-8" x1="430.97" y1="208.66" x2="430.87" y2="210.13"/>
          </g>
          <g>
            <line class="cls-8" x1="361" y1="205.7" x2="362.47" y2="205.79"/>
            <line class="cls-4" x1="365.38" y1="205.98" x2="427.95" y2="209.94"/>
            <polyline class="cls-8" points="429.4 210.03 430.87 210.13 430.78 211.6"/>
            <line class="cls-5" x1="430.57" y1="214.88" x2="429.84" y2="226.4"/>
            <polyline class="cls-8" points="429.74 228.04 429.65 229.51 428.18 229.42"/>
            <line class="cls-3" x1="425.17" y1="229.23" x2="360.59" y2="225.13"/>
            <line class="cls-8" x1="359.09" y1="225.04" x2="357.62" y2="224.95"/>
          </g>
        </g>
      </g>
      <g>
        <path class="cls-15" d="M361.11,148.18l4.14.26-.08,1.26-2.65-.17-.08,1.33,2.25.14-.08,1.25-2.25-.14-.1,1.52,2.75.17-.08,1.26-4.24-.27.42-6.61Z"/>
        <path class="cls-15" d="M366.67,148.53l1.87.12c2.02.13,3.25,1.21,3.11,3.48-.14,2.27-1.51,3.25-3.44,3.13l-1.95-.12.42-6.61ZM368.1,154.04c1.12.07,1.91-.43,2.01-2.01s-.62-2.11-1.74-2.19l-.28-.02-.26,4.2.28.02Z"/>
      </g>
      <g>
        <path class="cls-15" d="M382.47,150.06l-1.78-.11.08-1.23,5.04.32-.08,1.23-1.78-.11-.33,5.25-1.47-.09.33-5.25Z"/>
        <path class="cls-15" d="M386.82,149.1l1.46.09-.16,2.5,2.24.14.16-2.5,1.47.09-.41,6.49-1.47-.09.17-2.71-2.24-.14-.17,2.71-1.46-.09.41-6.49Z"/>
        <path class="cls-15" d="M393.27,153l.22-3.48,1.47.09-.23,3.63c-.08,1.27.29,1.74,1.02,1.78s1.17-.37,1.25-1.64l.23-3.63,1.41.09-.22,3.48c-.14,2.18-1.08,3.07-2.75,2.96-1.68-.11-2.54-1.11-2.4-3.29Z"/>
        <path class="cls-15" d="M400.15,149.94l2.34.15c1.37.09,2.47.64,2.37,2.18-.06.96-.56,1.53-1.27,1.8l1.31,2.69-1.64-.1-1.1-2.42-.81-.05-.15,2.34-1.46-.09.41-6.49ZM402.18,153.07c.77.05,1.2-.25,1.25-.89s-.36-.88-1.13-.93l-.76-.05-.11,1.82.76.05Z"/>
      </g>
      <g>
        <path class="cls-15" d="M416.84,151.15l4.09.26-.08,1.23-2.63-.17-.09,1.5,2.25.14-.08,1.23-2.25-.14-.16,2.52-1.46-.09.41-6.49Z"/>
        <path class="cls-15" d="M422.06,151.48l2.34.15c1.37.09,2.47.64,2.37,2.18-.06.96-.56,1.53-1.27,1.8l1.31,2.69-1.64-.1-1.1-2.42-.81-.05-.15,2.34-1.46-.09.41-6.49ZM424.09,154.61c.77.05,1.2-.25,1.25-.89.04-.64-.36-.88-1.13-.93l-.76-.05-.11,1.82.76.05Z"/>
        <path class="cls-15" d="M428.16,151.87l1.46.09-.41,6.49-1.46-.09.41-6.49Z"/>
      </g>
    </g>
  </g>
</svg>