<?xml version="1.0" encoding="UTF-8"?>
<svg id="Layer_1" data-name="Layer 1" xmlns="http://www.w3.org/2000/svg" viewBox="0 0 700 395">
  <defs>
    <style>
      .cls-1 {
        fill: #a1b9c6;
        opacity: .7;
      }

      .cls-2 {
        fill: #32373f;
      }

      .cls-3 {
        fill: #efedea;
      }
    </style>
  </defs>
  <rect class="cls-3" x=".08" width="700" height="395"/>
  <g>
    <g>
      <path class="cls-2" d="M350.08,72c34.51,0,62.5,27.98,62.5,62.5s-27.99,62.5-62.5,62.5-62.5,27.98-62.5,62.5,27.99,62.5,62.5,62.5c-69.04,0-125-55.96-125-125s55.96-125,125-125Z"/>
      <path class="cls-1" d="M350.08,322c-34.51,0-62.5-27.98-62.5-62.5s27.99-62.5,62.5-62.5,62.5-27.99,62.5-62.5-27.99-62.5-62.5-62.5c69.04,0,125,55.96,125,125s-55.96,125-125,125Z"/>
    </g>
    <path class="cls-3" d="M401.19,178.03c0,36.42-51.63,65.94-51.63,65.94,0,0-51.63-29.52-51.63-65.94,0-15.46,12.53-28,28-28,9.95,0,18.67,5.21,23.63,13.03,4.96-7.82,13.68-13.03,23.63-13.03,15.47,0,28,12.54,28,28Z"/>
  </g>
</svg>