<?xml version="1.0" encoding="UTF-8"?>
<svg id="Layer_1" data-name="Layer 1" xmlns="http://www.w3.org/2000/svg" viewBox="0 0 700 395">
  <defs>
    <style>
      .cls-1 {
        fill: none;
      }

      .cls-2 {
        opacity: .8;
      }

      .cls-2, .cls-3 {
        fill: #32373f;
      }

      .cls-4 {
        fill: #efedea;
      }
    </style>
  </defs>
  <rect class="cls-4" width="700" height="395"/>
  <g>
    <g>
      <g>
        <circle class="cls-4" cx="146.22" cy="197.5" r="50"/>
        <ellipse class="cls-2" cx="138.6" cy="223.94" rx="7.62" ry="6.21"/>
        <ellipse class="cls-3" cx="126.87" cy="193.4" rx="7.75" ry="10.01"/>
        <ellipse class="cls-3" cx="165.57" cy="193.4" rx="7.75" ry="10.01"/>
      </g>
      <path class="cls-3" d="M114.72,185.45c-1.2,0-2.35-.7-2.86-1.87-.69-1.58.04-3.41,1.61-4.1l26.87-11.68c1.58-.69,3.41.04,4.1,1.61.69,1.58-.04,3.41-1.61,4.1l-26.87,11.68c-.4.18-.83.26-1.24.26Z"/>
      <path class="cls-3" d="M178.67,177.21c-.41,0-.84-.08-1.24-.26l-26.87-11.68c-1.58-.69-2.3-2.52-1.61-4.1.69-1.58,2.52-2.3,4.1-1.61l26.87,11.68c1.58.69,2.3,2.52,1.61,4.1-.51,1.17-1.65,1.87-2.86,1.87Z"/>
    </g>
    <g>
      <g>
        <circle class="cls-4" cx="553.78" cy="197.5" r="50"/>
        <path class="cls-1" d="M503.78,197.5c0-27.61,22.39-50,50-50s50,22.39,50,50-22.39,50-50,50"/>
        <ellipse class="cls-3" cx="534.31" cy="201.96" rx="6.2" ry="7.35"/>
        <ellipse class="cls-3" cx="573.25" cy="201.96" rx="6.2" ry="7.35"/>
      </g>
      <path class="cls-2" d="M543.1,229.29c6.34-4.58,13.8-4.97,21.37.03.87.58,1.99-.53,1.8-1.56-1.07-5.93-6.26-10.42-12.49-10.42s-11.4,4.48-12.49,10.39c-.19,1.03.95,2.17,1.8,1.56Z"/>
      <path class="cls-3" d="M562.73,201.07c-.92,0-1.73-.65-1.91-1.59-.2-1.06.5-2.07,1.55-2.27.12-.02,11.76-2.25,20.4-7.41.92-.55,2.12-.25,2.67.67.55.92.25,2.12-.67,2.67-9.25,5.53-21.17,7.8-21.68,7.9-.12.02-.24.03-.36.03Z"/>
      <path class="cls-3" d="M545.3,201.07c-.12,0-.24-.01-.36-.03-.5-.09-12.43-2.37-21.68-7.9-.92-.55-1.22-1.75-.67-2.67.55-.92,1.75-1.22,2.67-.67,8.66,5.18,20.28,7.39,20.39,7.41,1.06.2,1.75,1.21,1.55,2.27-.17.94-.99,1.59-1.91,1.59Z"/>
    </g>
    <g>
      <circle class="cls-4" cx="417.93" cy="197.5" r="50"/>
      <path class="cls-3" d="M392.93,212.73c-.59,0-1.15-.34-1.41-.91-.36-.78.13-1.48.77-2.06,2.78-2.5,9.34-6.02,13.17-6.2-2.81-2.64-9.85-5.01-13.25-5.87-.83-.21-1.05-1.34-.65-2.1.4-.76,1.29-.94,2.1-.65,4.04,1.47,11.98,5.16,15.13,7.98.44.4.85.83.83,1.42-.02.59-.32,1.37-.91,1.37-4.44.02-11.79,4.41-15.13,6.88-.18.14-.43.14-.64.14Z"/>
      <path class="cls-3" d="M443.28,212.73c.59,0,1.15-.34,1.41-.91.36-.78-.13-1.48-.77-2.06-2.78-2.5-9.34-6.02-13.17-6.2,2.81-2.64,9.85-5.01,13.25-5.87.83-.21,1.05-1.34.65-2.1-.4-.76-1.29-.94-2.1-.65-4.04,1.47-11.98,5.16-15.13,7.98-.44.4-.85.83-.83,1.42.02.59.32,1.37.91,1.37,4.44.02,11.79,4.41,15.13,6.88.18.14.43.14.64.14Z"/>
      <path class="cls-3" d="M408.88,201.24c-.42,0-.85-.14-1.2-.42l-17.51-13.87c-.84-.67-.98-1.89-.32-2.73.67-.84,1.89-.98,2.73-.32l17.51,13.87c.84.67.98,1.89.32,2.73-.38.48-.95.74-1.52.74Z"/>
      <path class="cls-3" d="M426.97,201.24c-.57,0-1.14-.25-1.52-.74-.67-.84-.52-2.06.32-2.73l17.51-13.87c.84-.67,2.06-.52,2.73.32.67.84.52,2.06-.32,2.73l-17.51,13.87c-.36.28-.78.42-1.2.42Z"/>
      <path class="cls-2" d="M433.07,220.1c-.54-.63-1.54-.77-2.23-.31l-4.26,2.85c-.69.46-1.76.4-2.39-.15l-4.6-3.96c-.63-.54-1.65-.54-2.28,0l-4.58,3.95c-.63.54-1.7.61-2.39.15l-4.28-2.86c-.69-.46-1.69-.32-2.23.31l-4.48,5.27c-.54.63-.38.82.34.42l3.79-2.09c.73-.4,1.8-.25,2.39.32l4.64,4.53c.59.58,1.61.64,2.27.14l4.48-3.43c.66-.5,1.73-.5,2.39,0l4.46,3.41c.66.5,1.68.44,2.27-.14l4.62-4.51c.59-.58,1.67-.73,2.39-.33l3.79,2.09c.73.4.88.21.34-.42l-4.48-5.26Z"/>
    </g>
    <g>
      <g>
        <circle class="cls-4" cx="282.07" cy="197.5" r="50"/>
        <circle class="cls-1" cx="282.07" cy="197.5" r="49.89"/>
        <path class="cls-3" d="M273.07,184.36c0,2.84-.87,5.37-2.23,7.06-1.07,1.33-2.46,2.13-3.97,2.13-3.42,0-6.19-4.11-6.19-9.19s2.77-9.19,6.19-9.19,6.19,4.11,6.19,9.19Z"/>
        <ellipse class="cls-3" cx="299.54" cy="184.36" rx="6.19" ry="9.19"/>
      </g>
      <path class="cls-2" d="M261.64,207.46c11.89,3.98,26.02,4.76,40.87-.06,1.9-.62,3.8,1.01,3.44,2.98-2.05,11.34-11.96,19.93-23.89,19.93s-21.8-8.57-23.88-19.87c-.36-1.97,1.55-3.61,3.45-2.98Z"/>
    </g>
  </g>
</svg>