<?xml version="1.0" encoding="UTF-8"?>
<svg id="Layer_1" data-name="Layer 1" xmlns="http://www.w3.org/2000/svg" viewBox="0 0 700 395">
  <defs>
    <style>
      .cls-1 {
        fill: #efedea;
      }

      .cls-2 {
        fill: #8a64b5;
      }
    </style>
  </defs>
  <rect class="cls-1" width="700" height="395"/>
  <g>
    <circle class="cls-2" cx="350" cy="196.11" r="125"/>
    <g>
      <path class="cls-1" d="M340.33,228.58c-30.64-4.67-54.19-31.2-54.19-63.13,0-35.21,28.65-63.86,63.86-63.86s63.86,28.65,63.86,63.86c0,31.92-23.55,58.45-54.19,63.13h0v22.79h19.28c5.34,0,9.67,4.33,9.67,9.67s-4.33,9.67-9.67,9.67h-19.28v18.44c0,5.34-4.33,9.67-9.67,9.67s-9.67-4.33-9.67-9.67v-18.44h-19.28c-5.34,0-9.67-4.33-9.67-9.67s4.33-9.67,9.67-9.67h19.28s0-22.79,0-22.79h0ZM331.49,161.08h39.58c1.74,6,.11,16.24,0,22.13-.11,5.89-11.4,11.93-11.4,11.93v13.78h0c19.92-4.43,34.86-22.23,34.86-43.47,0-24.55-19.97-44.53-44.53-44.53s-44.52,19.98-44.52,44.53c0,21.23,14.94,39.04,34.86,43.47h0s0-13.78,0-13.78l-8.84-34.06Z"/>
      <g>
        <rect class="cls-1" x="360.35" y="144" width="11.14" height="22.66" rx="4.51" ry="4.51" transform="translate(10.18 -22.08) rotate(3.51)"/>
        <rect class="cls-1" x="348.8" y="143.39" width="11.39" height="23.48" rx="4.64" ry="4.64" transform="translate(4.01 -8.86) rotate(1.44)"/>
        <rect class="cls-1" x="337.58" y="142.69" width="11.39" height="23.48" rx="4.64" ry="4.64" transform="translate(3.99 -8.58) rotate(1.44)"/>
        <rect class="cls-1" x="325.79" y="142.69" width="11.39" height="23.48" rx="4.64" ry="4.64" transform="translate(-9.03 21.07) rotate(-3.59)"/>
        <path class="cls-1" d="M350.46,187.03s-1.36,8.11-9.86,8.11c-3.23,0-4.61-1.38-4.61-1.38l-12.9-9.22s-3.04-4.33-2.3-7.74c.74-3.41,3.5-13.46,3.5-13.46,0,0,.55-3.41,4.06-3.5,3.5-.09,17.79.37,17.79.37,0,0,2.67.09,2.76,3.41.09,3.32-1.57,3.78-1.57,3.78l-11.76,5.25-1.97-1.94"/>
      </g>
    </g>
  </g>
</svg>