<?xml version="1.0" encoding="UTF-8"?>
<svg id="Layer_1" data-name="Layer 1" xmlns="http://www.w3.org/2000/svg" viewBox="0 0 700 395">
  <defs>
    <style>
      .cls-1 {
        fill: #de5b48;
      }

      .cls-2 {
        fill: #efedea;
      }

      .cls-3 {
        fill: #dbc8a2;
      }

      .cls-4 {
        fill: #f7edda;
      }
    </style>
  </defs>
  <rect class="cls-2" x="0" width="700" height="395"/>
  <g>
    <path class="cls-1" d="M428.91,243.12c0,43.84-35.54,79.38-79.38,79.38s-79.38-35.54-79.38-79.38,79.38-170.62,79.38-170.62c0,0,79.38,126.79,79.38,170.62Z"/>
    <path class="cls-4" d="M384.34,165l.33,115.37c-.23.61-.95,1.32-1.77,1.46h1.69s.03-.01.03-.01c1.62,0,2.57-1.13,2.56-2.97h0l-.32-112.59c0-1.83-.96-2.96-2.58-2.95h-.02s-1.72,0-1.72,0c.77.21,1.79,1.07,1.79,1.7"/>
    <path class="cls-3" d="M310.94,166.48l.32,112.59c0,1.84.96,2.96,2.58,2.95h1.72c-.82-.13-1.54-.84-1.78-1.44h0l-.33-115.37c0-.62,1.01-1.49,1.78-1.71h-1.74c-1.38,0-2.28.84-2.5,2.22h0c-.04.24-.06.49-.06.76"/>
    <path class="cls-2" d="M313.45,165.2l.33,115.37c.24.6.95,1.32,1.77,1.45h3.43s1.34.18,1.69-1h0c.27-1.04,1.44-1.9,2.91-1.9h0c1.61,0,2.92.91,2.92,2.09h0l.02,8.17c.03,2.12,1.33,3.08,3.45,3.07h0l38.57-.11c2.12,0,3.41-.97,3.43-3.09h0l-.02-8.16c0-1.18,1.3-2.1,2.91-2.1h0c1.46,0,2.64.85,2.92,1.88h0c.36,1.18,1.69.99,1.69.99h0l5.13-.03h-1.69c.82-.12,1.53-.84,1.77-1.45h0l-.33-115.37c0-.62-1.02-1.48-1.79-1.7h1.72s-5.14,0-5.14,0c0,0-1.34-.18-1.69,1h0c-.27,1.04-1.44,1.89-2.91,1.9h0c-1.61,0-2.91-.91-2.92-2.09h0l-.02-8.17c-.03-2.12-1.33-3.08-3.45-3.07h0l-38.57.11c-2.12,0-3.41.97-3.43,3.09h0l.02,8.17c0,1.18-1.3,2.1-2.91,2.1h0c-1.46,0-2.64-.85-2.92-1.88h0c-.36-1.18-1.69-.99-1.69-.99h0l-3.41.02c-.73.2-1.67.99-1.78,1.6h0s0,.07,0,.11"/>
    <path class="cls-1" d="M346.04,179c-1.5-.17-2.83-.47-3.9-.89h0c-1.64-.64-2.65-1.55-2.66-2.68h0c0-2.5,4.26-3.76,9.53-3.77h0c5.27-.01,9.54,1.22,9.55,3.72h0c0,1.92-2.44,3.08-5.9,3.54h0c-1.3.14-1.57,1.19-.58,2.46h0c1.75,2.26,6.06,5.38,6.03,6.41h0c.04,1.04-4.04,5-6.28,6.76v4.5c0,.07,0,.14-.02.22l-.96,6.87c6.14.62,9.91,5.95,9.91,11.37s-3.79,9.87-8.84,10.96h0s0,4.01,0,4.01h4.33v3.99h-4.33v3.93s-1.72-.01-1.72-.01l1.78,9.28c.01.46-.08.88.3,1.17h0c2.25,1.76,6.06,5.37,6.03,6.42h0c.04,1.04-4.25,4.18-5.99,6.45h0c-.98,1.27-.7,2.32.6,2.46h0c3.47.44,5.92,1.59,5.92,3.51h0c0,2.5-4.26,3.76-9.53,3.77h0c-5.27.02-9.54-1.22-9.55-3.72h0c0-1.12,1-2.04,2.64-2.69h0c1.07-.42,2.4-.73,3.9-.91h0c1.3-.14,1.57-1.19.58-2.46h0c-.78-1-2.06-2.17-3.24-3.25h0c-1.48-1.36-2.81-2.58-2.79-3.16h0c-.04-1.04,3.86-4.55,5.99-6.45h0c.3-.26.46-.61.43-.96l1.68-9.45h-1.76s-.01-3.93-.01-3.93h-4.33v-3.99h4.33v-4.01h0c-5.05-1.08-8.84-5.58-8.84-10.96s4.09-10.68,10.13-11.27l-1.19-6.76c-.03-.14-.04-.29-.04-.44l.02-4.32c-2.14-1.88-6.64-5.79-6.61-6.83h0c-.02-.58,1.3-1.81,2.77-3.18h0c1.18-1.09,2.45-2.27,3.22-3.27h0c.32-.42.51-.82.57-1.16h0c.12-.7-.29-1.2-1.16-1.29M349.54,209.23c-4.65,0-8.42,3.77-8.42,8.42s3.77,8.42,8.42,8.42,8.42-3.77,8.42-8.42-3.77-8.42-8.42-8.42Z"/>
  </g>
</svg>