<?xml version="1.0" encoding="UTF-8"?>
<svg id="Layer_1" data-name="Layer 1" xmlns="http://www.w3.org/2000/svg" viewBox="0 0 700 395">
  <defs>
    <style>
      .cls-1 {
        fill: #eeece9;
      }

      .cls-2 {
        fill: #6a4537;
      }

      .cls-3 {
        fill: #f1a543;
      }

      .cls-4 {
        fill: #a16d53;
      }

      .cls-5 {
        fill: #3b424a;
      }

      .cls-6 {
        fill: #d8d8d8;
        mix-blend-mode: multiply;
      }

      .cls-6, .cls-7 {
        isolation: isolate;
      }

      .cls-8 {
        fill: #e5bb56;
      }

      .cls-9 {
        fill: #7e5242;
      }

      .cls-10 {
        fill: #915e45;
      }

      .cls-11 {
        fill: #9a6550;
      }
    </style>
  </defs>
  <g class="cls-7">
    <g id="Layer_1-2" data-name="Layer 1">
      <rect class="cls-1" x="0" y=".1" width="700" height="395"/>
      <g>
        <path class="cls-6" d="M114.6,318.2c0,7.4,116.2,3.2,242.3,3.2s228.4,4.2,228.4-3.2-102.2-12.7-228.4-12.7-242.3,5.3-242.3,12.7Z"/>
        <g>
          <g>
            <g>
              <path class="cls-8" d="M402.8,214.6l67.8-36.6c3.7-2,5-6.6,3.1-10.2l-29.4-54.5c-2-3.7-6.6-5-10.2-3.1l-67.8,36.6c-3.7,2-5,6.6-3.1,10.2l29.4,54.5c2,3.7,6.6,5,10.2,3.1h0Z"/>
              <path class="cls-3" d="M392.6,211.6l-29.4-54.5c-2-3.7-.6-8.3,3.1-10.2l27.3-14.7c3.7-2,8.3-.6,10.2,3.1l29.4,54.5c2,3.7.6,8.3-3.1,10.2l-27.3,14.7c-3.7,2-8.3.6-10.2-3.1h0Z"/>
              <path class="cls-11" d="M353,144.6l86.4-46.7c3.7-2,5-6.6,3.1-10.2l-5-9.3c-2-3.7-6.6-5-10.2-3.1l-86.4,46.7c-3.7,2-5,6.6-3.1,10.2l5,9.3c2,3.7,6.6,5,10.2,3.1h0Z"/>
              <path class="cls-2" d="M424.5,76.8s-.6-1.2-1.4-2.6-2.6-2-4.1-1.2l-75.8,40.9c-1.5.8-2,2.6-1.2,4.1l1.4,2.6,81.1-43.8h0Z"/>
              <path class="cls-2" d="M417.5,251.4l75.8-40.9c1.5-.8,2-2.6,1.2-4.1l-1.4-2.6-81.1,43.8s.6,1.2,1.4,2.6c.8,1.4,2.6,2,4.1,1.2h0Z"/>
              <path class="cls-11" d="M397.2,226.5l86.4-46.7c3.7-2,8.3-.6,10.2,3.1l5,9.3c2,3.7.6,8.3-3.1,10.2l-86.4,46.7c-3.7,2-8.3.6-10.2-3.1l-5-9.3c-2-3.7-.6-8.3,3.1-10.2h0Z"/>
              <rect class="cls-11" x="360.42" y="124.08" width="77.1" height="4.3" transform="translate(-12.02 204.95) rotate(-28.4)"/>
              <rect class="cls-9" x="358.44" y="120.77" width="77.1" height="3.9" transform="translate(-10.59 203.59) rotate(-28.4)"/>
              <rect class="cls-9" x="400.88" y="199.15" width="77.1" height="3.9" transform="translate(-42.76 233.21) rotate(-28.4)"/>
              <rect class="cls-9" x="398.99" y="195.87" width="77.1" height="3.9" transform="translate(-41.43 231.91) rotate(-28.4)"/>
              <path class="cls-10" d="M389.5,124.9l-36.6,19.7c-3.7,2-8.3.6-10.2-3.1l-5-9.3c-2-3.7-.6-8.3,3.1-10.2l36.6-19.7c3.7-2,8.3-.6,10.2,3.1l5,9.3c2,3.7.6,8.3-3.1,10.2h0Z"/>
              <path class="cls-10" d="M445.9,229.3l-36.6,19.7c-3.7,2-8.3.6-10.2-3.1l-5-9.3c-2-3.7-.6-8.3,3.1-10.2l36.6-19.7c3.7-2,8.3-.6,10.2,3.1l5,9.3c2,3.7.6,8.3-3.1,10.2h0Z"/>
              <path class="cls-9" d="M358.8,141.4l3.4-1.8,1.8,3.4c-1-1.9-3.4-2.6-5.3-1.6h.1Z"/>
              <path class="cls-9" d="M433.5,101.1l-3.4,1.8,1.8,3.4c-1-1.9-.3-4.2,1.6-5.3h0v.1Z"/>
              <path class="cls-9" d="M403,223.3l3.4-1.8-1.8-3.4c1,1.9.3,4.2-1.6,5.3v-.1Z"/>
              <path class="cls-9" d="M477.7,183l-3.4,1.8-1.8-3.4c1,1.9,3.4,2.6,5.3,1.6h-.1Z"/>
              <rect class="cls-10" x="358.28" y="179.76" width="14.5" height="21.9" transform="translate(-46.72 196.81) rotate(-28.4)"/>
              <rect class="cls-9" x="361.94" y="194.67" width="14.5" height="6" transform="translate(-49.58 199.38) rotate(-28.4)"/>
              <path class="cls-10" d="M166.4,314.3l198-110.3-10.4-19.3-200.8,105c-14.8,7.7-18.4,16.8-14.6,23.8,3.8,7,13.3,8.9,27.9.8h-.1Z"/>
              <path class="cls-9" d="M163.5,309.1l198-110.3,2.8,5.3-198,110.3c-14.6,8.1-24.1,6.2-27.9-.8-.5-.9-.8-1.8-1.1-2.8,4.6,4.9,13.4,5.4,26.1-1.7h.1Z"/>
              <path class="cls-9" d="M139,301.7c.1.3.2.5.4.8,4.5,8.4,14.9,11.5,23.3,7l3.3,5.1c-14.3,7.8-23.7,5.9-27.5-1-1.9-3.6-1.9-7.6.5-11.8h0v-.1Z"/>
              <path class="cls-4" d="M368.4,181.2s-13.6,7.4-34,18.6c-10.2,5.5-22.1,12-34.9,18.8s-26.4,14.1-40.1,21.4c-13.7,7.2-27.4,14.5-40.2,21.3-12.8,6.8-24.9,13-35.1,18.4-5.2,2.7-9.9,5.1-14.1,7.3-.5.2-1,.5-1.5.7-.5.3-1,.5-1.5.8-1,.5-2,1-2.9,1.5-1.8,1-3.5,2-5,3-3,1.9-5.2,3.7-6.6,5.2-.4.4-.7.7-1,1s-.5.6-.7.8c-.4.4-.5.6-.5.6-1.1,1.3-.9,3.2.4,4.3,1.3,1.1,3.2.9,4.3-.4h0l.2-.2s.1-.2.4-.5c.1-.2.3-.3.4-.6.2-.2.4-.5.7-.8,1.1-1.2,2.9-2.8,5.6-4.7,1.3-.9,2.8-1.9,4.5-3,.8-.5,1.7-1,2.7-1.6.5-.3.9-.5,1.4-.8s1-.6,1.6-.8c4.1-2.3,8.8-4.9,13.8-7.8,10.2-5.6,22-12.3,34.7-19.3s26.3-14.5,39.8-21.9c13.6-7.4,27.2-14.8,39.9-21.8,12.8-6.9,24.7-13.3,34.9-18.8,20.5-10.9,34.1-18.2,34.1-18.2.7-.4,1-1.3.6-2s-1.3-1-2-.6h0l.1.1Z"/>
              <rect class="cls-9" x="371.45" y="161.13" width="6.8" height="49" transform="translate(-43.17 200.63) rotate(-28.4)"/>
            </g>
            <g>
              <path class="cls-2" d="M371.1,288.1v-9.8c0-5.4,6.8-9.8,15.1-9.8h145.1c8.3,0,15.1,4.4,15.1,9.8v9.8h-175.3Z"/>
              <path class="cls-10" d="M348.5,305.7v-10.3c0-7.4,6.8-13.3,15.1-13.3h190.4c8.3,0,15.1,6,15.1,13.3v10.3c0,1.7-1.4,3-3,3h-214.6c-1.7,0-3-1.4-3-3h0Z"/>
              <path class="cls-2" d="M342.8,318.2v-4.7c0-2.6,3.4-4.7,7.6-4.7h216.9c4.2,0,7.6,2.1,7.6,4.7v4.7h-232.1Z"/>
              <path class="cls-9" d="M567.2,308.7h-108.5v9.5h116v-4.7c0-2.6-3.4-4.7-7.6-4.7h0l.1-.1Z"/>
              <path class="cls-9" d="M531.3,268.5h-72.5v19.6h87.6v-9.8c0-5.4-6.8-9.8-15.1-9.8h0Z"/>
              <path class="cls-11" d="M554,282.1h-95.2v26.7h107.3c1.7,0,3-1.4,3-3v-10.3c0-7.4-6.8-13.3-15.1-13.3h0v-.1Z"/>
            </g>
          </g>
          <g>
            <g>
              <path class="cls-5" d="M514.6,213.6c1.4,0,2.6-.9,3.1-2.2h0c.5-1.8-.4-3.6-2.1-4.2-1.7-.6-3.5.4-4.1,2.1-.5,1.7.4,3.6,2.1,4.1.3.1.7.2,1,.2h0Z"/>
              <path class="cls-5" d="M519.2,199c1.4,0,2.7-.9,3.1-2.3l4.7-14.7c.5-1.7-.4-3.6-2.1-4.1-1.7-.5-3.6.4-4.1,2.1l-4.7,14.7c-.3.8-.2,1.7.2,2.5s1.1,1.4,1.9,1.6c.3.1.7.2,1,.2h0Z"/>
            </g>
            <g>
              <path class="cls-5" d="M537.9,226.1c1,1,2.5,1.2,3.8.6h0c1.6-.9,2.2-2.8,1.4-4.4-.8-1.6-2.8-2.2-4.4-1.4-1.6.8-2.2,2.8-1.4,4.4.2.3.4.6.6.8h0Z"/>
              <path class="cls-5" d="M551.4,219c1,1,2.5,1.2,3.8.6l13.6-7.1c1.6-.8,2.2-2.8,1.4-4.4-.8-1.6-2.8-2.2-4.4-1.4l-13.7,7.1c-.8.4-1.3,1.1-1.6,1.9-.3.8-.2,1.7.2,2.5.2.3.4.6.6.8h.1Z"/>
            </g>
            <g>
              <path class="cls-5" d="M545.6,251.4c0,1.4.9,2.6,2.3,3h0c1.7.5,3.5-.4,4.1-2.2.5-1.7-.4-3.5-2.2-4.1-1.7-.5-3.6.4-4.1,2.2-.1.3-.2.7-.1,1h0v.1Z"/>
              <path class="cls-5" d="M560.3,255.9c0,1.4,1,2.7,2.3,3.1l14.7,4.5c1.7.5,3.6-.4,4.1-2.2.5-1.7-.5-3.6-2.2-4.1l-14.7-4.5c-.8-.3-1.7-.2-2.5.2s-1.3,1.1-1.6,1.9c-.1.3-.1.7-.1,1v.1Z"/>
            </g>
          </g>
        </g>
      </g>
    </g>
  </g>
</svg>