<?xml version="1.0" encoding="UTF-8"?>
<svg id="Layer_1" data-name="Layer 1" xmlns="http://www.w3.org/2000/svg" xmlns:xlink="http://www.w3.org/1999/xlink" viewBox="0 0 700 395">
  <defs>
    <style>
      .cls-1 {
        fill: none;
      }

      .cls-2 {
        fill: #de5b48;
      }

      .cls-3 {
        fill: #264e87;
      }

      .cls-4 {
        fill: #e8853a;
      }

      .cls-5 {
        fill: #16a992;
      }

      .cls-6 {
        fill: #efedea;
      }

      .cls-7 {
        fill: #8a64b5;
      }

      .cls-8 {
        fill: #f1c346;
      }

      .cls-9 {
        clip-path: url(#clippath);
      }
    </style>
    <clipPath id="clippath">
      <path class="cls-1" d="M99.5,323c0-138.07,111.93-250,250-250s250,111.93,250,250h-145.93c0-56.51-45.81-102.33-102.33-102.33s-102.33,45.81-102.33,102.33H99.5Z"/>
    </clipPath>
  </defs>
  <rect class="cls-6" width="700" height="395"/>
  <g class="cls-9">
    <path class="cls-2" d="M99.5,323c0-138.07,111.93-250,250-250s250,111.93,250,250M568.1,323c0-120.73-97.87-218.6-218.6-218.6s-218.6,97.87-218.6,218.6"/>
    <path class="cls-4" d="M130.9,323c0-120.73,97.87-218.6,218.6-218.6s218.6,97.87,218.6,218.6M536.71,323c0-102.75-83.3-186.05-186.05-186.05s-186.05,83.3-186.05,186.05"/>
    <path class="cls-8" d="M164.62,323c0-102.75,83.3-186.05,186.05-186.05s186.05,83.3,186.05,186.05M510.55,323c0-87.98-71.32-159.3-159.3-159.3s-159.3,71.32-159.3,159.3"/>
    <path class="cls-5" d="M191.94,323c0-87.98,71.32-159.3,159.3-159.3s159.3,71.32,159.3,159.3M489.62,323c0-76.42-61.95-138.37-138.37-138.37s-138.37,61.95-138.37,138.37"/>
    <path class="cls-3" d="M212.87,323c0-76.42,61.95-138.37,138.37-138.37s138.37,61.95,138.37,138.37M468.69,323c0-64.86-52.58-117.44-117.44-117.44s-117.44,52.58-117.44,117.44"/>
    <path class="cls-7" d="M233.8,323c0-64.86,52.58-117.44,117.44-117.44s117.44,52.58,117.44,117.44M453.57,323c0-56.51-45.81-102.33-102.33-102.33s-102.33,45.81-102.33,102.33"/>
  </g>
</svg>