<?xml version="1.0" encoding="UTF-8"?>
<svg id="Layer_1" data-name="Layer 1" xmlns="http://www.w3.org/2000/svg" viewBox="0 0 700 395">
  <defs>
    <style>
      .cls-1 {
        fill: #a1b9c6;
        opacity: .7;
      }

      .cls-2 {
        fill: #32373f;
      }

      .cls-3 {
        fill: #efedea;
      }
    </style>
  </defs>
  <rect class="cls-3" width="700" height="395"/>
  <g>
    <path class="cls-1" d="M350,72.5c34.52,0,62.5,27.98,62.5,62.5s-27.99,62.5-62.5,62.5-62.5,27.98-62.5,62.5,27.99,62.5,62.5,62.5c69.04,0,125-55.96,125-125s-55.96-125-125-125ZM372.03,277.64c-2.37,3.2-6.17,5.27-10.45,5.27s-7.93-1.99-10.31-5.09c-2.2,2.5-5.42,4.09-9.02,4.09s-6.96-1.65-9.16-4.25h-4.43c-5.75,0-10.46-4.71-10.46-10.46s4.67-10.42,10.39-10.46c-.1-.57-.16-1.16-.16-1.76,0-5.56,4.51-10.07,10.07-10.07,1.23,0,2.4.22,3.49.62.25-2.69,2.51-4.8,5.27-4.8,1.94,0,3.63,1.05,4.55,2.6,2.72-1.92,6.03-3.05,9.61-3.05,9.22,0,16.69,7.47,16.69,16.69,0,.73-.05,1.45-.14,2.15,2.33,1.92,3.83,4.83,3.83,8.07,0,5.52-4.34,10.08-9.77,10.44Z"/>
    <path class="cls-2" d="M350,72.5c-69.04,0-125,55.96-125,125s55.96,125,125,125c-34.51,0-62.5-27.98-62.5-62.5s27.99-62.5,62.5-62.5,62.5-27.99,62.5-62.5-27.99-62.5-62.5-62.5ZM350,152.02s-23.43-13.39-23.43-29.92c0-7.02,5.69-12.7,12.7-12.7,4.51,0,8.47,2.36,10.72,5.91,2.25-3.55,6.21-5.91,10.72-5.91,7.02,0,12.71,5.69,12.71,12.7,0,16.52-23.43,29.92-23.43,29.92Z"/>
  </g>
</svg>