<?xml version="1.0" encoding="UTF-8"?>
<svg id="Layer_1" data-name="Layer 1" xmlns="http://www.w3.org/2000/svg" viewBox="0 0 700 395">
  <defs>
    <style>
      .cls-1 {
        fill: #a1b9c6;
        opacity: .7;
      }

      .cls-2 {
        fill: #32373f;
      }

      .cls-3 {
        fill: #efedea;
      }
    </style>
  </defs>
  <rect class="cls-3" y="-.25" width="700" height="395"/>
  <g>
    <g>
      <path class="cls-2" d="M349.52,72.25c34.51,0,62.5,27.98,62.5,62.5s-27.99,62.5-62.5,62.5-62.5,27.98-62.5,62.5,27.99,62.5,62.5,62.5c-69.04,0-125-55.96-125-125s55.96-125,125-125Z"/>
      <path class="cls-1" d="M349.52,322.25c-34.51,0-62.5-27.98-62.5-62.5s27.99-62.5,62.5-62.5,62.5-27.99,62.5-62.5-27.99-62.5-62.5-62.5c69.04,0,125,55.96,125,125s-55.96,125-125,125Z"/>
    </g>
    <path class="cls-3" d="M306.56,187.63c-.2-1.14-.31-2.3-.31-3.5,0-11.02,8.94-19.96,19.96-19.96,2.43,0,4.76.44,6.91,1.23.5-5.34,4.98-9.51,10.44-9.51,3.84,0,7.19,2.07,9.02,5.16,5.39-3.8,11.95-6.04,19.04-6.04,18.27,0,33.09,14.81,33.09,33.09,0,1.45-.1,2.87-.28,4.27,4.62,3.81,7.59,9.58,7.59,16h0c0,10.95-8.6,19.98-19.37,20.68-4.69,6.34-12.22,10.45-20.71,10.45-8.33,0-15.72-3.95-20.43-10.08-4.36,4.96-10.75,8.1-17.88,8.1-7.28,0-13.79-3.27-18.15-8.42h-8.78c-11.4,0-20.73-9.33-20.73-20.73h0c0-11.36,9.26-20.66,20.6-20.73Z"/>
  </g>
</svg>