<?xml version="1.0" encoding="UTF-8"?>
<svg id="Layer_1" data-name="Layer 1" xmlns="http://www.w3.org/2000/svg" viewBox="0 0 700 395">
  <defs>
    <style>
      .cls-1, .cls-2, .cls-3, .cls-4, .cls-5, .cls-6, .cls-7, .cls-8, .cls-9, .cls-10, .cls-11, .cls-12, .cls-13, .cls-14, .cls-15 {
        fill-rule: evenodd;
      }

      .cls-1, .cls-16, .cls-17 {
        fill: #fff;
      }

      .cls-18 {
        fill: #c2e7f2;
      }

      .cls-2 {
        fill: #d4a15e;
      }

      .cls-3 {
        fill: #ffcc05;
      }

      .cls-4 {
        fill: #4d2213;
      }

      .cls-16 {
        opacity: .2;
      }

      .cls-17 {
        opacity: .3;
      }

      .cls-19 {
        fill: #70432a;
      }

      .cls-5 {
        fill: #ebb967;
      }

      .cls-6 {
        fill: #f9ca14;
      }

      .cls-20 {
        fill: #efedea;
      }

      .cls-8 {
        fill: #f1d18f;
      }

      .cls-21, .cls-13 {
        fill: #44210f;
      }

      .cls-9 {
        fill: #f16622;
      }

      .cls-10 {
        fill: #f8ef6c;
      }

      .cls-11 {
        fill: #bd3a26;
      }

      .cls-12 {
        fill: #79341a;
      }

      .cls-22 {
        fill: #54301f;
      }

      .cls-14 {
        fill: #981b1e;
      }

      .cls-23 {
        fill: #59321f;
      }

      .cls-15 {
        fill: #a34725;
      }
    </style>
  </defs>
  <rect class="cls-20" width="700" height="395"/>
  <g>
    <g>
      <path class="cls-18" d="M621.57,216.4c5.48,72.2-40.75,134.57-103.25,139.31-62.5,4.75-117.62-49.93-123.1-122.13-5.48-72.2,40.75-134.57,103.25-139.31,62.5-4.74,117.61,49.94,123.09,122.13Z"/>
      <path class="cls-19" d="M506.8,369.09c-32.28,0-63.3-14.05-87.35-39.57-23.92-25.37-38.63-59.73-41.44-96.75-2.94-38.69,7.3-76.1,28.82-105.34,21.76-29.55,52.41-47.24,86.31-49.82,2.8-.21,5.64-.32,8.43-.32,32.28,0,63.3,14.05,87.35,39.57,23.92,25.37,38.63,59.73,41.44,96.75,2.94,38.69-7.3,76.1-28.82,105.34-21.76,29.55-52.41,47.24-86.31,49.82-2.8.21-5.64.32-8.43.32ZM501.57,91.16c-2.45,0-4.93.09-7.38.28-29.81,2.26-56.87,17.96-76.19,44.21-19.56,26.56-28.85,60.68-26.16,96.07,5.26,69.25,55.76,123.5,114.97,123.5,2.45,0,4.93-.09,7.39-.28,29.81-2.26,56.87-17.96,76.19-44.21,19.56-26.56,28.85-60.68,26.16-96.07-5.26-69.25-55.76-123.5-114.97-123.5Z"/>
      <g>
        <path class="cls-7" d="M546.98,214.54c5.22-.68,10.68,1.14,14.47,5.35,3.79,4.21,5.02,9.82,3.8,14.94,5.04,1.51,9.29,5.38,11.04,10.77,1.75,5.38.59,11.01-2.6,15.19,3.99,3.43,6.3,8.7,5.71,14.33-.59,5.63-3.94,10.3-8.56,12.82,2.26,4.76,2.21,10.5-.61,15.41-2.83,4.9-7.79,7.81-13.03,8.23.13,5.26-2.25,10.5-6.83,13.83-4.58,3.33-10.29,3.96-15.26,2.22-2.02,4.86-6.32,8.68-11.86,9.85-5.54,1.18-11.01-.56-14.84-4.18-3.82,3.62-9.31,5.35-14.84,4.18-5.54-1.18-9.83-4.99-11.85-9.85-4.97,1.75-10.68,1.11-15.26-2.22-4.58-3.33-6.95-8.56-6.83-13.82-5.25-.42-10.2-3.33-13.04-8.23-2.83-4.9-2.87-10.65-.61-15.4-4.62-2.52-7.97-7.19-8.56-12.82-.59-5.63,1.71-10.9,5.7-14.32-3.2-4.18-4.35-9.81-2.6-15.2,1.75-5.38,5.99-9.26,11.04-10.76-1.22-5.12.01-10.73,3.8-14.94,3.79-4.21,9.24-6.02,14.46-5.34.97-5.17,4.38-9.8,9.55-12.1,5.17-2.3,10.89-1.74,15.38,1,.23-.34.48-.67.74-.99l.12-.15.03-.04.16-.19.07-.08.1-.11.05-.05.28-.31h0s.17-.18.17-.18l.17-.17.18-.17.15-.15.02-.02.18-.17.09-.08.09-.08.18-.16.02-.02.16-.14.14-.11.24-.2.07-.05h.01s.3-.24.3-.24h0s.28-.21.28-.21l.04-.03.08-.06c.61-.43,1.24-.81,1.9-1.15l.06-.03c1.89-.97,4-1.59,6.23-1.76h.04c.42-.03.84-.05,1.27-.05s.85.01,1.27.05h.01s.04,0,.04,0c.26.02.52.05.78.08h.02s.34.05.34.05h.07s.07.02.07.02l.25.04.08.02h.03s.38.08.38.08h.01s.36.08.36.08h.03s.11.03.11.03l.29.07.2.05.19.05.05.02.24.07.1.03.14.05.24.08h0s.23.08.23.08l.15.05.08.03.23.09.06.02.17.07.2.09h.03s.23.11.23.11l.11.05.12.05.22.11h.02s.2.11.2.11l.16.08.06.03.22.11.07.04.03.02.31.18h0s0,0,0,0l.21.13.12.07.09.05.21.13.04.03.33.22.04.03.2.14.16.12.04.03.2.15h0s.19.15.19.15l.13.1.07.05.19.15.05.04.14.11.17.14.02.02.18.16h0s.18.17.18.17l.18.17.02.02.16.15.13.13.05.05.17.17.06.06.11.12.16.18h0s.17.19.17.19l.09.11.07.08.16.19.03.04.12.15.13.16.03.04.15.19.02.02.12.16h.01s.14.21.14.21h0s.14.2.14.2c4.49-2.74,10.21-3.3,15.39-1,5.17,2.3,8.58,6.93,9.55,12.1Z"/>
        <path class="cls-7" d="M544.9,168.37c4.94-.64,10.1,1.08,13.69,5.06,3.58,3.98,4.75,9.29,3.59,14.13,4.77,1.42,8.79,5.09,10.44,10.19,1.65,5.09.56,10.42-2.46,14.37,3.78,3.24,5.96,8.22,5.4,13.55-.56,5.32-3.73,9.74-8.1,12.13,2.13,4.5,2.1,9.94-.58,14.58-2.68,4.64-7.37,7.39-12.33,7.79.12,4.98-2.12,9.93-6.46,13.08-4.33,3.15-9.74,3.75-14.43,2.1-1.91,4.6-5.98,8.21-11.22,9.32-5.24,1.11-10.42-.53-14.04-3.96-3.62,3.42-8.8,5.07-14.04,3.95-5.24-1.11-9.3-4.72-11.22-9.32-4.7,1.65-10.1,1.05-14.43-2.1-4.33-3.15-6.58-8.1-6.46-13.08-4.96-.4-9.65-3.15-12.33-7.79-2.68-4.64-2.71-10.07-.58-14.57-4.37-2.38-7.54-6.81-8.1-12.13-.56-5.33,1.62-10.31,5.4-13.55-3.02-3.96-4.12-9.28-2.46-14.38,1.66-5.09,5.67-8.76,10.44-10.18-1.15-4.84.01-10.15,3.6-14.13,3.58-3.98,8.74-5.7,13.68-5.06.92-4.89,4.14-9.27,9.03-11.45,4.89-2.18,10.3-1.65,14.55.95.22-.32.46-.63.7-.93l.12-.15.03-.03.15-.18.06-.07.09-.1.05-.05.26-.29h0s.16-.17.16-.17l.16-.16.16-.16.15-.14.02-.02.17-.16.09-.08.09-.08.17-.15.02-.02.16-.13.13-.11.23-.19.06-.05h.01s.28-.23.28-.23h0s.27-.2.27-.2l.03-.03.08-.06c.57-.4,1.17-.77,1.8-1.09l.06-.03c1.79-.92,3.78-1.5,5.89-1.67h.04c.4-.03.8-.05,1.2-.05s.8.02,1.2.04h.01s.03,0,.03,0c.25.02.49.04.73.07h.02s.32.05.32.05h.07s.07.02.07.02l.24.04h.08s.02.02.02.02l.36.07h.01s.34.08.34.08h.03s.1.03.1.03l.27.07.19.05.18.05h.05s.23.08.23.08l.09.03.13.04.23.08h0s.22.08.22.08l.14.05.08.03.22.08.06.02.16.07.19.08h.03s.22.11.22.11l.11.05.11.05.21.1h.02s.19.1.19.1l.15.08.06.03.21.11.07.04.03.02.3.16h0s0,0,0,0l.2.12.12.07.08.05.2.12.04.03.31.21.04.03.19.13.15.11.04.03.19.14h0s.18.14.18.14l.12.09.06.05.18.14.05.04.13.11.16.13.02.02.17.15h0s.17.16.17.16l.17.16.02.02.15.14.12.12.04.05.16.16.06.06.1.11.15.17h0s.16.18.16.18l.09.1.06.07.15.18.03.04.12.15.12.15.03.03.14.18v.02s.13.16.13.16h0s.14.2.14.2h0s.13.19.13.19c4.25-2.59,9.66-3.12,14.56-.95,4.89,2.18,8.12,6.56,9.03,11.45Z"/>
        <path class="cls-3" d="M553.11,341.24l-.72-15.05c-.63-12.98-9.32-23.64-20.69-23.64h-46.6c-11.37,0-20.06,10.66-20.69,23.64l-.72,15.05c13.66,6.08,28.79,9.46,44.71,9.46s31.05-3.38,44.71-9.46Z"/>
        <path class="cls-6" d="M467.97,343.04l7.4-39.72c-19.6-3.36-28.64,15.2-30.58,23.98l-.61,2.74c7.31,5.25,15.29,9.64,23.78,12.99Z"/>
        <path class="cls-6" d="M548.82,343.04l-7.4-39.72c19.6-3.36,28.64,15.2,30.58,23.98l.61,2.75c-7.31,5.25-15.29,9.64-23.79,12.99Z"/>
        <path class="cls-1" d="M548.68,303.37c.01.14.03.28.04.41.09,1.01.14,1.89.14,2.64,0,9.54-4.69,18.11-12.27,24.25-7.28,5.9-17.25,9.54-28.19,9.54s-20.91-3.65-28.19-9.54c-7.58-6.14-12.27-14.71-12.27-24.25,0-.75.05-1.63.14-2.64.01-.14.03-.28.04-.41,5.24-1.54,11-2.02,16.07-2.02h12.23v5.36h-12.23c-1.7,0-3.41.05-5.08.17l-.45.03c.17,5.97,3.3,11.43,8.29,15.47,5.43,4.4,13,7.11,21.45,7.11s16.02-2.72,21.45-7.11c4.98-4.04,8.12-9.5,8.28-15.46l-.45-.03c-1.67-.12-3.38-.17-5.08-.17h-12.24v-5.36h12.24c5.07,0,10.83.47,16.07,2.02Z"/>
        <path class="cls-15" d="M543.1,302.13c.26,1.4.4,2.83.4,4.29,0,15.71-15.71,28.44-35.1,28.44s-35.1-12.73-35.1-28.44c0-1.46.14-2.89.4-4.29,3.57-.57,7.18-.78,10.49-.78h6.88v-19.13c.11-.46.24-.9.38-1.34h33.9c.14.44.27.89.38,1.34v19.13h6.88c3.32,0,6.93.2,10.49.78Z"/>
        <path class="cls-4" d="M533.2,326.55l-42.13-42.26v-1.05l7.62-1.01c.12-.46.24-.9.38-1.34h26.28c.14.44.27.89.38,1.34v19.13h6.88c3.32,0,6.93.2,10.49.78.26,1.4.4,2.83.4,4.29,0,7.86-3.94,14.98-10.3,20.13Z"/>
        <path class="cls-15" d="M508.4,293.31c11.35,0,28.24-11.53,33.78-17.67,5.55-6.14,14.33-21.19,13.72-62.23-.61-41.04-35.81-42.16-47.5-42.42-11.68.26-46.88,1.37-47.5,42.42-.61,41.04,8.17,56.09,13.72,62.23,5.55,6.14,22.03,17.67,33.78,17.67Z"/>
        <path class="cls-12" d="M542.18,275.64c6.54-5.07,14.33-21.19,13.72-62.23-.61-41.04-35.81-42.16-47.5-42.42,0,41.55-.23,112.66,0,122.32,12.61,0,26.25-11.83,33.78-17.67Z"/>
        <path class="cls-7" d="M556.65,230.42c12.21-45.13-19.4-66-49.75-65.34-32.1.7-58.85,25.94-46.25,66.27,3.98-17.92,32.4-38.2,71.89-39.19,12.89,8.87,18.19,12.29,24.11,38.26Z"/>
        <g>
          <path class="cls-14" d="M508.4,274.39c-3.86.2-9.76-8.63-13.17-10.37-.98-.49-1.38-1.67-.9-2.65.48-.98,1.67-1.38,2.65-.9,0,0,1.06.52,2.59,1.14,1.61-.33,5.96-1.19,8.71-1.37h.05s0,0,0,0h.13s.04,0,.04,0h0c2.75.17,7.11,1.04,8.71,1.37,1.53-.62,2.58-1.14,2.59-1.14.98-.48,2.17-.08,2.65.9.49.98.08,2.17-.9,2.65-3.29,1.68-9.47,10.56-13.17,10.37Z"/>
          <path class="cls-1" d="M508.4,270.33c-3.78-.25-5.22-3.24-7.87-6.32,2.62.19,5.26.76,7.87.95,2.61-.19,5.25-.76,7.87-.95-2.65,3.08-4.09,6.07-7.87,6.32Z"/>
        </g>
        <path class="cls-15" d="M467.28,234.32c-1.05-2.73-2.35-4.64-5.74-5.35-3.39-.71-9.55,1.02-9.53,10.62.01,9.61,8.03,17.87,13.1,16.73,5.07-1.15,2.66-19.44,2.17-22Z"/>
        <path class="cls-12" d="M465.03,237.49c-.85-1.58-1.89-2.86-3.95-3.3-2.06-.43-5.04.59-5.03,6.44,0,5.85,4.12,10.9,7.2,10.2.98-.22,1.51-1.64,1.79-3.48-1.87-.55-3.03-2.74-2.64-5.1.29-1.77,1.38-3.17,2.73-3.72-.05-.65-.09-1.05-.09-1.05Z"/>
        <path class="cls-12" d="M548.76,234.38c1.4-2.59,3.11-4.71,6.5-5.42,3.39-.71,9.55,1.02,9.53,10.62-.01,9.61-8.02,17.87-13.1,16.73-5.07-1.15-2.94-21.93-2.94-21.93Z"/>
        <path class="cls-4" d="M551.77,237.49c.85-1.58,1.89-2.86,3.96-3.3,2.06-.43,5.04.59,5.03,6.44,0,5.85-4.12,10.9-7.2,10.2-.97-.22-1.51-1.64-1.79-3.48,1.87-.55,3.03-2.74,2.64-5.1-.29-1.77-1.38-3.17-2.73-3.72.05-.65.09-1.05.09-1.05Z"/>
        <path class="cls-7" d="M530.77,231.77c.37,0,.74.05,1.08.15l.76-1.45c.19-.37.65-.51,1.02-.32.37.2.51.65.32,1.02l-.76,1.44.02.02,1.25-.95c.33-.25.81-.19,1.06.14.25.33.19.8-.14,1.06l-1.2.91h0s1.6-.38,1.6-.38c.41-.1.81.15.91.55.1.4-.15.81-.55.91l-1.5.36c.01.13.02.27.02.41,0,2.15-1.74,3.88-3.88,3.88s-3.88-1.74-3.88-3.88,1.74-3.88,3.88-3.88Z"/>
        <path class="cls-7" d="M528.41,223.69c-1.11.04-2.05-.82-2.09-1.93-.04-1.11.82-2.04,1.93-2.09.01,0,3.71-.16,7.57,1.26,1.04.38,1.58,1.54,1.2,2.59-.38,1.04-1.54,1.58-2.59,1.2-3.12-1.15-6.01-1.03-6.02-1.03Z"/>
        <path class="cls-7" d="M486.03,231.77c-.37,0-.73.05-1.08.15l-.76-1.45c-.19-.37-.65-.51-1.02-.32-.37.2-.51.65-.31,1.02l.76,1.44-.02.02-1.25-.95c-.33-.25-.81-.19-1.06.14-.25.33-.19.8.14,1.06l1.2.91h0s-1.6-.38-1.6-.38c-.4-.1-.81.15-.91.55-.1.4.15.81.56.91l1.5.36c-.01.13-.02.27-.02.41,0,2.15,1.74,3.88,3.89,3.88s3.88-1.74,3.88-3.88-1.74-3.88-3.88-3.88Z"/>
        <path class="cls-7" d="M488.54,219.67c1.11.04,1.97.98,1.93,2.09-.04,1.11-.98,1.97-2.09,1.93,0,0-2.9-.12-6.02,1.03-1.05.38-2.2-.15-2.59-1.2-.38-1.05.15-2.2,1.2-2.59,3.86-1.42,7.56-1.26,7.57-1.26Z"/>
        <g>
          <path class="cls-3" d="M462.41,252.73c.68,0,1.23.55,1.23,1.23s-.55,1.23-1.23,1.23-1.23-.55-1.23-1.23.55-1.23,1.23-1.23Z"/>
          <path class="cls-3" d="M555.85,258.27c1.7,0,3.08,1.38,3.08,3.08s-1.38,3.08-3.08,3.08-3.08-1.38-3.08-3.08,1.38-3.08,3.08-3.08Z"/>
        </g>
        <path class="cls-10" d="M508.4,166.21c22.22,0,40.71,12.19,44.63,28.29-8.18-11.38-25.09-19.2-44.63-19.2s-36.45,7.82-44.63,19.2c3.92-16.1,22.41-28.29,44.63-28.29Z"/>
      </g>
      <path class="cls-22" d="M508.03,365.45c-30.92,0-60.67-13.47-83.75-37.93-23.17-24.55-37.4-57.88-40.06-93.83-2.78-37.62,7.24-73.98,28.24-102.38,21.01-28.42,50.5-45.47,83.02-48,2.76-.21,5.55-.32,8.31-.32,30.92,0,60.67,13.47,83.75,37.93,23.17,24.55,37.4,57.88,40.06,93.83,5.75,77.7-44.16,145.16-111.26,150.38-2.76.21-5.55.32-8.31.32ZM503.78,84.38c-2.72,0-5.48.11-8.2.32-32.12,2.5-61.25,19.35-82.03,47.45-20.79,28.12-30.73,64.15-27.97,101.43,5.41,73.16,59.2,130.47,122.44,130.47,2.72,0,5.48-.11,8.2-.32,66.35-5.16,115.69-71.95,110-148.88-5.41-73.16-59.2-130.47-122.44-130.47Z"/>
      <path class="cls-23" d="M508.22,357.39c-29.75,0-58.36-12.9-80.56-36.31-22.19-23.4-35.84-55.12-38.43-89.31-5.61-73.99,42.14-138.15,106.45-143.03,2.59-.2,5.22-.3,7.82-.3,29.75,0,58.36,12.9,80.56,36.31,22.19,23.4,35.84,55.12,38.43,89.31,2.71,35.75-6.81,70.29-26.8,97.28-20.11,27.13-48.4,43.38-79.64,45.75-2.59.2-5.22.3-7.82.3ZM503.49,95.38c-2.42,0-4.87.09-7.29.28-60.5,4.59-105.38,65.42-100.06,135.59,5.07,66.85,54.31,119.21,112.08,119.21,2.42,0,4.87-.09,7.29-.28,29.21-2.22,55.7-17.48,74.6-42.97,19.01-25.64,28.05-58.54,25.46-92.62-5.07-66.85-54.31-119.21-112.08-119.21Z"/>
      <path class="cls-17" d="M566.16,118.31l-162.65,149.48s4.75,12.97,8.21,19.23l168.89-155.23s-10.58-10.55-14.46-13.48Z"/>
      <path class="cls-7" d="M616.32,233.27c4.1,0,7.57,2.68,8.77,6.38,3.14-2.29,7.53-2.41,10.84,0,3.31,2.41,4.55,6.62,3.34,10.31,3.89,0,7.51,2.47,8.77,6.37,1.27,3.9-.21,8.03-3.35,10.31,3.15,2.28,4.62,6.41,3.35,10.31-1.27,3.9-4.88,6.37-8.77,6.37,1.21,3.7-.03,7.9-3.34,10.31-3.31,2.41-7.7,2.28-10.84,0-1.2,3.7-4.67,6.38-8.77,6.38s-7.57-2.68-8.77-6.38c-3.14,2.29-7.52,2.42-10.84,0-3.32-2.41-4.55-6.62-3.34-10.31-3.89,0-7.51-2.47-8.77-6.37-1.27-3.9.21-8.03,3.36-10.31-3.15-2.28-4.62-6.41-3.36-10.31,1.27-3.9,4.89-6.37,8.77-6.37-1.21-3.7.03-7.9,3.34-10.31,3.31-2.41,7.7-2.28,10.84,0,1.2-3.7,4.67-6.38,8.77-6.38Z"/>
      <path class="cls-16" d="M585.73,137.76l-169.22,157.7s10.54,14.93,12.9,17.56l170.43-157.5s-12.29-15.54-14.1-17.75Z"/>
      <path class="cls-7" d="M544.93,233.27c4.1,0,7.57,2.68,8.77,6.38,3.14-2.29,7.53-2.41,10.84,0,3.32,2.41,4.55,6.62,3.35,10.31,3.89,0,7.51,2.47,8.77,6.37,1.27,3.9-.21,8.03-3.36,10.31,3.15,2.28,4.62,6.41,3.36,10.31-1.27,3.9-4.89,6.37-8.77,6.37,1.21,3.7-.03,7.9-3.35,10.31-3.31,2.41-7.7,2.28-10.84,0-1.2,3.7-4.67,6.38-8.77,6.38s-7.57-2.68-8.77-6.38c-3.14,2.29-7.52,2.42-10.84,0-3.31-2.41-4.55-6.62-3.34-10.31-3.89,0-7.51-2.47-8.77-6.37-1.27-3.9.21-8.03,3.36-10.31-3.15-2.28-4.62-6.41-3.36-10.31,1.27-3.9,4.89-6.37,8.77-6.37-1.21-3.7.03-7.9,3.34-10.31,3.32-2.41,7.7-2.28,10.84,0,1.19-3.7,4.67-6.38,8.77-6.38Z"/>
      <path class="cls-12" d="M645.65,394.52c0-21.24-41.71-22.76-41.71-22.76h-6.62v-18.43c-.11-.44-.23-.87-.37-1.29h-32.65c-.14.42-.26.86-.37,1.29v18.43h-6.62s-41.71,1.52-41.71,22.76h130.05Z"/>
      <path class="cls-3" d="M603.94,371.76s41.71,1.52,41.71,22.76h-130.05c0-21.24,41.71-22.76,41.71-22.76,0,0,6.86,8.11,23.78,8.11,15.87,0,22.86-8.11,22.86-8.11Z"/>
      <path class="cls-12" d="M580.62,246.18c11.26.24,45.16,1.32,45.76,40.86.59,39.54-7.87,54.04-13.21,59.95-5.34,5.91-10.89,11.26-21.85,14.1-2.86,2.86-5.88,3.96-10.69,4.58-4.81-.62-7.83-1.72-10.69-4.58-10.96-2.84-16.51-8.19-21.85-14.1-5.34-5.91-13.8-20.41-13.21-59.95.59-39.54,34.5-40.62,45.76-40.86Z"/>
      <path class="cls-12" d="M541.01,307.18c-1.02-2.63-2.26-4.47-5.53-5.15-3.26-.69-9.19.98-9.18,10.23.01,9.25,7.73,17.21,12.61,16.11,4.88-1.1,2.56-18.72,2.09-21.19Z"/>
      <path class="cls-12" d="M619.5,307.25c1.35-2.5,3-4.53,6.26-5.22,3.27-.69,9.2.98,9.18,10.23-.01,9.25-7.73,17.21-12.62,16.11-4.88-1.1-2.83-21.12-2.83-21.12Z"/>
      <path class="cls-7" d="M580.62,355.22c46.05,0,43.8-68.31,45.14-53.19,11.32-41.81-16.01-61.01-44.14-60.4-29.73.65-54.65,19.34-46.14,60.4,2.89-12.65-.65,53.19,45.14,53.19Z"/>
    </g>
    <g>
      <path class="cls-18" d="M75.58,216.48c-5.48,72.2,40.75,134.57,103.25,139.31,62.5,4.75,117.62-49.93,123.1-122.13,5.48-72.2-40.75-134.57-103.25-139.31-62.5-4.74-117.61,49.94-123.09,122.13Z"/>
      <path class="cls-19" d="M181.92,368.84c-33.9-2.57-64.56-20.27-86.31-49.82-21.52-29.24-31.76-66.64-28.82-105.34,2.81-37.02,17.53-71.38,41.44-96.75,24.05-25.52,55.08-39.57,87.35-39.57,2.8,0,5.64.11,8.43.32,33.9,2.57,64.56,20.27,86.31,49.82,21.52,29.24,31.76,66.64,28.82,105.34-2.81,37.02-17.53,71.38-41.44,96.75-24.05,25.52-55.08,39.57-87.35,39.57-2.8,0-5.64-.11-8.43-.32ZM80.61,214.74c-2.69,35.38,6.61,69.5,26.16,96.07,19.32,26.25,46.38,41.95,76.19,44.21,2.45.19,4.94.28,7.39.28,59.21,0,109.71-54.25,114.97-123.5,2.69-35.38-6.61-69.5-26.16-96.07-19.32-26.25-46.38-41.95-76.19-44.21-2.45-.19-4.94-.28-7.38-.28-59.21,0-109.71,54.25-114.97,123.5Z"/>
      <g>
        <path class="cls-9" d="M139,340.65v-35.21c0-12.02,9.84-21.86,21.86-21.86h54.86c12.02,0,21.86,9.84,21.86,21.86v34.93c-15.03,7.14-31.84,11.15-49.59,11.15-17.52,0-34.12-3.9-49-10.87Z"/>
        <path class="cls-11" d="M161.4,283.58v.77s0,.76,0,.76l.25.9c1.63,5.94,5.17,11.07,9.9,14.67,4.66,3.55,10.46,5.66,16.74,5.66s12.07-2.11,16.73-5.66c4.73-3.61,8.27-8.73,9.9-14.67l.25-.9v-.76s0-.77,0-.77h-12.73c-.97,2.81-2.77,5.25-5.11,7.03-2.5,1.9-5.63,3.03-9.05,3.03-3.42,0-6.55-1.13-9.05-3.03-2.34-1.78-4.14-4.22-5.11-7.03h-12.73Z"/>
        <path class="cls-8" d="M208.37,271.58h-40.16c-.17.48-.32.96-.46,1.45v11.32c2.48,9.02,10.73,15.64,20.54,15.64,9.8,0,18.06-6.62,20.54-15.64v-11.32c-.13-.49-.29-.97-.46-1.45Z"/>
        <path class="cls-2" d="M207.83,274.79l-39.62-3.21c-.17.48-.32.96-.46,1.45v11.32c2.04,7.43,8.01,13.24,15.53,15.05l24.54-24.6Z"/>
        <g>
          <path class="cls-8" d="M235.49,328.82c0,.05.61,4.57,1.59,11.79,6.68-3.14,13.01-6.89,18.92-11.19l-.42-3.21-20.08,2.62Z"/>
          <path class="cls-11" d="M251.21,332.72l-17.17,3.2-9.31-49.93c18.3-3.13,26.75,14.2,28.56,22.39l4.37,19.8c-2.1,1.58-4.25,3.1-6.46,4.54Z"/>
        </g>
        <path class="cls-8" d="M141.09,328.82c0,.05-.62,4.68-1.62,12.05-6.68-3.09-13.02-6.8-18.94-11.06l.48-3.61,20.08,2.62Z"/>
        <path class="cls-11" d="M123.99,332.2l19.97,3.72,9.31-49.93c-18.3-3.13-26.75,14.2-28.56,22.39l-4.66,21.08c1.29.94,2.6,1.85,3.93,2.74Z"/>
        <g>
          <path class="cls-8" d="M188.29,164.41c11.24.24,45.08,1.32,45.67,40.79.59,39.47-7.86,53.94-13.19,59.84-5.33,5.9-10.87,11.24-21.81,14.08-2.86,2.86-5.87,3.96-10.67,4.57,0-39.95,0-79.33,0-119.28Z"/>
          <path class="cls-5" d="M188.29,164.41c-11.24.24-45.08,1.32-45.67,40.79-.59,39.47,7.86,53.94,13.19,59.84,5.33,5.9,10.87,11.24,21.81,14.08,2.86,2.86,5.87,3.96,10.67,4.57,0-39.95,0-79.33,0-119.28Z"/>
        </g>
        <path class="cls-8" d="M227.83,225.31c1.01-2.63,2.26-4.46,5.52-5.14,3.26-.69,9.18.98,9.17,10.22-.01,9.24-7.72,17.18-12.59,16.08-4.87-1.1-2.56-18.69-2.09-21.15Z"/>
        <path class="cls-5" d="M229.99,228.36c.82-1.52,1.82-2.75,3.8-3.17,1.98-.42,4.85.57,4.84,6.19,0,5.62-3.96,10.48-6.93,9.81-.94-.21-1.46-1.58-1.72-3.34,1.79-.53,2.91-2.63,2.54-4.9-.28-1.7-1.33-3.04-2.62-3.58.05-.63.09-1.01.09-1.01Z"/>
        <path class="cls-5" d="M149.48,225.37c-1.35-2.49-2.99-4.53-6.25-5.21-3.26-.69-9.18.98-9.17,10.22.01,9.24,7.72,17.18,12.59,16.08,4.87-1.1,2.82-21.09,2.82-21.09Z"/>
        <path class="cls-2" d="M146.59,228.36c-.82-1.52-1.82-2.75-3.8-3.17-1.98-.42-4.85.57-4.84,6.19,0,5.62,3.96,10.48,6.93,9.81.94-.21,1.45-1.58,1.72-3.34-1.79-.53-2.91-2.63-2.54-4.9.28-1.7,1.33-3.04,2.62-3.58-.05-.63-.09-1.01-.09-1.01Z"/>
        <g>
          <path class="cls-13" d="M209.51,222.86c-2.06,0-3.73,1.67-3.73,3.74,0,2.06,1.67,3.74,3.73,3.74,2.06,0,3.74-1.67,3.74-3.74s-1.67-3.74-3.74-3.74Z"/>
          <path class="cls-13" d="M167.08,222.86c-2.06,0-3.74,1.67-3.74,3.74,0,2.06,1.67,3.74,3.74,3.74s3.73-1.67,3.73-3.74c0-2.06-1.67-3.74-3.73-3.74Z"/>
        </g>
        <path class="cls-21" d="M205.21,208.94h11.19c1.42,0,2.57,1.15,2.57,2.57h0c0,1.42-1.15,2.57-2.57,2.57h-11.19c-1.42,0-2.57-1.15-2.57-2.57h0c0-1.42,1.15-2.57,2.57-2.57Z"/>
        <path class="cls-21" d="M160.4,208.94h11.19c1.42,0,2.57,1.15,2.57,2.57h0c0,1.42-1.15,2.57-2.57,2.57h-11.19c-1.42,0-2.57-1.15-2.57-2.57h0c0-1.42,1.15-2.57,2.57-2.57Z"/>
        <path class="cls-1" d="M179.66,248.76c0,4.77,3.87,8.64,8.63,8.64,4.77,0,8.64-3.87,8.64-8.64h-17.27Z"/>
        <path class="cls-13" d="M234.25,218.44c-2.67-19.95-7.41-20.22-8.76-21.99-12.21-7.54-58.62-5.7-62.32-14.01-15.79,13.57-20.63,35.7-20.63,35.7-2.68-21.53,5.13-47.01,18.26-52.82-2.76-3.62-5.05-7.13-2.3-14.79,3.99,4.25,6.44,6.23,14.24,11.28-4.65-4.14-9.61-11.57-7.08-20.53,2.07,2.93,13.3,11.67,18.23,16.02-2.72-6.16-2.59-7.54-2.46-10.25,38.64,20.41,55.7,27.93,52.83,71.39Z"/>
      </g>
      <path class="cls-22" d="M180.82,365.2c-67.1-5.22-117.01-72.68-111.26-150.38,2.66-35.95,16.89-69.28,40.06-93.83,23.08-24.46,52.83-37.93,83.75-37.93,2.75,0,5.55.11,8.31.32,32.52,2.53,62,19.58,83.02,48,21,28.4,31.02,64.76,28.24,102.38-2.66,35.95-16.89,69.28-40.06,93.83-23.08,24.46-52.83,37.93-83.75,37.93-2.75,0-5.55-.11-8.31-.32ZM70.93,214.93c-5.69,76.93,43.65,143.71,110,148.88,2.72.21,5.48.32,8.2.32,63.25,0,117.03-57.31,122.44-130.47,2.76-37.28-7.17-73.3-27.97-101.43-20.77-28.1-49.91-44.95-82.03-47.45-2.72-.21-5.48-.32-8.2-.32-63.24,0-117.03,57.31-122.44,130.47Z"/>
      <path class="cls-23" d="M181.11,357.17c-31.25-2.37-59.53-18.62-79.64-45.75-20-26.98-29.52-61.53-26.8-97.28,2.59-34.19,16.24-65.91,38.43-89.31,22.21-23.42,50.82-36.31,80.56-36.31,2.59,0,5.22.1,7.82.3,64.31,4.88,112.06,69.04,106.45,143.03-2.6,34.2-16.24,65.91-38.43,89.31-22.21,23.42-50.82,36.31-80.56,36.31-2.59,0-5.22-.1-7.82-.3ZM81.58,214.67c-2.59,34.09,6.46,66.98,25.46,92.62,18.89,25.49,45.39,40.75,74.6,42.97,2.42.18,4.87.28,7.29.28,57.78,0,107.01-52.36,112.08-119.21,5.33-70.17-39.56-131-100.06-135.59-2.42-.18-4.87-.28-7.29-.28-57.78,0-107.01,52.36-112.08,119.21Z"/>
      <path class="cls-17" d="M130.99,118.38l162.65,149.48s-4.75,12.97-8.21,19.23L116.53,131.86s10.58-10.55,14.46-13.48Z"/>
      <path class="cls-16" d="M111.19,137.84l169.22,157.7s-10.54,14.93-12.9,17.56L97.09,155.58s12.29-15.54,14.1-17.75Z"/>
      <g>
        <path class="cls-9" d="M80.67,380.68c0-9.34,7.64-16.97,16.97-16.97h42.6c9.33,0,16.97,7.64,16.97,16.97l-1.15,13.92h-74.25s-1.14-13.92-1.14-13.92Z"/>
        <g>
          <path class="cls-5" d="M118.94,245.81c11.31.25,45.4,1.33,45.99,41.07.59,39.74-7.91,54.31-13.28,60.25-5.37,5.94-10.95,11.32-21.96,14.18-2.88,2.88-5.91,3.98-10.75,4.6,0-40.23,0-79.88,0-120.1Z"/>
          <path class="cls-5" d="M118.94,245.81c-11.31.25-45.4,1.33-45.99,41.07-.59,39.74,7.91,54.31,13.28,60.25,5.37,5.94,10.95,11.32,21.96,14.18,2.88,2.88,5.91,3.98,10.75,4.6,0-40.23,0-79.88,0-120.1Z"/>
        </g>
        <path class="cls-5" d="M158.75,307.12c1.02-2.65,2.27-4.49,5.56-5.18,3.28-.69,9.24.98,9.23,10.29-.01,9.3-7.77,17.3-12.68,16.19-4.91-1.11-2.58-18.82-2.11-21.3Z"/>
        <path class="cls-5" d="M79.86,307.19c-1.36-2.51-3.01-4.56-6.29-5.25-3.28-.69-9.24.98-9.23,10.29.01,9.3,7.77,17.3,12.68,16.19,4.91-1.11,2.84-21.23,2.84-21.23Z"/>
        <g>
          <path class="cls-9" d="M172.78,394.6h-18.3s-19.59-30.89-19.59-30.89c14.21-2.43,32.62,13.33,35.32,19.26,2.57,5.64,2.57,11.63,2.57,11.63Z"/>
          <path class="cls-9" d="M65.1,394.6h19.33s18.56-30.89,18.56-30.89c-14.21-2.43-32.22,13.53-35.32,19.26-2.57,4.73-2.57,11.63-2.57,11.63Z"/>
        </g>
        <path class="cls-13" d="M76.78,327.62c-2.09-2.71-6.68-23.85-6.68-23.85,0,0-1.87-26.34,2.38-34.84-3.4-.57-6.23-3.97-5.95-12.18,4.25.57,6.8,3.97,12.47-.57,5.67-4.53,18.14-19.84,40.8-19.27,22.67.57,32.59,12.75,35.7,17.57,15.75,13.43,14.41,29.76,13.05,49.2,0,0-5.34,21.23-7.46,23.94-8.85,11.33-3.3,26.65-42.15,26.65-38.65,0-33.45-15.37-42.16-26.65Z"/>
        <path class="cls-11" d="M98.07,363.71v.6s0,.59,0,.59l.19.7c1.27,4.61,1.06,5.33,4.74,8.13,3.62,2.76,11.07,3.79,15.94,3.79,4.87,0,12.33-.49,15.94-3.25,3.67-2.8,3.47-4.06,4.74-8.67l.19-.7v-.59s0-.6,0-.6h-9.88c-.75,2.18-2.15,4.07-3.97,5.46-1.94,1.48-4.37,2.35-7.02,2.35s-5.09-.88-7.02-2.35c-1.82-1.39-3.22-3.28-3.97-5.46h-9.88Z"/>
        <path class="cls-5" d="M134.53,354.26h-31.18c-.13.37-.25.74-.35,1.13v8.78c1.92,7,8.33,7.35,15.94,7.35s14.02-.34,15.94-7.35v-8.78c-.11-.38-.22-.76-.35-1.13Z"/>
      </g>
    </g>
  </g>
</svg>