<?xml version="1.0" encoding="UTF-8"?>
<svg id="Layer_1" data-name="Layer 1" xmlns="http://www.w3.org/2000/svg" viewBox="0 0 700 395">
  <defs>
    <style>
      .cls-1, .cls-2, .cls-3 {
        fill: #2b2b2b;
      }

      .cls-4, .cls-2, .cls-5 {
        opacity: .7;
      }

      .cls-4, .cls-6 {
        fill: #a1b9c6;
      }

      .cls-2 {
        stroke: #a1b9c6;
      }

      .cls-2, .cls-3 {
        stroke-miterlimit: 10;
        stroke-width: .79px;
      }

      .cls-7 {
        fill: #efedea;
      }

      .cls-8 {
        fill: #fff;
      }

      .cls-3 {
        stroke: #fff;
      }
    </style>
  </defs>
  <rect class="cls-7" width="700" height="395"/>
  <rect class="cls-4" width="350" height="395"/>
  <g>
    <g>
      <path class="cls-1" d="M149.93,299.98c0-12.21,9.89-22.1,22.1-22.1s22.1,9.89,22.1,22.1-9.89,22.1-22.1,22.1-22.1-9.9-22.1-22.1Z"/>
      <path class="cls-1" d="M215.18,310.19c-.37-2.12,1.04-4.14,3.16-4.52l3.68-.65c2.11-.37,4.14,1.04,4.52,3.16.37,2.12-1.04,4.14-3.16,4.52l-3.68.65c-2.12.37-4.14-1.04-4.52-3.16ZM218.8,308.32c-.66.12-1.09.74-.98,1.4s.74,1.09,1.4.98l3.68-.65c.66-.12,1.09-.74.98-1.4s-.74-1.09-1.4-.98l-3.68.65Z"/>
      <path class="cls-1" d="M209.88,314.63l-3.73.2c-2.15.11-3.98-1.54-4.1-3.69-.11-2.12,1.52-3.98,3.69-4.1l3.73-.2c2.15-.11,3.98,1.54,4.1,3.68.1,1.96-1.28,3.7-3.21,4.04-.16.03-.32.05-.48.05ZM204.74,311c.04.66.6,1.18,1.27,1.14l3.73-.2c.67-.03,1.18-.61,1.14-1.27-.02-.32-.16-.62-.4-.83-.24-.22-.55-.32-.87-.31l-3.73.2c-.05,0-.1,0-.15.02-.6.11-1.02.64-.99,1.25Z"/>
      <path class="cls-1" d="M188.83,312.59c-.49-2.09.81-4.19,2.9-4.68l3.64-.86c2.11-.5,4.19.82,4.69,2.9.49,2.09-.81,4.19-2.9,4.68l-3.64.86c-.07.02-.14.03-.21.04-2.03.36-4-.93-4.47-2.95ZM192.35,310.52c-.65.15-1.05.8-.9,1.45.15.62.76,1.03,1.38.91l3.71-.87c.65-.15,1.05-.8.9-1.45-.15-.62-.75-1.02-1.38-.91l-3.71.87Z"/>
      <path class="cls-1" d="M226.87,312.71l10.89-1.93c2.68-.48,2.29-10.41-.39-9.94l-11.79,2.09c-2.68.47-1.39,10.25,1.29,9.78Z"/>
      <path class="cls-1" d="M219.32,310.82c.7-.12,1.19-.78,1.1-1.5-.09-.74-.77-1.26-1.51-1.16l-8.46,1.09c-.75.1-1.26.77-1.16,1.51.1.74.77,1.26,1.51,1.16l8.46-1.09s.04,0,.06,0Z"/>
      <path class="cls-1" d="M205.88,312.04c.64-.11,1.12-.67,1.11-1.34,0-.74-.62-1.34-1.36-1.33l-8.64.11c-.74,0-1.34.62-1.33,1.36,0,.74.62,1.34,1.36,1.33l8.64-.11c.08,0,.15,0,.22-.02Z"/>
    </g>
    <g>
      <circle class="cls-1" cx="288.84" cy="121.11" r="23.18"/>
      <path class="cls-1" d="M242.87,228.77c-.52-22.36,7.91-51.38,18.21-73.15,2.18-4.6.43-10.08-4.04-12.52h0c-4.82-2.63-10.88-.71-13.23,4.25-11.59,24.47-20.68,56.48-20.1,81.86h0c.09,5.5,4.51,9.33,9.79,9.35,5.25.02,9.47-4.51,9.35-9.79h0Z"/>
      <path class="cls-1" d="M247.11,313.27l13.95-43.21c1.22-3.79,1.37-7.83.42-11.68l-11.65-39.04c1.24-.73,3.39-3.78,4.45-4.69l17.13,41.05c1.38,3.29,1.81,6.87,1.26,10.37l-7.05,44.68c-1.08,6.86-7.88,11.62-15.17,10.59-2.48-.35-4.69-1.34-6.5-2.75,1.4-1.54,2.52-3.32,3.17-5.33Z"/>
      <polygon class="cls-1" points="222.33 210.96 229.69 240.41 234.82 246.72 249.73 231.81 253.42 200.65 263.97 170.16 268.5 148.88 262.02 139.5 250.07 137.32 240.18 141.01 229.63 163.29 222.33 210.96"/>
      <path class="cls-1" d="M234.51,265.95c.41-1.35.46-2.79.14-4.17l-4.96-21.37c1.19.37,2.47.57,3.82.58h.04c3.12,0,6.06-1.25,8.29-3.53,2.27-2.32,3.53-5.5,3.45-8.74-.46-19.72,6.6-48,17.98-72.06,2.72-5.75.5-12.64-5.06-15.68-1.77-.97-3.76-1.48-5.76-1.48-4.61,0-8.85,2.68-10.81,6.82-8.09,17.08-14.86,41.85-19.31,64.64-1.9-3.45-2.82-7.46-2.42-11.63,1.79-18.57,6.03-36.81,12.62-54.26h0c3.57-9.45,13.58-14.8,23.42-12.51l1.62.38c11.87,2.76,18.6,15.35,14.29,26.75-9,23.83-9.56,39.57-10.2,43.89-.69,7.18-5.04,13-10.93,16.01l9.27,39.96c.8,3.45.68,7.04-.35,10.43l-13.16,43.21c-2.02,6.63-9.07,10.4-15.73,8.37-6.63-2.02-10.4-9.07-8.36-15.71l12.13-39.87Z"/>
      <g>
        <g>
          <path class="cls-1" d="M243.82,147.35c-11.59,24.47-20.68,56.48-20.1,81.86h0c.09,5.5,4.51,9.33,9.79,9.35,5.25.02,9.47-4.51,9.35-9.79h0c-.52-22.36,7.91-51.38,18.21-73.15"/>
          <path class="cls-8" d="M243.82,147.35c-2.97,6.43-5.62,13-7.97,19.67-2.35,6.67-4.46,13.43-6.21,20.28-1.76,6.85-3.19,13.78-4.17,20.78-.98,7-1.53,14.06-1.37,21.12v.16s-.11.11-.11.11l.11-.26c.03,2.42,1.05,4.81,2.83,6.44,1.77,1.64,4.19,2.52,6.61,2.53,2.41.03,4.79-1.03,6.44-2.8,1.67-1.75,2.61-4.17,2.56-6.6v-.15s.1-.1.1-.1h0s-.1.25-.1.25c-.11-6.36.46-12.7,1.41-18.97.96-6.27,2.31-12.47,3.94-18.6,1.65-6.12,3.54-12.18,5.77-18.11,2.22-5.94,4.68-11.78,7.43-17.48-2.66,5.75-5.03,11.62-7.14,17.58-2.1,5.97-4.01,12-5.6,18.12-1.6,6.12-2.91,12.31-3.83,18.56-.91,6.25-1.44,12.56-1.3,18.87v.15s-.1.1-.1.1h0s.1-.25.1-.25c.07,2.6-.93,5.21-2.71,7.11-1.76,1.92-4.35,3.09-6.97,3.07-2.59,0-5.22-.93-7.13-2.74-1.93-1.78-3.01-4.39-3.03-6.99v-.16s.11-.11.11-.11l-.11.27c-.12-7.11.47-14.2,1.5-21.22,1.03-7.02,2.5-13.96,4.3-20.82,1.81-6.85,3.91-13.63,6.37-20.28,2.46-6.64,5.22-13.18,8.29-19.55Z"/>
        </g>
        <g class="cls-5">
          <path class="cls-1" d="M243.82,147.35c-11.59,24.47-20.68,56.48-20.1,81.86h0c.09,5.5,4.51,9.33,9.79,9.35,5.25.02,9.47-4.51,9.35-9.79h0c-.52-22.36,7.91-51.38,18.21-73.15"/>
          <path class="cls-6" d="M243.82,147.35c-2.97,6.43-5.62,13-7.97,19.67-2.35,6.67-4.46,13.43-6.21,20.28-1.76,6.85-3.19,13.78-4.17,20.78-.98,7-1.53,14.06-1.37,21.12v.16s-.11.11-.11.11l.11-.26c.03,2.42,1.05,4.81,2.83,6.44,1.77,1.64,4.19,2.52,6.61,2.53,2.41.03,4.79-1.03,6.44-2.8,1.67-1.75,2.61-4.17,2.56-6.6v-.15s.1-.1.1-.1h0s-.1.25-.1.25c-.11-6.36.46-12.7,1.41-18.97.96-6.27,2.31-12.47,3.94-18.6,1.65-6.12,3.54-12.18,5.77-18.11,2.22-5.94,4.68-11.78,7.43-17.48-2.66,5.75-5.03,11.62-7.14,17.58-2.1,5.97-4.01,12-5.6,18.12-1.6,6.12-2.91,12.31-3.83,18.56-.91,6.25-1.44,12.56-1.3,18.87v.15s-.1.1-.1.1h0s.1-.25.1-.25c.07,2.6-.93,5.21-2.71,7.11-1.76,1.92-4.35,3.09-6.97,3.07-2.59,0-5.22-.93-7.13-2.74-1.93-1.78-3.01-4.39-3.03-6.99v-.16s.11-.11.11-.11l-.11.27c-.12-7.11.47-14.2,1.5-21.22,1.03-7.02,2.5-13.96,4.3-20.82,1.81-6.85,3.91-13.63,6.37-20.28,2.46-6.64,5.22-13.18,8.29-19.55Z"/>
        </g>
      </g>
    </g>
  </g>
  <g>
    <circle class="cls-1" cx="94.67" cy="97" r="24.16"/>
    <rect class="cls-3" x="63.64" y="125.69" width="117.77" height="21.39" rx="10.7" ry="10.7" transform="translate(245.06 272.78) rotate(180)"/>
    <rect class="cls-2" x="63.64" y="125.69" width="117.77" height="21.39" rx="10.7" ry="10.7" transform="translate(245.06 272.78) rotate(180)"/>
    <rect class="cls-1" x="60.17" y="190.52" width="24.84" height="81.39" rx="12.42" ry="12.42" transform="translate(145.18 462.43) rotate(-180)"/>
    <rect class="cls-1" x="48.99" y="245.68" width="24.84" height="79.28" rx="12.42" ry="12.42" transform="translate(2.1 571.08) rotate(-156.13)"/>
    <path class="cls-3" d="M109.48,256.62c-.59-.88-1.07-1.85-1.43-2.9l-17.47-51.55c-2.19-6.47,1.31-13.56,7.78-15.75h0c6.47-2.19,13.56,1.31,15.75,7.78l17.47,51.55c.43,1.27,2.62,7.79,2.63,9.07l7.24,53.95c.91,6.77-3.89,13.06-10.66,13.96h0c-6.77.91-13.06-3.89-13.96-10.66l-7.35-55.45Z"/>
    <path class="cls-2" d="M109.48,256.62c-.59-.88-1.07-1.85-1.43-2.9l-17.47-51.55c-2.19-6.47,1.31-13.56,7.78-15.75h0c6.47-2.19,13.56,1.31,15.75,7.78l17.47,51.55c.43,1.27,2.62,7.79,2.63,9.07l7.24,53.95c.91,6.77-3.89,13.06-10.66,13.96h0c-6.77.91-13.06-3.89-13.96-10.66l-7.35-55.45Z"/>
    <path class="cls-1" d="M82.17,216.68h0c13.94,0,31.32-10.04,31.32-23.99-1.71-7.53-3.24-15.87-4.35-24.93-.88-7.22-1.38-14.03-1.63-20.38,0-1.71-.2-10.66-7.45-17.9-4.59-4.59-10.93-7.45-17.9-7.45h0c-13.94,0-25.35,11.41-25.35,25.35,0,0-1.86,16.48-1.86,21.97,0,5.49,1.86,21.97,1.86,21.97,2,14.27,11.41,25.35,25.35,25.35Z"/>
  </g>
</svg>