<?xml version="1.0" encoding="UTF-8"?>
<svg id="Layer_1" data-name="Layer 1" xmlns="http://www.w3.org/2000/svg" viewBox="0 0 700 395">
  <defs>
    <style>
      .cls-1 {
        fill: none;
      }

      .cls-2 {
        fill: #2b2b2b;
      }

      .cls-3 {
        fill: #f4e0b3;
      }

      .cls-4 {
        fill: #32373f;
      }

      .cls-5 {
        fill: #efedea;
      }
    </style>
  </defs>
  <rect class="cls-5" width="700" height="395"/>
  <g>
    <rect class="cls-2" x="225" y="72.56" width="250" height="250" rx="125" ry="125"/>
    <path class="cls-5" d="M436.78,159.3l-.4-9.92c-.13-3.19-2.75-5.71-5.94-5.71h-2.17c-3.24,0-5.88,2.6-5.94,5.83l-.12,6.65c-.02,1.28-1.84,1.52-2.19.28l-7.99-24.35c-1.13-3.45-4.83-5.34-8.29-4.24l-.14.04c-3.28,1.05-5.21,4.44-4.44,7.79l9.94,43c.21.92-.91,1.54-1.58.88l-5.24-5.24c-.62-.62-1.47-.96-2.35-.94l-11.33.31c-.4.01-.78.21-1.02.54l-9.84,13.65c-.77,1.07-.82,2.51-.11,3.63l1.42,2.23-3.6,2.4c-.5.33-.72.96-.54,1.53l5.25,16.46,20.27,16.61c1.49,1.22,2.37,3.04,2.41,4.97l.31,75.25h38.2v-79.77l7.05-18.91v-45.55c0-2.49-2.02-4.51-4.51-4.51h-4.06c-1.63,0-2.97-1.29-3.04-2.92ZM402.04,205.24l-5.56,2.6-6.3-2.97v-5.06c0-1.25-.59-2.42-1.6-3.16l-3.96-2.91h4.02c.51,0,1-.21,1.34-.58l5.02-5.35,7.05,7.79v9.64Z"/>
    <g>
      <path class="cls-4" d="M417.96,150.1l9.46,37.07c.06.25.32.4.57.33l2.38-.66c.24-.07.39-.32.32-.56l-8.44-32.1"/>
      <path class="cls-3" d="M417.96,150.1c1.93,5.99,3.73,12.01,5.41,18.06,1.71,6.05,3.3,12.12,4.87,18.2l.14.54c-.06-.22-.28-.39-.51-.38-.04,0-.15.02-.14.02l.14-.04.28-.08.57-.15,1.14-.31.14-.04s.13-.04.04,0c-.1.04-.19.12-.25.21-.06.09-.08.21-.07.32,0,.03,0,.05.01.08l-.02-.06-.04-.14-1.17-4.56c-.74-3.05-1.53-6.09-2.24-9.15-1.47-6.11-2.82-12.25-4.04-18.42,1.97,5.97,3.82,11.98,5.55,18.02.89,3.01,1.7,6.05,2.56,9.07l1.23,4.55.04.14.02.08c.02.07.03.15.04.23.03.31-.04.62-.2.88-.16.26-.4.47-.69.59-.18.07-.19.06-.25.08l-.14.04-1.13.32-.57.16-.28.08-.14.04c-.08.03-.28.07-.43.06-.63,0-1.21-.45-1.38-1.05l-.16-.6c-1.53-6.09-3.04-12.19-4.44-18.31-1.42-6.12-2.73-12.27-3.9-18.45Z"/>
    </g>
    <g>
      <path class="cls-4" d="M436.91,160.02l2.73,30.26c.08.85.79,1.5,1.65,1.5h0c.97,0,1.73-.83,1.65-1.79l-2.37-27.78"/>
      <path class="cls-3" d="M436.91,160.02c.89,5.23,1.58,10.48,2.2,15.73.33,2.62.59,5.26.88,7.88l.39,3.95.19,1.97c.07.83.08.88.32,1.09.42.35,1.19.04,1.07-.69l-.31-3.95c-.17-2.64-.38-5.27-.51-7.92-.3-5.28-.54-10.57-.57-15.87.86,5.23,1.53,10.48,2.13,15.74.32,2.63.56,5.26.84,7.89l.37,3.95v.12s.02.2.02.2c0,.13,0,.26-.02.39-.04.26-.11.52-.22.76-.23.48-.59.88-1.05,1.15-.91.55-2.15.47-2.98-.2-.41-.33-.73-.79-.88-1.29-.16-.6-.11-.85-.16-1.19l-.17-1.98-.32-3.95c-.18-2.64-.4-5.27-.55-7.91-.33-5.28-.59-10.56-.65-15.87Z"/>
    </g>
    <path class="cls-5" d="M218.64,206.26h36.98c.55,0,1.09-.17,1.55-.48l24.93-17.34c.41-.28.9-.43,1.4-.43h70.98c3.74,0,6.77,3.03,6.77,6.77h0c0,3.74-3.03,6.77-6.77,6.77h-35.37c-1.33,0-2.1,1.51-1.32,2.59l7.63,10.52c.46.64.65,1.43.52,2.21l-1.06,6.54c-.23,1.43-1.47,2.48-2.91,2.48h-3.39c-.59,0-1.11.4-1.26.98l-2.37,9.08c-.41,1.57-1.83,2.66-3.45,2.66h-4.05c-.56,0-1.06.36-1.24.9l-2.04,6.31c-.42,1.31-1.64,2.2-3.02,2.2h-33.94c-.53,0-1.04-.14-1.5-.41l-5.37-3.13c-.38-.22-.8-.33-1.24-.33h-40.31l-.18-37.88Z"/>
    <g>
      <path class="cls-4" d="M296.24,247.51l-12.72-3.19c-1.94-.49-3.42-1.99-3.87-3.93l.94-5.53c.08-.49.29-.95.59-1.35l1.06-1.39c.22-.29.3-.66.2-1.01l-.74-2.85c-.08-.29-.08-.59,0-.88l1.96-7.74c.2-.77.77-1.38,1.53-1.61l2.3-.72c.57-.18.99-.66,1.1-1.25l1.17-6.51c.11-.59.53-1.06,1.1-1.23l4-1.17c.47-.14.8-.58.8-1.07v-1.34c0-.8-.65-1.45-1.45-1.45-.13,0-.25.02-.38.05l-3.52.94s-.1.02-.14.02c-.24,0-.45-.15-.52-.38l-.17-.52c-.05-.14-.04-.29.03-.43.07-.13.19-.23.33-.28l6.76-2.06c.12-.04.25-.06.37-.06.67,0,1.22.53,1.26,1.2l.24,4.04c.07,1.09.86,1.98,1.94,2.17l7.74,1.35c.08.01.16.02.24.02.39,0,.76-.17,1.03-.46.26-.29.39-.68.34-1.07l-1.61-14.23c-.14-1.25-1.1-2.27-2.34-2.49l-12.37-2.18,13.26.66c2.03.1,3.69,1.64,3.95,3.65l2.04,15.67c.08.58.51,1.06,1.09,1.17l3.41.7c.16.03.28.18.28.34v1.48c0,.09-.04.18-.1.25-.07.06-.15.1-.24.1l-20.43-3.58c-.14-.02-.28-.04-.42-.04-.24,0-.48.04-.71.11l-2.3.71c-.89.28-1.54,1.05-1.67,1.97l-.6,4.35c-.15,1.1.31,2.2,1.2,2.87.36.27.76.45,1.19.54l26.03,5.66-2,.16-.7,1.68-24.45-5.22c-.13-.03-.25-.08-.35-.17l-1.86-1.58c-.48-.41-1.1-.64-1.73-.64h-.15c-1.18.07-2.18.92-2.45,2.06l-1.2,5.09c-.42,1.79.62,3.61,2.38,4.16l22.7,7.01-2.84.12-.72.74-18.65-5.28c-.33-.1-.68-.15-1.03-.15-1.69,0-3.15,1.14-3.57,2.78l-.49,1.94c-.49,1.92.67,3.92,2.58,4.46l17.6,4.42-.49.4h-5.77Z"/>
      <path class="cls-3" d="M301.42,189.8l5.27.26c1.79.09,3.25,1.44,3.48,3.22l2.04,15.67c.1.79.7,1.44,1.48,1.6l3.29.68v1.17l-20.19-3.55c-.17-.03-.33-.04-.5-.04-.29,0-.58.04-.86.13l-2.3.71c-1.07.33-1.86,1.27-2.02,2.38l-.6,4.35c-.18,1.28.36,2.56,1.39,3.34.41.31.89.53,1.39.63l23.67,5.15-.12.27-.43,1.01-24.05-5.13s-.09-.03-.13-.06l-1.86-1.58c-.57-.49-1.3-.76-2.05-.76-.06,0-.12,0-.18,0-1.39.08-2.59,1.08-2.91,2.44l-1.2,5.09c-.48,2.04.71,4.13,2.72,4.75l19.94,6.16h-.16s-.28.29-.28.29l-.37.38-18.35-5.2c-.38-.11-.78-.17-1.18-.17-1.91,0-3.58,1.3-4.05,3.15l-.49,1.94c-.56,2.19.76,4.46,2.96,5.07l15.27,3.83h-3.76l-12.66-3.17c-1.73-.43-3.04-1.75-3.48-3.46l.92-5.43c.07-.41.24-.8.49-1.13l1.06-1.39c.31-.41.42-.94.29-1.44l-.74-2.85c-.05-.21-.05-.43,0-.63l1.96-7.74c.15-.59.61-1.08,1.19-1.26l2.3-.72c.75-.23,1.31-.86,1.45-1.64l1.17-6.51c.07-.4.36-.72.75-.83l3.99-1.17c.69-.2,1.17-.84,1.17-1.55v-1.34c0-1.07-.87-1.95-1.95-1.95-.17,0-.34.02-.51.07l-3.53.95s-.04,0-.05-.04l-.17-.52-.95.32.98-.38,6.76-2.07c.07-.02.15-.03.23-.03.36,0,.74.27.76.73l.24,4.03c.08,1.32,1.05,2.4,2.35,2.63l7.74,1.35c.11.02.22.03.32.03.53,0,1.04-.23,1.4-.63.36-.4.53-.93.47-1.46l-1.61-14.23c-.17-1.47-1.3-2.67-2.75-2.93l-4.5-.79M285.5,188.01l20.25,3.57c1.03.18,1.81,1.02,1.93,2.05l1.61,14.23c.06.53-.36.98-.87.98-.05,0-.1,0-.15-.01l-7.74-1.35c-.84-.15-1.47-.85-1.52-1.71l-.24-4.03c-.05-.96-.85-1.67-1.76-1.67-.17,0-.34.03-.52.08l-6.76,2.07c-.57.17-.88.78-.69,1.34l.17.52c.15.44.56.72,1,.72.09,0,.18-.01.27-.04l3.52-.94c.08-.02.17-.03.25-.03.51,0,.95.41.95.95v1.34c0,.28-.18.52-.45.59l-4,1.17c-.75.22-1.31.85-1.45,1.62l-1.17,6.51c-.07.41-.37.74-.76.86l-2.3.72c-.92.29-1.63,1.03-1.86,1.97l-1.96,7.74c-.09.37-.09.76,0,1.13l.74,2.85c.05.2,0,.42-.12.58l-1.06,1.39c-.35.46-.59,1-.68,1.57l-.96,5.63c.47,2.16,2.12,3.86,4.26,4.4l12.78,3.2h6.01l1.4-1.15-18.55-4.66c-1.67-.46-2.66-2.17-2.23-3.85l.49-1.94c.37-1.45,1.67-2.4,3.08-2.4.3,0,.6.04.9.13l18.94,5.36.79-.81,5.53-.24-25.46-7.86c-1.51-.47-2.4-2.02-2.04-3.56l1.2-5.09c.22-.94,1.03-1.62,1.99-1.67.04,0,.08,0,.12,0,.51,0,1.01.18,1.41.52l1.86,1.58c.16.14.36.23.57.28l24.86,5.3.75-1.78,5.05-.41-29.32-6.38c-.36-.08-.7-.23-1-.46-.75-.56-1.13-1.48-1-2.4l.6-4.35c.1-.73.62-1.34,1.32-1.56l2.3-.71c.18-.06.37-.09.56-.09.11,0,.22,0,.33.03l20.37,3.58s.1.01.15.01c.46,0,.84-.37.84-.85v-1.48c0-.4-.28-.75-.68-.83l-3.41-.7c-.37-.08-.65-.38-.69-.75l-2.04-15.67c-.29-2.25-2.16-3.97-4.43-4.08l-21.24-1.05h0Z"/>
    </g>
    <rect class="cls-1" x="225" y="72.5" width="250" height="250" rx="125" ry="125"/>
  </g>
</svg>