<?xml version="1.0" encoding="UTF-8"?>
<svg id="Layer_1" data-name="Layer 1" xmlns="http://www.w3.org/2000/svg" viewBox="0 0 700 395">
  <defs>
    <style>
      .cls-1 {
        fill: #16a992;
      }

      .cls-2 {
        fill: #efedea;
      }
    </style>
  </defs>
  <rect class="cls-2" width="700" height="395"/>
  <g>
    <circle class="cls-1" cx="350" cy="196.32" r="125"/>
    <g>
      <path class="cls-2" d="M361.37,145.48c0-6.24-5.09-11.31-11.33-11.31s-11.37,5.06-11.37,11.31c0,4.18,2.39,7.83,5.59,9.79v168.41h11.51v-168.41c3.2-1.96,5.6-5.61,5.6-9.79Z"/>
      <polygon class="cls-2" points="273.95 194.35 339.78 194.35 339.78 166.44 273.87 166.44 253.65 180.39 273.95 194.35"/>
      <polygon class="cls-2" points="426.05 166.44 360.24 166.44 360.24 194.35 426.13 194.35 446.35 180.39 426.05 166.44"/>
      <polygon class="cls-2" points="290.28 199.04 270.06 213.1 290.35 227.16 339.78 227.16 339.78 199.04 290.28 199.04"/>
    </g>
  </g>
</svg>