<?xml version="1.0" encoding="UTF-8"?>
<svg id="Layer_1" data-name="Layer 1" xmlns="http://www.w3.org/2000/svg" viewBox="0 0 700 395">
  <defs>
    <style>
      .cls-1 {
        fill: #2b2b2b;
      }

      .cls-2 {
        fill: #aaa;
      }

      .cls-3 {
        fill: #efedea;
      }

      .cls-4 {
        fill: #fff;
      }

      .cls-5 {
        fill: #71cc71;
      }
    </style>
  </defs>
  <rect class="cls-3" x="0" y="-.36" width="700" height="395"/>
  <g>
    <g>
      <path class="cls-1" d="M350,72.29c34.51,0,62.5,27.98,62.5,62.5s-27.99,62.5-62.5,62.5-62.5,27.98-62.5,62.5,27.99,62.5,62.5,62.5c-69.04,0-125-55.96-125-125s55.96-125,125-125Z"/>
      <path class="cls-2" d="M350,322.29c-34.51,0-62.5-27.98-62.5-62.5s27.99-62.5,62.5-62.5,62.5-27.99,62.5-62.5-27.99-62.5-62.5-62.5c69.04,0,125,55.96,125,125s-55.96,125-125,125Z"/>
    </g>
    <g>
      <g>
        <path class="cls-3" d="M350.02,300.42c-1.38,0-2.49-1.12-2.49-2.49v-18.03c0-1.38,1.12-2.49,2.49-2.49s2.49,1.12,2.49,2.49v18.03c0,1.38-1.12,2.49-2.49,2.49Z"/>
        <path class="cls-3" d="M357.54,293.13h-15.02c-1.38,0-2.49-1.12-2.49-2.49s1.12-2.49,2.49-2.49h15.02c1.38,0,2.49,1.12,2.49,2.49s-1.12,2.49-2.49,2.49Z"/>
      </g>
      <path class="cls-3" d="M350,282.39c-9.13,0-16.56-7.43-16.56-16.56s7.43-16.56,16.56-16.56,16.56,7.43,16.56,16.56-7.43,16.56-16.56,16.56ZM350,254.26c-6.38,0-11.57,5.19-11.57,11.57s5.19,11.57,11.57,11.57,11.57-5.19,11.57-11.57-5.19-11.57-11.57-11.57Z"/>
    </g>
    <g>
      <g>
        <path class="cls-3" d="M373.55,116.16c-1.37,0-2.49-1.11-2.49-2.49v-10.94h-10.94c-1.37,0-2.49-1.11-2.49-2.49s1.11-2.49,2.49-2.49h13.42c1.37,0,2.49,1.11,2.49,2.49v13.42c0,1.37-1.11,2.49-2.49,2.49Z"/>
        <path class="cls-3" d="M360.13,116.16c-.64,0-1.27-.24-1.76-.73-.97-.97-.97-2.55,0-3.52l13.42-13.42c.97-.97,2.55-.97,3.52,0,.97.97.97,2.55,0,3.52l-13.42,13.42c-.49.49-1.12.73-1.76.73Z"/>
      </g>
      <path class="cls-3" d="M349.96,140.38c-9.11,0-16.51-7.41-16.51-16.51s7.41-16.51,16.51-16.51,16.51,7.41,16.51,16.51-7.41,16.51-16.51,16.51ZM349.96,112.33c-6.36,0-11.54,5.18-11.54,11.54s5.18,11.54,11.54,11.54,11.54-5.18,11.54-11.54-5.18-11.54-11.54-11.54Z"/>
    </g>
  </g>
  <g>
    <circle class="cls-4" cx="350" cy="197.29" r="45.4"/>
    <path class="cls-5" d="M342.3,189.59v-15.9c0-4.25,3.45-7.7,7.7-7.7s7.7,3.45,7.7,7.7v15.9h15.9c4.25,0,7.7,3.45,7.7,7.7s-3.45,7.7-7.7,7.7h-15.9v15.9c0,4.25-3.45,7.7-7.7,7.7s-7.7-3.45-7.7-7.7v-15.9h-15.9c-4.25,0-7.7-3.45-7.7-7.7s3.45-7.7,7.7-7.7h15.9Z"/>
  </g>
</svg>