<?xml version="1.0" encoding="UTF-8"?>
<svg id="Layer_1" data-name="Layer 1" xmlns="http://www.w3.org/2000/svg" xmlns:xlink="http://www.w3.org/1999/xlink" viewBox="0 0 700 395">
  <defs>
    <style>
      .cls-1, .cls-2 {
        fill: #2b2b2b;
      }

      .cls-3 {
        fill: url(#radial-gradient-4);
      }

      .cls-4 {
        fill: url(#radial-gradient-3);
      }

      .cls-5 {
        fill: url(#radial-gradient-2);
      }

      .cls-6 {
        fill: url(#radial-gradient);
      }

      .cls-7 {
        fill: #f4e0b3;
      }

      .cls-8, .cls-2 {
        fill-rule: evenodd;
      }

      .cls-8, .cls-9 {
        fill: #7f7f7f;
      }

      .cls-10 {
        fill: #efedea;
      }
    </style>
    <radialGradient id="radial-gradient" cx="398.3" cy="213.91" fx="398.3" fy="213.91" r="27.14" gradientUnits="userSpaceOnUse">
      <stop offset=".45" stop-color="#e05b49"/>
      <stop offset="1" stop-color="#231f20" stop-opacity="0"/>
    </radialGradient>
    <radialGradient id="radial-gradient-2" cx="294.56" cy="210.87" fx="294.56" fy="210.87" r="27.81" xlink:href="#radial-gradient"/>
    <radialGradient id="radial-gradient-3" cx="603.09" cy="213.91" fx="603.09" fy="213.91" r="27.14" gradientUnits="userSpaceOnUse">
      <stop offset=".45" stop-color="#e16652"/>
      <stop offset="1" stop-color="#7f7f7f" stop-opacity="0"/>
    </radialGradient>
    <radialGradient id="radial-gradient-4" cx="499.34" cy="210.87" fx="499.34" fy="210.87" r="27.81" gradientUnits="userSpaceOnUse">
      <stop offset=".45" stop-color="#e16652"/>
      <stop offset="1" stop-color="#7f7f7f" stop-opacity="0"/>
    </radialGradient>
  </defs>
  <rect class="cls-10" width="700" height="395"/>
  <g>
    <path class="cls-2" d="M320.79,172.96c1.44-7.17,7.7-18.32,8.47-28.01,1.51-18.94-16.51-28.24-33.23-27.93-1.01.02-2.01.02-3.02,0-16.69-.32-34.67,9.02-33.14,27.93.78,9.69,7.09,20.83,8.55,28.01,1.89,9.31,0,37.99,0,37.99h52.4s-1.9-28.68-.03-37.99Z"/>
    <g>
      <g>
        <circle class="cls-1" cx="398.34" cy="99.89" r="21"/>
        <rect class="cls-1" x="372.79" y="124.41" width="51.1" height="97.1" rx="14.68" ry="14.68"/>
        <rect class="cls-1" x="372.78" y="205.22" width="23.94" height="57.96" rx="8.99" ry="8.99"/>
        <path class="cls-1" d="M380.87,241.05h7.77c4.46,0,8.08,3.62,8.08,8.08v62.24c0,6.14-4.99,11.13-11.13,11.13h-1.68c-6.14,0-11.13-4.99-11.13-11.13v-62.23c0-4.46,3.62-8.08,8.08-8.08Z"/>
        <rect class="cls-1" x="399.95" y="204.55" width="23.94" height="57.96" rx="8.99" ry="8.99"/>
        <path class="cls-1" d="M408.04,240.38h7.77c4.46,0,8.08,3.62,8.08,8.08v62.24c0,6.14-4.99,11.13-11.13,11.13h-1.68c-6.14,0-11.13-4.99-11.13-11.13v-62.23c0-4.46,3.62-8.08,8.08-8.08Z"/>
        <path class="cls-2" d="M398.87,124.41c-26.23,0-37.79,86.44-40.25,107.87-.29,2.54,1.69,4.76,4.25,4.76h72.01c2.56,0,4.54-2.22,4.25-4.76-2.46-21.43-14.02-107.87-40.25-107.87Z"/>
        <circle class="cls-6" cx="398.3" cy="213.91" r="27.14"/>
        <g>
          <path class="cls-2" d="M374.65,128.37c4.48-1.2,9.13,1.48,10.33,5.96l22.25,83.02c1.2,4.48-1.48,9.13-5.96,10.33l-1.23.33c-4.48,1.2-9.13-1.48-10.33-5.96l-22.25-83.02c-1.2-4.48,1.48-9.13,5.96-10.33"/>
          <path class="cls-7" d="M374.65,128.37c2.27-.66,4.82-.27,6.83,1.01,1.01.64,1.88,1.49,2.55,2.48.69.98,1.08,2.17,1.36,3.29l3.81,13.61,7.5,27.25,7.41,27.28,3.69,13.64c.72,2.4.4,5.17-.95,7.33-.66,1.09-1.54,2.04-2.59,2.76-.52.37-1.08.67-1.67.92-.58.25-1.22.42-1.77.57-.55.15-1.18.32-1.82.39-.63.08-1.27.1-1.91.04-1.27-.11-2.51-.49-3.62-1.1-2.25-1.19-3.91-3.44-4.48-5.87l-3.63-13.66c-2.41-9.11-4.86-18.2-7.22-27.33l-7.13-27.35-3.51-13.69c-.32-1.12-.57-2.34-.47-3.53.08-1.2.41-2.37.97-3.42,1.1-2.11,3.12-3.72,5.41-4.29-2.28.63-4.21,2.29-5.22,4.38-.52,1.04-.82,2.19-.87,3.34-.07,1.17.19,2.29.54,3.42l3.81,13.61,7.5,27.25c2.52,9.08,4.94,18.18,7.41,27.28l3.69,13.64c.53,2.15,1.93,4,3.86,5.03.95.52,2.01.84,3.09.92.54.05,1.08.03,1.62-.04.54-.07,1.04-.2,1.63-.36.59-.16,1.1-.29,1.59-.5.5-.21.98-.46,1.42-.78.89-.61,1.65-1.42,2.21-2.34,1.16-1.85,1.45-4.16.83-6.28l-3.63-13.66-7.22-27.33-7.13-27.35-3.51-13.69c-.26-1.16-.6-2.25-1.25-3.23-.62-.98-1.45-1.82-2.42-2.46-1.93-1.31-4.43-1.77-6.72-1.18Z"/>
        </g>
        <g>
          <path class="cls-2" d="M423.24,128.81c4.48,1.2,7.16,5.85,5.96,10.33l-22.22,82.92c-1.2,4.48-5.85,7.16-10.33,5.96l-1.23-.33c-4.48-1.2-7.16-5.85-5.96-10.33l22.22-82.92c1.2-4.48,5.85-7.16,10.33-5.96"/>
          <path class="cls-7" d="M423.24,128.81c2.29.57,4.3,2.17,5.41,4.28.56,1.05.89,2.23.97,3.42.1,1.19-.15,2.41-.47,3.53l-3.5,13.68-7.12,27.33-7.21,27.3-3.62,13.65c-.58,2.43-2.24,4.67-4.48,5.86-1.11.61-2.35.99-3.62,1.1-.63.06-1.27.04-1.9-.04-.63-.07-1.27-.24-1.81-.39-.55-.14-1.18-.32-1.77-.57-.59-.25-1.15-.55-1.67-.92-1.04-.73-1.93-1.68-2.59-2.76-1.35-2.15-1.67-4.92-.95-7.32l3.68-13.63c2.47-9.08,4.89-18.18,7.4-27.25l7.5-27.23,3.8-13.6c.28-1.13.68-2.31,1.36-3.29.67-.99,1.54-1.84,2.55-2.48,2.01-1.28,4.56-1.66,6.82-1-2.29-.59-4.78-.13-6.71,1.18-.97.64-1.8,1.48-2.42,2.46-.65.98-.99,2.07-1.25,3.23l-3.5,13.68-7.12,27.33c-2.36,9.11-4.81,18.2-7.21,27.3l-3.62,13.65c-.62,2.12-.32,4.42.83,6.27.57.92,1.32,1.73,2.21,2.34.44.31.92.57,1.42.77.5.21,1.01.35,1.59.51.59.16,1.09.29,1.63.36.53.07,1.08.09,1.62.04,1.08-.09,2.13-.4,3.09-.92,1.93-1.03,3.33-2.87,3.86-5.02l3.68-13.63,7.4-27.25,7.49-27.23,3.8-13.6c.35-1.13.6-2.25.53-3.42-.05-1.16-.35-2.3-.87-3.34-1.02-2.09-2.95-3.74-5.22-4.37Z"/>
        </g>
      </g>
      <g>
        <circle class="cls-1" cx="294.6" cy="94.02" r="21.52"/>
        <rect class="cls-1" x="268.41" y="201.96" width="24.53" height="59.4" rx="8.99" ry="8.99"/>
        <rect class="cls-1" x="296.28" y="201.96" width="24.53" height="59.4" rx="8.99" ry="8.99"/>
        <path class="cls-1" d="M305.19,238.68h6.71c4.92,0,8.91,3.99,8.91,8.91v62.29c0,6.77-5.5,12.27-12.27,12.27h0c-6.77,0-12.27-5.5-12.27-12.27v-62.29c0-4.92,3.99-8.91,8.91-8.91Z"/>
        <path class="cls-1" d="M277.32,238.68h6.71c4.92,0,8.91,3.99,8.91,8.91v62.29c0,6.77-5.5,12.27-12.27,12.27h0c-6.77,0-12.27-5.5-12.27-12.27v-62.29c0-4.92,3.99-8.91,8.91-8.91Z"/>
        <circle class="cls-5" cx="294.56" cy="210.87" r="27.81"/>
        <g>
          <path class="cls-2" d="M283.71,139.78l19.91,74.3c1.28,4.77-1.58,9.72-6.35,10.99l-.61.16c-4.77,1.28-9.72-1.58-10.99-6.35l-22.17-66.94"/>
          <path class="cls-7" d="M283.71,139.78l6.02,21.19,5.89,21.23c1.98,7.07,3.87,14.17,5.8,21.25l2.88,10.65c.47,1.91.35,3.98-.38,5.81-.7,1.84-2.01,3.44-3.65,4.54-.83.54-1.73.97-2.68,1.24-.86.27-1.89.48-2.86.52-1.97.07-3.97-.47-5.62-1.56-1.66-1.06-2.97-2.66-3.71-4.49l-1.74-5.29-6.85-20.93-6.73-20.97c-2.2-7-4.43-14-6.59-21.02,2.46,6.92,4.85,13.87,7.27,20.81l7.12,20.86,7.01,20.9,1.74,5.16c.64,1.57,1.77,2.95,3.21,3.85,1.42.93,3.14,1.38,4.83,1.32.86-.05,1.65-.21,2.54-.47.82-.22,1.59-.6,2.3-1.05,2.87-1.85,4.37-5.58,3.51-8.9l-2.81-10.64c-1.87-7.1-3.78-14.19-5.61-21.31l-5.52-21.33-5.38-21.37Z"/>
        </g>
        <g>
          <path class="cls-2" d="M325.33,152.9l-21.78,65.99c-1.28,4.77-6.23,7.63-10.99,6.35l-.61-.16c-4.77-1.28-7.63-6.23-6.35-10.99l19.72-73.58"/>
          <path class="cls-7" d="M325.33,152.9c-2.12,6.96-4.32,13.88-6.5,20.82l-6.64,20.77-6.76,20.73-.85,2.59-.42,1.3c-.15.46-.27.91-.49,1.36-.77,1.8-2.14,3.32-3.8,4.33-1.66,1.03-3.64,1.52-5.6,1.41-.98-.07-1.94-.29-2.82-.57-.94-.27-1.82-.72-2.63-1.27-1.62-1.1-2.87-2.72-3.56-4.54-.71-1.82-.82-3.86-.34-5.75l2.85-10.54c1.91-7.01,3.78-14.04,5.74-21.04l5.83-21.02,5.97-20.98-5.32,21.15-5.46,21.12c-1.8,7.04-3.7,14.06-5.55,21.09l-2.78,10.53c-.86,3.28.59,6.98,3.4,8.85.7.46,1.45.85,2.26,1.08.85.27,1.67.45,2.51.52,1.68.1,3.38-.31,4.82-1.19,1.44-.87,2.62-2.17,3.29-3.72.19-.37.3-.79.44-1.2l.43-1.29.86-2.59,6.92-20.69,7.03-20.65c2.38-6.87,4.74-13.75,7.18-20.6Z"/>
        </g>
      </g>
    </g>
  </g>
  <g>
    <path class="cls-8" d="M525.57,172.96c1.44-7.17,7.7-18.32,8.47-28.01,1.51-18.94-16.51-28.24-33.23-27.93-1.01.02-2.01.02-3.02,0-16.69-.32-34.67,9.02-33.14,27.93.78,9.69,7.09,20.83,8.55,28.01,1.89,9.31,0,37.99,0,37.99h52.4s-1.9-28.68-.03-37.99Z"/>
    <circle class="cls-9" cx="603.13" cy="99.89" r="21"/>
    <rect class="cls-9" x="577.58" y="124.41" width="51.1" height="97.1" rx="14.68" ry="14.68"/>
    <rect class="cls-9" x="577.57" y="205.22" width="23.94" height="57.96" rx="8.99" ry="8.99"/>
    <path class="cls-9" d="M585.65,241.05h7.77c4.46,0,8.08,3.62,8.08,8.08v62.24c0,6.14-4.99,11.13-11.13,11.13h-1.68c-6.14,0-11.13-4.99-11.13-11.13v-62.23c0-4.46,3.62-8.08,8.08-8.08Z"/>
    <rect class="cls-9" x="604.74" y="204.55" width="23.94" height="57.96" rx="8.99" ry="8.99"/>
    <path class="cls-9" d="M612.83,240.38h7.77c4.46,0,8.08,3.62,8.08,8.08v62.24c0,6.14-4.99,11.13-11.13,11.13h-1.68c-6.14,0-11.13-4.99-11.13-11.13v-62.23c0-4.46,3.62-8.08,8.08-8.08Z"/>
    <path class="cls-8" d="M603.66,124.41c-26.23,0-37.79,86.44-40.25,107.87-.29,2.54,1.69,4.76,4.25,4.76h72.01c2.56,0,4.54-2.22,4.25-4.76-2.46-21.43-14.02-107.87-40.25-107.87Z"/>
    <circle class="cls-4" cx="603.09" cy="213.91" r="27.14"/>
    <g>
      <path class="cls-8" d="M579.43,128.37c4.48-1.2,9.13,1.48,10.33,5.96l22.25,83.02c1.2,4.48-1.48,9.13-5.96,10.33l-1.23.33c-4.48,1.2-9.13-1.48-10.33-5.96l-22.25-83.02c-1.2-4.48,1.48-9.13,5.96-10.33"/>
      <path class="cls-7" d="M579.43,128.37c2.27-.66,4.82-.27,6.83,1.01,1.01.64,1.88,1.49,2.55,2.48.69.98,1.08,2.17,1.36,3.29l3.81,13.61,7.5,27.25,7.41,27.28,3.69,13.64c.72,2.4.4,5.17-.95,7.33-.66,1.09-1.54,2.04-2.59,2.76-.52.37-1.08.67-1.67.92-.58.25-1.22.42-1.77.57-.55.15-1.18.32-1.82.39-.63.08-1.27.1-1.91.04-1.27-.11-2.51-.49-3.62-1.1-2.25-1.19-3.91-3.44-4.48-5.87l-3.63-13.66c-2.41-9.11-4.86-18.2-7.22-27.33l-7.13-27.35-3.51-13.69c-.32-1.12-.57-2.34-.47-3.53.08-1.2.41-2.37.97-3.42,1.1-2.11,3.12-3.72,5.41-4.29-2.28.63-4.21,2.29-5.22,4.38-.52,1.04-.82,2.19-.87,3.34-.07,1.17.19,2.29.54,3.42l3.81,13.61,7.5,27.25c2.52,9.08,4.94,18.18,7.41,27.28l3.69,13.64c.53,2.15,1.93,4,3.86,5.03.95.52,2.01.84,3.09.92.54.05,1.08.03,1.62-.04.54-.07,1.04-.2,1.63-.36.59-.16,1.1-.29,1.59-.5.5-.21.98-.46,1.42-.78.89-.61,1.65-1.42,2.21-2.34,1.16-1.85,1.45-4.16.83-6.28l-3.63-13.66-7.22-27.33-7.13-27.35-3.51-13.69c-.26-1.16-.6-2.25-1.25-3.23-.62-.98-1.45-1.82-2.42-2.46-1.93-1.31-4.43-1.77-6.72-1.18Z"/>
    </g>
    <g>
      <path class="cls-8" d="M628.03,128.81c4.48,1.2,7.16,5.85,5.96,10.33l-22.22,82.92c-1.2,4.48-5.85,7.16-10.33,5.96l-1.23-.33c-4.48-1.2-7.16-5.85-5.96-10.33l22.22-82.92c1.2-4.48,5.85-7.16,10.33-5.96"/>
      <path class="cls-7" d="M628.03,128.81c2.29.57,4.3,2.17,5.41,4.28.56,1.05.89,2.23.97,3.42.1,1.19-.15,2.41-.47,3.53l-3.5,13.68-7.12,27.33-7.21,27.3-3.62,13.65c-.58,2.43-2.24,4.67-4.48,5.86-1.11.61-2.35.99-3.62,1.1-.63.06-1.27.04-1.9-.04-.63-.07-1.27-.24-1.81-.39-.55-.14-1.18-.32-1.77-.57-.59-.25-1.15-.55-1.67-.92-1.04-.73-1.93-1.68-2.59-2.76-1.35-2.15-1.67-4.92-.95-7.32l3.68-13.63c2.47-9.08,4.89-18.18,7.4-27.25l7.5-27.23,3.8-13.6c.28-1.13.68-2.31,1.36-3.29.67-.99,1.54-1.84,2.55-2.48,2.01-1.28,4.56-1.66,6.82-1-2.29-.59-4.78-.13-6.71,1.18-.97.64-1.8,1.48-2.42,2.46-.65.98-.99,2.07-1.25,3.23l-3.5,13.68-7.12,27.33c-2.36,9.11-4.81,18.2-7.21,27.3l-3.62,13.65c-.62,2.12-.32,4.42.83,6.27.57.92,1.32,1.73,2.21,2.34.44.31.92.57,1.42.77.5.21,1.01.35,1.59.51.59.16,1.09.29,1.63.36.53.07,1.08.09,1.62.04,1.08-.09,2.13-.4,3.09-.92,1.93-1.03,3.33-2.87,3.86-5.02l3.68-13.63,7.4-27.25,7.49-27.23,3.8-13.6c.35-1.13.6-2.25.53-3.42-.05-1.16-.35-2.3-.87-3.34-1.02-2.09-2.95-3.74-5.22-4.37Z"/>
    </g>
    <circle class="cls-9" cx="499.39" cy="94.02" r="21.52"/>
    <rect class="cls-9" x="473.2" y="201.96" width="24.53" height="59.4" rx="8.99" ry="8.99"/>
    <rect class="cls-9" x="501.06" y="201.96" width="24.53" height="59.4" rx="8.99" ry="8.99"/>
    <path class="cls-9" d="M509.97,238.68h6.71c4.92,0,8.91,3.99,8.91,8.91v62.29c0,6.77-5.5,12.27-12.27,12.27h0c-6.77,0-12.27-5.5-12.27-12.27v-62.29c0-4.92,3.99-8.91,8.91-8.91Z"/>
    <path class="cls-9" d="M482.11,238.68h6.71c4.92,0,8.91,3.99,8.91,8.91v62.29c0,6.77-5.5,12.27-12.27,12.27h0c-6.77,0-12.27-5.5-12.27-12.27v-62.29c0-4.92,3.99-8.91,8.91-8.91Z"/>
    <circle class="cls-3" cx="499.34" cy="210.87" r="27.81"/>
    <g>
      <path class="cls-8" d="M488.49,139.78l19.91,74.3c1.28,4.77-1.58,9.72-6.35,10.99l-.61.16c-4.77,1.28-9.72-1.58-10.99-6.35l-22.17-66.94"/>
      <path class="cls-7" d="M488.49,139.78l6.02,21.19,5.89,21.23c1.98,7.07,3.87,14.17,5.8,21.25l2.88,10.65c.47,1.91.35,3.98-.38,5.81-.7,1.84-2.01,3.44-3.65,4.54-.83.54-1.73.97-2.68,1.24-.86.27-1.89.48-2.86.52-1.97.07-3.97-.47-5.62-1.56-1.66-1.06-2.97-2.66-3.71-4.49l-1.74-5.29-6.85-20.93-6.73-20.97c-2.2-7-4.43-14-6.59-21.02,2.46,6.92,4.85,13.87,7.27,20.81l7.12,20.86,7.01,20.9,1.74,5.16c.64,1.57,1.77,2.95,3.21,3.85,1.42.93,3.14,1.38,4.83,1.32.86-.05,1.65-.21,2.54-.47.82-.22,1.59-.6,2.3-1.05,2.87-1.85,4.37-5.58,3.51-8.9l-2.81-10.64c-1.87-7.1-3.78-14.19-5.61-21.31l-5.52-21.33-5.38-21.37Z"/>
    </g>
    <g>
      <path class="cls-8" d="M530.11,152.9l-21.78,65.99c-1.28,4.77-6.23,7.63-10.99,6.35l-.61-.16c-4.77-1.28-7.63-6.23-6.35-10.99l19.72-73.58"/>
      <path class="cls-7" d="M530.11,152.9c-2.12,6.96-4.32,13.88-6.5,20.82l-6.64,20.77-6.76,20.73-.85,2.59-.42,1.3c-.15.46-.27.91-.49,1.36-.77,1.8-2.14,3.32-3.8,4.33-1.66,1.03-3.64,1.52-5.6,1.41-.98-.07-1.94-.29-2.82-.57-.94-.27-1.82-.72-2.63-1.27-1.62-1.1-2.87-2.72-3.56-4.54-.71-1.82-.82-3.86-.34-5.75l2.85-10.54c1.91-7.01,3.78-14.04,5.74-21.04l5.83-21.02,5.97-20.98-5.32,21.15-5.46,21.12c-1.8,7.04-3.7,14.06-5.55,21.09l-2.78,10.53c-.86,3.28.59,6.98,3.4,8.85.7.46,1.45.85,2.26,1.08.85.27,1.67.45,2.51.52,1.68.1,3.38-.31,4.82-1.19,1.44-.87,2.62-2.17,3.29-3.72.19-.37.3-.79.44-1.2l.43-1.29.86-2.59,6.92-20.69,7.03-20.65c2.38-6.87,4.74-13.75,7.18-20.6Z"/>
    </g>
  </g>
</svg>