<?xml version="1.0" encoding="UTF-8"?>
<svg id="Layer_1" data-name="Layer 1" xmlns="http://www.w3.org/2000/svg" viewBox="0 0 700 396.68">
  <defs>
    <style>
      .cls-1 {
        fill: #de5b48;
      }

      .cls-2 {
        fill: #a1b9c6;
        opacity: .7;
      }

      .cls-3 {
        fill: #16a992;
      }

      .cls-4 {
        fill: #32373f;
      }

      .cls-5 {
        fill: #efedea;
      }
    </style>
  </defs>
  <rect class="cls-5" x="0" y=".2" width="700" height="396.48"/>
  <g>
    <circle class="cls-1" cx="174.22" cy="198.41" r="75"/>
    <g>
      <g>
        <path class="cls-5" d="M174.6,166c6.19,17.01-12.9,39.57-12.9,39.57,0,0-29.13-5.01-35.32-22.02-2.63-7.22,1.09-15.21,8.31-17.83,4.65-1.69,9.6-.74,13.25,2.07.99-4.5,4.17-8.41,8.82-10.1,7.22-2.63,15.21,1.1,17.84,8.32Z"/>
        <path class="cls-5" d="M160.98,203.48c0-.26.08-.27.17-.03,0,0,.4,1.07,1.25,1.75.9.72,1.86.97,1.86.97.25.07.26.2.02.31l-3.51,1.54c-.23.1-.35,0-.25-.24,0,0,.2-.49.33-1.96.11-1.23.13-2.34.13-2.34Z"/>
      </g>
      <g>
        <path class="cls-5" d="M221.03,170.09c-9.05,15.67-38.61,15.55-38.61,15.55,0,0-14.88-25.53-5.84-41.21,3.84-6.65,12.35-8.94,19.01-5.09,4.28,2.47,6.74,6.88,6.93,11.48,4.08-2.13,9.12-2.21,13.41.26,6.66,3.84,8.94,12.35,5.09,19.01Z"/>
        <path class="cls-5" d="M183.56,183.75c.2-.16.26-.11.13.11,0,0-.56.99-.53,2.08.03,1.15.45,2.05.45,2.05.11.23.01.33-.22.21l-3.44-1.7c-.23-.11-.22-.27.03-.35,0,0,.51-.16,1.71-1,1.01-.71,1.87-1.41,1.87-1.41Z"/>
      </g>
      <path class="cls-5" d="M168.28,259.24c3.65,0,4.15-.52,4.22-.64l-.48-.17h0s-.63.56-5.31.41c-1.34-.04-1.76-.26-1.87-.43-.33-.5,1.01-1.59,2.31-2.64.77-.62,1.57-1.27,2.17-1.9,2.43-2.54.05-6.35-2.29-9.38-2.39-3.1-4.62-9.95-4.74-10.31-.07-.68-2.19-21.69-2.49-26.01-.16-2.32.47-2.89.86-3.03.44-.15.91.1.93.11l.28-.29s-.76-.4-1.47-.16c-.88.31-1.26,1.44-1.12,3.36.31,4.37,2.47,25.82,2.5,26.04h0s0,.03,0,.03c.09.29,2.31,7.21,4.8,10.43,2.27,2.93,4.58,6.61,2.3,8.99-.59.61-1.38,1.25-2.14,1.87-1.53,1.24-2.85,2.31-2.37,3.04.27.41,1.02.62,2.35.67.57.02,1.08.03,1.55.03Z"/>
      <path class="cls-5" d="M174.08,259.34c-3.65,0-4.14-.72-4.2-.88l.48-.23h0s.62.77,5.3.56c1.34-.06,1.76-.35,1.88-.59.34-.69-.98-2.18-2.25-3.62-.76-.86-1.54-1.74-2.13-2.61-2.37-3.49.08-8.71,2.49-12.86,2.46-4.25,4.84-13.64,4.96-14.14.08-.93,2.65-29.74,3.05-35.66.21-3.18-.41-3.97-.79-4.16-.43-.21-.91.13-.93.15l-.28-.4s.76-.55,1.47-.21c.87.42,1.23,1.97,1.05,4.6-.4,6-3.03,35.4-3.05,35.69v.02s0,.02,0,.02c-.1.4-2.47,9.89-5.02,14.3-2.33,4.02-4.72,9.06-2.49,12.33.57.84,1.35,1.72,2.1,2.56,1.51,1.7,2.81,3.17,2.31,4.17-.28.56-1.03.86-2.37.92-.57.03-1.08.04-1.55.04Z"/>
    </g>
  </g>
  <g>
    <g>
      <path class="cls-4" d="M525.78,123.46c20.71,0,37.5,16.79,37.5,37.5s-16.79,37.5-37.5,37.5-37.5,16.79-37.5,37.5,16.79,37.5,37.5,37.5c-41.42,0-75-33.58-75-75s33.58-75,75-75Z"/>
      <path class="cls-2" d="M525.78,273.46c-20.71,0-37.5-16.79-37.5-37.5s16.79-37.5,37.5-37.5,37.5-16.79,37.5-37.5-16.79-37.5-37.5-37.5c41.42,0,75,33.58,75,75s-33.58,75-75,75Z"/>
    </g>
    <g>
      <path class="cls-5" d="M512.94,234.01c-.06-.34-.09-.7-.09-1.06,0-3.34,2.71-6.04,6.04-6.04.74,0,1.44.13,2.09.37.15-1.61,1.51-2.88,3.16-2.88,1.16,0,2.18.63,2.73,1.56,1.63-1.15,3.62-1.83,5.76-1.83,5.53,0,10.02,4.48,10.02,10.02,0,.44-.03.87-.09,1.29,1.4,1.15,2.3,2.9,2.3,4.84h0c0,3.31-2.6,6.05-5.86,6.26-1.42,1.92-3.7,3.16-6.27,3.16-2.52,0-4.76-1.2-6.19-3.05-1.32,1.5-3.25,2.45-5.41,2.45-2.2,0-4.17-.99-5.49-2.55h-2.66c-3.45,0-6.28-2.82-6.28-6.28h0c0-3.44,2.8-6.25,6.24-6.28Z"/>
      <path class="cls-5" d="M539.84,153.22c0,9.91-14.06,17.95-14.06,17.95,0,0-14.06-8.04-14.06-17.95,0-4.21,3.41-7.62,7.62-7.62,2.71,0,5.08,1.42,6.43,3.55,1.35-2.13,3.72-3.55,6.43-3.55,4.21,0,7.62,3.41,7.62,7.62Z"/>
    </g>
  </g>
  <g>
    <circle class="cls-3" cx="350" cy="198.34" r="75"/>
    <g>
      <path class="cls-5" d="M371.86,142.08l.11-.21-.12.2h.01s.11-.2.11-.2l-.12.2s.01.01.03.04c.05.09.17.31.23.78.09.64.07,1.75-.42,3.52-.22.79-.65,1.62-1.27,2.46-1.07,1.47-2.69,2.97-4.56,4.52-2.8,2.34-6.15,4.83-9.09,7.72-1.47,1.45-2.85,3-4,4.69-1.15,1.69-2.09,3.53-2.67,5.55-.93,3.24-1.15,7.55-.99,12.22.16,4.67.69,9.68,1.31,14.28.46,3.44.97,6.64,1.41,9.28.44,2.64.8,4.73.95,5.91l.77-.16c-.17-1.23-.53-3.31-.96-5.95-.43-2.64-.94-5.82-1.4-9.24-.62-4.57-1.15-9.54-1.3-14.13-.15-4.59.08-8.79.94-11.78.82-2.85,2.43-5.39,4.43-7.69,3-3.46,6.88-6.38,10.21-9.1,1.66-1.36,3.19-2.68,4.4-4.01.61-.67,1.14-1.33,1.57-2.02.43-.69.77-1.4.97-2.14.52-1.89.58-3.2.46-4.09-.07-.5-.19-.87-.31-1.12-.12-.25-.23-.37-.26-.4l-.45.86h0Z"/>
      <path class="cls-5" d="M393,211.94c-.94-14.04-16.3-13.06-15.73-17.68.4-2.02,7.38.29,10.5-1.21,3.2-1.54,3.94-4.91,4.34-5.37.4-.46.81-.75.87-1.04.06-.29-.06-.92-1.04-1.85-.98-.92-9.99-14.27-22.13-14.67s-15.26,9.42-15.95,10.98c-.69,1.56-2.88,1.98-2.88,1.98-1.22.04-4.43-.31-4.87-1.98-.14-.52-3.81-11.38-15.95-10.98-12.13.4-21.14,13.75-22.13,14.67-.98.92-1.1,1.56-1.04,1.85.06.29.46.58.87,1.04.4.46,1.92,4.23,5.14,5.72,3.87,1.79,9.3-1.16,9.71.87.58,4.62-14.79,3.64-15.73,17.68-.33,7.63,1.51,11.73,2.55,13.63,1.04,1.91,3.41,4.1,3.93,4.68.52.58,1.16,2.14,1.91,2.43.75.29,1.79-1.27,2.48-1.33.69-.06,7.51-2.37,9.71-3.18,2.2-.81,4.74-4.04,5.95-6.87,1.21-2.83,2.83-6.59,3.35-8.38.52-1.79,1.04-3.93,2.31-3.41,1.27.52.4,8.84-2.14,12.13-2.54,3.29-6.24,6.93-6.07,13.52.17,6.59,8.78,20.45,18.54,20.62.16,0,.32,0,.47-.01.15.01.31.02.47.01,9.76-.17,18.37-14.04,18.54-20.62.17-6.59-3.52-10.23-6.07-13.52-2.54-3.29-3.41-11.61-2.14-12.13,1.27-.52,1.79,1.62,2.31,3.41.52,1.79,2.14,5.55,3.35,8.38,1.21,2.83,3.76,6.07,5.95,6.87,2.2.81,9.01,3.12,9.71,3.18.69.06,1.73,1.62,2.48,1.33.75-.29,1.39-1.85,1.91-2.43s2.89-2.77,3.93-4.68c1.04-1.91,2.89-6.01,2.55-13.63Z"/>
    </g>
  </g>
</svg>