<?xml version="1.0" encoding="UTF-8"?>
<svg xmlns="http://www.w3.org/2000/svg" viewBox="0 0 96.38 96.38">
  <defs>
    <style>
      .cls-1 {
        fill: #0ca38d;
        opacity: .5;
      }
    </style>
  </defs>
  <path class="cls-1" d="M96.23,48.19c0,26.53-21.51,48.04-48.04,48.04S.14,74.72.14,48.19,21.65.14,48.19.14s48.04,21.51,48.04,48.04ZM55.86,54.32c-3.38,0-6.13,2.74-6.13,6.13s2.74,6.13,6.13,6.13,6.13-2.74,6.13-6.13-2.74-6.13-6.13-6.13ZM40.33,31.63c-3.41,0-6.17,2.76-6.17,6.17s2.76,6.17,6.17,6.17,6.17-2.76,6.17-6.17-2.76-6.17-6.17-6.17ZM60.65,36.96c-3.42,0-6.19,2.77-6.19,6.19s2.77,6.19,6.19,6.19,6.19-2.77,6.19-6.19-2.77-6.19-6.19-6.19ZM36.04,48.68c-3.4-.19-6.3,2.42-6.49,5.82s2.42,6.3,5.82,6.49c3.4.19,6.3-2.42,6.49-5.82s-2.42-6.3-5.82-6.49Z"/>
  <path class="cls-1" d="M83.4,48.19c0,19.46-15.77,35.23-35.23,35.23S12.94,67.65,12.94,48.19,28.71,12.96,48.17,12.96s35.23,15.77,35.23,35.23ZM55.84,54.33c-3.38,0-6.13,2.74-6.13,6.13s2.74,6.13,6.13,6.13,6.13-2.74,6.13-6.13-2.74-6.13-6.13-6.13ZM40.31,31.65c-3.41,0-6.17,2.76-6.17,6.17s2.76,6.17,6.17,6.17,6.17-2.76,6.17-6.17-2.76-6.17-6.17-6.17ZM60.63,36.98c-3.42,0-6.19,2.77-6.19,6.19s2.77,6.19,6.19,6.19,6.19-2.77,6.19-6.19-2.77-6.19-6.19-6.19ZM36.02,48.7c-3.4-.19-6.3,2.42-6.49,5.82-.19,3.4,2.42,6.3,5.82,6.49,3.4.19,6.3-2.42,6.49-5.82.19-3.4-2.42-6.3-5.82-6.49Z"/>
</svg>