<?xml version="1.0"?>
<svg xmlns="http://www.w3.org/2000/svg" width="130.60471mm" height="65.414177mm" viewBox="0 0 462.77258 231.78251">
  <title>The British Museum logo</title>
    <path transform="translate(-75.250144,-131.59247)" style="fill:#000"
       d="m 247.23819,185.01705 c -0.19145,-0.19144 -0.3481,-12.16016 -0.3481,-26.59713 l 0,-26.24904 2.2191,-0.32723 c 1.22051,-0.17997 7.5734,-0.25311 14.11755,-0.16253 13.08339,0.1811 12.87979,0.12643 12.89519,3.4624 0.0173,3.75739 0.0351,3.75118 -10.71423,3.75118 l -9.64122,0 0,7.04889 0,7.04889 9.60372,0 c 10.58369,0 10.23759,-0.11475 10.23759,3.39391 0,3.50866 0.3461,3.39391 -10.23759,3.39391 l -9.60372,0 0,9.39851 0,9.39852 11.95334,0 c 13.186,0 12.58723,-0.16145 12.58723,3.39391 0,3.60594 1.04189,3.39391 -16.67732,3.39391 -8.8239,0 -16.20009,-0.15665 -16.39154,-0.3481 z m -54.57464,-0.34354 c -0.44868,-0.54063 -0.57254,-7.49192 -0.47256,-26.51912 l 0.13549,-25.78643 1.94742,-0.4811 c 1.18751,-0.29337 2.91932,-0.29337 4.43817,0 l 2.49079,0.4811 0.14206,9.79012 0.14205,9.79012 12.25877,0 12.25877,0 0,-9.67251 0,-9.67251 1.33933,-0.50922 c 1.71776,-0.65308 5.00209,-0.65308 6.71984,0 l 1.33934,0.50922 0,25.79491 c 0,21.53839 -0.12127,25.89556 -0.73491,26.40484 -0.45566,0.37815 -2.19171,0.55125 -4.56873,0.45554 l -3.83381,-0.15439 -0.13949,-13.18403 -0.13951,-13.18404 -12.25235,0 -12.25235,0 -0.13951,13.18404 -0.1395,13.18403 -3.96564,0.15104 c -2.91322,0.11095 -4.12699,-0.0434 -4.57367,-0.58161 z m -32.08054,0.36359 c -0.20246,-0.20248 -0.36813,-10.66071 -0.36813,-23.24053 l 0,-22.87239 -7.17942,-0.14527 -7.17942,-0.14528 -0.15905,-3.0844 c -0.10901,-2.11412 0.0553,-3.22032 0.52214,-3.51645 0.37465,-0.23762 8.81738,-0.43564 18.76161,-0.44004 14.98186,-0.007 18.1858,0.11897 18.69526,0.73283 0.35418,0.42676 0.5473,1.92092 0.45553,3.52445 l -0.15929,2.78361 -7.43507,0.14485 -7.43507,0.14484 -0.13596,23.09038 -0.13595,23.09038 -3.93953,0.15056 c -2.16673,0.0828 -4.10518,-0.015 -4.30765,-0.21754 z m 144.10877,80.92982 c -0.20146,-0.20147 -0.3663,-15.10464 -0.3663,-33.1182 0,-29.38382 0.0849,-32.78452 0.82591,-33.06886 1.20594,-0.46276 8.19905,-0.37237 8.96816,0.11593 0.51841,0.3291 0.62833,7.33488 0.52215,33.2784 l -0.13449,32.86156 -4.72457,0.14875 c -2.59852,0.0817 -4.88941,-0.0163 -5.09086,-0.21758 z m 145.04965,0.42146 -1.56642,-0.36278 -0.1344,-32.95834 -0.13441,-32.95838 1.17868,-0.31584 c 0.64827,-0.17372 2.74791,-0.31907 4.66583,-0.32299 5.31562,-0.0109 5.12816,-0.50823 5.12816,13.60581 l 0,11.97191 16.18634,0 16.18634,0 0,-12.28321 0,-12.28321 1.33935,-0.5092 c 1.76898,-0.67259 7.33825,-0.65235 8.61563,0.0312 0.98195,0.52552 1.00995,1.44406 1.00995,33.12507 0,25.38565 -0.14322,32.67305 -0.64825,32.98517 -0.75001,0.46353 -9.02935,0.39498 -9.79973,-0.0811 -0.32315,-0.19971 -0.51695,-6.37579 -0.51695,-16.47502 l 0,-16.15551 -16.18634,0 -16.18634,0 -0.008,15.79473 c -0.003,8.68712 -0.20071,16.0985 -0.43624,16.46976 -0.49675,0.783 -6.33583,1.26792 -8.69322,0.72188 z m -68.77384,-0.11503 -1.1929,-0.28459 -0.1344,-32.93993 -0.13441,-32.93995 1.17868,-0.31584 c 1.53609,-0.41164 7.38383,-0.42075 8.44594,-0.0132 0.74101,0.28435 0.82592,3.69417 0.82592,33.17225 0,27.57667 -0.11668,32.90012 -0.7262,33.134 -1.02979,0.3952 -6.83908,0.52681 -8.26263,0.18722 z m -37.22055,0.19961 c -2.41816,-0.66807 -2.34963,0.20683 -2.34963,-30.00202 l 0,-28.65378 -9.07656,0 c -8.97133,0 -9.08019,-0.0137 -9.39138,-1.17481 -0.49313,-1.84013 -0.38283,-5.05913 0.21141,-6.16948 0.52198,-0.97532 1.33213,-1.00967 23.62683,-1.00195 12.69748,0.003 23.41096,0.2136 23.80775,0.46491 0.86189,0.54588 1.24749,5.59716 0.52965,6.93847 -0.43497,0.81273 -1.52555,0.93472 -9.48658,1.06112 l -8.99511,0.14281 -0.15013,28.71118 c -0.0826,15.79113 -0.33419,28.89525 -0.55916,29.1202 -0.51688,0.51686 -6.77329,0.94844 -8.16709,0.56335 z M 214.31462,228.45121 c 4.04384,-1.68923 6.24213,-4.68464 6.77564,-9.23253 0.5972,-5.09087 -1.58943,-9.63731 -5.40104,-11.2299 -2.05259,-0.85763 -9.31812,-1.51234 -11.29017,-1.01738 l -1.3687,0.34352 0,10.86797 c 0,5.97737 0.17622,11.05019 0.39161,11.27292 0.63653,0.65826 8.69002,-0.0846 10.89266,-1.0046 z m 6.79441,29.10064 c 2.75469,-1.44541 4.75931,-3.83496 5.20352,-6.20276 0.57319,-3.0554 -0.11862,-7.42771 -1.50727,-9.52614 -2.64713,-4.00008 -9.68372,-6.15694 -17.83779,-5.46768 l -3.93714,0.33279 0,11.20521 0,11.20516 7.96264,-0.20831 c 6.90284,-0.18066 8.24924,-0.35878 10.11604,-1.33827 z m -25.90869,8.83286 c -1.00396,-0.0953 -2.12003,-0.41776 -2.48016,-0.71663 -0.81359,-0.67523 -0.95193,-63.88337 -0.1426,-65.16088 0.78431,-1.23801 21.96291,-1.11162 26.6391,0.15896 5.20082,1.41315 8.43366,3.81745 10.38581,7.72403 1.46103,2.92378 1.6229,3.72351 1.61831,7.99514 -0.003,3.88324 -0.22791,5.22117 -1.23036,7.35709 -1.39862,2.98009 -3.42661,5.17057 -6.01769,6.4999 l -1.79055,0.91858 3.64664,1.10765 c 7.47232,2.26963 11.05326,6.75762 11.53347,14.45475 0.61469,9.85278 -3.76923,15.87506 -13.44637,18.47142 -3.24521,0.87073 -5.88382,1.07745 -15.40313,1.20694 -6.31788,0.086 -12.3085,0.0783 -13.31247,-0.0171 z m 68.50307,-30.95846 c 7.94399,-1.68381 11.86274,-6.0029 12.31507,-13.57331 0.38231,-6.39848 -1.45192,-10.3894 -5.89316,-12.82241 -2.17992,-1.19421 -3.40761,-1.46567 -7.44049,-1.64513 l -4.8298,-0.21494 0,14.42112 0,14.42113 1.54073,0 c 0.84739,0 2.78584,-0.26391 4.30765,-0.58646 z m 13.20838,19.96014 -12.53001,-12.4768 -3.26337,0.567 -3.26338,0.56705 0,10.8347 c 0,6.48535 -0.20466,10.96121 -0.50981,11.1498 -0.863,0.53334 -8.5722,0.67884 -9.54138,0.18004 -0.85557,-0.44031 -0.91375,-2.56254 -0.91375,-33.33675 l 0,-32.86647 1.34532,-0.33765 c 2.41451,-0.606 21.166,0.17107 24.06389,0.99723 8.49769,2.42257 13.11983,7.36648 14.37009,15.37039 1.50286,9.62129 -1.24369,16.30312 -8.74917,21.28497 -1.559,1.03479 -2.83318,2.04512 -2.83148,2.24516 0.002,0.20004 4.71504,5.04599 10.47408,10.76878 5.75906,5.72277 10.71058,10.85269 11.00337,11.39977 0.44936,0.83964 0.0985,1.39457 -2.25039,3.559 -1.53051,1.41031 -3.25327,2.56565 -3.82837,2.56742 -0.66965,0.003 -5.55105,-4.4831 -13.57563,-12.47364 z m 130.33757,12.42113 c -2.11954,-0.24846 -4.18536,-0.72699 -4.5907,-1.06341 -0.53025,-0.44006 -0.69421,-1.57732 -0.58447,-4.0539 l 0.15251,-3.44227 2.08856,0.13747 c 1.14871,0.0757 4.79064,0.1931 8.09317,0.26107 5.74793,0.11833 6.13852,0.0567 9.13744,-1.44283 3.93963,-1.9698 5.48247,-4.12686 5.48247,-7.665 0,-1.40265 -0.32098,-3.30633 -0.71329,-4.23043 -0.95912,-2.25924 -5.06107,-6.17474 -10.05956,-9.6024 -6.00804,-4.11989 -8.79501,-7.04308 -11.03413,-11.57342 -1.81853,-3.67937 -1.95032,-4.26567 -1.94947,-8.67267 7e-4,-4.12907 0.17966,-5.06562 1.41501,-7.40919 2.42364,-4.59788 7.7174,-8.2311 13.88237,-9.52778 1.52181,-0.32009 4.84491,-0.58198 7.38463,-0.58198 3.72907,0 4.67869,0.15894 4.93462,0.82592 0.55575,1.44824 0.34024,6.25188 -0.30962,6.90175 -0.38737,0.38737 -2.29245,0.62657 -4.99019,0.62657 -5.94344,0 -8.63911,0.75286 -10.57001,2.95203 -1.25962,1.43463 -1.56599,2.25853 -1.56599,4.21125 0,4.78515 3.40756,9.11052 11.05433,14.03171 5.02341,3.23288 9.12985,7.55248 11.06762,11.64217 1.51503,3.1975 1.63413,3.85511 1.61802,8.93402 -0.0146,4.58794 -0.21589,5.9278 -1.23396,8.21172 -2.19738,4.92962 -7.90673,8.95862 -14.20703,10.02566 -4.6261,0.78355 -10.40458,0.98431 -14.50233,0.50394 z m 44.03418,92.50238 c -0.36033,-0.36032 -0.0843,-5.36539 0.85781,-15.55221 4.66462,-50.43954 5.8869,-62.60444 6.34892,-63.18829 0.35838,-0.45288 2.31537,-0.65266 6.39321,-0.65266 4.08248,0 6.03178,0.19929 6.38454,0.65266 0.27927,0.35899 5.16418,12.28338 10.85533,26.49861 5.69115,14.21528 10.75148,26.75173 11.24519,27.85883 l 0.89762,2.01287 1.57214,-4.10143 c 0.86468,-2.25581 4.19034,-11.03285 7.39035,-19.50459 9.13079,-24.17286 12.19367,-32.06051 12.72277,-32.76429 0.34388,-0.45739 2.32968,-0.65266 6.6366,-0.65266 5.07899,0 6.19997,0.14101 6.45756,0.81224 0.70929,1.84837 9.34838,77.40944 8.96473,78.40923 -0.35547,0.92633 -10.38759,0.93827 -11.12004,0.0134 -0.28423,-0.35894 -0.91564,-4.41208 -1.40311,-9.00691 -0.48746,-4.59484 -2.0459,-18.27736 -3.46318,-30.40567 -1.41729,-12.12831 -2.59326,-22.23171 -2.61326,-22.45202 -0.02,-0.22029 -0.59069,1.0092 -1.26818,2.73226 -1.4554,3.70151 -19.68285,51.84406 -21.35047,56.3911 -1.12475,3.0668 -1.19344,3.13614 -3.25936,3.28923 -1.27998,0.0949 -2.31922,-0.11061 -2.64107,-0.52213 -0.29187,-0.37318 -5.14592,-12.19173 -10.78676,-26.26339 -14.10673,-35.19068 -13.62528,-34.03049 -13.75872,-33.15588 -0.23491,1.53956 -2.26091,22.97311 -3.55358,37.59407 -0.7236,8.18456 -1.48903,16.52572 -1.70093,18.53597 l -0.38528,3.65497 -4.44577,0.14908 c -2.5304,0.0848 -4.67467,-0.0799 -4.97706,-0.38224 z m -130.94577,0.14616 c -0.19145,-0.19149 -0.3481,-17.88417 -0.3481,-39.31713 0,-29.61306 0.15043,-39.11948 0.62658,-39.59563 0.46573,-0.46575 5.81234,-0.62656 20.82972,-0.62656 22.87942,0 20.83703,-0.46061 20.83703,4.69925 0,5.10599 1.31535,4.69927 -15.19791,4.69927 l -14.56406,0 0,11.48707 0,11.48707 14.29492,0 c 11.65207,0 14.40767,0.13589 14.90483,0.73493 0.37768,0.45505 0.55113,2.18634 0.45554,4.54683 -0.14431,3.56334 -0.2395,3.83548 -1.45974,4.17337 -0.71794,0.19879 -7.35564,0.38488 -14.75045,0.41349 l -13.4451,0.052 0,14.09777 0,14.09777 17.42775,0 c 15.02197,0 17.51947,0.11054 18.09214,0.80055 0.90534,1.09086 1.24645,5.40319 0.56652,7.16209 l -0.55505,1.43589 -23.68326,0 c -13.0258,0 -23.83991,-0.15664 -24.03136,-0.34808 z M 75.70906,360.34302 c -0.576379,-0.36529 -0.599324,-1.46445 -0.127911,-6.12717 0.895039,-8.85281 5.060884,-53.38958 6.807353,-72.77697 1.32533,-14.7124 1.717453,-17.5954 2.467835,-18.14436 1.242112,-0.90869 12.688867,-0.89796 13.934801,0.0129 0.827817,0.60532 4.929652,10.52288 23.196302,56.08489 3.7401,9.3288 6.26083,14.97138 6.49851,14.54669 0.21355,-0.38162 1.35404,-3.36296 2.5344,-6.62525 1.18037,-3.26224 3.9817,-10.8656 6.22516,-16.89631 2.24348,-6.03073 6.95833,-18.83618 10.47746,-28.45663 3.51912,-9.6204 6.74853,-17.90284 7.17644,-18.40543 0.67102,-0.78802 1.76375,-0.91374 7.94316,-0.91374 5.6505,0 7.29908,0.16144 7.79889,0.7637 0.68204,0.82176 2.09088,11.85567 6.53599,51.18921 1.5578,13.78449 3.35348,29.42759 3.9904,34.7624 0.63693,5.3348 1.00718,10.0928 0.82279,10.57333 -0.28746,0.74909 -1.22169,0.87365 -6.55338,0.87365 -4.63169,0 -6.36979,-0.18271 -6.81253,-0.71621 -0.32692,-0.3939 -1.65603,-10.20361 -2.9536,-21.79934 -2.95309,-26.39062 -6.48278,-55.96174 -6.70644,-56.18538 -0.18317,-0.18317 -1.72064,3.87265 -11.03038,29.09764 -3.33862,9.0461 -7.33519,19.85439 -8.88127,24.01844 -1.54607,4.16408 -4.24281,11.44128 -5.99274,16.17163 -1.74993,4.73034 -3.46366,8.77984 -3.80829,8.99893 -1.00254,0.63726 -4.36551,0.4751 -4.94347,-0.23839 -0.53017,-0.65444 -4.84802,-10.9475 -8.48757,-20.2329 -1.06935,-2.72815 -4.56518,-11.42178 -7.76852,-19.31917 -3.20334,-7.89735 -7.72221,-19.1312 -10.041924,-24.96405 -2.319712,-5.83289 -4.332494,-10.49042 -4.47285,-10.35007 -0.140351,0.14035 -0.574834,3.6204 -0.965516,7.73349 -1.679243,17.6789 -2.877395,30.52633 -4.422566,47.42195 -0.906092,9.90762 -1.856888,18.54247 -2.112879,19.18864 -0.433664,1.09461 -0.778181,1.17427 -5.045362,1.16683 -2.518956,-0.003 -4.895988,-0.20832 -5.282293,-0.45314 z m 198.59338,2.18192 c -8.9303,-0.64282 -9.66367,-1.10088 -9.65159,-6.02846 0.012,-4.88255 1.4e-4,-4.87478 6.17968,-4.0569 14.8673,1.96776 24.11935,-2.2295 24.08497,-10.9263 -0.006,-1.74236 -0.41983,-3.79989 -1.03437,-5.15406 -1.45716,-3.21088 -6.68557,-8.43194 -11.93822,-11.92151 -11.36805,-7.55222 -16.08797,-15.03064 -15.63085,-24.76613 0.34141,-7.27102 3.1381,-11.707 9.95922,-15.79677 4.46102,-2.67474 8.7674,-3.55085 16.56558,-3.37027 l 6.52522,0.15113 0.46732,2.21909 c 0.27474,1.30464 0.27499,3.13359 4.3e-4,4.43819 l -0.46675,2.21909 -6.90903,0.31676 c -5.9304,0.27193 -7.26153,0.49812 -9.39757,1.59712 -3.36624,1.73187 -4.94949,4.44149 -4.69501,8.0351 0.39222,5.53886 4.07006,10.23929 12.51929,16.00021 12.56922,8.5701 17.80314,17.49202 16.07684,27.40511 -1.68485,9.67512 -8.09475,15.91675 -18.87868,18.38304 -4.45878,1.01972 -10.01641,1.52623 -13.77665,1.25556 z m 123.74714,0.16361 c -8.94187,-2.18346 -14.69553,-7.56229 -17.70112,-16.54794 -2.70934,-8.09998 -3.02793,-11.82718 -3.28465,-38.42674 -0.17066,-17.68346 -0.0717,-24.94375 0.35049,-25.73276 0.55001,-1.02769 0.95132,-1.08952 6.17357,-0.95122 l 5.58533,0.14792 0.32944,25.58485 c 0.32756,25.43978 0.48419,27.65947 2.35798,33.41695 3.3362,10.25098 10.13849,14.81682 19.84742,13.322 4.03211,-0.62076 10.18501,-3.39266 12.65718,-5.70202 l 1.61884,-1.5122 0,-32.05876 c 0,-24.23839 0.15286,-32.21159 0.62658,-32.68533 0.40177,-0.40176 2.45576,-0.62656 5.72516,-0.62656 4.50645,0 5.16138,0.11729 5.63911,1.00994 0.84712,1.58288 0.73911,70.59581 -0.11216,71.66729 -0.39446,0.49649 -1.82847,0.93296 -3.6246,1.10322 -2.17932,0.20655 -4.89473,1.185 -10.18172,3.66877 -3.9654,1.86286 -8.48602,3.76094 -10.04581,4.21796 -3.38668,0.99227 -12.09221,1.04933 -15.96104,0.10463 z M 212.83699,362.604 c -12.69015,-3.07649 -18.67656,-12.43203 -20.21265,-31.58813 -0.80132,-9.99308 -0.74846,-48.65646 0.0676,-49.47254 0.40031,-0.40029 2.43666,-0.62656 5.63912,-0.62656 3.20245,0 5.23879,0.22627 5.6391,0.62656 0.46788,0.46788 0.62694,6.31956 0.62804,23.10469 6.9e-4,12.85408 0.24317,24.49012 0.56598,27.17738 1.90615,15.86775 9.62727,23.5727 21.70632,21.66083 4.00193,-0.63343 10.03503,-3.36956 12.60448,-5.71639 l 1.67154,-1.52673 0,-32.07711 c 0,-26.83126 0.11934,-32.17614 0.72973,-32.68269 0.47444,-0.39378 2.52945,-0.55314 5.87408,-0.45556 l 5.14434,0.15009 0,36.54978 0,36.54979 -3.13285,0.35197 c -3.11907,0.35041 -8.31861,2.2993 -12.79242,4.79475 -1.2923,0.72084 -4.15328,1.91365 -6.35774,2.65067 -3.3271,1.11237 -4.92397,1.33266 -9.39852,1.29658 -2.96472,-0.0238 -6.73401,-0.36926 -8.37618,-0.76738 z" />
</svg>