<?xml version="1.0" encoding="UTF-8"?>
<svg id="layer" xmlns="http://www.w3.org/2000/svg" version="1.1" viewBox="0 0 599.1 124.7">
  <!-- Generator: Adobe Illustrator 30.2.1, SVG Export Plug-In . SVG Version: 2.1.1 Build 1)  -->
  <defs>
    <style>
      .st0 {
        fill: #df271c;
      }
    </style>
  </defs>
  <polygon class="st0" points="41.6 0 41.6 41.6 0 41.6 0 83.2 41.6 83.2 41.6 124.7 83.2 124.7 83.2 83.2 124.8 83.2 124.8 41.6 83.2 41.6 83.2 0 41.6 0"/>
  <g>
    <path d="M166.3,64.6h9.9c3.9,0,6.6,1.7,6.6,5.9s-3.1,5.5-6.8,5.5h-9.8v-11.4h.1ZM157.2,83.2h20.2c7.5,0,14.7-3.6,14.7-12.1s-2.6-9.1-7.6-10.5c3.6-1.8,5.7-4.6,5.7-8.7,0-7.7-5.4-10.3-13.3-10.3h-19.6v41.6h0ZM166.3,48.7h8.6c3.3,0,6.3.8,6.3,4.8s-2.4,5-5.6,5h-9.3v-9.8Z"/>
    <path d="M195.8,53h7.9v5.6h.1c1.5-3.8,5.6-6.4,9.6-6.4s1.3.1,1.8.3v7.7c-.8-.2-2-.3-3-.3-6.1,0-8.2,4.4-8.2,9.7v13.6h-8.2v-30.2Z"/>
    <path d="M219,53h8.3v30.1h-8.3v-30.1ZM227.3,48.4h-8.3v-6.8h8.3v6.8Z"/>
    <path d="M244.9,53h6.1v5.6h-6.1v14.9c0,2.8.7,3.5,3.5,3.5s1.7-.1,2.6-.2v6.5c-1.4.2-3.2.3-4.8.3-5.1,0-9.5-1.2-9.5-7.2v-17.8h-5v-5.6h5v-9h8.3v9h-.1Z"/>
    <path d="M256.9,53h8.3v30.1h-8.3v-30.1ZM265.2,48.4h-8.3v-6.8h8.3v6.8Z"/>
    <path d="M276.7,73.4c.1,3.6,3.1,5.1,6.4,5.1s5.4-.9,5.4-3.8-3.4-3.4-9.4-4.7c-4.8-1.1-9.6-2.7-9.6-8.1,0-7.7,6.7-9.7,13.1-9.7s12.6,2.2,13.2,9.6h-7.8c-.2-3.2-2.7-4.1-5.6-4.1s-4.6.4-4.6,2.8,4.7,3.4,9.4,4.5c4.8,1.1,9.6,2.9,9.6,8.4,0,7.9-6.9,10.5-13.7,10.5s-13.8-2.6-14.2-10.6h7.8Z"/>
    <path d="M300.1,41.6h8.3v15.7h.2c2.1-3.4,5.7-5,8.8-5,8.8,0,11,4.9,11,12.4v18.5h-8.3v-17c0-4.9-1.5-7.4-5.3-7.4s-6.4,2.5-6.4,8.6v15.8h-8.3v-41.6h0Z"/>
    <path d="M346.5,48.7h10c4.1,0,6.3,1.8,6.3,5.8s-2.2,5.9-6.3,5.9h-10v-11.7ZM337.4,83.2h9.2v-16.2h9.2c4.6,0,6.3,1.9,6.9,6.3.5,3.3.4,7.3,1.5,10h9.2c-1.7-2.3-1.6-7.2-1.8-9.9-.3-4.2-1.6-8.6-6.1-9.7h0c4.6-2,6.6-5.6,6.6-10.5s-4.7-11.5-12.2-11.5h-22.4v41.5h-.1Z"/>
    <path d="M382.8,64.9c.1-2.3,1.6-6.4,6.9-6.4s5.8,2.2,6.6,6.4h-13.5ZM404.5,70.1c.6-9.3-4.4-17.9-14.6-17.9s-15.4,6.9-15.4,15.9,5.9,15.8,15.4,15.8,11.8-3,14.1-10.1h-7.3c-.5,1.9-3.2,3.9-6.5,3.9s-7.2-2.4-7.4-7.6h21.7Z"/>
    <path d="M430.2,68c0,5-1.6,9.7-7.1,9.7s-7.3-4.9-7.3-9.7,1.9-9.6,7.3-9.6c5.3.1,7.1,4.7,7.1,9.6M430.3,83.2h7.9v-41.6h-8.3v15.2h-.1.1c-1.9-3-5.4-4.5-9-4.5-8.9,0-13.3,7.5-13.3,15.6s4.4,16.1,13.5,16.1,7.2-1.4,9.1-4.7h.1v3.9h0Z"/>
    <path d="M474,55.6c-.6-4.2-4.5-7.3-9.1-7.3-8.2,0-11.3,7-11.3,14.3s3.1,13.9,11.3,13.9,8.7-3.8,9.4-9.3h8.9c-.9,10.4-8.1,17-18.3,17s-20.5-9.6-20.5-21.6,7.6-22,20.5-22,16.8,5.4,17.9,15h-8.8Z"/>
    <path d="M487.1,53h7.9v5.6h0c1.5-3.8,5.6-6.4,9.6-6.4s1.3.1,1.8.3v7.7c-.8-.2-2-.3-3-.3-6.1,0-8.2,4.4-8.2,9.7v13.6h-8.3v-30.2h.1Z"/>
    <path d="M515.8,68.1c0-4.8,1.7-9.7,7.3-9.7s7.3,4.8,7.3,9.7-1.7,9.6-7.3,9.6-7.3-4.8-7.3-9.6M507.5,68.1c0,9.5,6.1,15.8,15.6,15.8s15.6-6.3,15.6-15.8-6.1-15.9-15.6-15.9-15.6,6.3-15.6,15.9"/>
    <path d="M549.3,73.4c0,3.6,3.1,5.1,6.3,5.1s5.4-.9,5.4-3.8-3.4-3.4-9.4-4.7c-4.8-1.1-9.6-2.7-9.6-8.1,0-7.7,6.6-9.7,13.1-9.7s12.7,2.2,13.3,9.6h-7.9c-.2-3.2-2.7-4.1-5.7-4.1s-4.6.4-4.6,2.8,4.6,3.4,9.4,4.5c4.8,1.1,9.6,2.9,9.6,8.4,0,7.9-6.9,10.5-13.8,10.5s-13.8-2.6-14.1-10.6h8Z"/>
    <path d="M580,73.4c0,3.6,3.1,5.1,6.3,5.1s5.4-.9,5.4-3.8-3.4-3.4-9.4-4.7c-4.8-1.1-9.6-2.7-9.6-8.1,0-7.7,6.7-9.7,13.1-9.7s12.6,2.2,13.3,9.6h-7.9c-.2-3.2-2.7-4.1-5.7-4.1s-4.6.4-4.6,2.8,4.6,3.4,9.4,4.5c4.8,1.1,9.6,2.9,9.6,8.4,0,7.9-6.9,10.5-13.8,10.5s-13.8-2.6-14.1-10.6h8Z"/>
  </g>
</svg>