<svg width="155" height="36" viewBox="0 0 155 36" xmlns="http://www.w3.org/2000/svg" style="background:#fff"><g fill="#000" fill-rule="evenodd"><path d="M51.77 0h7.463L75 36h-8.46l-3.362-8.015h-15.56L44.25 36H36L51.77 0zm8.515 21.038l-4.89-11.59-4.889 11.59h9.78zM131.768 0h7.467L155 36h-8.462l-3.363-8.015h-15.56L124.246 36H116l15.768-36zm8.514 21.038l-4.888-11.59-4.886 11.59h9.774zM0 0h16.925c4.69 0 8.284 1.219 10.792 3.651 2.114 2.058 3.172 4.804 3.172 8.23v.103c0 2.91-.73 5.288-2.196 7.124-1.462 1.833-3.378 3.179-5.737 4.035L32 36h-9.52l-7.935-11.523H8.147V36H0V0zm16.396 17.484c2.008 0 3.553-.458 4.63-1.386 1.071-.924 1.614-2.161 1.614-3.703v-.102c0-1.717-.567-3-1.693-3.858-1.131-.858-2.699-1.285-4.71-1.285h-8.09v10.334h8.249zM80 0h14.39c2.884 0 5.529.456 7.932 1.362 2.406.909 4.484 2.17 6.223 3.783a16.83 16.83 0 0 1 4.031 5.682c.95 2.178 1.424 4.532 1.424 7.07v.104c0 2.54-.474 4.903-1.424 7.097a16.828 16.828 0 0 1-4.031 5.711c-1.74 1.61-3.817 2.878-6.223 3.804C99.919 35.538 97.274 36 94.39 36H80V0zm14.39 28.854c1.655 0 3.165-.26 4.535-.773 1.37-.517 2.534-1.253 3.502-2.21a10.386 10.386 0 0 0 2.271-3.397c.545-1.302.815-2.759.815-4.371V18c0-1.578-.27-3.034-.815-4.372-.547-1.336-1.303-2.486-2.271-3.446s-2.132-1.706-3.502-2.235c-1.37-.53-2.88-.798-4.535-.798h-6.271v21.704h6.27z"/></g></svg>
