<?xml version="1.0" encoding="UTF-8"?>
<svg id="layer" xmlns="http://www.w3.org/2000/svg" version="1.1" viewBox="0 0 500.3 500">
  <!-- Generator: Adobe Illustrator 30.2.1, SVG Export Plug-In . SVG Version: 2.1.1 Build 1)  -->
  <path d="M286,201.6c1.4-1.5,2-4.4,2-8.7s-.6-7.3-2-8.7c-1.2-1.4-3.7-2.1-7-2.1h-4.1v21.8h4c3.4,0,5.7-.7,7.1-2.3ZM133.6,181.6c-2.4,0-4,.6-4.9,1.7-.9,1.2-1.4,3.2-1.4,6v37.9c0,2.7.5,4.7,1.4,6,.9,1.2,2.6,1.7,4.9,1.7s4-.6,4.9-1.7c.9-1.2,1.4-3.2,1.4-6v-37.9c0-2.7-.5-4.7-1.4-6-.9-1.1-2.6-1.7-4.9-1.7ZM427.5,182.7h-7v63.5h-14v-63.5h-12.5v-12.4h28.1L346.1,0,0,154l70.5,158.5v-54.8h14v30.4h12.7v-30.4h14.2v75.9h-14v-33.1h-12.7v33.1h-4.7l74.2,166.4,346.1-154-72.8-163.3ZM102.6,242.1c-3.8,3.4-9,5.2-15.3,5.2s-10.8-2.1-14.5-6.3c-3.7-4.1-5.8-10.1-5.8-16v-.6l13.4-.2v.5c.5,3.7,1.1,5.6,2.4,7.5,1.4,1.8,3.1,2.7,5,2.7s3.8-.6,5-1.7,1.8-2.6,1.8-4.6c0-3.8-2.1-7.6-6.4-11.5-4.4-4-8.7-7.8-12.8-11.6-4.7-5.2-7-11-7-17.1s1.8-10.8,5.3-14.2,8.7-5,15.3-5,9.6,1.7,12.8,5c3.4,3.5,5.5,9.6,5.3,15v.6h-12.9v-.6c0-2.7-.6-4.7-1.8-6-1.2-1.2-2.7-1.8-4.4-1.8-4,0-6,2.3-6,6.7s2.1,6.7,6.3,10.7c4.3,4,8.7,7.9,12.8,11.8,4.7,5.3,7,11,7,16.8.3,6.4-1.7,11.3-5.5,14.7ZM218.9,170.3h35.7v12.4h-21.7v18.2h16.6v12.3h-16.6v20.8h23.2v12.4h-37.3v-76.1h.1ZM113.1,189.1c0-5.8,1.7-10.5,5.2-14.2s8.5-5.5,15.3-5.5,11.8,1.8,15.1,5.5c3.5,3.7,5.2,8.4,5.2,14.2v38.5c0,5.8-1.7,10.5-5.2,14.2-3.4,3.7-8.5,5.5-15.3,5.5s-11.8-1.8-15.1-5.5c-3.5-3.7-5.2-8.4-5.2-14.2v-38.5ZM157.6,315.1c0,5.8-1.7,10.5-5.2,14.2-3.4,3.7-8.5,5.5-15.3,5.5s-11.8-1.8-15.1-5.5c-3.5-3.7-5.2-8.4-5.2-14.2v-38.5c0-5.8,1.7-10.5,5.2-14.2s8.5-5.5,15.3-5.5,11.8,1.8,15.1,5.5c3.5,3.7,5.2,8.4,5.2,14.2v38.5ZM159.8,170.3h18l8.7,41.7,8.9-41.7h18v75.9h-12.4v-53.3l-10.8,53.3h-7.2l-10.7-53.3v53.3h-12.5v-75.9ZM204.1,314.3c0,6.4-1.8,11.6-5.3,15.1s-8.5,5.3-15,5.3-11.3-1.8-15-5.3-5.5-8.5-5.5-15.1v-56.5h14v56.9c0,5,2.1,7.6,6.3,7.6s6.3-2.4,6.3-7.6v-56.9h14v56.5h.2ZM244.1,329.6c-3.8,3.4-9,5.2-15.3,5.2s-10.8-2.1-14.5-6.3c-3.7-4.1-5.8-10.1-5.8-16v-.6l13.4-.2v.5c.5,3.7,1.1,5.6,2.4,7.5,1.4,1.8,3.1,2.7,5,2.7s3.8-.6,5-1.7,1.8-2.6,1.8-4.6c0-3.8-2.1-7.6-6.4-11.5-4.4-4-8.7-7.8-12.8-11.6-4.7-5.2-7-11-7-17.1s1.8-10.8,5.3-14.2c3.5-3.4,8.7-5,15.3-5s9.6,1.7,12.8,5c3.4,3.5,5.5,9.6,5.3,15v.6h-13.1v-.6c0-2.7-.6-4.7-1.8-6-1.2-1.2-2.7-1.8-4.4-1.8-4,0-6,2.3-6,6.7s2.1,6.7,6.3,10.7c4.3,4,8.7,7.9,12.8,11.8,4.7,5.3,7,11,7,16.8.5,6.3-1.5,11.2-5.3,14.7ZM292.2,333.7h-37.3v-75.9h35.7v12.4h-21.7v18.2h16.6v12.4h-16.6v20.8h23.2v12.1h.1ZM291.9,246.2l-14.2-30.8c-.3,0-.5,0-.6.2-.5.2-.8.2-2.3.2v30.7h-14v-75.9h18.8c7.6,0,13.3,1.8,16.9,5.3,3.7,3.5,5.5,9.3,5.5,17.4s-.9,9.9-2.6,13c-1.8,3.1-3.8,5.6-7.9,7.5l15.4,32.8-15-.4ZM341.7,242.1c-3.8,3.4-9,5.2-15.3,5.2s-10.8-2.1-14.5-6.3c-3.7-4.1-5.8-10.1-5.8-16v-.6l13.4-.2v.5c.5,3.7,1.1,5.6,2.4,7.5,1.4,1.8,3.1,2.7,5,2.7s3.8-.6,5-1.7,1.8-2.6,1.8-4.6c0-3.8-2.1-7.6-6.4-11.5-4.4-4-8.7-7.8-12.8-11.6-4.7-5.2-7-11-7-17.1s1.8-10.8,5.3-14.2,8.7-5,15.3-5,9.6,1.7,12.8,5c3.4,3.5,5.5,9.6,5.3,15v.6h-12.9v-.6c0-2.7-.6-4.7-1.8-6-1.2-1.2-2.7-1.8-4.4-1.8-4,0-6,2.3-6,6.7s2.1,6.7,6.3,10.7c4.3,4,8.7,7.9,12.8,11.8,4.7,5.3,7,11,7,16.8.3,6.4-1.7,11.3-5.5,14.7ZM389.6,246.2h-37.3v-75.9h35.7v12.4h-21.7v18.2h16.8v12.3h-16.8v20.8h23.2v12.2h0ZM137.1,322.4c2.4,0,4-.6,4.9-1.7.9-1.2,1.4-3.2,1.4-6v-37.9c0-2.7-.5-4.7-1.4-6-.9-1.2-2.6-1.7-4.9-1.7s-4,.6-4.9,1.7c-.9,1.2-1.4,3.2-1.4,6v37.9c0,2.7.5,4.7,1.4,6,.9,1.1,2.6,1.7,4.9,1.7Z"/>
</svg>