<?xml version="1.0" encoding="UTF-8"?>
<svg id="Layer_2" data-name="Layer 2" xmlns="http://www.w3.org/2000/svg" viewBox="0 0 277.56 147.06">
  <defs>
    <style>
      .cls-1 {
        fill: #f4eee3;
      }
    </style>
  </defs>
  <g id="Layer_1-2" data-name="Layer 1">
    <g>
      <path class="cls-1" d="M67.62,37.35c0-5.15-.79-9.84-2.37-14.07-1.57-4.23-3.84-7.87-6.8-10.92-2.96-3.05-6.54-5.41-10.73-7.08-4.2-1.66-8.9-2.5-14.12-2.5s-9.8.85-13.93,2.57c-4.14,1.71-7.66,4.09-10.6,7.15-2.93,3.05-5.17,6.64-6.73,10.74-1.55,4.11-2.34,8.55-2.34,13.33,0,5.15.79,9.84,2.37,14.07,1.57,4.23,3.84,7.87,6.82,10.92,2.98,3.05,6.55,5.41,10.71,7.08,4.17,1.66,8.86,2.5,14.07,2.5s9.79-.85,13.93-2.57c4.14-1.71,7.67-4.09,10.6-7.15,2.93-3.05,5.18-6.63,6.76-10.74,1.57-4.1,2.37-8.55,2.37-13.33ZM47.83,57.39c-.91,2.62-2.21,4.62-3.89,5.99-1.68,1.37-3.73,2.06-6.13,2.06-1.91,0-3.8-.7-5.67-2.11s-3.62-3.35-5.25-5.83c-1.63-2.48-3.08-5.37-4.33-8.68-1.24-3.3-2.23-6.88-2.94-10.73-.71-3.86-1.06-7.85-1.06-11.99,0-3.76.45-6.95,1.36-9.55.91-2.61,2.21-4.6,3.91-5.97,1.7-1.37,3.72-2.06,6.06-2.06,1.94,0,3.85.7,5.72,2.11,1.87,1.4,3.62,3.34,5.25,5.81,1.63,2.47,3.08,5.36,4.33,8.68s2.23,6.9,2.94,10.76c.71,3.86,1.06,7.84,1.06,11.94,0,3.77-.45,6.96-1.36,9.58Z"/>
      <path class="cls-1" d="M70.11,9.76l1.72.23c.55.12.96.38,1.2.76.25.38.38,1.02.38,1.92v48.04c0,1.08-.12,1.86-.35,2.34-.23.48-.6.82-1.09,1.04l-1.43.46c-.65.25-1.12.57-1.42.97-.29.4-.44.88-.44,1.43,0,.74.23,1.32.69,1.74.47.42,1.22.63,2.27.63h19.25c2.06,0,3.1-.83,3.1-2.5,0-.99-.5-1.72-1.48-2.22l-1.3-.51c-.53-.21-.9-.56-1.13-1.04-.23-.48-.35-1.27-.35-2.38v-9.33l3.58-2.82,8.41,12.33c.77,1.14,1.13,1.97,1.08,2.48-.05.51-.41.89-1.08,1.13l-1.16.46c-.53.27-.9.57-1.11.88-.22.31-.32.71-.32,1.21,0,.71.23,1.27.72,1.69.47.42,1.11.63,1.92.63h20.31c.87,0,1.56-.2,2.09-.6.52-.4.78-.93.78-1.57,0-.55-.19-1.06-.56-1.53-.37-.46-.9-.9-1.57-1.3-.8-.37-1.44-.76-1.92-1.18-.47-.42-1.02-1.06-1.64-1.92l-14.68-21.55,5.38-4.23c1.97-1.57,3.63-2.72,4.96-3.45,1.33-.73,2.79-1.29,4.39-1.69,1.39-.37,2.3-.79,2.73-1.25.43-.46.65-1.03.65-1.71,0-.71-.26-1.27-.78-1.67-.53-.4-1.25-.6-2.18-.6h-17.13c-.89,0-1.6.21-2.12.63-.53.41-.79.99-.79,1.73,0,.56.12,1.01.35,1.34.23.34.64.62,1.23.83l1.44.46c1.14.43,1.76,1.05,1.85,1.87.09.82-.39,1.65-1.44,2.48l-13.38,10.82V3.56c0-1.05-.31-1.91-.92-2.57-.62-.66-1.51-.99-2.69-.99-.8,0-1.63.11-2.47.35-.85.23-1.97.61-3.36,1.13l-9.39,3.56c-.96.37-1.61.74-1.97,1.11-.35.37-.53.88-.53,1.53,0,.53.13.96.39,1.3.26.34.7.6,1.32.79Z"/>
      <path class="cls-1" d="M149.8,46.67c-1.5-.29-3.2-.44-5.11-.44-6.55,0-11.64,1.21-15.28,3.63s-5.46,5.65-5.46,9.69c0,3.21,1.29,5.84,3.86,7.89,2.58,2.05,5.97,3.08,10.16,3.08,3.21,0,6.24-.62,9.09-1.87,2.18-.96,3.87-2.32,5.31-3.9.37,1.47,1.09,2.77,2.51,3.76,1.93,1.34,4.44,2.01,7.52,2.01,2.53,0,4.64-.45,6.34-1.36,1.69-.91,2.98-2.02,3.84-3.33.86-1.31,1.3-2.57,1.3-3.77,0-.52-.11-.96-.32-1.3-.22-.34-.56-.51-1.02-.51-.27,0-.52.08-.74.23s-.41.34-.6.55c-.28.28-.58.57-.9.88-.32.31-.78.46-1.36.46-.65,0-1.13-.21-1.45-.63-.32-.42-.49-.98-.49-1.69v-23.09c0-4.01-1.49-7.2-4.47-9.56-2.98-2.36-7.52-3.54-13.63-3.54-5.12,0-9.39.65-12.82,1.94-3.43,1.3-6,2.93-7.73,4.88-1.73,1.96-2.59,3.94-2.59,5.95,0,1.85.6,3.3,1.78,4.35,1.19,1.05,2.98,1.57,5.35,1.57,2.78,0,4.91-.61,6.41-1.83,1.5-1.22,2.24-2.94,2.24-5.16v-4.58c0-.87.4-1.59,1.21-2.18.8-.59,1.85-.88,3.14-.88,1.54,0,2.76.48,3.64,1.43.88.96,1.32,2.27,1.32,3.94v13.69c-.38-.1-.63-.26-1.04-.34ZM150.84,61.6c-.36.26-.6.62-1.02.83-1.18.59-2.4.88-3.66.88-1.69,0-3.06-.56-4.09-1.69-1.04-1.13-1.55-2.75-1.55-4.88s.58-3.73,1.73-4.88c1.16-1.16,2.76-1.74,4.79-1.74.99,0,1.89.11,2.71.32.35.09.72.29,1.08.42v10.73Z"/>
      <path class="cls-1" d="M222.08,28.76c.31-.39.46-.83.46-1.32,0-.74-.26-1.32-.78-1.73-.53-.42-1.25-.63-2.18-.63h-13.1c-.9,0-1.6.21-2.13.63-.52.41-.78.99-.78,1.73,0,.59.18,1.09.53,1.51.35.41.88.73,1.6.95l1.71.46c1.36.37,2.15,1.02,2.38,1.97.23.94-.04,2.37-.81,4.28l-8.21,20.48-9.06-21.22c-.83-1.94-1.13-3.31-.9-4.1.23-.79,1.01-1.35,2.34-1.69l1.48-.32c.75-.21,1.27-.51,1.6-.88.32-.37.49-.85.49-1.43,0-.74-.26-1.32-.79-1.73-.52-.42-1.24-.63-2.12-.63h-22.82c-.93,0-1.66.21-2.18.63-.53.41-.79.99-.79,1.73,0,.59.14,1.07.4,1.43.26.37.7.68,1.32.93,1.02.37,1.79.78,2.34,1.23.54.45,1.07,1.24,1.6,2.38l19.41,41.4-.07.15c-1.08,2.56-2,4.47-2.77,5.74-.78,1.27-1.45,2.09-2.04,2.48s-1.21.58-1.85.58-1.3-.29-1.87-.86c-.57-.57-1.03-1.38-1.37-2.43l-.78-1.99c-.71-1.85-1.56-3.32-2.55-4.41-.99-1.1-2.44-1.65-4.35-1.65s-3.43.66-4.58,2c-1.14,1.33-1.71,3.13-1.71,5.41,0,3.21,1.19,5.9,3.56,8.05,2.37,2.16,5.58,3.25,9.63,3.25,2.74,0,5.07-.5,6.97-1.48,1.9-.99,3.66-2.77,5.3-5.35,1.63-2.58,3.43-6.24,5.37-10.99l15.31-37.48c.75-1.85,1.5-3.17,2.27-3.98.77-.8,1.77-1.47,3.01-1.99.71-.34,1.22-.7,1.53-1.08Z"/>
      <path class="cls-1" d="M86.35,103.29c-.48,0-.85.19-1.12.55-.27.37-.54.79-.81,1.25-.27.47-.63.89-1.08,1.26-.45.37-1.07.55-1.87.55-1.04,0-1.85-.41-2.43-1.22-.57-.82-.86-1.99-.86-3.54v-16.61h4.69c1.56,0,2.69-.24,3.37-.72.68-.48,1.02-1.06,1.02-1.76,0-.48-.17-.84-.52-1.09-.34-.25-.81-.37-1.4-.37h-7.17v-6.45c0-.65-.15-1.16-.46-1.52-.3-.36-.73-.54-1.27-.54-.5,0-1.01.15-1.53.46-.52.3-1.08.78-1.66,1.43l-4.4,5.18c-.48.54-.9.92-1.25,1.12-.36.21-.77.31-1.22.31h-1.89c-.59,0-1.07.14-1.44.42-.37.28-.55.68-.55,1.21,0,.39.12.72.34.99.23.27.6.49,1.12.67l1.24.42c.52.19.9.43,1.12.72.23.28.34.73.34,1.34v16.8c0,3.13.88,5.47,2.64,7.02,1.76,1.55,4.23,2.33,7.4,2.33,2.1,0,3.98-.39,5.62-1.16,1.64-.77,2.93-1.8,3.86-3.1.93-1.29,1.4-2.71,1.4-4.25,0-.63-.12-1.08-.34-1.34-.23-.26-.52-.39-.9-.39Z"/>
      <path class="cls-1" d="M120.82,105.57c1.54-2.48,2.31-5.25,2.31-8.31,0-3.28-.74-6.16-2.22-8.65-1.47-2.49-3.54-4.42-6.2-5.82-2.66-1.39-5.75-2.08-9.27-2.08s-6.73.71-9.43,2.13c-2.7,1.42-4.82,3.36-6.37,5.81-1.54,2.45-2.31,5.26-2.31,8.4s.74,6.1,2.22,8.58c1.47,2.49,3.54,4.43,6.2,5.83,2.66,1.4,5.75,2.1,9.27,2.1s6.73-.72,9.43-2.15c2.7-1.43,4.82-3.38,6.37-5.86ZM111.68,103.17c-.1,1.9-.48,3.38-1.16,4.43-.67,1.05-1.59,1.69-2.74,1.9-1.21.22-2.35-.05-3.4-.81-1.06-.76-2-2.02-2.83-3.78-.84-1.76-1.53-3.99-2.07-6.71-.54-2.82-.77-5.18-.68-7.08.09-1.9.47-3.37,1.15-4.41.67-1.04,1.58-1.67,2.74-1.89,1.21-.24,2.35.03,3.42.8,1.06.77,2.01,2.03,2.83,3.78.83,1.75,1.51,3.99,2.05,6.72.57,2.8.8,5.15.7,7.05Z"/>
      <path class="cls-1" d="M176.48,140.03c-.96-.37-1.7-.98-2.24-1.83-.54-.85-1.09-2.18-1.65-4l-14.21-43.73c-.4-1.21-.53-2.08-.37-2.62.15-.54.63-.96,1.43-1.27.75-.31,1.3-.69,1.67-1.16.37-.46.55-1.05.55-1.76,0-.83-.27-1.48-.83-1.94-.56-.46-1.42-.69-2.59-.69h-26.24c-1.18,0-2.04.23-2.61.69-.57.46-.86,1.11-.86,1.94,0,.68.18,1.25.53,1.71s.96.88,1.83,1.25c1.11.46,1.75,1.04,1.92,1.73.17.7,0,1.85-.49,3.45l-13.32,41.7c-.65,2.07-1.24,3.51-1.76,4.33-.53.82-1.28,1.49-2.27,2.01l-1.21.6c-.74.4-1.26.81-1.54,1.22-.29.42-.44.92-.44,1.51,0,.8.29,1.44.86,1.92.57.48,1.42.72,2.57.72h14.67c1.18,0,2.03-.24,2.57-.72.54-.48.81-1.14.81-1.97,0-.65-.2-1.16-.58-1.55-.38-.39-.92-.73-1.6-1.04l-1.9-.6c-1.17-.58-2.03-1.17-2.57-1.76-.53-.58-.8-1.32-.78-2.2.02-.88.26-2.03.72-3.45l2.48-7.77h21.9l3.39,10.83c.43,1.33.69,2.29.76,2.89.08.6-.29,1.06-1.08,1.37l-2.09.6c-.74.31-1.3.67-1.66,1.08-.37.42-.56.95-.56,1.6,0,.83.28,1.49.84,1.97.55.48,1.42.72,2.59.72h22.45c1.17,0,2.04-.24,2.61-.72.56-.48.85-1.14.85-1.97,0-.71-.17-1.29-.53-1.74-.35-.44-1.02-.9-2.02-1.36ZM130.91,118.83l9.15-28.74,9.01,28.74h-18.16Z"/>
      <path class="cls-1" d="M212.7,119.64c-2.79-1.53-6.83-2.78-12.1-3.77-2.19-.43-3.83-.93-4.9-1.51-1.08-.57-1.79-1.2-2.13-1.9-.34-.69-.5-1.46-.5-2.29,0-1.36.51-2.49,1.54-3.4,1.04-.91,2.54-1.36,4.51-1.36,2.35,0,4.72.64,7.11,1.92,2.39,1.28,4.59,3.51,6.59,6.68.68.99,1.33,1.67,1.97,2.04.63.37,1.36.38,2.2.05.8-.31,1.29-.82,1.46-1.55.17-.72.13-1.76-.12-3.12l-1.85-8.38c-.18-.99-.47-1.69-.85-2.11-.38-.42-.87-.63-1.46-.63-.68,0-1.25.18-1.71.55-.47.37-.95.75-1.46,1.13-.5.39-1.14.58-1.92.58s-1.63-.19-2.47-.58c-.85-.38-1.94-.76-3.29-1.13-1.34-.37-3.13-.55-5.39-.55-3.52,0-6.62.6-9.3,1.78-2.69,1.19-4.8,2.86-6.34,5.02-1.54,2.16-2.31,4.69-2.31,7.59s.54,5.2,1.64,7.27c1.09,2.07,2.89,3.82,5.39,5.25,2.49,1.43,5.86,2.57,10.09,3.4,2.75.55,4.82,1.13,6.22,1.73,1.41.6,2.35,1.27,2.82,1.99.48.72.72,1.57.72,2.52,0,1.54-.58,2.78-1.76,3.7-1.18.93-2.95,1.39-5.33,1.39-1.79,0-3.54-.33-5.25-.99s-3.34-1.69-4.9-3.08c-1.56-1.39-3.04-3.19-4.42-5.42-.56-.89-1.16-1.49-1.81-1.78-.65-.29-1.4-.29-2.27.02-.83.31-1.33.87-1.5,1.69-.17.82-.05,1.92.35,3.31l2.77,8.7c.28.99.59,1.68.93,2.06.34.39.85.58,1.53.58s1.24-.18,1.66-.56c.44-.37.87-.73,1.32-1.08.45-.36,1.03-.53,1.74-.53.65,0,1.39.18,2.24.53.84.35,1.95.71,3.31,1.06,1.36.35,3.13.53,5.33.53,6.32,0,11.12-1.35,14.39-4.05,3.28-2.7,4.91-6.38,4.91-11.03,0-2.56-.53-4.87-1.6-6.92-1.07-2.05-3-3.84-5.78-5.37Z"/>
      <path class="cls-1" d="M277,142.11c-.37-.46-.9-.9-1.57-1.3-.8-.37-1.44-.76-1.92-1.18-.47-.42-1.02-1.06-1.64-1.92l-14.68-21.55,5.38-4.23c1.97-1.57,3.63-2.72,4.96-3.45,1.33-.73,2.79-1.29,4.39-1.69,1.39-.37,2.3-.79,2.73-1.25.43-.46.65-1.03.65-1.71,0-.71-.26-1.27-.78-1.67-.53-.4-1.25-.6-2.18-.6h-17.13c-.89,0-1.6.21-2.12.63-.53.41-.79.99-.79,1.73,0,.56.12,1.01.35,1.34.23.34.64.62,1.23.83l1.44.46c1.14.43,1.76,1.05,1.85,1.87.09.82-.39,1.65-1.44,2.48l-13.38,10.82v-41.69c0-1.05-.31-1.91-.92-2.57-.62-.66-1.51-.99-2.69-.99-.8,0-1.63.11-2.47.35-.85.23-1.97.61-3.36,1.13l-9.39,3.56c-.96.37-1.61.74-1.97,1.11-.35.37-.53.88-.53,1.53,0,.53.13.96.39,1.3.26.34.7.6,1.32.79l1.72.23c.55.12.96.38,1.2.76.25.38.38,1.02.38,1.92v48.04c0,1.08-.12,1.86-.35,2.34-.23.48-.6.82-1.09,1.04l-1.43.46c-.65.25-1.12.57-1.42.97-.29.4-.44.88-.44,1.43,0,.74.23,1.32.69,1.74.47.42,1.22.63,2.27.63h19.25c2.06,0,3.1-.83,3.1-2.5,0-.99-.5-1.72-1.48-2.22l-1.3-.51c-.53-.21-.9-.56-1.13-1.04-.23-.48-.35-1.27-.35-2.38v-9.33l3.58-2.82,8.41,12.33c.77,1.14,1.13,1.97,1.08,2.48-.05.51-.41.89-1.08,1.13l-1.16.46c-.53.27-.9.57-1.11.88-.22.31-.32.71-.32,1.21,0,.71.23,1.27.72,1.69.47.42,1.11.63,1.92.63h20.31c.87,0,1.56-.2,2.09-.6.52-.4.78-.93.78-1.57,0-.55-.19-1.06-.56-1.53Z"/>
    </g>
  </g>
</svg>